<?xml version="1.0" encoding="utf-8"?>
<!-- Generator: Adobe Illustrator 20.1.0, SVG Export Plug-In . SVG Version: 6.00 Build 0)  -->
<svg version="1.1" id="Layer_1" xmlns="http://www.w3.org/2000/svg" xmlns:xlink="http://www.w3.org/1999/xlink" x="0px" y="0px"
	 viewBox="0 0 960 240" style="enable-background:new 0 0 960 240;" xml:space="preserve">
<style type="text/css">
	.st0{fill:#F0F0F0;}
	.st1{fill:url(#SVGID_1_);}
	.st2{fill:#FFFFFF;}
	.st3{fill:#00CC00;}
	.st4{fill:#B92727;}
	.st5{fill:#C45DC5;}
	.st6{fill:none;stroke:#FFFFFF;stroke-linecap:round;stroke-linejoin:round;}
	.st7{fill:#0078D7;}
</style>
<g transform="matrix( 1, 0, 0, 1, 640,360) ">
	<g transform="matrix( 1, 0, 0, 1, -731.95,-358.65) ">
		<g>
			<g id="ExtensionsAndLayers_154_Layer5_0_FILL">
				<path class="st0" d="M756,38.54999c-10.60004-10.60001-23.41669-15.89999-38.45001-15.89999H426.34998
					c-15.03333,0-27.86664,5.29999-38.5,15.89999c-10.59998,10.63333-15.89996,23.46667-15.89996,38.5V160.25
					c0,15.03333,5.29999,27.85001,15.89996,38.45001c10.63336,10.63333,23.46667,15.94998,38.5,15.94998h291.20001
					c15.03333,0,27.84998-5.31665,38.45001-15.94998c10.6333-10.60001,15.95001-23.41669,15.95001-38.45001V77.04999
					C771.95001,62.01666,766.6333,49.18332,756,38.54999z"/>
			</g>
		</g>
	</g>
	<g transform="matrix( 1, 0, 0, 1, 0,64) ">
		<g transform="matrix( 1, 0, 0, 1, 0,0) ">
			<g transform="matrix( 1, 0, 0, 1, -640,-432) ">
				<g>
					<g id="SteamLayer_0_Layer0_0_FILL">
						
							<linearGradient id="SVGID_1_" gradientUnits="userSpaceOnUse" x1="544.68793" y1="-89.95393" x2="415.23798" y2="202.12109" gradientTransform="matrix(1 0 0 -1 0 248)">
							<stop  offset="0" style="stop-color:#262626"/>
							<stop  offset="1" style="stop-color:#296381"/>
						</linearGradient>
						<path class="st1" d="M640,184c0-5.33334-2.66669-8-8-8H328c-5.33334,0-8,2.66666-8,8v16c0,5.33334,2.66666,8,8,8h304
							c5.33331,0,8-2.66666,8-8V184z"/>
					</g>
				</g>
			</g>
			<g transform="matrix( 0.12030029296875, 0, 0, 0.120391845703125, -10,-14.6) ">
				<g>
					<g id="SteamLayer_0_Layer0_1_FILL">
						<path class="st2" d="M-1131.10779-1906.13806c-0.00012-12.23328-4.31677-22.66663-12.95007-31.29993
							c-8.66675-8.66663-19.1001-13-31.30005-13c-12.20007,0-22.6167,4.33337-31.25012,13c-8.66663,8.6333-13,19.06665-13,31.29993
							v0.55005l-28.50012,41.44995c-4.59998-0.2334-9.15002,0.56665-13.65002,2.3999
							c-1.96667,0.80005-3.78333,1.76672-5.44995,2.90002l-62.60022-25.79993l0.05005,14.1499
							c0.53333,10.90002,2.03333,20.05005,4.5,27.45007l44.25012,18.24988c1.1333,5.06665,3.34998,9.6001,6.65002,13.59998
							c3.3667,4.1001,7.51672,7.18335,12.44995,9.25c8.2334,3.43335,16.4834,3.43335,24.75012,0
							c8.2334-3.3999,14.06665-9.21667,17.5-17.44995c1.76672-4.23328,2.6001-8.66663,2.5-13.29993l40.80017-29.15002l1,0.05005
							c12.19995,0,22.6333-4.33337,31.30005-13C-1135.42456-1883.45471-1131.10791-1893.90479-1131.10779-1906.13806
							 M-1154.55786-1927.03809c5.76672,5.80005,8.65002,12.76672,8.65002,20.90002c0,8.16663-2.8833,15.1333-8.65002,20.90002
							c-5.7334,5.7666-12.66675,8.6499-20.80005,8.6499c-8.13342,0-15.08337-2.8833-20.8501-8.6499
							c-5.7666-5.80005-8.65002-12.76672-8.65002-20.90002s2.88342-15.09998,8.65002-20.90002
							c5.76672-5.7666,12.71667-8.6499,20.8501-8.6499C-1167.22461-1935.68799-1160.29126-1932.80469-1154.55786-1927.03809
							 M-1258.25818-1855.13806c2.93335-1.1001,5.95007-1.65002,9.05005-1.65002c3.20007,0.03333,6.30005,0.66663,9.30005,1.90002
							c3.09998,1.29993,5.80005,3.11658,8.09998,5.44995c2.33337,2.33337,4.1167,5.03333,5.3501,8.09998
							c1.2666,3.06665,1.8999,6.25,1.8999,9.54993c0,3.30005-0.6333,6.4834-1.8999,9.55005
							c-2.66675,6.3667-7.16675,10.86658-13.50012,13.5c-6.40002,2.59998-12.7666,2.58325-19.09998-0.05005
							c-2.8667-1.19995-5.41675-2.8833-7.65002-5.04993c-2.16675-2.06665-3.90002-4.46667-5.20007-7.20007l14.40002,6
							c4.70007,1.93335,9.38342,1.93335,14.05005,0c4.66675-1.93335,7.9834-5.23328,9.95007-9.8999
							c1.96667-4.70007,1.98328-9.40002,0.04993-14.09998c-1.93323-4.66675-5.23328-7.9834-9.90002-9.95007L-1258.25818-1855.13806
							 M-1153.20789-1906.18811c0-6.1333-2.15002-11.36658-6.44995-15.69995c-4.33337-4.33325-9.55005-6.5-15.65015-6.5
							c-6.1333,0-11.34998,2.16675-15.65002,6.5c-4.33325,4.33337-6.5,9.56665-6.5,15.69995c0,6.13342,2.16675,11.3667,6.5,15.70007
							c4.30005,4.33325,9.51672,6.5,15.65002,6.5c6.1001,0,11.31677-2.16675,15.65015-6.5
							C-1155.35791-1894.82141-1153.20789-1900.05469-1153.20789-1906.18811z"/>
					</g>
				</g>
			</g>
		</g>
	</g>
	<g transform="matrix( 1, 0, 0, 1, 0,16) ">
		<g transform="matrix( 1, 0, 0, 1, -640,-384) ">
			<g>
				<g id="ValidationLayer_0_Layer0_0_FILL">
					<path class="st3" d="M640,136c0-5.33334-2.66669-8-8-8H328c-5.33334,0-8,2.66666-8,8v16c0,5.33334,2.66666,8,8,8h304
						c5.33331,0,8-2.66666,8-8V136z"/>
				</g>
			</g>
		</g>
		<g transform="matrix( 0.1350250244140625, 0, 0, 0.1348724365234375, -14,-10.55) ">
			<g>
				<g id="ValidationLayer_0_Layer0_1_MEMBER_0_FILL">
					<path class="st2" d="M-977.61572-1761.36487l-17.5-18.1001l-124.84998,125.65039l-47.15002-47.15015l-17.84998,17.80005
						l56,56.00024c1.36658,1.29993,2.78333,2.34998,4.25,3.1499c1.69995,0.90002,3.25,1.3501,4.65002,1.3501
						c1.43323,0,2.98328-0.43335,4.6499-1.30005c1.53333-0.80005,2.91675-1.83337,4.15002-3.09998L-977.61572-1761.36487z"/>
				</g>
			</g>
		</g>
	</g>
	<g transform="matrix( 1, 0, 0, 1, 128,-48) ">
		<g transform="matrix( 1, 0, 0, 1, -768,-320) ">
			<g>
				<g id="BugExtension_0_Layer0_0_FILL">
					<path class="st4" d="M584,48c-5.33331,0-8,2.66666-8,8v48c0,5.33334,2.66669,8,8,8h48c5.33331,0,8-2.66666,8-8V56
						c0-5.33334-2.66669-8-8-8H584z"/>
				</g>
			</g>
		</g>
		<g transform="matrix( 0.062469482421875, 0, 0, 0.0625, -16,-15.2) ">
			<g>
				<g id="BugExtension_0_Layer0_1_FILL">
					<path class="st2" d="M-2209.31763-3744.25c0-12.96655-2.5-25.3833-7.5-37.25
						c-4.8667-11.46655-11.7334-21.6167-20.60034-30.44995c-8.83325-8.8335-19-15.66675-30.50024-20.5
						c-11.8999-5.03345-24.3501-7.55005-37.3501-7.55005c-13.03345,0-25.50024,2.5166-37.40039,7.55005
						c-11.4668,4.83325-21.63354,11.6665-30.50024,20.5c-8.8667,8.83325-15.7168,18.9834-20.55005,30.44995
						c-5.03345,11.8667-7.55005,24.28345-7.55005,37.25c0,10.7334,1.71655,21.1001,5.1499,31.1001l-1.3501,1.0498h-87.35059
						L-2513.77002-3828l-31.05029,7.80005l35.05029,140.09985h80.95068c-10.1001,13.5-18.2002,28.30005-24.30029,44.40015
						c-6.2334,16.56665-10.08325,33.80005-11.55005,51.69995h-96.60083v32h96.65088c1.8667,22.6001,7.4834,43.8999,16.8501,63.8999
						h-62.00049L-2544.82031-3348l31.05029,7.80005l28.9502-115.90015h56.20044
						c14.9668,19.90015,32.98364,35.41675,54.05054,46.55005c21.80005,11.53345,44.90015,17.30005,69.30054,17.30005
						c24.3667,0,47.4502-5.7666,69.25049-17.30005c21.06665-11.1665,39.0835-26.68335,54.05029-46.55005h56.20044l28.9502,115.90015
						L-2065.7666-3348l-35.05029-140.1001h-62.00049c9.3667-20,14.98364-41.2998,16.8501-63.8999h96.70093v-32h-96.65088
						c-1.46655-17.8999-5.31665-35.1333-11.55005-51.69995c-6.06665-16.1001-14.16675-30.90015-24.30029-44.40015h80.95068
						l35.05029-140.09985L-2096.81689-3828l-28.9502,115.8999h-87.35059l-1.3501-1.0498
						C-2211.03442-3723.1499-2209.31763-3733.5166-2209.31763-3744.25z"/>
				</g>
			</g>
		</g>
	</g>
	<g transform="matrix( 1, 0, 0, 1, 0,-48) ">
		<g transform="matrix( 1, 0, 0, 1, -640,-320) ">
			<g>
				<g id="SurfaceExtension_0_Layer1_0_FILL">
					<path class="st5" d="M512,56c0-5.33334-2.66669-8-8-8h-48c-5.33331,0-8,2.66666-8,8v48c0,5.33334,2.66669,8,8,8h48
						c5.33331,0,8-2.66666,8-8V56z"/>
				</g>
			</g>
		</g>
		<g transform="matrix( 1, 0, 0, 1, 0,0) ">
			<g>
				<g id="SurfaceExtension_0_Layer0_0_FILL">
					<path class="st2" d="M-176-260c0-0.56668-0.2-1.04999-0.60001-1.45001C-176.96666-261.81665-177.43333-262-178-262
						s-1.05,0.18335-1.45,0.54999c-0.36667,0.40002-0.55,0.88333-0.55,1.45001s0.18333,1.03333,0.55,1.39999
						C-179.05-258.20001-178.56667-258-178-258s1.03334-0.20001,1.39999-0.60001C-176.2-258.96667-176-259.43332-176-260 M-174-260
						c0,0.56668,0.18333,1.03333,0.55,1.39999C-173.05-258.20001-172.56667-258-172-258s1.03334-0.20001,1.39999-0.60001
						C-170.2-258.96667-170-259.43332-170-260s-0.2-1.04999-0.60001-1.45001C-170.96666-261.81665-171.43333-262-172-262
						s-1.05,0.18335-1.45,0.54999C-173.81667-261.04999-174-260.56668-174-260 M-164-260c0-0.56668-0.2-1.04999-0.60001-1.45001
						C-164.96666-261.81665-165.43333-262-166-262s-1.05,0.18335-1.45,0.54999c-0.36667,0.40002-0.55,0.88333-0.55,1.45001
						s0.18333,1.03333,0.55,1.39999C-167.05-258.20001-166.56667-258-166-258s1.03334-0.20001,1.39999-0.60001
						C-164.2-258.96667-164-259.43332-164-260z"/>
				</g>
			</g>
			<g>
				<path id="SurfaceExtension_0_Layer0_0_1_STROKES" class="st6" d="M-184-256h48l-46.2,37.8"/>
			</g>
		</g>
		<g transform="matrix( 1, 0, 0, 1, 0,48) ">
			<g>
				<path id="SurfaceExtension_0_Layer0_1_1_STROKES" class="st6" d="M-176-312h32c5.33333,0,8,2.66666,8,8v32
					c0,5.33334-2.66667,8-8,8h-32c-5.33333,0-8-2.66666-8-8v-32C-184-309.33334-181.33333-312-176-312z"/>
			</g>
		</g>
	</g>
	<g transform="matrix( 1, 0, 0, 1, -128,-48) ">
		<g transform="matrix( 1, 0, 0, 1, -512,-320) ">
			<g>
				<g id="WindowsExtension_0_Layer0_0_FILL">
					<path class="st7" d="M320,56v48c0,5.33334,2.66666,8,8,8h48c5.33331,0,8-2.66666,8-8V56c0-5.33334-2.66669-8-8-8h-48
						C322.66666,48,320,50.66666,320,56z"/>
				</g>
			</g>
		</g>
		<g transform="matrix( 0.100311279296875, 0, 0, 0.1003265380859375, -16,-16.05) ">
			<g>
				<g id="WindowsExtension_0_Layer0_1_MEMBER_0_MEMBER_0_MEMBER_0_FILL">
					<path class="st2" d="M-1276.03857-2223.17847l-173.10046-0.2998l0.20007,126.84937l172.90039,24.3999V-2223.17847
						 M-1464.73901-2224.37842l-130.20044-0.80005v108.74951l130.30042,17.8999L-1464.73901-2224.37842 M-1595.03943-2346.87769
						l0.19995,108.69946l130.30042-0.69995l-0.09998-125.79956L-1595.03943-2346.87769 M-1276.03857-2240.47827v-151.69922
						l-172.90039,25.19971v127.89941L-1276.03857-2240.47827z"/>
				</g>
			</g>
		</g>
	</g>
</g>
</svg>
