<?xml version="1.0" encoding="utf-8"?>
<!-- Generator: Adobe Illustrator 20.1.0, SVG Export Plug-In . SVG Version: 6.00 Build 0)  -->
<svg version="1.1" id="Layer_1" xmlns="http://www.w3.org/2000/svg" xmlns:xlink="http://www.w3.org/1999/xlink" x="0px" y="0px"
	 viewBox="0 0 1280 360" style="enable-background:new 0 0 1280 360;" xml:space="preserve">
<style type="text/css">
	.st0{fill:#F2F2F3;}
	.st1{fill:none;stroke:#333333;stroke-miterlimit:10;}
	.st2{fill:none;stroke:#333333;stroke-miterlimit:10;stroke-dasharray:102,2;}
	.st3{fill:#A9A8A9;}
	.st4{fill:#B3B4B4;}
	.st5{fill:#4D4D4E;}
	.st6{fill:#999999;}
	.st7{fill:#CCCCCB;}
	.st8{fill:#666766;}
	.st9{fill:#191919;}
	.st10{fill:#E6E6E6;}
	.st11{fill:#808080;}
	.st12{fill:#333333;}
	.st13{fill:none;stroke:#191919;stroke-width:2;stroke-miterlimit:10;stroke-dasharray:15.70385,15.70385;}
	.st14{fill:none;stroke:#808080;stroke-width:2;stroke-miterlimit:10;stroke-dasharray:17.27423,17.27423;}
	.st15{fill:none;stroke:url(#SVGID_1_);stroke-width:4;stroke-miterlimit:10;}
	.st16{fill:#F79420;}
	.st17{fill:none;stroke:#333333;stroke-width:12;stroke-miterlimit:10;stroke-dasharray:1.99867,3.99734;}
	.st18{fill:#074D56;}
	.st19{fill:#F2D683;}
	.st20{fill:#E5E8EE;}
	.st21{fill:#BFC0C1;}
	.st22{fill:#F9F9FA;}
	.st23{fill:#B2442B;}
</style>
<polygon points="890,205 898,173 892,143 894,139 884,113 892,101 852,101 782,101 706,99 598,101 596,101 574,101 492,99 488,107 
	488,111 488,173 488,235 488,239 492,247 512,246.51221 512,247 512,259 514,259 514,249 542,249 542,259 554,259 554,249 560,249 
	560,267 576,267 576,255 580,255 580,267 686,267 686,253 690,253 690,263 708,263 710,259 710,255 702,255 702,249.23529 852,251 
	852,247.71429 892,247 884,235 894,209 "/>
<circle class="st0" cx="784.50024" cy="173" r="25.99977"/>
<g>
	<g>
		<line class="st1" x1="692" y1="173.5" x2="668" y2="173.5"/>
		<line class="st2" x1="666" y1="173.5" x2="563" y2="173.5"/>
		<line class="st1" x1="562" y1="173.5" x2="538" y2="173.5"/>
	</g>
</g>
<g>
	<g>
		<line class="st1" x1="694" y1="179.5" x2="670" y2="179.5"/>
		<line class="st2" x1="668" y1="179.5" x2="565" y2="179.5"/>
		<line class="st1" x1="564" y1="179.5" x2="540" y2="179.5"/>
	</g>
</g>
<g>
	<g>
		<line class="st1" x1="694" y1="185.5" x2="670" y2="185.5"/>
		<line class="st2" x1="668" y1="185.5" x2="565" y2="185.5"/>
		<line class="st1" x1="564" y1="185.5" x2="540" y2="185.5"/>
	</g>
</g>
<g>
	<g>
		<line class="st1" x1="696" y1="191.5" x2="672" y2="191.5"/>
		<line class="st2" x1="670" y1="191.5" x2="567" y2="191.5"/>
		<line class="st1" x1="566" y1="191.5" x2="542" y2="191.5"/>
	</g>
</g>
<g>
	<g>
		<line class="st1" x1="698" y1="197.5" x2="674" y2="197.5"/>
		<line class="st2" x1="672" y1="197.5" x2="569" y2="197.5"/>
		<line class="st1" x1="568" y1="197.5" x2="544" y2="197.5"/>
	</g>
</g>
<g>
	<g>
		<line class="st1" x1="700" y1="203.5" x2="676" y2="203.5"/>
		<line class="st2" x1="674" y1="203.5" x2="571" y2="203.5"/>
		<line class="st1" x1="570" y1="203.5" x2="546" y2="203.5"/>
	</g>
</g>
<g>
	<g>
		<line class="st1" x1="694" y1="167.5" x2="670" y2="167.5"/>
		<line class="st2" x1="668" y1="167.5" x2="565" y2="167.5"/>
		<line class="st1" x1="564" y1="167.5" x2="540" y2="167.5"/>
	</g>
</g>
<g>
	<g>
		<line class="st1" x1="694" y1="161.5" x2="670" y2="161.5"/>
		<line class="st2" x1="668" y1="161.5" x2="565" y2="161.5"/>
		<line class="st1" x1="564" y1="161.5" x2="540" y2="161.5"/>
	</g>
</g>
<g>
	<g>
		<line class="st1" x1="696" y1="155.5" x2="672" y2="155.5"/>
		<line class="st2" x1="670" y1="155.5" x2="567" y2="155.5"/>
		<line class="st1" x1="566" y1="155.5" x2="542" y2="155.5"/>
	</g>
</g>
<g>
	<g>
		<line class="st1" x1="698" y1="149.5" x2="674" y2="149.5"/>
		<line class="st2" x1="672" y1="149.5" x2="569" y2="149.5"/>
		<line class="st1" x1="568" y1="149.5" x2="544" y2="149.5"/>
	</g>
</g>
<g>
	<g>
		<line class="st1" x1="700" y1="143.5" x2="676" y2="143.5"/>
		<line class="st2" x1="674" y1="143.5" x2="571" y2="143.5"/>
		<line class="st1" x1="570" y1="143.5" x2="546" y2="143.5"/>
	</g>
</g>
<g>
	<g>
	</g>
</g>
<polyline class="st3" points="488,235 544,219 536,173 488,173 488,235 "/>
<polyline class="st4" points="488,111 544,127 536,173 488,173 488,111 "/>
<polygon class="st5" points="516,123 534,131 536,129 "/>
<polygon points="528,173 534,131 536,129 530,173 536,217 534,215 "/>
<polygon class="st6" points="524,173 516,123 526,173 516,223 "/>
<polygon class="st5" points="704,247 728,239 784,237 836,241 780,249 "/>
<polygon class="st0" points="598,101 706,99 730,107 "/>
<polygon class="st0" points="892,101 884,113 838,109 "/>
<polygon class="st0" points="596,101 558,109 488,111 488,107 574,101 "/>
<polygon class="st0" points="702,209 706,213 682,227 "/>
<polygon class="st7" points="862,135 884,113 894,139 "/>
<polygon class="st7" points="862,213 884,235 836,241 "/>
<polygon class="st7" points="730,239 706,213 682,227 "/>
<polygon class="st7" points="568,111 598,101 730,107 "/>
<polygon class="st7" points="872,173 892,143 898,173 "/>
<polygon class="st5" points="862,135 892,143 894,139 "/>
<polygon class="st8" points="682,119 702,139 706,135 "/>
<polygon class="st9" points="784,237 824,219 862,213 836,241 "/>
<polygon class="st9" points="742,221 706,213 730,239 784,237 "/>
<polygon class="st8" points="894,209 884,235 862,213 "/>
<polygon class="st8" points="892,247 884,235 836,241 "/>
<polygon class="st10" points="890,205 862,213 894,209 "/>
<polygon class="st6" points="872,173 898,173 890,205 "/>
<polygon class="st5" points="550,219 558,237 488,235 "/>
<polygon class="st8" points="562,217 568,235 630,213 "/>
<polygon class="st7" points="630,213 702,209 682,227 "/>
<polygon class="st7" points="562,217 552,215 488,235 "/>
<polygon class="st7" points="782,101 892,101 838,109 "/>
<polygon class="st9" points="862,135 828,129 784,111 838,109 "/>
<polygon class="st6" points="862,135 838,109 884,113 "/>
<polygon class="st11" points="872,173 890,205 862,213 "/>
<polygon class="st10" points="862,135 892,143 872,173 "/>
<polygon class="st12" points="850,173 862,135 872,173 "/>
<polygon points="850,173 872,173 862,213 "/>
<polygon class="st9" points="706,135 730,107 784,111 738,129 "/>
<polygon class="st6" points="682,119 706,135 730,107 "/>
<polygon class="st6" points="630,133 682,119 702,139 "/>
<polygon class="st5" points="706,99 730,107 784,111 838,109 782,101 "/>
<polygon class="st12" points="694,173 706,135 716,173 "/>
<polygon points="694,173 716,173 706,213 "/>
<polygon class="st4" points="568,235 730,239 630,213 "/>
<polygon class="st4" points="568,111 730,107 630,133 "/>
<polygon class="st7" points="562,129 568,111 630,133 "/>
<polygon class="st11" points="492,99 488,107 574,101 "/>
<polygon class="st12" points="848,201 862,213 824,219 "/>
<polygon class="st12" points="718,201 706,213 742,221 "/>
<polygon class="st5" points="848,147 862,135 850,173 "/>
<polygon class="st5" points="718,147 716,173 706,135 "/>
<polygon class="st9" points="824,219 848,201 862,213 850,173 "/>
<polygon class="st9" points="742,221 718,201 706,213 716,173 "/>
<polygon class="st12" points="828,129 862,135 848,147 850,173 "/>
<polygon class="st12" points="716,173 718,147 706,135 738,129 "/>
<polygon class="st11" points="596,245 705,247 729,239 "/>
<polygon class="st6" points="596,245 558,237 488,235 488,239 574,245 "/>
<polygon class="st6" points="568,235 596,245 730,239 "/>
<polygon class="st11" points="492,247 488,239 574,245 "/>
<polygon class="st7" points="550,127 558,109 488,111 "/>
<polygon class="st6" points="562,129 552,131 488,111 "/>
<polygon class="st12" points="780,249 892,247 836,241 "/>
<g>
	
		<ellipse transform="matrix(0.37334 -0.92769 0.92769 0.37334 331.11865 836.18884)" class="st13" cx="784.4989" cy="173.00334" rx="19.99992" ry="19.99993"/>
</g>
<g>
	
		<ellipse transform="matrix(0.37334 -0.92769 0.92769 0.37334 331.11865 836.18896)" class="st14" cx="784.49896" cy="173.0034" rx="21.99991" ry="21.99989"/>
</g>
<linearGradient id="SVGID_1_" gradientUnits="userSpaceOnUse" x1="730" y1="187" x2="838" y2="187" gradientTransform="matrix(1 0 0 -1 0 360)">
	<stop  offset="0" style="stop-color:#4C4C4E"/>
	<stop  offset="0.20918" style="stop-color:#87888B"/>
	<stop  offset="0.29592" style="stop-color:#FFFFFF"/>
	<stop  offset="0.75" style="stop-color:#A0A2A5"/>
	<stop  offset="1" style="stop-color:#4C4C4E"/>
	<stop  offset="1" style="stop-color:#000000"/>
	<stop  offset="1" style="stop-color:#FFFFFF"/>
</linearGradient>
<circle class="st15" cx="784" cy="173" r="52"/>
<g>
	<rect x="560" y="257" class="st16" width="16" height="10"/>
	<rect x="512" y="257" class="st16" width="2" height="2"/>
	<rect x="542" y="257" class="st16" width="12" height="2"/>
	<polygon class="st16" points="690,257 690,263 708,263 710,259 710,257 	"/>
	<rect x="580" y="257" class="st16" width="106" height="10"/>
</g>
<g>
	<circle class="st17" cx="784" cy="173" r="42"/>
</g>
<path class="st18" d="M1148,130c0-2.20917,1.79077-4,4-4v-10h-104v10c2.20923,0,4,1.79083,4,4c0,2.20911-1.79077,4-4,4v86h104v-86
	C1149.79077,134,1148,132.20911,1148,130z"/>
<polygon class="st19" points="1050,218 1050,214 1054,218 "/>
<circle class="st19" cx="1051" cy="119" r="2"/>
<circle class="st19" cx="1063" cy="118" r="1"/>
<circle class="st19" cx="1066" cy="118" r="1"/>
<circle class="st19" cx="1064.5" cy="120" r="1"/>
<circle class="st19" cx="1067.5" cy="120" r="1"/>
<circle class="st19" cx="1069" cy="118" r="1"/>
<circle class="st19" cx="1072" cy="118" r="1"/>
<circle class="st19" cx="1070.5" cy="120" r="1"/>
<circle class="st19" cx="1073.5" cy="120" r="1"/>
<circle class="st19" cx="1075" cy="118" r="1"/>
<circle class="st19" cx="1078" cy="118" r="1"/>
<circle class="st19" cx="1076.5" cy="120" r="1"/>
<circle class="st19" cx="1079.5" cy="120" r="1"/>
<circle class="st19" cx="1081" cy="118" r="1"/>
<circle class="st19" cx="1084" cy="118" r="1"/>
<circle class="st19" cx="1082.5" cy="120" r="1"/>
<circle class="st19" cx="1085.5" cy="120" r="1"/>
<circle class="st19" cx="1087" cy="118" r="1"/>
<circle class="st19" cx="1090" cy="118" r="1"/>
<circle class="st19" cx="1088.5" cy="120" r="1"/>
<circle class="st19" cx="1091.5" cy="120" r="1"/>
<circle class="st19" cx="1093" cy="118" r="1"/>
<circle class="st19" cx="1096" cy="118" r="1"/>
<circle class="st19" cx="1094.5" cy="120" r="1"/>
<circle class="st19" cx="1097.5" cy="120" r="1"/>
<circle class="st19" cx="1099" cy="118" r="1"/>
<circle class="st19" cx="1102" cy="118" r="1"/>
<circle class="st19" cx="1100.5" cy="120" r="1"/>
<circle class="st19" cx="1103.5" cy="120" r="1"/>
<circle class="st19" cx="1105" cy="118" r="1"/>
<circle class="st19" cx="1108" cy="118" r="1"/>
<circle class="st19" cx="1106.5" cy="120" r="1"/>
<circle class="st19" cx="1109.5" cy="120" r="1"/>
<path class="st20" d="M1058,127v20c0,1.65686-1.34314,3-3,3l0,0c-1.65686,0-3,1.34314-3,3v30c0,1.65686,1.34314,3,3,3l0,0
	c1.65686,0,3,1.34314,3,3v20c0,1.65686,1.34314,3,3,3h78c1.65686,0,3-1.34314,3-3v-18c0-1.65686,1.34314-3,3-3l0,0
	c1.65686,0,3-1.34314,3-3v-32c0-1.65686-1.34314-3-3-3l0,0c-1.65686,0-3-1.34314-3-3v-20c0-1.65685-1.34314-3-3-3h-78
	C1059.34314,124,1058,125.34315,1058,127z"/>
<circle class="st21" cx="1060" cy="128" r="0"/>
<path class="st22" d="M1134,208h-68c-3.31372,0-6-2.68629-6-6v-70c0-3.31371,2.68628-6,6-6h68c3.31372,0,6,2.68629,6,6v70
	C1140,205.31371,1137.31372,208,1134,208z"/>
<path d="M123.5,248.5v10h12v-10h6v18h16v-12h4v12h106v-14h4v10h18l2-4v-4h-8v-5.76471l78.02188-0.21347
	c4.40973-0.01205,7.97812-3.59023,7.97812-7.99997V94.5c0-4.41828-3.58173-8-8-8h-290c-4.41828,0-8,3.58172-8,8v146
	c0,4.41827,3.58172,8,8,8H123.5z"/>
<rect x="141.5" y="256.5" class="st16" width="16" height="10"/>
<rect x="123.5" y="256.5" class="st16" width="12" height="2"/>
<polygon class="st16" points="271.5,256.5 271.5,262.5 289.5,262.5 291.5,258.5 291.5,256.5 "/>
<rect x="161.5" y="256.5" class="st16" width="106" height="10"/>
<rect x="69.5" y="188.5" class="st23" width="20" height="28"/>
<rect x="69.5" y="110.5" class="st23" width="20" height="72"/>
<path class="st12" d="M107.5,242.5h244c6.60001,0,12-5.39999,12-12v-126c0-6.6-5.39999-12-12-12h-244c-6.6,0-12,5.4-12,12v126
	C95.5,237.10001,100.9,242.5,107.5,242.5z"/>
<circle class="st8" cx="351.5" cy="102.5" r="4"/>
<circle class="st8" cx="353.5" cy="232.5" r="4"/>
<circle class="st8" cx="107.5" cy="102.5" r="4"/>
<circle class="st8" cx="107.5" cy="232.5" r="4"/>
<g id="g8429" transform="translate(0,600)">
	<path id="ellipse8455" class="st8" d="M246.50826-369.99863c0,0.55685-0.4514,1.00827-1.00826,1.00827l0,0
		c-0.55684,0-1.00826-0.45142-1.00826-1.00827l0,0c0-0.55685,0.4514-1.00824,1.00826-1.00824l0,0
		C246.05684-371.0069,246.50826-370.55548,246.50826-369.99863L246.50826-369.99863z M236.00964-369.99863
		c0,0.55685-0.45142,1.00827-1.00827,1.00827l0,0c-0.55684,0-1.00826-0.45142-1.00826-1.00827l0,0
		c0-0.55685,0.4514-1.00824,1.00826-1.00824l0,0C235.55821-371.0069,236.00964-370.55548,236.00964-369.99863L236.00964-369.99863z
		 M225.51102-369.99863c0,0.55685-0.45142,1.00827-1.00826,1.00827h-0.00002c-0.55684,0-1.00826-0.45142-1.00826-1.00827
		s0.45142-1.00824,1.00826-1.00824C225.0596-371.00687,225.51102-370.55548,225.51102-369.99863L225.51102-369.99863z
		 M215.01239-369.99863c0,0.55685-0.45142,1.00827-1.00826,1.00827l0,0c-0.55685,0-1.00826-0.45142-1.00826-1.00827
		s0.4514-1.00824,1.00826-1.00824C214.56097-371.00687,215.01239-370.55548,215.01239-369.99863L215.01239-369.99863z
		 M204.51376-369.99863c0,0.55685-0.4514,1.00827-1.00826,1.00827l0,0c-0.55684,0-1.00826-0.45142-1.00826-1.00827
		s0.45142-1.00824,1.00826-1.00824S204.51376-370.55548,204.51376-369.99863L204.51376-369.99863z M194.01515-369.99863
		c0,0.55685-0.45142,1.00827-1.00826,1.00827h-0.00002c-0.55684,0-1.00826-0.45142-1.00826-1.00827s0.45142-1.00824,1.00826-1.00824
		s1.00826,0.45139,1.00826,1.00824H194.01515z M183.51653-369.99863c0,0.55685-0.45142,1.00827-1.00826,1.00827h-0.00002
		c-0.55684,0-1.00826-0.45142-1.00826-1.00827s0.45142-1.00824,1.00826-1.00824c0.55685,0,1.00826,0.45139,1.00826,1.00824
		H183.51653z M173.0179-369.99863c0,0.55685-0.45142,1.00827-1.00826,1.00827l0,0c-0.55685,0-1.00827-0.45142-1.00827-1.00827l0,0
		c0-0.55685,0.45142-1.00824,1.00826-1.00824c0.00002,0,0.00002,0,0.00002,0
		C172.56648-371.0069,173.0179-370.55548,173.0179-369.99863L173.0179-369.99863L173.0179-369.99863z M162.51927-369.99863
		c0,0.55685-0.45142,1.00827-1.00826,1.00827l0,0c-0.55685,0-1.00827-0.45142-1.00827-1.00827l0,0
		c0-0.55685,0.45142-1.00824,1.00827-1.00824l0,0C162.06786-371.0069,162.51927-370.55548,162.51927-369.99863L162.51927-369.99863
		L162.51927-369.99863z M152.02065-369.99863c0,0.55685-0.4514,1.00827-1.00826,1.00827l0,0
		c-0.55684,0-1.00826-0.45142-1.00826-1.00827l0,0c0-0.55685,0.4514-1.00824,1.00826-1.00824l0,0
		C151.56923-371.0069,152.02065-370.55548,152.02065-369.99863L152.02065-369.99863L152.02065-369.99863z M141.52203-369.99863
		c0,0.55685-0.45142,1.00827-1.00826,1.00827c-0.00002,0-0.00002,0-0.00002,0c-0.55684,0-1.00826-0.45142-1.00826-1.00827l0,0
		c0-0.55685,0.45142-1.00824,1.00826-1.00824l0,0c0.55685,0,1.00826,0.45139,1.00826,1.00824l0,0H141.52203z M131.02341-369.99863
		c0,0.55685-0.45142,1.00827-1.00826,1.00827c0,0,0,0-0.00002,0c-0.55684,0-1.00826-0.45142-1.00826-1.00827l0,0
		c0-0.55685,0.45142-1.00824,1.00826-1.00824l0,0C130.57199-371.00687,131.02341-370.55548,131.02341-369.99863L131.02341-369.99863
		L131.02341-369.99863z M120.52478-369.99863c0,0.55685-0.45141,1.00827-1.00826,1.00827h-0.00001
		c-0.55685,0-1.00826-0.45142-1.00826-1.00827s0.45141-1.00824,1.00826-1.00824S120.52478-370.55548,120.52478-369.99863
		L120.52478-369.99863z M246.50826-380.49725c0,0.55685-0.4514,1.00827-1.00826,1.00827l0,0
		c-0.55684,0-1.00826-0.45142-1.00826-1.00827l0,0c0-0.55685,0.4514-1.00824,1.00826-1.00824l0,0
		C246.05684-381.50549,246.50826-381.05411,246.50826-380.49725L246.50826-380.49725z M236.00964-380.49725
		c0,0.55685-0.45142,1.00827-1.00827,1.00827l0,0c-0.55684,0-1.00826-0.45142-1.00826-1.00827l0,0
		c0-0.55685,0.4514-1.00824,1.00826-1.00824l0,0C235.55821-381.50549,236.00964-381.05411,236.00964-380.49725L236.00964-380.49725z
		 M225.51102-380.49725c0,0.55685-0.45142,1.00827-1.00826,1.00827h-0.00002c-0.55684,0-1.00826-0.45142-1.00826-1.00827
		c0-0.55682,0.45142-1.00824,1.00826-1.00824C225.0596-381.50549,225.51102-381.05408,225.51102-380.49725L225.51102-380.49725z
		 M215.01239-380.49725c0,0.55685-0.45142,1.00827-1.00826,1.00827l0,0c-0.55685,0-1.00826-0.45142-1.00826-1.00827
		c0-0.55682,0.4514-1.00824,1.00826-1.00824C214.56097-381.50549,215.01239-381.05408,215.01239-380.49725L215.01239-380.49725z
		 M204.51376-380.49725c0,0.55685-0.4514,1.00827-1.00826,1.00827l0,0c-0.55684,0-1.00826-0.45142-1.00826-1.00827
		c0-0.55682,0.45142-1.00824,1.00826-1.00824S204.51376-381.05408,204.51376-380.49725L204.51376-380.49725z M194.01515-380.49725
		c0,0.55685-0.45142,1.00827-1.00826,1.00827h-0.00002c-0.55684,0-1.00826-0.45142-1.00826-1.00827
		c0-0.55682,0.45142-1.00824,1.00826-1.00824s1.00826,0.45142,1.00826,1.00824H194.01515z M183.51653-380.49725
		c0,0.55685-0.45142,1.00827-1.00826,1.00827h-0.00002c-0.55684,0-1.00826-0.45142-1.00826-1.00827
		c0-0.55682,0.45142-1.00824,1.00826-1.00824c0.55685,0,1.00826,0.45142,1.00826,1.00824H183.51653z M173.0179-380.49725
		c0,0.55685-0.45142,1.00827-1.00826,1.00827l0,0c-0.55685,0-1.00827-0.45142-1.00827-1.00827l0,0
		c0-0.55685,0.45142-1.00824,1.00827-1.00824l0,0C172.56648-381.50549,173.0179-381.05411,173.0179-380.49725L173.0179-380.49725
		L173.0179-380.49725z M162.51927-380.49725c0,0.55685-0.4514,1.00827-1.00826,1.00827l0,0
		c-0.55685,0-1.00827-0.45142-1.00827-1.00827l0,0c0-0.55685,0.45142-1.00824,1.00827-1.00824l0,0
		C162.06786-381.50549,162.51927-381.05411,162.51927-380.49725L162.51927-380.49725L162.51927-380.49725z M152.02065-380.49725
		c0,0.55685-0.4514,1.00827-1.00826,1.00827l0,0c-0.55684,0-1.00826-0.45142-1.00826-1.00827l0,0
		c0-0.55685,0.45142-1.00824,1.00826-1.00824l0,0C151.56923-381.50549,152.02065-381.05411,152.02065-380.49725L152.02065-380.49725
		L152.02065-380.49725z M141.52203-380.49725c0,0.55685-0.45142,1.00827-1.00826,1.00827c-0.00002,0-0.00002,0-0.00002,0
		c-0.55684,0-1.00826-0.45142-1.00826-1.00827l0,0c0-0.55685,0.45142-1.00824,1.00826-1.00824
		c0.55685,0,1.00826,0.45139,1.00826,1.00824H141.52203z M131.02341-380.49725c0,0.55685-0.45142,1.00827-1.00826,1.00827
		c0,0,0,0-0.00002,0c-0.55684,0-1.00826-0.45142-1.00826-1.00827l0,0c0-0.55685,0.45142-1.00824,1.00826-1.00824
		C130.57199-381.50549,131.02341-381.05411,131.02341-380.49725L131.02341-380.49725z M120.52478-380.49725
		c0,0.55685-0.45142,1.00827-1.00826,1.00827l0,0c-0.55685,0-1.00826-0.45142-1.00826-1.00827l0,0
		c0-0.55682,0.45142-1.00824,1.00826-1.00824S120.52478-381.05408,120.52478-380.49725z M246.50826-390.99588
		c0,0.55685-0.4514,1.00827-1.00826,1.00827l0,0c-0.55684,0-1.00826-0.45142-1.00826-1.00827l0,0
		c0-0.55682,0.4514-1.00824,1.00826-1.00824l0,0C246.05684-392.00412,246.50826-391.55273,246.50826-390.99588L246.50826-390.99588z
		 M236.00964-390.99588c0,0.55685-0.45142,1.00827-1.00827,1.00827l0,0c-0.55684,0-1.00826-0.45142-1.00826-1.00827l0,0
		c0-0.55682,0.4514-1.00824,1.00826-1.00824l0,0C235.55821-392.00412,236.00964-391.55273,236.00964-390.99588L236.00964-390.99588z
		 M225.51102-390.99588c0,0.55685-0.45142,1.00827-1.00826,1.00827h-0.00002c-0.55684,0-1.00826-0.45142-1.00826-1.00827
		c0-0.55682,0.45142-1.00824,1.00826-1.00824C225.0596-392.00412,225.51102-391.5527,225.51102-390.99588L225.51102-390.99588z
		 M215.01239-390.99588c0,0.55685-0.45142,1.00827-1.00826,1.00827l0,0c-0.55685,0-1.00826-0.45142-1.00826-1.00827
		c0-0.55682,0.4514-1.00824,1.00826-1.00824C214.56097-392.00412,215.01239-391.5527,215.01239-390.99588L215.01239-390.99588z
		 M204.51376-390.99588c0,0.55685-0.4514,1.00827-1.00826,1.00827l0,0c-0.55684,0-1.00826-0.45142-1.00826-1.00827
		c0-0.55682,0.45142-1.00824,1.00826-1.00824S204.51376-391.5527,204.51376-390.99588L204.51376-390.99588z M194.01515-390.99588
		c0,0.55685-0.45142,1.00827-1.00826,1.00827h-0.00002c-0.55684,0-1.00826-0.45142-1.00826-1.00827
		c0-0.55682,0.45142-1.00824,1.00826-1.00824s1.00826,0.45142,1.00826,1.00824H194.01515z M183.51653-390.99588
		c0,0.55685-0.45142,1.00827-1.00826,1.00827h-0.00002c-0.55684,0-1.00826-0.45142-1.00826-1.00827
		c0-0.55682,0.45142-1.00824,1.00826-1.00824c0.55685,0,1.00826,0.45142,1.00826,1.00824H183.51653z M173.0179-390.99588
		c0,0.55685-0.45142,1.00827-1.00826,1.00827l0,0c-0.55685,0-1.00827-0.45142-1.00827-1.00827l0,0
		c0-0.55682,0.45142-1.00824,1.00826-1.00824c0.00002,0,0.00002,0,0.00002,0
		C172.56648-392.00412,173.0179-391.5527,173.0179-390.99588L173.0179-390.99588L173.0179-390.99588z M162.51927-390.99588
		c0,0.55685-0.4514,1.00827-1.00826,1.00827l0,0c-0.55685,0-1.00827-0.45142-1.00827-1.00827l0,0
		c0-0.55682,0.45142-1.00824,1.00827-1.00824l0,0C162.06786-392.00412,162.51927-391.5527,162.51927-390.99588L162.51927-390.99588
		L162.51927-390.99588z M152.02065-390.99588c0,0.55685-0.4514,1.00827-1.00826,1.00827l0,0
		c-0.55684,0-1.00826-0.45142-1.00826-1.00827l0,0c0-0.55682,0.4514-1.00824,1.00826-1.00824l0,0
		C151.56923-392.00412,152.02065-391.5527,152.02065-390.99588L152.02065-390.99588L152.02065-390.99588z M141.52203-390.99588
		c0,0.55685-0.45142,1.00827-1.00826,1.00827c-0.00002,0-0.00002,0-0.00002,0c-0.55684,0-1.00826-0.45142-1.00826-1.00827l0,0
		c0-0.55682,0.45142-1.00824,1.00826-1.00824l0,0c0.55685,0,1.00826,0.45142,1.00826,1.00824l0,0H141.52203z M131.02341-390.99588
		c0,0.55685-0.45142,1.00827-1.00826,1.00827c0,0,0,0-0.00002,0c-0.55684,0-1.00826-0.45142-1.00826-1.00827l0,0
		c0-0.55682,0.45142-1.00824,1.00826-1.00824l0,0C130.57199-392.00412,131.02341-391.5527,131.02341-390.99588L131.02341-390.99588
		L131.02341-390.99588z M120.52478-390.99588c0,0.55685-0.45141,1.00827-1.00826,1.00827c0,0,0,0-0.00001,0
		c-0.55685,0-1.00826-0.45142-1.00826-1.00827l0,0c0-0.55682,0.45141-1.00824,1.00826-1.00824l0,0
		C120.07336-392.00412,120.52478-391.5527,120.52478-390.99588L120.52478-390.99588L120.52478-390.99588z M246.50826-401.49451
		c0,0.55685-0.4514,1.00827-1.00824,1.00827c-0.00002,0-0.00002,0-0.00002,0c-0.55684,0-1.00826-0.45142-1.00826-1.00824
		c0,0,0,0,0-0.00003c0-0.55682,0.4514-1.00824,1.00824-1.00824c0.00002,0,0.00002,0,0.00002,0
		C246.05684-402.50275,246.50826-402.05136,246.50826-401.49451L246.50826-401.49451z M236.00964-401.49451
		c0,0.55685-0.45142,1.00827-1.00826,1.00827c-0.00002,0-0.00002,0-0.00002,0c-0.55684,0-1.00826-0.45142-1.00826-1.00824
		c0,0,0,0,0-0.00003c0-0.55682,0.4514-1.00824,1.00824-1.00824c0.00002,0,0.00002,0,0.00002,0
		C235.55821-402.50275,236.00964-402.05136,236.00964-401.49451L236.00964-401.49451z M225.51102-401.49451
		c0,0.55685-0.45142,1.00827-1.00826,1.00827h-0.00002c-0.55684,0-1.00826-0.45142-1.00826-1.00827l0,0
		c0-0.55682,0.45142-1.00824,1.00826-1.00824l0,0C225.0596-402.50275,225.51102-402.05133,225.51102-401.49451L225.51102-401.49451
		L225.51102-401.49451z M215.01239-401.49451c0,0.55685-0.4514,1.00827-1.00826,1.00827l0,0
		c-0.55685,0-1.00826-0.45142-1.00826-1.00827l0,0c0-0.55682,0.4514-1.00824,1.00826-1.00824l0,0
		C214.56097-402.50275,215.01239-402.05133,215.01239-401.49451L215.01239-401.49451L215.01239-401.49451z M204.51376-401.49451
		c0,0.55685-0.4514,1.00827-1.00826,1.00827l0,0c-0.55684,0-1.00826-0.45142-1.00826-1.00827l0,0
		c0-0.55682,0.4514-1.00824,1.00826-1.00824l0,0C204.06235-402.50275,204.51376-402.05133,204.51376-401.49451L204.51376-401.49451
		L204.51376-401.49451z M194.01515-401.49451c0,0.55685-0.45142,1.00827-1.00826,1.00827h-0.00002
		c-0.55684,0-1.00826-0.45142-1.00826-1.00827l0,0c0-0.55682,0.4514-1.00824,1.00826-1.00824l0,0
		c0.55684,0,1.00826,0.45142,1.00826,1.00824l0,0H194.01515z M183.51653-401.49451c0,0.55685-0.45142,1.00827-1.00826,1.00827
		h-0.00002c-0.55684,0-1.00826-0.45142-1.00826-1.00827l0,0c0-0.55682,0.45142-1.00824,1.00826-1.00824l0,0
		c0.55685,0,1.00826,0.45142,1.00826,1.00824l0,0H183.51653z M173.0179-401.49451c0,0.55685-0.45142,1.00827-1.00826,1.00827l0,0
		c-0.55685,0-1.00827-0.45142-1.00827-1.00824v-0.00003c0-0.55682,0.45142-1.00824,1.00826-1.00824h0.00002
		C172.56648-402.50275,173.0179-402.05133,173.0179-401.49451L173.0179-401.49451L173.0179-401.49451z M162.51927-401.49451
		c0,0.55685-0.4514,1.00827-1.00826,1.00827l0,0c-0.55685,0-1.00827-0.45142-1.00827-1.00824v-0.00003
		c0-0.55682,0.45142-1.00824,1.00827-1.00824l0,0C162.06786-402.50275,162.51927-402.05133,162.51927-401.49451L162.51927-401.49451
		L162.51927-401.49451z M152.02065-401.49451c0,0.55685-0.4514,1.00827-1.00826,1.00827l0,0
		c-0.55684,0-1.00826-0.45142-1.00826-1.00824v-0.00003c0-0.55682,0.4514-1.00824,1.00826-1.00824l0,0
		C151.56923-402.50275,152.02065-402.05133,152.02065-401.49451L152.02065-401.49451L152.02065-401.49451z M141.52203-401.49451
		c0,0.55685-0.45142,1.00827-1.00826,1.00827h-0.00002c-0.55684,0-1.00826-0.45142-1.00826-1.00824c0-0.00003,0-0.00003,0-0.00003
		c0-0.55682,0.45142-1.00824,1.00826-1.00824l0,0c0.55685,0,1.00826,0.45142,1.00826,1.00824l0,0H141.52203z M131.02341-401.49451
		c0,0.55685-0.45142,1.00827-1.00826,1.00827c0,0,0,0-0.00002,0c-0.55684,0-1.00826-0.45142-1.00826-1.00824
		c0-0.00003,0-0.00003,0-0.00003c0-0.55682,0.45142-1.00824,1.00826-1.00824l0,0
		C130.57199-402.50275,131.02341-402.05133,131.02341-401.49451L131.02341-401.49451L131.02341-401.49451z M120.52478-401.49451
		c0,0.55685-0.45141,1.00827-1.00826,1.00827c0,0,0,0-0.00001,0c-0.55685,0-1.00826-0.45142-1.00826-1.00824
		c0-0.00003,0-0.00003,0-0.00003c0-0.55682,0.45141-1.00824,1.00826-1.00824l0,0
		C120.07336-402.50275,120.52478-402.05133,120.52478-401.49451L120.52478-401.49451L120.52478-401.49451z M246.50826-411.9931
		c0,0.55682-0.4514,1.00824-1.00824,1.00824c-0.00002,0-0.00002,0-0.00002,0c-0.55684,0-1.00826-0.45142-1.00826-1.00824l0,0
		c0-0.55685,0.4514-1.00827,1.00824-1.00827c0.00002,0,0.00002,0,0.00002,0c0.55684,0,1.00826,0.45142,1.00826,1.00824
		C246.50826-411.99313,246.50826-411.99313,246.50826-411.9931z M236.00964-411.9931c0,0.55682-0.45142,1.00824-1.00826,1.00824
		c-0.00002,0-0.00002,0-0.00002,0c-0.55684,0-1.00826-0.45142-1.00826-1.00824l0,0c0-0.55685,0.4514-1.00827,1.00824-1.00827
		c0.00002,0,0.00002,0,0.00002,0c0.55684,0,1.00827,0.45142,1.00827,1.00824
		C236.00964-411.99313,236.00964-411.99313,236.00964-411.9931z M225.51102-411.9931c0,0.55682-0.45142,1.00824-1.00826,1.00824
		h-0.00002c-0.55684,0-1.00826-0.45142-1.00826-1.00824l0,0c0-0.55685,0.45142-1.00827,1.00826-1.00827l0,0
		C225.0596-413.00137,225.51102-412.54996,225.51102-411.9931L225.51102-411.9931L225.51102-411.9931z M215.01239-411.9931
		c0,0.55682-0.4514,1.00824-1.00826,1.00824l0,0c-0.55685,0-1.00826-0.45142-1.00826-1.00824l0,0
		c0-0.55685,0.4514-1.00827,1.00826-1.00827l0,0C214.56097-413.00137,215.01239-412.54996,215.01239-411.9931L215.01239-411.9931
		L215.01239-411.9931z M204.51376-411.9931c0,0.55682-0.4514,1.00824-1.00826,1.00824l0,0
		c-0.55684,0-1.00826-0.45142-1.00826-1.00824l0,0c0-0.55685,0.4514-1.00827,1.00826-1.00827l0,0
		C204.06235-413.00137,204.51376-412.54996,204.51376-411.9931L204.51376-411.9931L204.51376-411.9931z M194.01515-411.9931
		c0,0.55682-0.45142,1.00824-1.00826,1.00824h-0.00002c-0.55684,0-1.00826-0.45142-1.00826-1.00824l0,0
		c0-0.55685,0.4514-1.00827,1.00826-1.00827l0,0c0.55684,0,1.00826,0.45142,1.00826,1.00827l0,0H194.01515z M183.51653-411.9931
		c0,0.55682-0.45142,1.00824-1.00826,1.00824h-0.00002c-0.55684,0-1.00826-0.45142-1.00826-1.00824l0,0
		c0-0.55685,0.45142-1.00827,1.00826-1.00827l0,0c0.55685,0,1.00826,0.45142,1.00826,1.00827l0,0H183.51653z M173.0179-411.9931
		c0,0.55682-0.45142,1.00824-1.00826,1.00824l0,0c-0.55685,0-1.00827-0.45142-1.00827-1.00824l0,0
		c0-0.55685,0.45142-1.00827,1.00826-1.00827h0.00002c0.55684,0,1.00826,0.45142,1.00826,1.00824V-411.9931L173.0179-411.9931z
		 M162.51927-411.9931c0,0.55682-0.4514,1.00824-1.00826,1.00824l0,0c-0.55685,0-1.00827-0.45142-1.00827-1.00824l0,0
		c0-0.55685,0.45142-1.00827,1.00827-1.00827l0,0c0.55684,0,1.00826,0.45142,1.00826,1.00824V-411.9931L162.51927-411.9931z
		 M152.02065-411.9931c0,0.55682-0.4514,1.00824-1.00826,1.00824l0,0c-0.55684,0-1.00826-0.45142-1.00826-1.00824l0,0
		c0-0.55685,0.4514-1.00827,1.00826-1.00827l0,0c0.55684,0,1.00826,0.45142,1.00826,1.00824V-411.9931L152.02065-411.9931z
		 M141.52203-411.9931c0,0.55682-0.45142,1.00824-1.00826,1.00824h-0.00002c-0.55684,0-1.00826-0.45142-1.00826-1.00824l0,0
		c0-0.55685,0.45142-1.00827,1.00826-1.00827l0,0c0.55685,0,1.00826,0.45142,1.00826,1.00824c0,0.00003,0,0.00003,0,0.00003
		H141.52203z M131.02341-411.9931c0,0.55682-0.45142,1.00824-1.00826,1.00824c0,0,0,0-0.00002,0
		c-0.55684,0-1.00826-0.45142-1.00826-1.00824l0,0c0-0.55685,0.45142-1.00827,1.00826-1.00827l0,0
		c0.55685,0,1.00827,0.45142,1.00827,1.00824C131.02341-411.9931,131.02341-411.9931,131.02341-411.9931L131.02341-411.9931z
		 M120.52478-411.9931c0,0.55682-0.45141,1.00824-1.00826,1.00824c0,0,0,0-0.00001,0c-0.55685,0-1.00826-0.45142-1.00826-1.00824
		l0,0c0-0.55685,0.45141-1.00827,1.00826-1.00827l0,0c0.55685,0,1.00826,0.45142,1.00826,1.00824
		C120.52478-411.9931,120.52478-411.9931,120.52478-411.9931L120.52478-411.9931z M246.50826-422.49173
		c0,0.55682-0.4514,1.00824-1.00824,1.00824c-0.00002,0-0.00002,0-0.00002,0c-0.55684,0-1.00826-0.45139-1.00826-1.00824l0,0
		c0-0.55685,0.4514-1.00827,1.00824-1.00827c0.00002,0,0.00002,0,0.00002,0c0.55684,0,1.00826,0.45142,1.00826,1.00824
		C246.50826-422.49173,246.50826-422.49173,246.50826-422.49173z M236.00964-422.49173c0,0.55682-0.45142,1.00824-1.00826,1.00824
		c-0.00002,0-0.00002,0-0.00002,0c-0.55684,0-1.00826-0.45139-1.00826-1.00824l0,0c0-0.55685,0.4514-1.00827,1.00824-1.00827
		c0.00002,0,0.00002,0,0.00002,0c0.55684,0,1.00827,0.45142,1.00827,1.00824
		C236.00964-422.49173,236.00964-422.49173,236.00964-422.49173z M225.51102-422.49173c0,0.55682-0.45142,1.00824-1.00826,1.00824
		h-0.00002c-0.55684,0-1.00826-0.45142-1.00826-1.00824l0,0c0-0.55685,0.45142-1.00827,1.00826-1.00827l0,0
		C225.0596-423.5,225.51102-423.04858,225.51102-422.49173L225.51102-422.49173L225.51102-422.49173z M215.01239-422.49173
		c0,0.55682-0.4514,1.00824-1.00826,1.00824l0,0c-0.55685,0-1.00826-0.45142-1.00826-1.00824l0,0
		c0-0.55685,0.4514-1.00827,1.00826-1.00827l0,0C214.56097-423.5,215.01239-423.04858,215.01239-422.49173L215.01239-422.49173
		L215.01239-422.49173z M204.51376-422.49173c0,0.55682-0.4514,1.00824-1.00826,1.00824l0,0
		c-0.55684,0-1.00826-0.45142-1.00826-1.00824l0,0c0-0.55685,0.4514-1.00827,1.00826-1.00827l0,0
		C204.06235-423.5,204.51376-423.04858,204.51376-422.49173L204.51376-422.49173L204.51376-422.49173z M194.01515-422.49173
		c0,0.55682-0.45142,1.00824-1.00826,1.00824h-0.00002c-0.55684,0-1.00826-0.45142-1.00826-1.00824l0,0
		c0-0.55685,0.4514-1.00827,1.00826-1.00827l0,0c0.55684,0,1.00826,0.45142,1.00826,1.00827l0,0H194.01515z M183.51653-422.49173
		c0,0.55682-0.45142,1.00824-1.00826,1.00824h-0.00002c-0.55684,0-1.00826-0.45142-1.00826-1.00824l0,0
		c0-0.55685,0.45142-1.00827,1.00826-1.00827l0,0c0.55685,0,1.00826,0.45142,1.00826,1.00827l0,0H183.51653z M173.0179-422.49173
		c0,0.55682-0.45142,1.00824-1.00826,1.00824l0,0c-0.55685,0-1.00827-0.45142-1.00827-1.00824l0,0
		c0-0.55685,0.45142-1.00827,1.00826-1.00827h0.00002C172.56648-423.5,173.0179-423.04858,173.0179-422.49173L173.0179-422.49173
		L173.0179-422.49173z M162.51927-422.49173c0,0.55682-0.4514,1.00824-1.00826,1.00824l0,0
		c-0.55685,0-1.00827-0.45142-1.00827-1.00824l0,0c0-0.55685,0.45142-1.00827,1.00827-1.00827l0,0
		C162.06786-423.5,162.51927-423.04858,162.51927-422.49173L162.51927-422.49173L162.51927-422.49173z M152.02065-422.49173
		c0,0.55682-0.4514,1.00824-1.00826,1.00824l0,0c-0.55684,0-1.00826-0.45142-1.00826-1.00824l0,0
		c0-0.55685,0.4514-1.00827,1.00826-1.00827l0,0C151.56923-423.5,152.02065-423.04858,152.02065-422.49173L152.02065-422.49173
		L152.02065-422.49173z M141.52203-422.49173c0,0.55682-0.45142,1.00824-1.00826,1.00824h-0.00002
		c-0.55684,0-1.00826-0.45142-1.00826-1.00824l0,0c0-0.55685,0.45142-1.00827,1.00826-1.00827l0,0
		c0.55685,0,1.00826,0.45142,1.00826,1.00827l0,0H141.52203z M131.02341-422.49173c0,0.55682-0.45142,1.00824-1.00826,1.00824
		c0,0,0,0-0.00002,0c-0.55684,0-1.00826-0.45142-1.00826-1.00824l0,0c0-0.55685,0.45142-1.00827,1.00826-1.00827l0,0
		C130.57199-423.5,131.02341-423.04858,131.02341-422.49173L131.02341-422.49173L131.02341-422.49173z M120.52478-422.49173
		c0,0.55682-0.45141,1.00824-1.00826,1.00824c0,0,0,0-0.00001,0c-0.55685,0-1.00826-0.45142-1.00826-1.00824l0,0
		c0-0.55685,0.45141-1.00827,1.00826-1.00827l0,0C120.07336-423.5,120.52478-423.04858,120.52478-422.49173L120.52478-422.49173
		L120.52478-422.49173z M246.50826-432.99036c0,0.55682-0.4514,1.00824-1.00826,1.00824l0,0
		c-0.55684,0-1.00826-0.45139-1.00826-1.00824l0,0c0-0.55685,0.4514-1.00827,1.00826-1.00827l0,0
		C246.05684-433.99863,246.50826-433.54721,246.50826-432.99036L246.50826-432.99036z M236.00964-432.99036
		c0,0.55682-0.45142,1.00824-1.00827,1.00824l0,0c-0.55684,0-1.00826-0.45139-1.00826-1.00824l0,0
		c0-0.55685,0.4514-1.00827,1.00826-1.00827l0,0C235.55821-433.99863,236.00964-433.54721,236.00964-432.99036L236.00964-432.99036z
		 M225.51102-432.99036c0,0.55682-0.45142,1.00824-1.00826,1.00824c-0.00002,0-0.00002,0-0.00002,0
		c-0.55684,0-1.00826-0.45142-1.00826-1.00824c0-0.55685,0.45142-1.00827,1.00826-1.00827
		C225.0596-433.99863,225.51102-433.54721,225.51102-432.99036L225.51102-432.99036z M215.01239-432.99036
		c0,0.55682-0.45142,1.00824-1.00826,1.00824l0,0c-0.55685,0-1.00826-0.45142-1.00826-1.00824
		c0-0.55685,0.4514-1.00827,1.00826-1.00827C214.56097-433.99863,215.01239-433.54721,215.01239-432.99036L215.01239-432.99036z
		 M204.51376-432.99036c0,0.55682-0.4514,1.00824-1.00826,1.00824l0,0c-0.55684,0-1.00826-0.45142-1.00826-1.00824
		c0-0.55685,0.45142-1.00827,1.00826-1.00827S204.51376-433.54721,204.51376-432.99036L204.51376-432.99036z M194.01515-432.99036
		c0,0.55682-0.45142,1.00824-1.00826,1.00824c-0.00002,0-0.00002,0-0.00002,0c-0.55684,0-1.00826-0.45142-1.00826-1.00824
		c0-0.55685,0.45142-1.00827,1.00826-1.00827s1.00826,0.45142,1.00826,1.00827H194.01515z M183.51653-432.99036
		c0,0.55682-0.45142,1.00824-1.00826,1.00824c-0.00002,0-0.00002,0-0.00002,0c-0.55684,0-1.00826-0.45142-1.00826-1.00824
		c0-0.55685,0.45142-1.00827,1.00826-1.00827c0.55685,0,1.00826,0.45142,1.00826,1.00827H183.51653z M173.0179-432.99036
		c0,0.55682-0.45142,1.00824-1.00826,1.00824l0,0c-0.55685,0-1.00827-0.45139-1.00827-1.00824l0,0
		c0-0.55685,0.45142-1.00827,1.00827-1.00827l0,0C172.56648-433.99863,173.0179-433.54721,173.0179-432.99036L173.0179-432.99036
		L173.0179-432.99036z M162.51927-432.99036c0,0.55682-0.45142,1.00824-1.00826,1.00824l0,0
		c-0.55685,0-1.00827-0.45139-1.00827-1.00824l0,0c0-0.55685,0.45142-1.00827,1.00827-1.00827l0,0
		C162.06786-433.99863,162.51927-433.54721,162.51927-432.99036L162.51927-432.99036L162.51927-432.99036z M152.02065-432.99036
		c0,0.55682-0.4514,1.00824-1.00826,1.00824l0,0c-0.55684,0-1.00826-0.45139-1.00826-1.00824l0,0
		c0-0.55685,0.45142-1.00827,1.00826-1.00827l0,0C151.56923-433.99863,152.02065-433.54721,152.02065-432.99036L152.02065-432.99036
		L152.02065-432.99036z M141.52203-432.99036c0,0.55682-0.45142,1.00824-1.00827,1.00824l0,0
		c-0.55684,0-1.00826-0.45142-1.00826-1.00824c0-0.55685,0.45142-1.00827,1.00826-1.00827
		c0.55685,0,1.00826,0.45142,1.00826,1.00827H141.52203z M131.02341-432.99036c0,0.55682-0.45142,1.00824-1.00826,1.00824h-0.00002
		c-0.55684,0-1.00826-0.45142-1.00826-1.00824c0-0.55685,0.45142-1.00827,1.00826-1.00827
		C130.57199-433.99863,131.02341-433.54721,131.02341-432.99036L131.02341-432.99036z M120.52478-432.99036
		c0,0.55682-0.45141,1.00824-1.00826,1.00824h-0.00001c-0.55684,0-1.00826-0.45142-1.00826-1.00824
		c0-0.55685,0.45142-1.00827,1.00826-1.00827C120.07336-433.99863,120.52478-433.54721,120.52478-432.99036L120.52478-432.99036z
		 M246.50826-443.48898c0,0.55682-0.4514,1.00824-1.00826,1.00824l0,0c-0.55684,0-1.00826-0.45139-1.00826-1.00824l0,0
		c0-0.55685,0.4514-1.00827,1.00826-1.00827l0,0C246.05684-444.49725,246.50826-444.04584,246.50826-443.48898L246.50826-443.48898z
		 M236.00964-443.48898c0,0.55682-0.45142,1.00824-1.00827,1.00824l0,0c-0.55684,0-1.00826-0.45139-1.00826-1.00824l0,0
		c0-0.55685,0.4514-1.00827,1.00826-1.00827l0,0C235.55821-444.49725,236.00964-444.04584,236.00964-443.48898L236.00964-443.48898z
		 M225.51102-443.48898c0,0.55682-0.45142,1.00824-1.00826,1.00824c-0.00002,0-0.00002,0-0.00002,0
		c-0.55684,0-1.00826-0.45142-1.00826-1.00824c0-0.55685,0.45142-1.00827,1.00826-1.00827
		C225.0596-444.49725,225.51102-444.04584,225.51102-443.48898L225.51102-443.48898z M215.01239-443.48898
		c0,0.55682-0.45142,1.00824-1.00826,1.00824l0,0c-0.55685,0-1.00826-0.45142-1.00826-1.00824
		c0-0.55685,0.4514-1.00827,1.00826-1.00827C214.56097-444.49725,215.01239-444.04584,215.01239-443.48898L215.01239-443.48898z
		 M204.51376-443.48898c0,0.55682-0.4514,1.00824-1.00826,1.00824l0,0c-0.55684,0-1.00826-0.45142-1.00826-1.00824
		c0-0.55685,0.45142-1.00827,1.00826-1.00827S204.51376-444.04584,204.51376-443.48898L204.51376-443.48898z M194.01515-443.48898
		c0,0.55682-0.45142,1.00824-1.00826,1.00824c-0.00002,0-0.00002,0-0.00002,0c-0.55684,0-1.00826-0.45142-1.00826-1.00824
		c0-0.55685,0.45142-1.00827,1.00826-1.00827s1.00826,0.45142,1.00826,1.00827H194.01515z M183.51653-443.48898
		c0,0.55682-0.45142,1.00824-1.00826,1.00824c-0.00002,0-0.00002,0-0.00002,0c-0.55684,0-1.00826-0.45142-1.00826-1.00824
		c0-0.55685,0.45142-1.00827,1.00826-1.00827c0.55685,0,1.00826,0.45142,1.00826,1.00827H183.51653z M173.0179-443.48898
		c0,0.55682-0.45142,1.00824-1.00826,1.00824l0,0c-0.55685,0-1.00827-0.45139-1.00827-1.00824l0,0
		c0-0.55685,0.45142-1.00827,1.00827-1.00827l0,0C172.56648-444.49725,173.0179-444.04584,173.0179-443.48898L173.0179-443.48898
		L173.0179-443.48898z M162.51927-443.48898c0,0.55682-0.45142,1.00824-1.00826,1.00824l0,0
		c-0.55685,0-1.00827-0.45139-1.00827-1.00824l0,0c0-0.55685,0.45142-1.00827,1.00827-1.00827l0,0
		C162.06786-444.49725,162.51927-444.04584,162.51927-443.48898L162.51927-443.48898L162.51927-443.48898z M152.02065-443.48898
		c0,0.55682-0.4514,1.00824-1.00826,1.00824l0,0c-0.55684,0-1.00826-0.45139-1.00826-1.00824l0,0
		c0-0.55685,0.45142-1.00827,1.00826-1.00827l0,0C151.56923-444.49725,152.02065-444.04584,152.02065-443.48898L152.02065-443.48898
		L152.02065-443.48898z M141.52203-443.48898c0,0.55682-0.45142,1.00824-1.00827,1.00824l0,0
		c-0.55684,0-1.00826-0.45142-1.00826-1.00824c0-0.55685,0.45142-1.00827,1.00826-1.00827
		c0.55685,0,1.00826,0.45142,1.00826,1.00827H141.52203z M131.02341-443.48898c0,0.55682-0.45142,1.00824-1.00826,1.00824h-0.00002
		c-0.55684,0-1.00826-0.45142-1.00826-1.00824c0-0.55685,0.45142-1.00827,1.00826-1.00827
		C130.57199-444.49725,131.02341-444.04584,131.02341-443.48898L131.02341-443.48898z M120.52478-443.48898
		c0,0.55682-0.45141,1.00824-1.00826,1.00824h-0.00001c-0.55684,0-1.00826-0.45142-1.00826-1.00824
		c0-0.55685,0.45142-1.00827,1.00826-1.00827C120.07336-444.49725,120.52478-444.04584,120.52478-443.48898L120.52478-443.48898z
		 M246.50826-453.98761c0,0.55685-0.4514,1.00827-1.00826,1.00827l0,0c-0.55684,0-1.00826-0.45142-1.00826-1.00827l0,0
		c0-0.55685,0.4514-1.00827,1.00826-1.00827l0,0C246.05684-454.99588,246.50826-454.54446,246.50826-453.98761L246.50826-453.98761z
		 M236.00964-453.98761c0,0.55685-0.45142,1.00827-1.00827,1.00827l0,0c-0.55684,0-1.00826-0.45142-1.00826-1.00827l0,0
		c0-0.55685,0.4514-1.00827,1.00826-1.00827l0,0C235.55821-454.99588,236.00964-454.54446,236.00964-453.98761L236.00964-453.98761z
		 M225.51102-453.98761c0,0.55685-0.45142,1.00827-1.00826,1.00827c-0.00002,0-0.00002,0-0.00002,0
		c-0.55684,0-1.00826-0.45142-1.00826-1.00827s0.45142-1.00827,1.00826-1.00827
		C225.0596-454.99588,225.51102-454.54446,225.51102-453.98761L225.51102-453.98761z M215.01239-453.98761
		c0,0.55685-0.45142,1.00827-1.00826,1.00827l0,0c-0.55685,0-1.00826-0.45142-1.00826-1.00827s0.4514-1.00827,1.00826-1.00827
		C214.56097-454.99588,215.01239-454.54446,215.01239-453.98761L215.01239-453.98761z M204.51376-453.98761
		c0,0.55685-0.4514,1.00827-1.00826,1.00827l0,0c-0.55684,0-1.00826-0.45142-1.00826-1.00827s0.45142-1.00827,1.00826-1.00827
		S204.51376-454.54446,204.51376-453.98761L204.51376-453.98761z M194.01515-453.98761c0,0.55685-0.45142,1.00827-1.00826,1.00827
		c-0.00002,0-0.00002,0-0.00002,0c-0.55684,0-1.00826-0.45142-1.00826-1.00827s0.45142-1.00827,1.00826-1.00827
		s1.00826,0.45142,1.00826,1.00827H194.01515z M183.51653-453.98761c0,0.55685-0.45142,1.00827-1.00826,1.00827
		c-0.00002,0-0.00002,0-0.00002,0c-0.55684,0-1.00826-0.45142-1.00826-1.00827s0.45142-1.00827,1.00826-1.00827
		c0.55685,0,1.00826,0.45142,1.00826,1.00827H183.51653z M173.0179-453.98761c0,0.55685-0.45142,1.00827-1.00826,1.00827l0,0
		c-0.55685,0-1.00827-0.45142-1.00827-1.00827l0,0c0-0.55685,0.45142-1.00827,1.00827-1.00827l0,0
		C172.56648-454.99588,173.0179-454.54446,173.0179-453.98761L173.0179-453.98761L173.0179-453.98761z M162.51927-453.98761
		c0,0.55685-0.45142,1.00827-1.00826,1.00827l0,0c-0.55685,0-1.00827-0.45142-1.00827-1.00827l0,0
		c0-0.55685,0.45142-1.00827,1.00827-1.00827l0,0C162.06786-454.99588,162.51927-454.54446,162.51927-453.98761L162.51927-453.98761
		L162.51927-453.98761z M152.02065-453.98761c0,0.55685-0.4514,1.00827-1.00826,1.00827l0,0
		c-0.55684,0-1.00826-0.45142-1.00826-1.00827l0,0c0-0.55685,0.45142-1.00827,1.00826-1.00827l0,0
		C151.56923-454.99588,152.02065-454.54446,152.02065-453.98761L152.02065-453.98761L152.02065-453.98761z M141.52203-453.98761
		c0,0.55685-0.45142,1.00827-1.00827,1.00827l0,0c-0.55684,0-1.00826-0.45142-1.00826-1.00827s0.45142-1.00827,1.00826-1.00827
		c0.55685,0,1.00826,0.45142,1.00826,1.00827H141.52203z M131.02341-453.98761c0,0.55685-0.45142,1.00827-1.00826,1.00827h-0.00002
		c-0.55684,0-1.00826-0.45142-1.00826-1.00827s0.45142-1.00827,1.00826-1.00827
		C130.57199-454.99588,131.02341-454.54446,131.02341-453.98761L131.02341-453.98761z M120.52478-453.98761
		c0,0.55685-0.45141,1.00827-1.00826,1.00827h-0.00001c-0.55684,0-1.00826-0.45142-1.00826-1.00827s0.45142-1.00827,1.00826-1.00827
		C120.07336-454.99588,120.52478-454.54446,120.52478-453.98761L120.52478-453.98761z M246.50826-464.48624
		c0,0.55685-0.4514,1.00827-1.00826,1.00827l0,0c-0.55684,0-1.00826-0.45142-1.00826-1.00827l0,0
		c0-0.55685,0.4514-1.00824,1.00826-1.00824l0,0C246.05684-465.49448,246.50826-465.04309,246.50826-464.48624L246.50826-464.48624z
		 M236.00964-464.48624c0,0.55685-0.45142,1.00827-1.00827,1.00827l0,0c-0.55684,0-1.00826-0.45142-1.00826-1.00827l0,0
		c0-0.55685,0.4514-1.00824,1.00826-1.00824l0,0C235.55821-465.49448,236.00964-465.04309,236.00964-464.48624L236.00964-464.48624z
		 M225.51102-464.48624c0,0.55685-0.45142,1.00827-1.00826,1.00827c-0.00002,0-0.00002,0-0.00002,0
		c-0.55684,0-1.00826-0.45142-1.00826-1.00827s0.45142-1.00824,1.00826-1.00824
		C225.0596-465.49448,225.51102-465.04309,225.51102-464.48624L225.51102-464.48624z M215.01239-464.48624
		c0,0.55685-0.45142,1.00827-1.00826,1.00827l0,0c-0.55685,0-1.00826-0.45142-1.00826-1.00827s0.4514-1.00824,1.00826-1.00824
		C214.56097-465.49448,215.01239-465.04309,215.01239-464.48624L215.01239-464.48624z M204.51376-464.48624
		c0,0.55685-0.4514,1.00827-1.00826,1.00827l0,0c-0.55684,0-1.00826-0.45142-1.00826-1.00827s0.45142-1.00824,1.00826-1.00824
		S204.51376-465.04309,204.51376-464.48624L204.51376-464.48624z M194.01515-464.48624c0,0.55685-0.45142,1.00827-1.00826,1.00827
		c-0.00002,0-0.00002,0-0.00002,0c-0.55684,0-1.00826-0.45142-1.00826-1.00827s0.45142-1.00824,1.00826-1.00824
		s1.00826,0.45139,1.00826,1.00824H194.01515z M183.51653-464.48624c0,0.55685-0.45142,1.00827-1.00826,1.00827
		c-0.00002,0-0.00002,0-0.00002,0c-0.55684,0-1.00826-0.45142-1.00826-1.00827s0.45142-1.00824,1.00826-1.00824
		c0.55685,0,1.00826,0.45139,1.00826,1.00824H183.51653z M173.0179-464.48624c0,0.55685-0.45142,1.00827-1.00826,1.00827l0,0
		c-0.55685,0-1.00827-0.45142-1.00827-1.00827l0,0c0-0.55685,0.45142-1.00824,1.00827-1.00824l0,0
		C172.56648-465.49448,173.0179-465.04309,173.0179-464.48624L173.0179-464.48624L173.0179-464.48624z M162.51927-464.48624
		c0,0.55685-0.45142,1.00827-1.00826,1.00827l0,0c-0.55685,0-1.00827-0.45142-1.00827-1.00827l0,0
		c0-0.55685,0.45142-1.00824,1.00827-1.00824l0,0C162.06786-465.49448,162.51927-465.04309,162.51927-464.48624L162.51927-464.48624
		L162.51927-464.48624z M152.02065-464.48624c0,0.55685-0.4514,1.00827-1.00826,1.00827l0,0
		c-0.55684,0-1.00826-0.45142-1.00826-1.00827l0,0c0-0.55685,0.45142-1.00824,1.00826-1.00824l0,0
		C151.56923-465.49448,152.02065-465.04309,152.02065-464.48624L152.02065-464.48624L152.02065-464.48624z M141.52203-464.48624
		c0,0.55685-0.45142,1.00827-1.00827,1.00827l0,0c-0.55684,0-1.00826-0.45142-1.00826-1.00827s0.45142-1.00824,1.00826-1.00824
		c0.55685,0,1.00826,0.45139,1.00826,1.00824H141.52203z M131.02341-464.48624c0,0.55685-0.45142,1.00827-1.00826,1.00827h-0.00002
		c-0.55684,0-1.00826-0.45142-1.00826-1.00827s0.45142-1.00824,1.00826-1.00824
		C130.57199-465.49448,131.02341-465.04309,131.02341-464.48624L131.02341-464.48624z M120.52478-464.48624
		c0,0.55685-0.45141,1.00827-1.00826,1.00827h-0.00001c-0.55684,0-1.00826-0.45142-1.00826-1.00827s0.45142-1.00824,1.00826-1.00824
		C120.07336-465.49448,120.52478-465.04309,120.52478-464.48624L120.52478-464.48624z M246.50826-474.98486
		c0,0.55685-0.4514,1.00827-1.00826,1.00827l0,0c-0.55684,0-1.00826-0.45142-1.00826-1.00827l0,0
		c0-0.55682,0.4514-1.00824,1.00826-1.00824l0,0C246.05684-475.9931,246.50826-475.54172,246.50826-474.98486L246.50826-474.98486z
		 M236.00964-474.98486c0,0.55685-0.45142,1.00827-1.00827,1.00827l0,0c-0.55684,0-1.00826-0.45142-1.00826-1.00827l0,0
		c0-0.55682,0.4514-1.00824,1.00826-1.00824l0,0C235.55821-475.9931,236.00964-475.54172,236.00964-474.98486L236.00964-474.98486z
		 M225.51102-474.98486c0,0.55685-0.45142,1.00827-1.00826,1.00827c-0.00002,0-0.00002,0-0.00002,0
		c-0.55684,0-1.00826-0.45142-1.00826-1.00827c0-0.55682,0.45142-1.00824,1.00826-1.00824
		C225.0596-475.9931,225.51102-475.54169,225.51102-474.98486L225.51102-474.98486z M215.01239-474.98486
		c0,0.55685-0.45142,1.00827-1.00826,1.00827l0,0c-0.55685,0-1.00826-0.45142-1.00826-1.00827
		c0-0.55682,0.4514-1.00824,1.00826-1.00824C214.56097-475.9931,215.01239-475.54169,215.01239-474.98486L215.01239-474.98486z
		 M204.51376-474.98486c0,0.55685-0.4514,1.00827-1.00826,1.00827l0,0c-0.55684,0-1.00826-0.45142-1.00826-1.00827
		c0-0.55682,0.45142-1.00824,1.00826-1.00824S204.51376-475.54169,204.51376-474.98486L204.51376-474.98486z M194.01515-474.98486
		c0,0.55685-0.45142,1.00827-1.00826,1.00827c-0.00002,0-0.00002,0-0.00002,0c-0.55684,0-1.00826-0.45142-1.00826-1.00827
		c0-0.55682,0.45142-1.00824,1.00826-1.00824s1.00826,0.45142,1.00826,1.00824H194.01515z M183.51653-474.98486
		c0,0.55685-0.45142,1.00827-1.00826,1.00827c-0.00002,0-0.00002,0-0.00002,0c-0.55684,0-1.00826-0.45142-1.00826-1.00827
		c0-0.55682,0.45142-1.00824,1.00826-1.00824c0.55685,0,1.00826,0.45142,1.00826,1.00824H183.51653z M173.0179-474.98486
		c0,0.55685-0.45142,1.00827-1.00826,1.00827l0,0c-0.55685,0-1.00827-0.45142-1.00827-1.00827l0,0
		c0-0.55682,0.45142-1.00824,1.00827-1.00824l0,0C172.56648-475.9931,173.0179-475.54172,173.0179-474.98486L173.0179-474.98486
		L173.0179-474.98486z M162.51927-474.98486c0,0.55685-0.45142,1.00827-1.00826,1.00827l0,0
		c-0.55685,0-1.00827-0.45142-1.00827-1.00827l0,0c0-0.55682,0.45142-1.00824,1.00827-1.00824l0,0
		C162.06786-475.9931,162.51927-475.54172,162.51927-474.98486L162.51927-474.98486L162.51927-474.98486z M152.02065-474.98486
		c0,0.55685-0.4514,1.00827-1.00826,1.00827l0,0c-0.55684,0-1.00826-0.45142-1.00826-1.00827l0,0
		c0-0.55682,0.45142-1.00824,1.00826-1.00824l0,0C151.56923-475.9931,152.02065-475.54172,152.02065-474.98486L152.02065-474.98486
		L152.02065-474.98486z M141.52203-474.98486c0,0.55685-0.45142,1.00827-1.00827,1.00827l0,0
		c-0.55684,0-1.00826-0.45142-1.00826-1.00827c0-0.55682,0.45142-1.00824,1.00826-1.00824
		c0.55685,0,1.00826,0.45142,1.00826,1.00824H141.52203z M131.02341-474.98486c0,0.55685-0.45142,1.00827-1.00826,1.00827h-0.00002
		c-0.55684,0-1.00826-0.45142-1.00826-1.00827c0-0.55682,0.45142-1.00824,1.00826-1.00824
		C130.57199-475.9931,131.02341-475.54169,131.02341-474.98486L131.02341-474.98486z M120.52478-474.98486
		c0,0.55685-0.45141,1.00827-1.00826,1.00827h-0.00001c-0.55684,0-1.00826-0.45142-1.00826-1.00827
		c0-0.55682,0.45142-1.00824,1.00826-1.00824C120.07336-475.9931,120.52478-475.54169,120.52478-474.98486L120.52478-474.98486z
		 M246.50826-485.48349c0,0.55685-0.4514,1.00827-1.00824,1.00827H245.5c-0.55684,0-1.00826-0.45142-1.00826-1.00824v-0.00003
		c0-0.55682,0.4514-1.00824,1.00824-1.00824H245.5C246.05684-486.49173,246.50826-486.04034,246.50826-485.48349
		L246.50826-485.48349z M236.00964-485.48349c0,0.55685-0.45142,1.00827-1.00826,1.00827h-0.00002
		c-0.55684,0-1.00826-0.45142-1.00826-1.00824v-0.00003c0-0.55682,0.4514-1.00824,1.00824-1.00824h0.00002
		C235.55821-486.49173,236.00964-486.04034,236.00964-485.48349L236.00964-485.48349z M225.51102-485.48349
		c0,0.55685-0.45142,1.00827-1.00826,1.00827c0,0,0,0-0.00002,0c-0.55684,0-1.00826-0.45142-1.00826-1.00827l0,0
		c0-0.55682,0.45142-1.00824,1.00826-1.00824l0,0C225.0596-486.49173,225.51102-486.04034,225.51102-485.48349L225.51102-485.48349
		L225.51102-485.48349z M215.01239-485.48349c0,0.55685-0.4514,1.00827-1.00824,1.00827c-0.00002,0-0.00002,0-0.00002,0
		c-0.55685,0-1.00826-0.45142-1.00826-1.00827l0,0c0-0.55682,0.4514-1.00824,1.00824-1.00824c0.00002,0,0.00002,0,0.00002,0
		C214.56097-486.49173,215.01239-486.04034,215.01239-485.48349L215.01239-485.48349L215.01239-485.48349z M204.51376-485.48349
		c0,0.55685-0.4514,1.00827-1.00824,1.00827c-0.00002,0-0.00002,0-0.00002,0c-0.55684,0-1.00826-0.45142-1.00826-1.00827l0,0
		c0-0.55682,0.4514-1.00824,1.00824-1.00824c0.00002,0,0.00002,0,0.00002,0
		C204.06235-486.49173,204.51376-486.04034,204.51376-485.48349L204.51376-485.48349L204.51376-485.48349z M194.01515-485.48349
		c0,0.55685-0.45142,1.00827-1.00826,1.00827c0,0,0,0-0.00002,0c-0.55684,0-1.00826-0.45142-1.00826-1.00827l0,0
		c0-0.55682,0.4514-1.00824,1.00826-1.00824l0,0c0.55684,0,1.00826,0.45139,1.00826,1.00824l0,0H194.01515z M183.51653-485.48349
		c0,0.55685-0.45142,1.00827-1.00826,1.00827c0,0,0,0-0.00002,0c-0.55684,0-1.00826-0.45142-1.00826-1.00827l0,0
		c0-0.55682,0.45142-1.00824,1.00826-1.00824l0,0c0.55685,0,1.00826,0.45139,1.00826,1.00824l0,0H183.51653z M173.0179-485.48349
		c0,0.55685-0.4514,1.00827-1.00826,1.00827l0,0c-0.55685,0-1.00827-0.45142-1.00827-1.00824c0-0.00003,0-0.00003,0-0.00003
		c0-0.55682,0.45142-1.00824,1.00826-1.00824c0,0,0,0,0.00002,0C172.56648-486.49173,173.0179-486.04034,173.0179-485.48349
		L173.0179-485.48349L173.0179-485.48349z M162.51927-485.48349c0,0.55685-0.4514,1.00827-1.00826,1.00827l0,0
		c-0.55685,0-1.00827-0.45142-1.00827-1.00824c0-0.00003,0-0.00003,0-0.00003c0-0.55682,0.45142-1.00824,1.00826-1.00824
		c0.00002,0,0.00002,0,0.00002,0C162.06786-486.49173,162.51927-486.04034,162.51927-485.48349L162.51927-485.48349
		L162.51927-485.48349z M152.02065-485.48349c0.00002,0.55685-0.4514,1.00827-1.00824,1.00827c-0.00002,0-0.00002,0-0.00002,0
		c-0.55684,0-1.00826-0.45142-1.00826-1.00824c0-0.00003,0-0.00003,0-0.00003c-0.00002-0.55682,0.4514-1.00824,1.00826-1.00824l0,0
		C151.56923-486.49173,152.02065-486.04034,152.02065-485.48349L152.02065-485.48349L152.02065-485.48349z M141.52203-485.48349
		c0,0.55685-0.45142,1.00827-1.00826,1.00827h-0.00002c-0.55684,0-1.00826-0.45142-1.00826-1.00827l0,0
		c0-0.55682,0.4514-1.00824,1.00826-1.00824l0,0c0.55685,0,1.00826,0.45139,1.00826,1.00824l0,0H141.52203z M131.02341-485.48349
		c0,0.55685-0.45142,1.00827-1.00826,1.00827c0,0,0,0-0.00002,0c-0.55684,0-1.00826-0.45142-1.00826-1.00827l0,0
		c0-0.55682,0.45142-1.00824,1.00826-1.00824l0,0C130.57199-486.49173,131.02341-486.04034,131.02341-485.48349L131.02341-485.48349
		L131.02341-485.48349z M120.52478-485.48349c0.00001,0.55685-0.45141,1.00827-1.00825,1.00827c-0.00001,0-0.00001,0-0.00002,0
		c-0.55685,0-1.00826-0.45142-1.00826-1.00827l0,0c0-0.55682,0.45141-1.00824,1.00826-1.00824l0,0
		C120.07336-486.49173,120.52478-486.04034,120.52478-485.48349L120.52478-485.48349L120.52478-485.48349z M246.50826-495.98212
		c0,0.55685-0.4514,1.00827-1.00824,1.00827H245.5c-0.55684,0-1.00826-0.45142-1.00826-1.00824v-0.00003
		c0-0.55682,0.4514-1.00824,1.00824-1.00824H245.5C246.05684-496.99036,246.50826-496.53897,246.50826-495.98212
		L246.50826-495.98212z M236.00964-495.98212c0,0.55685-0.45142,1.00827-1.00826,1.00827h-0.00002
		c-0.55684,0-1.00826-0.45142-1.00826-1.00824v-0.00003c0-0.55682,0.4514-1.00824,1.00824-1.00824h0.00002
		C235.55821-496.99036,236.00964-496.53897,236.00964-495.98212L236.00964-495.98212z M225.51102-495.98212
		c0,0.55685-0.45142,1.00827-1.00826,1.00827c0,0,0,0-0.00002,0c-0.55684,0-1.00826-0.45142-1.00826-1.00827l0,0
		c0-0.55682,0.45142-1.00824,1.00826-1.00824l0,0C225.0596-496.99036,225.51102-496.53897,225.51102-495.98212L225.51102-495.98212
		L225.51102-495.98212z M215.01239-495.98212c0,0.55685-0.4514,1.00827-1.00824,1.00827c-0.00002,0-0.00002,0-0.00002,0
		c-0.55685,0-1.00826-0.45142-1.00826-1.00827l0,0c0-0.55682,0.4514-1.00824,1.00824-1.00824c0.00002,0,0.00002,0,0.00002,0
		C214.56097-496.99036,215.01239-496.53897,215.01239-495.98212L215.01239-495.98212L215.01239-495.98212z M204.51376-495.98212
		c0,0.55685-0.4514,1.00827-1.00824,1.00827c-0.00002,0-0.00002,0-0.00002,0c-0.55684,0-1.00826-0.45142-1.00826-1.00827l0,0
		c0-0.55682,0.4514-1.00824,1.00824-1.00824c0.00002,0,0.00002,0,0.00002,0
		C204.06235-496.99036,204.51376-496.53897,204.51376-495.98212L204.51376-495.98212L204.51376-495.98212z M194.01515-495.98212
		c0,0.55685-0.45142,1.00827-1.00826,1.00827c0,0,0,0-0.00002,0c-0.55684,0-1.00826-0.45142-1.00826-1.00827l0,0
		c0-0.55682,0.4514-1.00824,1.00826-1.00824l0,0c0.55684,0,1.00826,0.45139,1.00826,1.00824l0,0H194.01515z M183.51653-495.98212
		c0,0.55685-0.45142,1.00827-1.00826,1.00827c0,0,0,0-0.00002,0c-0.55684,0-1.00826-0.45142-1.00826-1.00827l0,0
		c0-0.55682,0.45142-1.00824,1.00826-1.00824l0,0c0.55685,0,1.00826,0.45139,1.00826,1.00824l0,0H183.51653z M173.0179-495.98212
		c0,0.55685-0.4514,1.00827-1.00826,1.00827l0,0c-0.55685,0-1.00827-0.45142-1.00827-1.00824c0-0.00003,0-0.00003,0-0.00003
		c0-0.55682,0.45142-1.00824,1.00826-1.00824c0,0,0,0,0.00002,0C172.56648-496.99036,173.0179-496.53897,173.0179-495.98212
		L173.0179-495.98212L173.0179-495.98212z M162.51927-495.98212c0,0.55685-0.4514,1.00827-1.00826,1.00827l0,0
		c-0.55685,0-1.00827-0.45142-1.00827-1.00824c0-0.00003,0-0.00003,0-0.00003c0-0.55682,0.45142-1.00824,1.00826-1.00824
		c0.00002,0,0.00002,0,0.00002,0C162.06786-496.99036,162.51927-496.53897,162.51927-495.98212L162.51927-495.98212
		L162.51927-495.98212z M152.02065-495.98212c0.00002,0.55685-0.4514,1.00827-1.00824,1.00827c-0.00002,0-0.00002,0-0.00002,0
		c-0.55684,0-1.00826-0.45142-1.00826-1.00824c0-0.00003,0-0.00003,0-0.00003c-0.00002-0.55682,0.4514-1.00824,1.00826-1.00824l0,0
		C151.56923-496.99036,152.02065-496.53897,152.02065-495.98212L152.02065-495.98212L152.02065-495.98212z M141.52203-495.98212
		c0,0.55685-0.45142,1.00827-1.00826,1.00827h-0.00002c-0.55684,0-1.00826-0.45142-1.00826-1.00827l0,0
		c0-0.55682,0.4514-1.00824,1.00826-1.00824l0,0c0.55685,0,1.00826,0.45139,1.00826,1.00824l0,0H141.52203z M131.02341-495.98212
		c0,0.55685-0.45142,1.00827-1.00826,1.00827c0,0,0,0-0.00002,0c-0.55684,0-1.00826-0.45142-1.00826-1.00827l0,0
		c0-0.55682,0.45142-1.00824,1.00826-1.00824l0,0C130.57199-496.99036,131.02341-496.53897,131.02341-495.98212L131.02341-495.98212
		L131.02341-495.98212z M120.52478-495.98212c0.00001,0.55685-0.45141,1.00827-1.00825,1.00827c-0.00001,0-0.00001,0-0.00002,0
		c-0.55685,0-1.00826-0.45142-1.00826-1.00827l0,0c0-0.55682,0.45141-1.00824,1.00826-1.00824l0,0
		C120.07336-496.99036,120.52478-496.53897,120.52478-495.98212L120.52478-495.98212L120.52478-495.98212z"/>
</g>
<g id="g8429_1_" transform="translate(0,600)">
	<path id="ellipse8455_1_" class="st8" d="M341.00412-370.00827c0,0.55685-0.45142,1.00827-1.00824,1.00827l0,0
		c-0.55685,0-1.00827-0.45142-1.00827-1.00827c0-0.55682,0.45142-1.00824,1.00827-1.00824
		C340.5527-371.01651,341.00412-370.56509,341.00412-370.00827L341.00412-370.00827z M330.50549-370.00827
		c0,0.55685-0.45139,1.00827-1.00824,1.00827l0,0c-0.55685,0-1.00827-0.45142-1.00827-1.00827
		c0-0.55682,0.45142-1.00824,1.00827-1.00824C330.05408-371.01651,330.50549-370.56509,330.50549-370.00827L330.50549-370.00827z
		 M320.0069-370.00827c0,0.55685-0.45142,1.00827-1.00827,1.00827l0,0c-0.55685,0-1.00827-0.45142-1.00827-1.00827
		c0-0.55682,0.45142-1.00824,1.00827-1.00824c0.55682,0,1.00824,0.45142,1.00824,1.00824H320.0069z M309.50827-370.00827
		c0,0.55685-0.45142,1.00827-1.00827,1.00827l0,0c-0.55685,0-1.00827-0.45142-1.00827-1.00827
		c0-0.55682,0.45142-1.00824,1.00827-1.00824s1.00824,0.45142,1.00824,1.00824H309.50827z M299.00964-370.00827
		c0,0.55685-0.45142,1.00827-1.00827,1.00827l0,0c-0.55685,0-1.00827-0.45142-1.00827-1.00827l0,0
		c0-0.55682,0.45142-1.00824,1.00827-1.00824l0,0C298.55823-371.01651,299.00964-370.56509,299.00964-370.00827L299.00964-370.00827
		L299.00964-370.00827z M288.51102-370.00827c0,0.55685-0.45142,1.00827-1.00827,1.00827l0,0
		c-0.55685,0-1.00827-0.45142-1.00827-1.00827l0,0c0-0.55682,0.45142-1.00824,1.00827-1.00824l0,0
		C288.0596-371.01651,288.51102-370.56509,288.51102-370.00827L288.51102-370.00827L288.51102-370.00827z M278.01239-370.00827
		c0,0.55685-0.45142,1.00827-1.00827,1.00827l0,0c-0.55682,0-1.00824-0.45142-1.00824-1.00827l0,0
		c0-0.55682,0.45139-1.00824,1.00824-1.00824l0,0C277.56097-371.01651,278.01239-370.56509,278.01239-370.00827L278.01239-370.00827
		L278.01239-370.00827z M267.51376-370.00827c0,0.55685-0.45142,1.00827-1.00824,1.00827c-0.00003,0-0.00003,0-0.00003,0
		c-0.55682,0-1.00824-0.45142-1.00824-1.00827l0,0c0-0.55682,0.45142-1.00824,1.00824-1.00824l0,0
		C267.06235-371.01651,267.51376-370.56509,267.51376-370.00827L267.51376-370.00827L267.51376-370.00827z M257.01514-370.00827
		c0,0.55685-0.45142,1.00827-1.00824,1.00827c0,0,0,0-0.00003,0c-0.55682,0-1.00824-0.45142-1.00824-1.00827l0,0
		c0-0.55682,0.45142-1.00824,1.00824-1.00824l0,0C256.56372-371.01651,257.01514-370.56509,257.01514-370.00827L257.01514-370.00827
		L257.01514-370.00827z M341.00412-380.50687c0,0.55682-0.45142,1.00824-1.00824,1.00824l0,0
		c-0.55685,0-1.00827-0.45142-1.00827-1.00824c0-0.55685,0.45142-1.00827,1.00827-1.00827
		C340.5527-381.51514,341.00412-381.06372,341.00412-380.50687L341.00412-380.50687z M330.50549-380.50687
		c0,0.55682-0.45139,1.00824-1.00824,1.00824l0,0c-0.55685,0-1.00827-0.45142-1.00827-1.00824
		c0-0.55685,0.45142-1.00827,1.00827-1.00827C330.05408-381.51514,330.50549-381.06372,330.50549-380.50687L330.50549-380.50687z
		 M320.0069-380.50687c0,0.55682-0.45142,1.00824-1.00827,1.00824l0,0c-0.55685,0-1.00827-0.45142-1.00827-1.00824
		c0-0.55685,0.45142-1.00827,1.00827-1.00827c0.55682,0,1.00824,0.45142,1.00824,1.00827H320.0069z M309.50827-380.50687
		c0,0.55682-0.45142,1.00824-1.00827,1.00824l0,0c-0.55685,0-1.00827-0.45142-1.00827-1.00824
		c0-0.55685,0.45142-1.00827,1.00827-1.00827s1.00824,0.45142,1.00824,1.00827H309.50827z M299.00964-380.50687
		c0,0.55682-0.45142,1.00824-1.00827,1.00824l0,0c-0.55685,0-1.00827-0.45142-1.00827-1.00824l0,0
		c0-0.55685,0.45142-1.00827,1.00827-1.00827l0,0c0.55685,0,1.00827,0.45142,1.00827,1.00824
		C299.00964-380.50687,299.00964-380.50687,299.00964-380.50687L299.00964-380.50687z M288.51102-380.50687
		c0,0.55682-0.45142,1.00824-1.00827,1.00824l0,0c-0.55685,0-1.00827-0.45142-1.00827-1.00824l0,0
		c0-0.55685,0.45142-1.00827,1.00827-1.00827l0,0c0.55685,0,1.00827,0.45142,1.00827,1.00824
		C288.51102-380.50687,288.51102-380.50687,288.51102-380.50687L288.51102-380.50687z M278.01239-380.50687
		c0,0.55682-0.45142,1.00824-1.00827,1.00824l0,0c-0.55682,0-1.00824-0.45142-1.00824-1.00824l0,0
		c0-0.55685,0.45142-1.00827,1.00824-1.00827l0,0c0.55685,0,1.00827,0.45142,1.00827,1.00824
		C278.01239-380.50687,278.01239-380.50687,278.01239-380.50687L278.01239-380.50687z M267.51376-380.50687
		c0,0.55682-0.45142,1.00824-1.00824,1.00824c-0.00003,0-0.00003,0-0.00003,0c-0.55682,0-1.00824-0.45142-1.00824-1.00824l0,0
		c0-0.55685,0.45142-1.00827,1.00824-1.00827C267.06235-381.51514,267.51376-381.06372,267.51376-380.50687L267.51376-380.50687z
		 M257.01514-380.50687c0,0.55682-0.45142,1.00824-1.00824,1.00824c0,0,0,0-0.00003,0c-0.55682,0-1.00824-0.45142-1.00824-1.00824
		l0,0c0-0.55685,0.45142-1.00827,1.00824-1.00827C256.56372-381.51514,257.01514-381.06372,257.01514-380.50687L257.01514-380.50687
		z M341.00412-391.00549c0,0.55682-0.45142,1.00824-1.00824,1.00824l0,0c-0.55685,0-1.00827-0.45142-1.00827-1.00824
		c0-0.55685,0.45142-1.00827,1.00827-1.00827C340.5527-392.01376,341.00412-391.56235,341.00412-391.00549L341.00412-391.00549z
		 M330.50549-391.00549c0,0.55682-0.45139,1.00824-1.00824,1.00824l0,0c-0.55685,0-1.00827-0.45142-1.00827-1.00824
		c0-0.55685,0.45142-1.00827,1.00827-1.00827C330.05408-392.01376,330.50549-391.56235,330.50549-391.00549L330.50549-391.00549z
		 M320.0069-391.00549c0,0.55682-0.45142,1.00824-1.00827,1.00824l0,0c-0.55685,0-1.00827-0.45142-1.00827-1.00824
		c0-0.55685,0.45142-1.00827,1.00827-1.00827c0.55682,0,1.00824,0.45142,1.00824,1.00827H320.0069z M309.50827-391.00549
		c0,0.55682-0.45142,1.00824-1.00827,1.00824l0,0c-0.55685,0-1.00827-0.45142-1.00827-1.00824
		c0-0.55685,0.45142-1.00827,1.00827-1.00827s1.00824,0.45142,1.00824,1.00827H309.50827z M299.00964-391.00549
		c0,0.55682-0.45142,1.00824-1.00827,1.00824l0,0c-0.55685,0-1.00827-0.45142-1.00827-1.00824l0,0
		c0-0.55685,0.45142-1.00827,1.00827-1.00827l0,0C298.55823-392.01376,299.00964-391.56235,299.00964-391.00549L299.00964-391.00549
		L299.00964-391.00549z M288.51102-391.00549c0,0.55682-0.45142,1.00824-1.00827,1.00824l0,0
		c-0.55685,0-1.00827-0.45142-1.00827-1.00824l0,0c0-0.55685,0.45142-1.00827,1.00827-1.00827l0,0
		C288.0596-392.01376,288.51102-391.56235,288.51102-391.00549L288.51102-391.00549L288.51102-391.00549z M278.01239-391.00549
		c0,0.55682-0.45142,1.00824-1.00827,1.00824l0,0c-0.55682,0-1.00824-0.45142-1.00824-1.00824l0,0
		c0-0.55685,0.45139-1.00827,1.00824-1.00827l0,0C277.56097-392.01376,278.01239-391.56235,278.01239-391.00549L278.01239-391.00549
		L278.01239-391.00549z M267.51376-391.00549c0,0.55682-0.45142,1.00824-1.00824,1.00824c-0.00003,0-0.00003,0-0.00003,0
		c-0.55682,0-1.00824-0.45142-1.00824-1.00824l0,0c0-0.55685,0.45142-1.00827,1.00824-1.00827l0,0
		C267.06235-392.01376,267.51376-391.56235,267.51376-391.00549L267.51376-391.00549L267.51376-391.00549z M257.01514-391.00549
		c0,0.55682-0.45142,1.00824-1.00824,1.00824c0,0,0,0-0.00003,0c-0.55682,0-1.00824-0.45142-1.00824-1.00824l0,0
		c0-0.55685,0.45142-1.00827,1.00824-1.00827l0,0C256.56372-392.01376,257.01514-391.56235,257.01514-391.00549L257.01514-391.00549
		L257.01514-391.00549z M341.00412-401.50412c0,0.55682-0.45139,1.00824-1.00824,1.00824l0,0
		c-0.55685,0-1.00827-0.45142-1.00827-1.00824l0,0c0-0.55685,0.45142-1.00827,1.00827-1.00827l0,0
		C340.5527-402.51239,341.00412-402.06097,341.00412-401.50412L341.00412-401.50412L341.00412-401.50412z M330.50549-401.50412
		c0,0.55682-0.45139,1.00824-1.00824,1.00824l0,0c-0.55685,0-1.00827-0.45142-1.00827-1.00824l0,0
		c0-0.55685,0.45142-1.00827,1.00827-1.00827l0,0C330.05408-402.51239,330.50549-402.06097,330.50549-401.50412L330.50549-401.50412
		L330.50549-401.50412z M320.0069-401.50412c0,0.55682-0.45142,1.00824-1.00827,1.00824l0,0
		c-0.55685,0-1.00827-0.45142-1.00827-1.00824l0,0c0-0.55685,0.45142-1.00827,1.00827-1.00827l0,0
		c0.55682,0,1.00824,0.45142,1.00824,1.00827l0,0H320.0069z M309.50827-401.50412c0,0.55682-0.45142,1.00824-1.00827,1.00824l0,0
		c-0.55685,0-1.00827-0.45142-1.00827-1.00824l0,0c0-0.55685,0.45142-1.00827,1.00827-1.00827l0,0
		c0.55685,0,1.00824,0.45142,1.00824,1.00827l0,0H309.50827z M299.00964-401.50412c0,0.55682-0.45142,1.00824-1.00827,1.00824l0,0
		c-0.55685,0-1.00827-0.45139-1.00827-1.00824l0,0c0-0.55685,0.45142-1.00827,1.00827-1.00827l0,0
		C298.55823-402.51239,299.00964-402.06097,299.00964-401.50412L299.00964-401.50412L299.00964-401.50412z M288.51102-401.50412
		c0,0.55682-0.45142,1.00824-1.00827,1.00824l0,0c-0.55685,0-1.00827-0.45139-1.00827-1.00824l0,0
		c0-0.55685,0.45142-1.00827,1.00827-1.00827l0,0C288.0596-402.51239,288.51102-402.06097,288.51102-401.50412L288.51102-401.50412
		L288.51102-401.50412z M278.01239-401.50412c0,0.55682-0.45142,1.00824-1.00827,1.00824l0,0
		c-0.55682,0-1.00824-0.45139-1.00824-1.00824l0,0c0-0.55685,0.45139-1.00827,1.00824-1.00827l0,0
		C277.56097-402.51239,278.01239-402.06097,278.01239-401.50412L278.01239-401.50412L278.01239-401.50412z M267.51376-401.50412
		c0,0.55682-0.45142,1.00824-1.00824,1.00824h-0.00003c-0.55682,0-1.00824-0.45139-1.00824-1.00824l0,0
		c0-0.55685,0.45142-1.00827,1.00824-1.00827l0,0C267.06235-402.51239,267.51376-402.06097,267.51376-401.50412L267.51376-401.50412
		L267.51376-401.50412z M257.01514-401.50412c0,0.55682-0.45142,1.00824-1.00824,1.00824c0,0,0,0-0.00003,0
		c-0.55682,0-1.00824-0.45139-1.00824-1.00824l0,0c0-0.55685,0.4514-1.00827,1.00824-1.00827l0,0
		C256.56372-402.51239,257.01514-402.06097,257.01514-401.50412L257.01514-401.50412L257.01514-401.50412z M341.00412-412.00275
		c0,0.55685-0.45139,1.00827-1.00824,1.00827l0,0c-0.55685,0-1.00827-0.45142-1.00827-1.00827l0,0
		c0-0.55685,0.45142-1.00827,1.00827-1.00827l0,0C340.5527-413.01102,341.00412-412.5596,341.00412-412.00275L341.00412-412.00275
		L341.00412-412.00275z M330.50549-412.00275c0,0.55685-0.45139,1.00827-1.00824,1.00827l0,0
		c-0.55685,0-1.00827-0.45142-1.00827-1.00827l0,0c0-0.55685,0.45142-1.00827,1.00827-1.00827l0,0
		C330.05408-413.01102,330.50549-412.5596,330.50549-412.00275L330.50549-412.00275L330.50549-412.00275z M320.0069-412.00275
		c0,0.55685-0.45142,1.00827-1.00827,1.00827l0,0c-0.55685,0-1.00827-0.45142-1.00827-1.00827l0,0
		c0-0.55685,0.45142-1.00827,1.00827-1.00827l0,0c0.55682,0,1.00824,0.45142,1.00824,1.00827l0,0H320.0069z M309.50827-412.00275
		c0,0.55685-0.45142,1.00827-1.00827,1.00827l0,0c-0.55685,0-1.00827-0.45142-1.00827-1.00827l0,0
		c0-0.55685,0.45142-1.00827,1.00827-1.00827l0,0c0.55685,0,1.00824,0.45142,1.00824,1.00827l0,0H309.50827z M299.00964-412.00275
		c0,0.55685-0.45142,1.00827-1.00827,1.00827l0,0c-0.55685,0-1.00827-0.45142-1.00827-1.00827l0,0
		c0-0.55685,0.45142-1.00827,1.00827-1.00827l0,0C298.55823-413.01102,299.00964-412.5596,299.00964-412.00275L299.00964-412.00275
		L299.00964-412.00275z M288.51102-412.00275c0,0.55685-0.45142,1.00827-1.00827,1.00827l0,0
		c-0.55685,0-1.00827-0.45142-1.00827-1.00827l0,0c0-0.55685,0.45142-1.00827,1.00827-1.00827l0,0
		C288.0596-413.01102,288.51102-412.5596,288.51102-412.00275L288.51102-412.00275L288.51102-412.00275z M278.01239-412.00275
		c0,0.55685-0.45142,1.00827-1.00827,1.00827l0,0c-0.55682,0-1.00824-0.45142-1.00824-1.00827l0,0
		c0-0.55685,0.45139-1.00827,1.00824-1.00827l0,0C277.56097-413.01102,278.01239-412.5596,278.01239-412.00275L278.01239-412.00275
		L278.01239-412.00275z M267.51376-412.00275c0,0.55685-0.45142,1.00827-1.00824,1.00827h-0.00003
		c-0.55682,0-1.00824-0.45142-1.00824-1.00827l0,0c0-0.55685,0.45142-1.00827,1.00824-1.00827l0,0
		C267.06235-413.01102,267.51376-412.5596,267.51376-412.00275L267.51376-412.00275L267.51376-412.00275z M257.01514-412.00275
		c0,0.55685-0.45142,1.00827-1.00824,1.00827c0,0,0,0-0.00003,0c-0.55682,0-1.00824-0.45142-1.00824-1.00827l0,0
		c0-0.55685,0.4514-1.00827,1.00824-1.00827l0,0C256.56372-413.01102,257.01514-412.5596,257.01514-412.00275L257.01514-412.00275
		L257.01514-412.00275z M341.00412-422.50137c0,0.55685-0.45139,1.00827-1.00824,1.00827l0,0
		c-0.55685,0-1.00827-0.45142-1.00827-1.00827l0,0c0-0.55685,0.45142-1.00827,1.00827-1.00827l0,0
		C340.5527-423.50964,341.00412-423.05823,341.00412-422.50137L341.00412-422.50137L341.00412-422.50137z M330.50549-422.50137
		c0,0.55685-0.45139,1.00827-1.00824,1.00827l0,0c-0.55685,0-1.00827-0.45142-1.00827-1.00827l0,0
		c0-0.55685,0.45142-1.00827,1.00827-1.00827l0,0C330.05408-423.50964,330.50549-423.05823,330.50549-422.50137L330.50549-422.50137
		L330.50549-422.50137z M320.0069-422.50137c0,0.55685-0.45142,1.00827-1.00827,1.00827l0,0
		c-0.55685,0-1.00827-0.45142-1.00827-1.00827l0,0c0-0.55685,0.45142-1.00827,1.00827-1.00827l0,0
		c0.55682,0,1.00824,0.45142,1.00824,1.00827l0,0H320.0069z M309.50827-422.50137c0,0.55685-0.45142,1.00827-1.00827,1.00827l0,0
		c-0.55685,0-1.00827-0.45142-1.00827-1.00827l0,0c0-0.55685,0.45142-1.00827,1.00827-1.00827l0,0
		c0.55685,0,1.00824,0.45142,1.00824,1.00827l0,0H309.50827z M299.00964-422.50137c0,0.55685-0.45142,1.00827-1.00827,1.00827l0,0
		c-0.55685,0-1.00827-0.45142-1.00827-1.00827l0,0c0-0.55685,0.45142-1.00827,1.00827-1.00827l0,0
		C298.55823-423.50964,299.00964-423.05823,299.00964-422.50137L299.00964-422.50137L299.00964-422.50137z M288.51102-422.50137
		c0,0.55685-0.45142,1.00827-1.00827,1.00827l0,0c-0.55685,0-1.00827-0.45142-1.00827-1.00827l0,0
		c0-0.55685,0.45142-1.00827,1.00827-1.00827l0,0C288.0596-423.50964,288.51102-423.05823,288.51102-422.50137L288.51102-422.50137
		L288.51102-422.50137z M278.01239-422.50137c0,0.55685-0.45142,1.00827-1.00827,1.00827l0,0
		c-0.55682,0-1.00824-0.45142-1.00824-1.00827l0,0c0-0.55685,0.45139-1.00827,1.00824-1.00827l0,0
		C277.56097-423.50964,278.01239-423.05823,278.01239-422.50137L278.01239-422.50137L278.01239-422.50137z M267.51376-422.50137
		c0,0.55685-0.45142,1.00827-1.00824,1.00827h-0.00003c-0.55682,0-1.00824-0.45142-1.00824-1.00827l0,0
		c0-0.55685,0.45142-1.00827,1.00824-1.00827l0,0C267.06235-423.50964,267.51376-423.05823,267.51376-422.50137L267.51376-422.50137
		L267.51376-422.50137z M257.01514-422.50137c0,0.55685-0.45142,1.00827-1.00824,1.00827c0,0,0,0-0.00003,0
		c-0.55682,0-1.00824-0.45142-1.00824-1.00827l0,0c0-0.55685,0.4514-1.00827,1.00824-1.00827l0,0
		C256.56372-423.50964,257.01514-423.05823,257.01514-422.50137L257.01514-422.50137L257.01514-422.50137z M341.00412-433
		c0,0.55685-0.45142,1.00827-1.00824,1.00827l0,0c-0.55685,0-1.00827-0.45142-1.00827-1.00827s0.45142-1.00824,1.00827-1.00824
		C340.5527-434.00824,341.00412-433.55685,341.00412-433L341.00412-433z M330.50549-433c0,0.55685-0.45139,1.00827-1.00824,1.00827
		l0,0c-0.55685,0-1.00827-0.45142-1.00827-1.00827s0.45142-1.00824,1.00827-1.00824
		C330.05408-434.00824,330.50549-433.55685,330.50549-433L330.50549-433z M320.0069-433c0,0.55685-0.45142,1.00827-1.00827,1.00827
		l0,0c-0.55685,0-1.00827-0.45142-1.00827-1.00827s0.45142-1.00824,1.00827-1.00824c0.55682,0,1.00824,0.45139,1.00824,1.00824
		H320.0069z M309.50827-433c0,0.55685-0.45142,1.00827-1.00827,1.00827l0,0c-0.55685,0-1.00827-0.45142-1.00827-1.00827
		s0.45142-1.00824,1.00827-1.00824s1.00824,0.45139,1.00824,1.00824H309.50827z M299.00964-433
		c0,0.55685-0.45142,1.00827-1.00827,1.00827l0,0c-0.55685,0-1.00827-0.45142-1.00827-1.00827l0,0
		c0-0.55685,0.45142-1.00824,1.00827-1.00824l0,0C298.55823-434.00824,299.00964-433.55685,299.00964-433L299.00964-433
		L299.00964-433z M288.51102-433c0,0.55685-0.45142,1.00827-1.00827,1.00827l0,0c-0.55685,0-1.00827-0.45142-1.00827-1.00827l0,0
		c0-0.55685,0.45142-1.00824,1.00827-1.00824l0,0C288.0596-434.00824,288.51102-433.55685,288.51102-433L288.51102-433
		L288.51102-433z M278.01239-433c0,0.55685-0.45142,1.00827-1.00827,1.00827l0,0c-0.55682,0-1.00824-0.45142-1.00824-1.00827l0,0
		c0-0.55685,0.45142-1.00824,1.00824-1.00824l0,0C277.56097-434.00824,278.01239-433.55685,278.01239-433L278.01239-433
		L278.01239-433z M267.51376-433c0,0.55685-0.45142,1.00827-1.00827,1.00827l0,0c-0.55682,0-1.00824-0.45142-1.00824-1.00827
		s0.45142-1.00824,1.00824-1.00824C267.06235-434.00824,267.51376-433.55685,267.51376-433L267.51376-433z M257.01514-433
		c0,0.55685-0.45142,1.00827-1.00824,1.00827h-0.00003c-0.55682,0-1.00824-0.45142-1.00824-1.00827s0.45142-1.00824,1.00824-1.00824
		C256.56372-434.00824,257.01514-433.55685,257.01514-433L257.01514-433z M341.00412-443.49863
		c0,0.55685-0.45142,1.00827-1.00824,1.00827l0,0c-0.55685,0-1.00827-0.45142-1.00827-1.00827
		c0-0.55682,0.45142-1.00824,1.00827-1.00824C340.5527-444.50687,341.00412-444.05545,341.00412-443.49863L341.00412-443.49863z
		 M330.50549-443.49863c0,0.55685-0.45139,1.00827-1.00824,1.00827l0,0c-0.55685,0-1.00827-0.45142-1.00827-1.00827
		c0-0.55682,0.45142-1.00824,1.00827-1.00824C330.05408-444.50687,330.50549-444.05545,330.50549-443.49863L330.50549-443.49863z
		 M320.0069-443.49863c0,0.55685-0.45142,1.00827-1.00827,1.00827l0,0c-0.55685,0-1.00827-0.45142-1.00827-1.00827
		c0-0.55682,0.45142-1.00824,1.00827-1.00824c0.55682,0,1.00824,0.45142,1.00824,1.00824H320.0069z M309.50827-443.49863
		c0,0.55685-0.45142,1.00827-1.00827,1.00827l0,0c-0.55685,0-1.00827-0.45142-1.00827-1.00827
		c0-0.55682,0.45142-1.00824,1.00827-1.00824s1.00824,0.45142,1.00824,1.00824H309.50827z M299.00964-443.49863
		c0,0.55685-0.45142,1.00827-1.00827,1.00827l0,0c-0.55685,0-1.00827-0.45142-1.00827-1.00827l0,0
		c0-0.55682,0.45142-1.00824,1.00827-1.00824l0,0C298.55823-444.50687,299.00964-444.05548,299.00964-443.49863L299.00964-443.49863
		L299.00964-443.49863z M288.51102-443.49863c0,0.55685-0.45142,1.00827-1.00827,1.00827l0,0
		c-0.55685,0-1.00827-0.45142-1.00827-1.00827l0,0c0-0.55682,0.45142-1.00824,1.00827-1.00824l0,0
		C288.0596-444.50687,288.51102-444.05548,288.51102-443.49863L288.51102-443.49863L288.51102-443.49863z M278.01239-443.49863
		c0,0.55685-0.45142,1.00827-1.00827,1.00827l0,0c-0.55682,0-1.00824-0.45142-1.00824-1.00827l0,0
		c0-0.55682,0.45142-1.00824,1.00824-1.00824l0,0C277.56097-444.50687,278.01239-444.05548,278.01239-443.49863L278.01239-443.49863
		L278.01239-443.49863z M267.51376-443.49863c0,0.55685-0.45142,1.00827-1.00827,1.00827l0,0
		c-0.55682,0-1.00824-0.45142-1.00824-1.00827c0-0.55682,0.45142-1.00824,1.00824-1.00824
		C267.06235-444.50687,267.51376-444.05545,267.51376-443.49863L267.51376-443.49863z M257.01514-443.49863
		c0,0.55685-0.45142,1.00827-1.00824,1.00827h-0.00003c-0.55682,0-1.00824-0.45142-1.00824-1.00827
		c0-0.55682,0.45142-1.00824,1.00824-1.00824C256.56372-444.50687,257.01514-444.05545,257.01514-443.49863L257.01514-443.49863z
		 M341.00412-453.99725c0,0.55685-0.45142,1.00827-1.00824,1.00827l0,0c-0.55685,0-1.00827-0.45142-1.00827-1.00827
		c0-0.55682,0.45142-1.00824,1.00827-1.00824C340.5527-455.00549,341.00412-454.55408,341.00412-453.99725L341.00412-453.99725z
		 M330.50549-453.99725c0,0.55685-0.45139,1.00827-1.00824,1.00827l0,0c-0.55685,0-1.00827-0.45142-1.00827-1.00827
		c0-0.55682,0.45142-1.00824,1.00827-1.00824C330.05408-455.00549,330.50549-454.55408,330.50549-453.99725L330.50549-453.99725z
		 M320.0069-453.99725c0,0.55685-0.45142,1.00827-1.00827,1.00827l0,0c-0.55685,0-1.00827-0.45142-1.00827-1.00827
		c0-0.55682,0.45142-1.00824,1.00827-1.00824c0.55682,0,1.00824,0.45142,1.00824,1.00824H320.0069z M309.50827-453.99725
		c0,0.55685-0.45142,1.00827-1.00827,1.00827l0,0c-0.55685,0-1.00827-0.45142-1.00827-1.00827
		c0-0.55682,0.45142-1.00824,1.00827-1.00824s1.00824,0.45142,1.00824,1.00824H309.50827z M299.00964-453.99725
		c0,0.55685-0.45142,1.00827-1.00827,1.00827l0,0c-0.55685,0-1.00827-0.45142-1.00827-1.00827l0,0
		c0-0.55682,0.45142-1.00824,1.00827-1.00824l0,0C298.55823-455.00549,299.00964-454.55411,299.00964-453.99725L299.00964-453.99725
		L299.00964-453.99725z M288.51102-453.99725c0,0.55685-0.45142,1.00827-1.00827,1.00827l0,0
		c-0.55685,0-1.00827-0.45142-1.00827-1.00827l0,0c0-0.55682,0.45142-1.00824,1.00827-1.00824l0,0
		C288.0596-455.00549,288.51102-454.55411,288.51102-453.99725L288.51102-453.99725L288.51102-453.99725z M278.01239-453.99725
		c0,0.55685-0.45142,1.00827-1.00827,1.00827l0,0c-0.55682,0-1.00824-0.45142-1.00824-1.00827l0,0
		c0-0.55682,0.45142-1.00824,1.00824-1.00824l0,0C277.56097-455.00549,278.01239-454.55411,278.01239-453.99725L278.01239-453.99725
		L278.01239-453.99725z M267.51376-453.99725c0,0.55685-0.45142,1.00827-1.00827,1.00827l0,0
		c-0.55682,0-1.00824-0.45142-1.00824-1.00827c0-0.55682,0.45142-1.00824,1.00824-1.00824
		C267.06235-455.00549,267.51376-454.55408,267.51376-453.99725L267.51376-453.99725z M257.01514-453.99725
		c0,0.55685-0.45142,1.00827-1.00824,1.00827h-0.00003c-0.55682,0-1.00824-0.45142-1.00824-1.00827
		c0-0.55682,0.45142-1.00824,1.00824-1.00824C256.56372-455.00549,257.01514-454.55408,257.01514-453.99725L257.01514-453.99725z
		 M341.00412-464.49588c0,0.55685-0.45142,1.00827-1.00824,1.00827l0,0c-0.55685,0-1.00827-0.45142-1.00827-1.00827
		c0-0.55682,0.45142-1.00824,1.00827-1.00824C340.5527-465.50412,341.00412-465.0527,341.00412-464.49588L341.00412-464.49588z
		 M330.50549-464.49588c0,0.55685-0.45139,1.00827-1.00824,1.00827l0,0c-0.55685,0-1.00827-0.45142-1.00827-1.00827
		c0-0.55682,0.45142-1.00824,1.00827-1.00824C330.05408-465.50412,330.50549-465.0527,330.50549-464.49588L330.50549-464.49588z
		 M320.0069-464.49588c0,0.55685-0.45142,1.00827-1.00827,1.00827l0,0c-0.55685,0-1.00827-0.45142-1.00827-1.00827
		c0-0.55682,0.45142-1.00824,1.00827-1.00824c0.55682,0,1.00824,0.45142,1.00824,1.00824H320.0069z M309.50827-464.49588
		c0,0.55685-0.45142,1.00827-1.00827,1.00827l0,0c-0.55685,0-1.00827-0.45142-1.00827-1.00827
		c0-0.55682,0.45142-1.00824,1.00827-1.00824s1.00824,0.45142,1.00824,1.00824H309.50827z M299.00964-464.49588
		c0,0.55685-0.45142,1.00827-1.00827,1.00827l0,0c-0.55685,0-1.00827-0.45142-1.00827-1.00827l0,0
		c0-0.55682,0.45142-1.00824,1.00827-1.00824l0,0C298.55823-465.50412,299.00964-465.0527,299.00964-464.49588L299.00964-464.49588
		L299.00964-464.49588z M288.51102-464.49588c0,0.55685-0.45142,1.00827-1.00827,1.00827l0,0
		c-0.55685,0-1.00827-0.45142-1.00827-1.00827l0,0c0-0.55682,0.45142-1.00824,1.00827-1.00824l0,0
		C288.0596-465.50412,288.51102-465.0527,288.51102-464.49588L288.51102-464.49588L288.51102-464.49588z M278.01239-464.49588
		c0,0.55685-0.45142,1.00827-1.00827,1.00827l0,0c-0.55682,0-1.00824-0.45142-1.00824-1.00827l0,0
		c0-0.55682,0.45142-1.00824,1.00824-1.00824l0,0C277.56097-465.50412,278.01239-465.0527,278.01239-464.49588L278.01239-464.49588
		L278.01239-464.49588z M267.51376-464.49588c0,0.55685-0.45142,1.00827-1.00827,1.00827l0,0
		c-0.55682,0-1.00824-0.45142-1.00824-1.00827c0-0.55682,0.45142-1.00824,1.00824-1.00824
		C267.06235-465.50412,267.51376-465.0527,267.51376-464.49588L267.51376-464.49588z M257.01514-464.49588
		c0,0.55685-0.45142,1.00827-1.00824,1.00827h-0.00003c-0.55682,0-1.00824-0.45142-1.00824-1.00827
		c0-0.55682,0.45142-1.00824,1.00824-1.00824C256.56372-465.50412,257.01514-465.0527,257.01514-464.49588L257.01514-464.49588z
		 M341.00412-474.99448c0,0.55682-0.45142,1.00824-1.00824,1.00824l0,0c-0.55685,0-1.00827-0.45142-1.00827-1.00824
		c0-0.55685,0.45142-1.00827,1.00827-1.00827C340.5527-476.00275,341.00412-475.55133,341.00412-474.99448L341.00412-474.99448z
		 M330.50549-474.99448c0,0.55682-0.45139,1.00824-1.00824,1.00824l0,0c-0.55685,0-1.00827-0.45142-1.00827-1.00824
		c0-0.55685,0.45142-1.00827,1.00827-1.00827C330.05408-476.00275,330.50549-475.55133,330.50549-474.99448L330.50549-474.99448z
		 M320.0069-474.99448c0,0.55682-0.45142,1.00824-1.00827,1.00824l0,0c-0.55685,0-1.00827-0.45142-1.00827-1.00824
		c0-0.55685,0.45142-1.00827,1.00827-1.00827c0.55682,0,1.00824,0.45142,1.00824,1.00827H320.0069z M309.50827-474.99448
		c0,0.55682-0.45142,1.00824-1.00827,1.00824l0,0c-0.55685,0-1.00827-0.45142-1.00827-1.00824
		c0-0.55685,0.45142-1.00827,1.00827-1.00827s1.00824,0.45142,1.00824,1.00827H309.50827z M299.00964-474.99448
		c0,0.55682-0.45142,1.00824-1.00827,1.00824l0,0c-0.55685,0-1.00827-0.45142-1.00827-1.00824l0,0
		c0-0.55685,0.45142-1.00827,1.00827-1.00827l0,0C298.55823-476.00275,299.00964-475.55133,299.00964-474.99448L299.00964-474.99448
		L299.00964-474.99448z M288.51102-474.99448c0,0.55682-0.45142,1.00824-1.00827,1.00824l0,0
		c-0.55685,0-1.00827-0.45142-1.00827-1.00824l0,0c0-0.55685,0.45142-1.00827,1.00827-1.00827l0,0
		C288.0596-476.00275,288.51102-475.55133,288.51102-474.99448L288.51102-474.99448L288.51102-474.99448z M278.01239-474.99448
		c0,0.55682-0.45142,1.00824-1.00827,1.00824l0,0c-0.55682,0-1.00824-0.45142-1.00824-1.00824l0,0
		c0-0.55685,0.45142-1.00827,1.00824-1.00827l0,0C277.56097-476.00275,278.01239-475.55133,278.01239-474.99448L278.01239-474.99448
		L278.01239-474.99448z M267.51376-474.99448c0,0.55682-0.45142,1.00824-1.00827,1.00824l0,0
		c-0.55682,0-1.00824-0.45142-1.00824-1.00824c0-0.55685,0.45142-1.00827,1.00824-1.00827
		C267.06235-476.00275,267.51376-475.55133,267.51376-474.99448L267.51376-474.99448z M257.01514-474.99448
		c0,0.55682-0.45142,1.00824-1.00824,1.00824h-0.00003c-0.55682,0-1.00824-0.45142-1.00824-1.00824
		c0-0.55685,0.45142-1.00827,1.00824-1.00827C256.56372-476.00275,257.01514-475.55133,257.01514-474.99448L257.01514-474.99448z
		 M341.00412-485.4931c0,0.55682-0.45139,1.00824-1.00824,1.00824l0,0c-0.55685,0-1.00827-0.45139-1.00827-1.00824l0,0
		c0-0.55685,0.45142-1.00827,1.00824-1.00827c0.00003,0,0.00003,0,0.00003,0
		C340.5527-486.50137,341.00412-486.04996,341.00412-485.4931L341.00412-485.4931L341.00412-485.4931z M330.50549-485.4931
		c0,0.55682-0.45139,1.00824-1.00824,1.00824l0,0c-0.55685,0-1.00827-0.45139-1.00827-1.00824l0,0
		c0-0.55685,0.45142-1.00827,1.00824-1.00827c0.00003,0,0.00003,0,0.00003,0
		C330.05408-486.50137,330.50549-486.04996,330.50549-485.4931L330.50549-485.4931L330.50549-485.4931z M320.0069-485.4931
		c0,0.55682-0.45142,1.00824-1.00827,1.00824l0,0c-0.55685,0-1.00827-0.45139-1.00827-1.00824l0,0
		c0-0.55685,0.45142-1.00827,1.00827-1.00827l0,0c0.55682,0,1.00824,0.45142,1.00824,1.00827l0,0H320.0069z M309.50827-485.4931
		c0,0.55682-0.45142,1.00824-1.00827,1.00824l0,0c-0.55685,0-1.00827-0.45139-1.00827-1.00824l0,0
		c0-0.55685,0.45142-1.00827,1.00827-1.00827l0,0c0.55685,0,1.00824,0.45142,1.00824,1.00827l0,0H309.50827z M299.00964-485.4931
		c0,0.55682-0.45142,1.00824-1.00827,1.00824l0,0c-0.55685,0-1.00827-0.45139-1.00827-1.00824l0,0
		c0-0.55685,0.45142-1.00827,1.00827-1.00827l0,0c0.55685,0,1.00827,0.45142,1.00827,1.00824
		C299.00964-485.4931,299.00964-485.4931,299.00964-485.4931L299.00964-485.4931z M288.51102-485.4931
		c0,0.55682-0.45142,1.00824-1.00827,1.00824l0,0c-0.55685,0-1.00827-0.45139-1.00827-1.00824l0,0
		c0-0.55685,0.45142-1.00827,1.00827-1.00827l0,0c0.55685,0,1.00827,0.45142,1.00827,1.00824
		C288.51102-485.4931,288.51102-485.4931,288.51102-485.4931L288.51102-485.4931z M278.01239-485.4931
		c0,0.55682-0.45142,1.00824-1.00824,1.00824c-0.00003,0-0.00003,0-0.00003,0c-0.55682,0-1.00824-0.45139-1.00824-1.00824l0,0
		c0-0.55685,0.45139-1.00827,1.00824-1.00827l0,0c0.55685,0,1.00827,0.45142,1.00827,1.00824
		C278.01239-485.4931,278.01239-485.4931,278.01239-485.4931L278.01239-485.4931z M267.51376-485.4931
		c0,0.55682-0.45142,1.00824-1.00824,1.00824h-0.00003c-0.55682,0-1.00824-0.45139-1.00824-1.00824l0,0
		c0-0.55685,0.45139-1.00827,1.00824-1.00827l0,0C267.06235-486.50137,267.51376-486.04996,267.51376-485.4931L267.51376-485.4931
		L267.51376-485.4931z M257.01514-485.4931c0,0.55682-0.45142,1.00824-1.00824,1.00824c0,0,0,0-0.00003,0
		c-0.55682,0-1.00824-0.45139-1.00824-1.00824l0,0c0-0.55685,0.4514-1.00827,1.00824-1.00827l0,0
		C256.56372-486.50137,257.01514-486.04996,257.01514-485.4931L257.01514-485.4931L257.01514-485.4931z M341.00412-495.99173
		c0,0.55682-0.45139,1.00824-1.00824,1.00824l0,0c-0.55685,0-1.00827-0.45139-1.00827-1.00824l0,0
		c0-0.55685,0.45142-1.00827,1.00824-1.00827c0.00003,0,0.00003,0,0.00003,0C340.5527-497,341.00412-496.54858,341.00412-495.99173
		L341.00412-495.99173L341.00412-495.99173z M330.50549-495.99173c0,0.55682-0.45139,1.00824-1.00824,1.00824l0,0
		c-0.55685,0-1.00827-0.45139-1.00827-1.00824l0,0c0-0.55685,0.45142-1.00827,1.00824-1.00827c0.00003,0,0.00003,0,0.00003,0
		C330.05408-497,330.50549-496.54858,330.50549-495.99173L330.50549-495.99173L330.50549-495.99173z M320.0069-495.99173
		c0,0.55682-0.45142,1.00824-1.00827,1.00824l0,0c-0.55685,0-1.00827-0.45139-1.00827-1.00824l0,0
		c0-0.55685,0.45142-1.00827,1.00827-1.00827l0,0c0.55682,0,1.00824,0.45142,1.00824,1.00827l0,0H320.0069z M309.50827-495.99173
		c0,0.55682-0.45142,1.00824-1.00827,1.00824l0,0c-0.55685,0-1.00827-0.45139-1.00827-1.00824l0,0
		c0-0.55685,0.45142-1.00827,1.00827-1.00827l0,0c0.55685,0,1.00824,0.45142,1.00824,1.00827l0,0H309.50827z M299.00964-495.99173
		c0,0.55682-0.45142,1.00824-1.00827,1.00824l0,0c-0.55685,0-1.00827-0.45139-1.00827-1.00824l0,0
		c0-0.55685,0.45142-1.00827,1.00827-1.00827l0,0c0.55685,0,1.00827,0.45142,1.00827,1.00824
		C299.00964-495.99173,299.00964-495.99173,299.00964-495.99173L299.00964-495.99173z M288.51102-495.99173
		c0,0.55682-0.45142,1.00824-1.00827,1.00824l0,0c-0.55685,0-1.00827-0.45139-1.00827-1.00824l0,0
		c0-0.55685,0.45142-1.00827,1.00827-1.00827l0,0c0.55685,0,1.00827,0.45142,1.00827,1.00824
		C288.51102-495.99173,288.51102-495.99173,288.51102-495.99173L288.51102-495.99173z M278.01239-495.99173
		c0,0.55682-0.45142,1.00824-1.00824,1.00824c-0.00003,0-0.00003,0-0.00003,0c-0.55682,0-1.00824-0.45139-1.00824-1.00824l0,0
		c0-0.55685,0.45139-1.00827,1.00824-1.00827l0,0c0.55685,0,1.00827,0.45142,1.00827,1.00824
		C278.01239-495.99173,278.01239-495.99173,278.01239-495.99173L278.01239-495.99173z M267.51376-495.99173
		c0,0.55682-0.45142,1.00824-1.00824,1.00824h-0.00003c-0.55682,0-1.00824-0.45139-1.00824-1.00824l0,0
		c0-0.55685,0.45139-1.00827,1.00824-1.00827l0,0C267.06235-497,267.51376-496.54858,267.51376-495.99173L267.51376-495.99173
		L267.51376-495.99173z M257.01514-495.99173c0,0.55682-0.45142,1.00824-1.00824,1.00824c0,0,0,0-0.00003,0
		c-0.55682,0-1.00824-0.45139-1.00824-1.00824l0,0c0-0.55685,0.4514-1.00827,1.00824-1.00827l0,0
		C256.56372-497,257.01514-496.54858,257.01514-495.99173L257.01514-495.99173L257.01514-495.99173z"/>
</g>
</svg>
