<?xml version="1.0" encoding="utf-8"?>
<!-- Generator: Adobe Illustrator 20.1.0, SVG Export Plug-In . SVG Version: 6.00 Build 0)  -->
<svg version="1.1" id="Layer_1" xmlns="http://www.w3.org/2000/svg" xmlns:xlink="http://www.w3.org/1999/xlink" x="0px" y="0px"
	 viewBox="0 0 1280 720" style="enable-background:new 0 0 1280 720;" xml:space="preserve">
<style type="text/css">
	.st0{fill:url(#SVGID_1_);}
	.st1{fill:#C59B6C;}
	.st2{opacity:0.5;}
	.st3{clip-path:url(#SVGID_3_);}
	.st4{clip-path:url(#SVGID_5_);fill:#FFFFFF;}
</style>
<radialGradient id="SVGID_1_" cx="640" cy="359.73199" r="732.12512" gradientUnits="userSpaceOnUse">
	<stop  offset="0" style="stop-color:#DDCEAA"/>
	<stop  offset="1" style="stop-color:#D3C294"/>
</radialGradient>
<rect class="st0" width="1280" height="719.46399"/>
<g>
	<g>
		<g>
			<path class="st1" d="M168.4948,168.21973c1.87102-4.92728,6.43239-8.4417,11.67876-8.978c1.90198-0.19443,1.922-3.19647,0-3
				c-6.68636,0.6835-12.18442,4.89388-14.57159,11.18047C164.91591,169.22888,167.81496,170.01006,168.4948,168.21973
				L168.4948,168.21973z"/>
		</g>
	</g>
	<g>
		<g>
			<path class="st1" d="M950.66406,132.67975c0.67407,0.67268,1.34821,1.34535,2.02234,2.01804
				c0.57343,0.57224,1.54803,0.57327,2.12134,0c0.57428-0.57431,0.57526-1.54727,0-2.12132
				c-0.67413-0.67267-1.34827-1.34535-2.0224-2.01804c-0.57343-0.57222-1.54803-0.57327-2.12128,0
				C950.08972,131.13274,950.08875,132.1057,950.66406,132.67975L950.66406,132.67975z"/>
		</g>
	</g>
	<g>
		<g>
			<path class="st1" d="M1000.03149,503.81964c-0.77081,1.98233-1.54163,3.96463-2.31244,5.94696
				c-0.70007,1.80038,2.19958,2.58038,2.89282,0.79752c0.77081-1.98233,1.54163-3.96463,2.31244-5.94696
				C1003.62439,502.81677,1000.72473,502.03677,1000.03149,503.81964L1000.03149,503.81964z"/>
		</g>
	</g>
	<g>
		<g>
			<path class="st1" d="M211.82465,634.49677c-0.24193-2.30939-1.47913-4.3634-3.56947-5.45673
				c-1.709-0.89386-3.22742,1.69427-1.51414,2.59039c1.09468,0.57257,1.95103,1.60077,2.08362,2.86633
				c0.0844,0.8056,0.62898,1.5,1.5,1.5C211.07021,635.99677,211.90958,635.3075,211.82465,634.49677L211.82465,634.49677z"/>
		</g>
	</g>
	<g>
		<g>
			<path class="st1" d="M71.8058,706.45502c-0.3367,0.6734-0.6734,1.3468-1.0101,2.0202
				c-0.36213,0.7243-0.19286,1.62476,0.53813,2.05231c0.66492,0.38892,1.68858,0.18927,2.05228-0.53815
				c0.3367-0.6734,0.6734-1.3468,1.0101-2.0202c0.36213-0.72424,0.19286-1.62469-0.53813-2.05225
				C73.19317,705.52802,72.16952,705.7276,71.8058,706.45502L71.8058,706.45502z"/>
		</g>
	</g>
	<g>
		<g>
			<path class="st1" d="M1233.91895,719.039c2.2428-3.59711,7.14551-4.33215,10.49268-1.87683
				c1.55823,1.14319,3.05652-1.45892,1.51416-2.59039c-4.698-3.44629-11.55872-1.92023-14.59729,2.95306
				C1230.30408,719.16779,1232.89844,720.6756,1233.91895,719.039L1233.91895,719.039z"/>
		</g>
	</g>
	<g>
		<g>
			<path class="st1" d="M1253.20264,44.64564c-5.9873-1.44523-6.0304-11.46805,0.94824-10.74469
				c2.62451,0.27205,5.38623,2.32537,4.87122,5.23853c-0.55188,3.12122-4.47131,5.43134-7.35229,3.94648
				c-1.7135-0.88307-3.23279,1.70469-1.51416,2.59041c4.3136,2.22323,9.71802-0.22084,11.43176-4.68789
				c1.74207-4.54105-1.56348-8.90924-6.02637-9.88357c-4.4519-0.97194-9.05847,1.45743-9.77112,6.16791
				c-0.67798,4.4816,2.146,9.18686,6.61523,10.26565C1254.28113,47.99129,1255.08154,45.09917,1253.20264,44.64564
				L1253.20264,44.64564z"/>
		</g>
	</g>
	<g>
		<g>
			<path class="st1" d="M58.95959,10.73232c1.93036,0,1.93356-3,0-3C57.02924,7.73232,57.02604,10.73232,58.95959,10.73232
				L58.95959,10.73232z"/>
		</g>
	</g>
	<g>
		<g>
			<path class="st1" d="M582.7121,309.23233c0,2.6936,0,5.38721,0,8.08081c0,1.93036,3,1.93353,3,0c0-2.6936,0-5.38721,0-8.08081
				C585.7121,307.30197,582.7121,307.29877,582.7121,309.23233L582.7121,309.23233z"/>
		</g>
	</g>
	<g>
		<g>
			<path class="st1" d="M888.03107,387.33823c2.33502-1.71332,4.67004-3.42664,7.00507-5.13995
				c1.54053-1.13037,0.04559-3.73486-1.51416-2.59042c-2.33502,1.71332-4.67004,3.42664-7.00507,5.13995
				C884.97638,385.87817,886.47131,388.4827,888.03107,387.33823L888.03107,387.33823z"/>
		</g>
	</g>
	<g>
		<g>
			<path class="st1" d="M1136.72437,189.74638c-0.95435,4.60777,2.38916,9.03424,7.05371,9.45265
				c1.92224,0.17242,1.91064-2.82861,0-3c-2.65588-0.23824-4.69714-3.06622-4.16089-5.65514
				C1140.00732,188.65977,1137.11621,187.8541,1136.72437,189.74638L1136.72437,189.74638z"/>
		</g>
	</g>
	<g>
		<g>
			<path class="st1" d="M33.69661,305.87585c-1.19194,5.41663-1.68684,10.88364-1.10961,16.41937
				c0.4309,4.13235,3.77829,12.62524-0.819,15.46753c-1.63909,1.01337-0.13423,3.60953,1.51416,2.59042
				c3.70996-2.2937,4.03548-6.17038,3.56347-10.23206c-0.95376-8.20718-2.07335-15.18988-0.25618-23.44775
				C37.00348,304.79187,34.112,303.98816,33.69661,305.87585L33.69661,305.87585z"/>
		</g>
	</g>
	<g>
		<g>
			<path class="st1" d="M1246.83838,371.33838c1.93042,0,1.93359-3,0-3
				C1244.90808,368.33838,1244.90479,371.33838,1246.83838,371.33838L1246.83838,371.33838z"/>
		</g>
	</g>
	<g>
		<g>
			<path class="st1" d="M473.39459,711.48621c2.90152,2.15118,6.71918,2.64154,10.06787,1.2851
				c-0.61505-0.34924-1.2301-0.69843-1.84518-1.04767c0.38269,1.65887,0.76538,3.31769,1.14807,4.97656
				c0.43381,1.88049,3.327,1.08453,2.89282-0.79749c-0.38269-1.65887-0.76535-3.31775-1.14804-4.97662
				c-0.16727-0.72498-1.11411-1.34375-1.84518-1.04767c-2.70383,1.09528-5.41388,0.75397-7.7562-0.9826
				C473.35675,707.74518,471.85913,710.34784,473.39459,711.48621L473.39459,711.48621z"/>
		</g>
	</g>
	<g>
		<g>
			<path class="st1" d="M624.61951,11.51718c1.37878-4.17719,4.20599-7.54067,8.03601-9.68599
				c1.68457-0.94359,0.17377-3.5359-1.51416-2.59041c-4.51642,2.5298-7.79492,6.57156-9.41467,11.47888
				C621.12012,12.55725,624.01624,13.34496,624.61951,11.51718L624.61951,11.51718z"/>
		</g>
	</g>
</g>
<g class="st2">
	<g>
		<defs>
			<rect id="SVGID_2_" x="480" y="200.004" width="320" height="319.992"/>
		</defs>
		<clipPath id="SVGID_3_">
			<use xlink:href="#SVGID_2_"  style="overflow:visible;"/>
		</clipPath>
		<g class="st3">
			<defs>
				<rect id="SVGID_4_" x="480" y="200.004" width="320" height="319.992"/>
			</defs>
			<clipPath id="SVGID_5_">
				<use xlink:href="#SVGID_4_"  style="overflow:visible;"/>
			</clipPath>
			<path class="st4" d="M707.71838,411.18179c-5.82001-0.01599-8.12-3.42398-8.12-3.42398
				c-0.32501-1.55801-0.84601-24.37701-1.03601-47.173c-0.198-23.64499-0.02399-47.29099,1.16199-47.362
				c6.71301-12.504,28.13306-37.71201,28.13306-37.71201c-40.00104,7.828-61.80005,33.802-61.80005,33.802
				c-6.43597-5.008-19.578-4.18298-19.578-4.18298c6.15204,3.36899,12.30402,13.14899,12.30402,21.26196v79.69803
				c0,0-13.43402,11.74899-23.77698,11.74899c-6.112,0-9.89203-3.328-11.95502-6.04102
				c-1.42297-1.90497-2.02399-3.46298-2.02399-3.46298V309.8938c-1.28101,0.90601-3.07599,1.66101-4.94202,1.66101
				c-2.19-0.02399-4.46698-1.11902-6.00098-4.32501c-1.17804-2.43597-1.922-6.065-1.922-11.32199
				c0-18.16299,20.70001-30.19,20.70001-30.19c-26.28204,6.98203-50.62701,20.40799-83.07703,57.314
				c-32.43402,36.92102-26.27502,67.38599-26.27502,67.38599s8.95905-20.96899,30.48901-43.04898
				c10.20001-10.457,17.815-13.95901,23.01703-13.97202c5.77997-0.01898,8.57196,4.25403,8.57196,8.09702v74.95401
				c0,7.392-4.79999,8.98199-9.21198,8.91901c-3.771-0.08002-7.28198-1.39203-7.28198-1.39203
				c22.08295,31.896,74.94897,36.37201,74.94897,36.37201l23.21503-24.61401l0.52899,0.45102l21.27698,18.01099
				c38.87897-22.92999,57.61896-65.43698,57.61896-65.43698C725.3194,406.97479,714.25739,411.23682,707.71838,411.18179"/>
			<path class="st4" d="M639.98828,200.00372c-88.35999,0-159.98798,71.64499-159.98798,160.008
				c0,88.36398,71.62799,159.98401,159.98798,159.98401c88.35901,0,160.01196-71.62003,160.01196-159.98401
				C800.00024,271.64871,728.34729,200.00372,639.98828,200.00372 M639.98828,496.41769
				c-75.32196,0-136.40198-61.073-136.40198-136.40598s61.08002-136.42099,136.40198-136.42099
				c75.33704,0,136.409,61.08798,136.409,136.42099S715.32532,496.41769,639.98828,496.41769"/>
		</g>
	</g>
</g>
</svg>
