<?xml version="1.0" encoding="utf-8"?>
<!-- Generator: Adobe Illustrator 21.1.0, SVG Export Plug-In . SVG Version: 6.00 Build 0)  -->
<svg version="1.1" id="Layer_1" xmlns="http://www.w3.org/2000/svg" xmlns:xlink="http://www.w3.org/1999/xlink" x="0px" y="0px"
	 viewBox="0 0 640 320" style="enable-background:new 0 0 640 320;" xml:space="preserve">
<style type="text/css">
	.st0{fill:#5C8DBC;}
	.st1{fill:#1A4674;}
	.st2{fill:#1B598E;}
	.st3{fill:#FFFFFF;}
</style>
<path class="st0" d="M446.3,99.6c0-4.8-1-9.1-3.1-12.8c-2.1-3.6-5.1-6.6-9.3-9c-34.1-19.7-68.3-39.3-102.4-59
	c-9.2-5.3-18.1-5.1-27.2,0.3c-13.6,8-81.6,47-101.8,58.7c-8.3,4.8-12.4,12.2-12.4,21.8c0,39.6,0,79.1,0,118.7c0,4.7,1,8.9,3,12.5
	c2.1,3.7,5.2,6.8,9.4,9.3c20.3,11.7,88.2,50.7,101.8,58.7c9.1,5.4,18,5.6,27.2,0.3c34.1-19.7,68.3-39.3,102.4-59
	c4.2-2.4,7.4-5.6,9.4-9.3c2-3.6,3-7.8,3-12.6C446.3,218.3,446.3,139.2,446.3,99.6"/>
<path class="st1" d="M318.6,158.6l-125.5,72.3c2.1,3.7,5.2,6.8,9.4,9.3c20.3,11.7,88.2,50.7,101.8,58.7c9.1,5.4,18,5.6,27.2,0.3
	c34.1-19.7,68.3-39.3,102.4-59c4.2-2.4,7.4-5.6,9.4-9.3L318.6,158.6"/>
<path class="st1" d="M281.4,180c7.3,12.8,21,21.4,36.8,21.4c15.8,0,29.7-8.7,36.9-21.6l-36.5-21.2L281.4,180"/>
<path class="st2" d="M446.3,99.6c0-4.8-1-9.1-3.1-12.8l-124.6,71.7l124.7,72.3c2-3.6,3-7.8,3-12.6
	C446.3,218.3,446.3,139.2,446.3,99.6"/>
<path class="st3" d="M439.4,163.7h-9.7v9.7h-9.7v-9.7h-9.7V154h9.7v-9.7h9.7v9.7h9.7V163.7 M403.9,163.7h-9.7v9.7h-9.7v-9.7h-9.7
	V154h9.7v-9.7h9.7v9.7h9.7V163.7"/>
<path class="st3" d="M355.1,179.7c-7.3,12.9-21.1,21.6-36.9,21.6c-15.8,0-29.5-8.6-36.8-21.4c-3.7-6.4-5.6-13.6-5.6-21
	c0-23.4,19-42.4,42.4-42.4c15.6,0,29.3,8.5,36.6,21.1l37-21.3c-14.7-25.4-42.2-42.5-73.7-42.5c-47,0-85.1,38.1-85.1,85.1
	c0,15.4,4.1,29.9,11.3,42.3c14.7,25.5,42.2,42.7,73.8,42.7c31.6,0,59.2-17.3,73.9-42.9L355.1,179.7"/>
</svg>
