<?xml version="1.0" encoding="utf-8"?>
<!-- Generator: Adobe Illustrator 21.1.0, SVG Export Plug-In . SVG Version: 6.00 Build 0)  -->
<svg version="1.1" id="Layer_1" xmlns="http://www.w3.org/2000/svg" xmlns:xlink="http://www.w3.org/1999/xlink" x="0px" y="0px"
	 viewBox="0 0 640 320" style="enable-background:new 0 0 640 320;" xml:space="preserve">
<style type="text/css">
	.st0{fill:#EDD94F;}
	.st1{fill:#191919;}
</style>
<g id="js-logo">
	<rect id="background" x="176" y="16" class="st0" width="288" height="288"/>
	<path id="j" class="st1" d="M251.7,256.7l22-13.3c4.3,7.5,8.1,13.9,17.4,13.9c8.9,0,14.5-3.5,14.5-17v-92h27.1v92.4
		c0,28-16.4,40.8-40.4,40.8C270.7,281.4,258.1,270.2,251.7,256.7"/>
	<path id="s" class="st1" d="M347.4,253.8l22-12.8c5.8,9.5,13.3,16.4,26.7,16.4c11.2,0,18.4-5.6,18.4-13.3c0-9.3-7.3-12.6-19.7-18
		l-6.8-2.9c-19.5-8.3-32.5-18.8-32.5-40.8c0-20.3,15.5-35.8,39.6-35.8c17.2,0,29.6,6,38.5,21.7l-21.1,13.5
		c-4.6-8.3-9.7-11.6-17.4-11.6c-7.9,0-13,5-13,11.6c0,8.1,5,11.4,16.6,16.4l6.8,2.9c23,9.9,36,19.9,36,42.5
		c0,24.4-19.1,37.7-44.9,37.7C371.6,281.4,355.4,269.4,347.4,253.8"/>
</g>
</svg>
