<?xml version="1.0" encoding="utf-8"?>
<!-- Generator: Adobe Illustrator 21.1.0, SVG Export Plug-In . SVG Version: 6.00 Build 0)  -->
<svg version="1.1" id="Layer_1" xmlns="http://www.w3.org/2000/svg" xmlns:xlink="http://www.w3.org/1999/xlink" x="0px" y="0px"
	 viewBox="0 0 640 320" style="enable-background:new 0 0 640 320;" xml:space="preserve">
<style type="text/css">
	.st0{fill:url(#SVGID_1_);}
</style>
<radialGradient id="SVGID_1_" cx="318.9" cy="556.9125" r="143.8813" gradientTransform="matrix(1 0 0 1 0 -398)" gradientUnits="userSpaceOnUse">
	<stop  offset="0.6564" style="stop-color:#212222"/>
	<stop  offset="0.7389" style="stop-color:#242321"/>
	<stop  offset="0.7987" style="stop-color:#2D271F"/>
	<stop  offset="0.8514" style="stop-color:#3D2D1A"/>
	<stop  offset="0.8998" style="stop-color:#533514"/>
	<stop  offset="0.9455" style="stop-color:#70400C"/>
	<stop  offset="0.9885" style="stop-color:#934D03"/>
	<stop  offset="1" style="stop-color:#9E5100"/>
</radialGradient>
<path class="st0" d="M310,48.9c0-4.7,3.8-8.6,8.6-8.6c4.7,0,8.6,3.8,8.6,8.6s-3.8,8.6-8.6,8.6S310,53.7,310,48.9 M207.9,126.4
	c0-4.7,3.8-8.6,8.6-8.6c4.7,0,8.6,3.8,8.6,8.6c0,4.7-3.8,8.6-8.6,8.6S207.9,131.2,207.9,126.4 M412.1,126.8c0-4.7,3.8-8.6,8.6-8.6
	c4.7,0,8.6,3.8,8.6,8.6c0,4.7-3.8,8.6-8.6,8.6C416,135.4,412.1,131.6,412.1,126.8 M232.7,138.6c3.9-1.7,5.7-6.4,4-10.3l-3.8-8.6
	h14.9V187h-30.2c-3.7-13.1-4.9-26.7-3.4-40.2L232.7,138.6z M295.1,140.2v-19.8h35.6c1.8,0,13,2.1,13,10.4c0,6.9-8.5,9.4-15.6,9.4
	L295.1,140.2z M246.6,247.1c0-4.7,3.8-8.6,8.6-8.6c4.7,0,8.6,3.8,8.6,8.6c0,4.7-3.8,8.6-8.6,8.6
	C250.4,255.6,246.6,251.8,246.6,247.1 M373.4,247.5c0-4.7,3.8-8.6,8.6-8.6s8.6,3.8,8.6,8.6s-3.8,8.6-8.6,8.6
	S373.4,252.2,373.4,247.5 M376.1,228c-4.2-0.9-8.4,1.8-9.3,6l-4.3,20.1c-28,12.7-60.1,12.5-87.9-0.4l-4.3-20.1
	c-0.9-4.2-5.1-6.9-9.3-6l-17.7,3.8c-3.3-3.4-6.3-7-9.2-10.8h86.1c1,0,1.6-0.2,1.6-1.1V189c0-0.9-0.6-1.1-1.6-1.1H295v-19.3h27.2
	c2.5,0,13.3,0.7,16.8,14.5c1.1,4.2,3.5,18.1,5.1,22.5c1.6,5,8.2,14.9,15.2,14.9h44.5c-3,4-6.2,7.8-9.8,11.3L376.1,228z M423.9,147.6
	c0.6,6.1,0.7,12.2,0.2,18.3h-10.8c-1.1,0-1.5,0.7-1.5,1.8v5c0,11.7-6.6,14.2-12.4,14.9c-5.5,0.6-11.6-2.3-12.3-5.7
	c-3.2-18.2-8.7-22.1-17.2-28.9c10.6-6.7,21.6-16.7,21.6-29.9c0-14.3-9.8-23.4-16.5-27.8c-9.4-6.2-19.8-7.4-22.6-7.4H240.5
	c15.5-17.3,36.2-29,59-33.3l13.2,13.8c3,3.1,7.9,3.2,11,0.3l14.7-14.1c30.4,5.7,56.8,24.5,72.1,51.4l-10.1,22.8
	c-1.7,3.9,0,8.6,4,10.3L423.9,147.6z M449.1,148l-0.3-3.5l10.4-9.7c2.1-2,1.3-5.9-1.4-6.9l-13.3-5l-1-3.4l8.3-11.5
	c1.7-2.3,0.1-6.1-2.7-6.5l-14-2.3l-1.7-3.1l5.9-12.9c1.2-2.6-1-6-3.9-5.9L421,77.6l-2.2-2.7L422,61c0.7-2.8-2.2-5.7-5-5l-13.9,3.3
	l-2.7-2.2l0.5-14.2c0.1-2.9-3.3-5.1-5.9-3.9l-12.9,5.9L379,43l-2.3-14c-0.5-2.8-4.2-4.4-6.5-2.7l-11.5,8.3l-3.4-1l-5-13.3
	c-1-2.7-5-3.5-6.9-1.4l-9.7,10.4l-3.5-0.3l-7.5-12.1c-1.5-2.5-5.6-2.5-7.1,0l-7.6,12l-3.5,0.3l-9.7-10.4c-2-2.1-5.9-1.3-6.9,1.4
	l-5,13.3l-3.4,1L268,26.2c-2.3-1.7-6.1-0.1-6.5,2.7l-2.3,14l-3.1,1.7L243,38.8c-2.6-1.2-6,1.1-5.9,3.9l0.5,14.3l-2.7,2.2L221,56
	c-2.8-0.7-5.7,2.2-5,5l3.3,13.9l-2.3,2.7l-14.2-0.5c-2.9-0.1-5.1,3.3-3.9,5.9l5.9,12.9l-1.8,3.2l-14,2.3c-2.8,0.5-4.4,4.2-2.7,6.5
	l8.3,11.5l-1,3.4l-13.3,5c-2.7,1-3.5,5-1.4,6.9l10.4,9.7L189,148l-12.1,7.5c-2.5,1.5-2.5,5.6,0,7.1L189,170l0.3,3.5l-10.4,9.7
	c-2.1,2-1.3,5.9,1.4,6.9l13.3,5l1,3.4l-8.3,11.5c-1.7,2.3-0.1,6.1,2.7,6.5l14,2.3l1.7,3.2l-5.9,13c-1.2,2.6,1.1,6,3.9,5.9l14.2-0.5
	l2.2,2.7L216,257c-0.7,2.8,2.2,5.7,5,5l13.9-3.3l2.7,2.2l-0.5,14.2c-0.1,2.9,3.3,5.1,5.9,3.9l12.9-5.9l3.1,1.7l2.3,14
	c0.5,2.9,4.2,4.4,6.5,2.7l11.5-8.3l3.4,1l5,13.3c1,2.7,5,3.5,6.9,1.4l9.7-10.4l3.5,0.4l7.5,12.1c1.5,2.4,5.6,2.4,7.1,0l7.5-12.1
	l3.5-0.4l9.7,10.4c2,2.1,5.9,1.3,6.9-1.4l5-13.3l3.4-1l11.5,8.3c2.3,1.7,6.1,0.1,6.5-2.7l2.3-14l3.1-1.7l12.9,5.9
	c2.6,1.2,6-1,5.9-3.9l-0.5-14.2l2.7-2.2L417,262c2.8,0.7,5.7-2.2,5-5l-3.3-13.9l2.2-2.7l14.2,0.5c2.9,0.1,5.1-3.3,3.9-5.9l-5.9-12.9
	l1.7-3.2l14-2.3c2.9-0.5,4.4-4.2,2.7-6.5l-8.3-11.5l1-3.4l13.3-5c2.7-1,3.5-5,1.4-6.9l-10.4-9.7l0.3-3.5l12.1-7.5
	c2.5-1.5,2.5-5.6,0-7.1L449.1,148z"/>
</svg>
