<?xml version="1.0" encoding="utf-8"?>
<!-- Generator: Adobe Illustrator 20.1.0, SVG Export Plug-In . SVG Version: 6.00 Build 0)  -->
<svg version="1.1" xmlns="http://www.w3.org/2000/svg" xmlns:xlink="http://www.w3.org/1999/xlink" x="0px" y="0px"
	 viewBox="0 0 1280 720" style="enable-background:new 0 0 1280 720;" xml:space="preserve">
<style type="text/css">
	.st0{fill:url(#SVGID_1_);}
	.st1{opacity:0.33;fill:none;stroke:#29AAE2;stroke-width:16;stroke-linecap:round;stroke-linejoin:round;stroke-miterlimit:10;}
	.st2{opacity:0.66;fill:none;stroke:#29AAE2;stroke-width:16;stroke-linecap:round;stroke-linejoin:round;stroke-miterlimit:10;}
	.st3{opacity:0.46;fill:none;stroke:#29AAE2;stroke-width:16;stroke-linecap:round;stroke-linejoin:round;stroke-miterlimit:10;}
	.st4{opacity:0.88;}
	.st5{fill:#272361;stroke:#2E368F;stroke-width:16;stroke-miterlimit:10;}
	.st6{opacity:0.5;}
	.st7{fill:none;stroke:#29AAE2;stroke-width:16;stroke-linecap:round;stroke-linejoin:round;stroke-miterlimit:10;}
</style>
<g id="Back">
	<radialGradient id="SVGID_1_" cx="640" cy="360" r="1019.9624" gradientUnits="userSpaceOnUse">
		<stop  offset="0" style="stop-color:#144D8B"/>
		<stop  offset="1" style="stop-color:#0F1C56"/>
	</radialGradient>
	<rect class="st0" width="1280" height="720"/>
</g>
<g id="Plus">
	<line class="st1" x1="96" y1="32" x2="96" y2="96"/>
	<line class="st1" x1="128" y1="64" x2="64" y2="64"/>
	<line class="st1" x1="160" y1="96" x2="160" y2="160"/>
	<line class="st1" x1="192" y1="128" x2="128" y2="128"/>
	<line class="st1" x1="224" y1="32" x2="224" y2="96"/>
	<line class="st1" x1="256" y1="64" x2="192" y2="64"/>
	<line class="st1" x1="160" y1="-32" x2="160" y2="32"/>
	<line class="st1" x1="192" y1="0" x2="128" y2="0"/>
	<line class="st1" x1="352" y1="32" x2="352" y2="96"/>
	<line class="st1" x1="384" y1="64" x2="320" y2="64"/>
	<line class="st1" x1="416" y1="96" x2="416" y2="160"/>
	<line class="st1" x1="448" y1="128" x2="384" y2="128"/>
	<line class="st2" x1="480" y1="32" x2="480" y2="96"/>
	<line class="st2" x1="512" y1="64" x2="448" y2="64"/>
	<line class="st2" x1="416" y1="-32" x2="416" y2="32"/>
	<line class="st2" x1="448" y1="0" x2="384" y2="0"/>
	<line class="st1" x1="224" y1="160" x2="224" y2="224"/>
	<line class="st1" x1="256" y1="192" x2="192" y2="192"/>
	<line class="st1" x1="288" y1="224" x2="288" y2="288"/>
	<line class="st1" x1="320" y1="256" x2="256" y2="256"/>
	<line class="st1" x1="352" y1="160" x2="352" y2="224"/>
	<line class="st1" x1="384" y1="192" x2="320" y2="192"/>
	<line class="st1" x1="288" y1="96" x2="288" y2="160"/>
	<line class="st1" x1="320" y1="128" x2="256" y2="128"/>
	<line class="st1" x1="288" y1="-32" x2="288" y2="32"/>
	<line class="st1" x1="320" y1="0" x2="256" y2="0"/>
	<line class="st1" x1="352" y1="288" x2="352" y2="352"/>
	<line class="st1" x1="384" y1="320" x2="320" y2="320"/>
	<line class="st1" x1="416" y1="352" x2="416" y2="416"/>
	<line class="st1" x1="448" y1="384" x2="384" y2="384"/>
	<line class="st1" x1="480" y1="288" x2="480" y2="352"/>
	<line class="st1" x1="512" y1="320" x2="448" y2="320"/>
	<line class="st1" x1="416" y1="224" x2="416" y2="288"/>
	<line class="st1" x1="448" y1="256" x2="384" y2="256"/>
	<line class="st1" x1="608" y1="288" x2="608" y2="352"/>
	<line class="st3" x1="640" y1="320" x2="576" y2="320"/>
	<line class="st1" x1="672" y1="352" x2="672" y2="416"/>
	<line class="st1" x1="704" y1="384" x2="640" y2="384"/>
	<line class="st2" x1="736" y1="288" x2="736" y2="352"/>
	<line class="st2" x1="768" y1="320" x2="704" y2="320"/>
	<line class="st2" x1="672" y1="224" x2="672" y2="288"/>
	<line class="st2" x1="704" y1="256" x2="640" y2="256"/>
	<line class="st1" x1="480" y1="416" x2="480" y2="480"/>
	<line class="st1" x1="512" y1="448" x2="448" y2="448"/>
	<line class="st1" x1="544" y1="480" x2="544" y2="544"/>
	<line class="st1" x1="576" y1="512" x2="512" y2="512"/>
	<line class="st1" x1="608" y1="416" x2="608" y2="480"/>
	<line class="st1" x1="640" y1="448" x2="576" y2="448"/>
	<line class="st1" x1="544" y1="352" x2="544" y2="416"/>
	<line class="st1" x1="576" y1="384" x2="512" y2="384"/>
	<line class="st1" x1="480" y1="160" x2="480" y2="224"/>
	<line class="st1" x1="512" y1="192" x2="448" y2="192"/>
	<line class="st1" x1="544" y1="224" x2="544" y2="288"/>
	<line class="st1" x1="576" y1="256" x2="512" y2="256"/>
	<line class="st2" x1="608" y1="160" x2="608" y2="224"/>
	<line class="st2" x1="640" y1="192" x2="576" y2="192"/>
	<line class="st2" x1="544" y1="96" x2="544" y2="160"/>
	<line class="st2" x1="576" y1="128" x2="512" y2="128"/>
	<line class="st1" x1="608" y1="544" x2="608" y2="608"/>
	<line class="st1" x1="640" y1="576" x2="576" y2="576"/>
	<line class="st1" x1="672" y1="608" x2="672" y2="672"/>
	<line class="st1" x1="704" y1="640" x2="640" y2="640"/>
	<line class="st1" x1="736" y1="544" x2="736" y2="608"/>
	<line class="st1" x1="768" y1="576" x2="704" y2="576"/>
	<line class="st1" x1="672" y1="480" x2="672" y2="544"/>
	<line class="st1" x1="704" y1="512" x2="640" y2="512"/>
	<line class="st1" x1="864" y1="544" x2="864" y2="608"/>
	<line class="st1" x1="896" y1="576" x2="832" y2="576"/>
	<line class="st1" x1="928" y1="608" x2="928" y2="672"/>
	<line class="st1" x1="960" y1="640" x2="896" y2="640"/>
	<line class="st2" x1="992" y1="544" x2="992" y2="608"/>
	<line class="st2" x1="1024" y1="576" x2="960" y2="576"/>
	<line class="st2" x1="928" y1="480" x2="928" y2="544"/>
	<line class="st2" x1="960" y1="512" x2="896" y2="512"/>
	<line class="st1" x1="736" y1="672" x2="736" y2="736"/>
	<line class="st1" x1="768" y1="704" x2="704" y2="704"/>
	<line class="st1" x1="864" y1="672" x2="864" y2="736"/>
	<line class="st1" x1="896" y1="704" x2="832" y2="704"/>
	<line class="st1" x1="800" y1="608" x2="800" y2="672"/>
	<line class="st1" x1="832" y1="640" x2="768" y2="640"/>
	<line class="st1" x1="736" y1="416" x2="736" y2="480"/>
	<line class="st1" x1="768" y1="448" x2="704" y2="448"/>
	<line class="st1" x1="800" y1="480" x2="800" y2="544"/>
	<line class="st1" x1="832" y1="512" x2="768" y2="512"/>
	<line class="st2" x1="864" y1="416" x2="864" y2="480"/>
	<line class="st2" x1="896" y1="448" x2="832" y2="448"/>
	<line class="st2" x1="800" y1="352" x2="800" y2="416"/>
	<line class="st2" x1="832" y1="384" x2="768" y2="384"/>
	<line class="st2" x1="544" y1="-32" x2="544" y2="32"/>
	<line class="st2" x1="576" y1="0" x2="512" y2="0"/>
	<line class="st2" x1="608" y1="32" x2="608" y2="96"/>
	<line class="st2" x1="640" y1="64" x2="576" y2="64"/>
	<line class="st2" x1="672" y1="-32" x2="672" y2="32"/>
	<line class="st2" x1="704" y1="0" x2="640" y2="0"/>
	<line class="st2" x1="672" y1="96" x2="672" y2="160"/>
	<line class="st2" x1="704" y1="128" x2="640" y2="128"/>
	<line class="st2" x1="736" y1="160" x2="736" y2="224"/>
	<line class="st2" x1="768" y1="192" x2="704" y2="192"/>
	<line class="st2" x1="800" y1="96" x2="800" y2="160"/>
	<line class="st2" x1="832" y1="128" x2="768" y2="128"/>
	<line class="st2" x1="736" y1="32" x2="736" y2="96"/>
	<line class="st2" x1="768" y1="64" x2="704" y2="64"/>
	<line class="st2" x1="928" y1="96" x2="928" y2="160"/>
	<line class="st2" x1="960" y1="128" x2="896" y2="128"/>
	<line class="st2" x1="992" y1="160" x2="992" y2="224"/>
	<line class="st2" x1="1024" y1="192" x2="960" y2="192"/>
	<line class="st2" x1="1056" y1="96" x2="1056" y2="160"/>
	<line class="st2" x1="1088" y1="128" x2="1024" y2="128"/>
	<line class="st2" x1="992" y1="32" x2="992" y2="96"/>
	<line class="st2" x1="1024" y1="64" x2="960" y2="64"/>
	<line class="st2" x1="800" y1="224" x2="800" y2="288"/>
	<line class="st2" x1="832" y1="256" x2="768" y2="256"/>
	<line class="st2" x1="864" y1="288" x2="864" y2="352"/>
	<line class="st2" x1="896" y1="320" x2="832" y2="320"/>
	<line class="st2" x1="928" y1="224" x2="928" y2="288"/>
	<line class="st2" x1="960" y1="256" x2="896" y2="256"/>
	<line class="st2" x1="864" y1="160" x2="864" y2="224"/>
	<line class="st2" x1="896" y1="192" x2="832" y2="192"/>
	<line class="st2" x1="800" y1="-32" x2="800" y2="32"/>
	<line class="st2" x1="832" y1="0" x2="768" y2="0"/>
	<line class="st2" x1="864" y1="32" x2="864" y2="96"/>
	<line class="st2" x1="896" y1="64" x2="832" y2="64"/>
	<line class="st2" x1="928" y1="-32" x2="928" y2="32"/>
	<line class="st2" x1="960" y1="0" x2="896" y2="0"/>
	<line class="st2" x1="928" y1="352" x2="928" y2="416"/>
	<line class="st2" x1="960" y1="384" x2="896" y2="384"/>
	<line class="st2" x1="992" y1="416" x2="992" y2="480"/>
	<line class="st2" x1="1024" y1="448" x2="960" y2="448"/>
	<line class="st2" x1="1056" y1="352" x2="1056" y2="416"/>
	<line class="st2" x1="1088" y1="384" x2="1024" y2="384"/>
	<line class="st2" x1="992" y1="288" x2="992" y2="352"/>
	<line class="st2" x1="1024" y1="320" x2="960" y2="320"/>
	<line class="st2" x1="1184" y1="352" x2="1184" y2="416"/>
	<line class="st2" x1="1216" y1="384" x2="1152" y2="384"/>
	<line class="st2" x1="1248" y1="416" x2="1248" y2="480"/>
	<line class="st2" x1="1280" y1="448" x2="1216" y2="448"/>
	<line class="st2" x1="1344" y1="384" x2="1280" y2="384"/>
	<line class="st2" x1="1248" y1="288" x2="1248" y2="352"/>
	<line class="st2" x1="1280" y1="320" x2="1216" y2="320"/>
	<line class="st2" x1="1056" y1="480" x2="1056" y2="544"/>
	<line class="st2" x1="1088" y1="512" x2="1024" y2="512"/>
	<line class="st2" x1="1120" y1="544" x2="1120" y2="608"/>
	<line class="st2" x1="1152" y1="576" x2="1088" y2="576"/>
	<line class="st2" x1="1184" y1="480" x2="1184" y2="544"/>
	<line class="st2" x1="1216" y1="512" x2="1152" y2="512"/>
	<line class="st2" x1="1120" y1="416" x2="1120" y2="480"/>
	<line class="st2" x1="1152" y1="448" x2="1088" y2="448"/>
	<line class="st2" x1="1056" y1="224" x2="1056" y2="288"/>
	<line class="st2" x1="1088" y1="256" x2="1024" y2="256"/>
	<line class="st2" x1="1120" y1="288" x2="1120" y2="352"/>
	<line class="st2" x1="1152" y1="320" x2="1088" y2="320"/>
	<line class="st2" x1="1184" y1="224" x2="1184" y2="288"/>
	<line class="st2" x1="1216" y1="256" x2="1152" y2="256"/>
	<line class="st2" x1="1120" y1="160" x2="1120" y2="224"/>
	<line class="st2" x1="1152" y1="192" x2="1088" y2="192"/>
	<line class="st1" x1="0" y1="320" x2="-64" y2="320"/>
	<line class="st1" x1="96" y1="288" x2="96" y2="352"/>
	<line class="st1" x1="128" y1="320" x2="64" y2="320"/>
	<line class="st1" x1="160" y1="352" x2="160" y2="416"/>
	<line class="st1" x1="192" y1="384" x2="128" y2="384"/>
	<line class="st1" x1="224" y1="288" x2="224" y2="352"/>
	<line class="st1" x1="256" y1="320" x2="192" y2="320"/>
	<line class="st1" x1="160" y1="224" x2="160" y2="288"/>
	<line class="st1" x1="192" y1="256" x2="128" y2="256"/>
	<line class="st1" x1="0" y1="448" x2="-64" y2="448"/>
	<line class="st1" x1="32" y1="480" x2="32" y2="544"/>
	<line class="st1" x1="64" y1="512" x2="0" y2="512"/>
	<line class="st1" x1="96" y1="416" x2="96" y2="480"/>
	<line class="st1" x1="128" y1="448" x2="64" y2="448"/>
	<line class="st1" x1="32" y1="352" x2="32" y2="416"/>
	<line class="st1" x1="64" y1="384" x2="0" y2="384"/>
	<line class="st1" x1="0" y1="192" x2="-64" y2="192"/>
	<line class="st1" x1="32" y1="224" x2="32" y2="288"/>
	<line class="st1" x1="64" y1="256" x2="0" y2="256"/>
	<line class="st1" x1="96" y1="160" x2="96" y2="224"/>
	<line class="st1" x1="128" y1="192" x2="64" y2="192"/>
	<line class="st1" x1="32" y1="96" x2="32" y2="160"/>
	<line class="st1" x1="64" y1="128" x2="0" y2="128"/>
	<line class="st1" x1="96" y1="544" x2="96" y2="608"/>
	<line class="st1" x1="128" y1="576" x2="64" y2="576"/>
	<line class="st1" x1="160" y1="608" x2="160" y2="672"/>
	<line class="st1" x1="192" y1="640" x2="128" y2="640"/>
	<line class="st1" x1="224" y1="544" x2="224" y2="608"/>
	<line class="st1" x1="256" y1="576" x2="192" y2="576"/>
	<line class="st1" x1="160" y1="480" x2="160" y2="544"/>
	<line class="st1" x1="192" y1="512" x2="128" y2="512"/>
	<line class="st1" x1="352" y1="544" x2="352" y2="608"/>
	<line class="st1" x1="384" y1="576" x2="320" y2="576"/>
	<line class="st1" x1="416" y1="608" x2="416" y2="672"/>
	<line class="st1" x1="448" y1="640" x2="384" y2="640"/>
	<line class="st1" x1="480" y1="544" x2="480" y2="608"/>
	<line class="st1" x1="512" y1="576" x2="448" y2="576"/>
	<line class="st1" x1="416" y1="480" x2="416" y2="544"/>
	<line class="st1" x1="448" y1="512" x2="384" y2="512"/>
	<line class="st1" x1="224" y1="672" x2="224" y2="736"/>
	<line class="st1" x1="256" y1="704" x2="192" y2="704"/>
	<line class="st1" x1="352" y1="672" x2="352" y2="736"/>
	<line class="st1" x1="384" y1="704" x2="320" y2="704"/>
	<line class="st1" x1="288" y1="608" x2="288" y2="672"/>
	<line class="st1" x1="320" y1="640" x2="256" y2="640"/>
	<line class="st1" x1="224" y1="416" x2="224" y2="480"/>
	<line class="st1" x1="256" y1="448" x2="192" y2="448"/>
	<line class="st1" x1="288" y1="480" x2="288" y2="544"/>
	<line class="st1" x1="320" y1="512" x2="256" y2="512"/>
	<line class="st1" x1="352" y1="416" x2="352" y2="480"/>
	<line class="st1" x1="384" y1="448" x2="320" y2="448"/>
	<line class="st1" x1="288" y1="352" x2="288" y2="416"/>
	<line class="st1" x1="320" y1="384" x2="256" y2="384"/>
	<line class="st1" x1="480" y1="672" x2="480" y2="736"/>
	<line class="st1" x1="512" y1="704" x2="448" y2="704"/>
	<line class="st1" x1="608" y1="672" x2="608" y2="736"/>
	<line class="st1" x1="640" y1="704" x2="576" y2="704"/>
	<line class="st1" x1="544" y1="608" x2="544" y2="672"/>
	<line class="st1" x1="576" y1="640" x2="512" y2="640"/>
	<line class="st1" x1="992" y1="672" x2="992" y2="736"/>
	<line class="st1" x1="1024" y1="704" x2="960" y2="704"/>
	<line class="st2" x1="1120" y1="672" x2="1120" y2="736"/>
	<line class="st2" x1="1152" y1="704" x2="1088" y2="704"/>
	<line class="st2" x1="1056" y1="608" x2="1056" y2="672"/>
	<line class="st2" x1="1088" y1="640" x2="1024" y2="640"/>
	<line class="st2" x1="1248" y1="672" x2="1248" y2="736"/>
	<line class="st2" x1="1280" y1="704" x2="1216" y2="704"/>
	<line class="st2" x1="1344" y1="640" x2="1280" y2="640"/>
	<line class="st2" x1="1184" y1="608" x2="1184" y2="672"/>
	<line class="st2" x1="1216" y1="640" x2="1152" y2="640"/>
	<line class="st2" x1="1248" y1="544" x2="1248" y2="608"/>
	<line class="st2" x1="1280" y1="576" x2="1216" y2="576"/>
	<line class="st2" x1="1184" y1="96" x2="1184" y2="160"/>
	<line class="st2" x1="1216" y1="128" x2="1152" y2="128"/>
	<line class="st2" x1="1120" y1="32" x2="1120" y2="96"/>
	<line class="st2" x1="1152" y1="64" x2="1088" y2="64"/>
	<line class="st2" x1="1248" y1="32" x2="1248" y2="96"/>
	<line class="st2" x1="1280" y1="64" x2="1216" y2="64"/>
	<line class="st2" x1="1248" y1="161" x2="1248" y2="225"/>
	<line class="st2" x1="1280" y1="193" x2="1216" y2="193"/>
	<line class="st2" x1="1056" y1="-32" x2="1056" y2="32"/>
	<line class="st2" x1="1088" y1="0" x2="1024" y2="0"/>
	<line class="st2" x1="1184" y1="-32" x2="1184" y2="32"/>
	<line class="st2" x1="1216" y1="0" x2="1152" y2="0"/>
	<line class="st2" x1="1344" y1="128" x2="1280" y2="128"/>
	<line class="st2" x1="1344" y1="256" x2="1280" y2="256"/>
	<line class="st2" x1="1344" y1="512" x2="1280" y2="512"/>
	<line class="st1" x1="1344" y1="0" x2="1280" y2="0"/>
	<line class="st1" x1="32" y1="608.57642" x2="32" y2="672.57642"/>
	<line class="st1" x1="64" y1="640.57642" x2="0" y2="640.57642"/>
	<line class="st1" x1="96" y1="672" x2="96" y2="736"/>
	<line class="st1" x1="128" y1="704" x2="64" y2="704"/>
	<line class="st1" x1="32" y1="-32" x2="32" y2="32"/>
	<line class="st1" x1="64" y1="0" x2="0" y2="0"/>
	<line class="st1" x1="0" y1="64" x2="-64" y2="64"/>
	<line class="st1" x1="0" y1="704" x2="-64" y2="704"/>
	<line class="st1" x1="0" y1="576" x2="-64" y2="576"/>
</g>
<g id="Layer_5" class="st4">
	<polygon class="st5" points="512,448 512,320 640,256 768,320 768,448 640,512 	"/>
</g>
<g id="Layer_4" class="st6">
	<polyline class="st7" points="512,320 512,448 640,512 640,384 768,320 640,256 	"/>
</g>
<g id="Layer_3">
	<polyline class="st7" points="640,512 768,448 768,320 640,384 512,320 640,256 	"/>
</g>
</svg>
