<?xml version="1.0" encoding="utf-8"?>
<!-- Generator: Adobe Illustrator 21.0.2, SVG Export Plug-In . SVG Version: 6.00 Build 0)  -->
<svg version="1.1" id="Layer_1" xmlns="http://www.w3.org/2000/svg" xmlns:xlink="http://www.w3.org/1999/xlink" x="0px" y="0px"
	 viewBox="0 0 480 480" style="enable-background:new 0 0 480 480;" xml:space="preserve">
<style type="text/css">
	.st0{fill:#0F0F0F;}
	.st1{fill:#F89735;}
	.st2{fill:#999999;}
	.st3{fill:#ABABAB;}
	.st4{fill:#B5B6B6;}
	.st5{fill:#575757;}
	.st6{fill:#292929;}
	.st7{fill:#9C9C9C;}
	.st8{fill:#F3F3F3;}
	.st9{fill:#CDCDCD;}
	.st10{fill:#6D6D6D;}
	.st11{fill:#323232;}
	.st12{fill:#E7E7E6;}
	.st13{fill:#858585;}
	.st14{fill:#424242;}
	.st15{fill:none;stroke:url(#Layer3_59_1_STROKES_1_);stroke-width:4;stroke-miterlimit:10;}
	.st16{fill:none;stroke:#FFCC33;stroke-width:4;}
	.st17{fill:#D8D9DA;}
	.st18{fill:none;stroke:#FFFFFF;stroke-linecap:round;stroke-linejoin:round;}
	.st19{fill:none;stroke:#333333;stroke-width:2;stroke-miterlimit:10;}
</style>
<g transform="matrix( 1, 0, 0, 1, 640,360) ">
	<g transform="matrix( 1, 0, 0, 1, -242.95,-152) ">
		<g>
			<g id="Layer4_0_FILL">
				<path class="st0" d="M34-38l8-12H-68l-76-2l-108,2h-24l-82-2l-4,8V88l4,8l20-0.5V108h2V98h28v10h12V98h6v18h16v-12h4v12h106v-14
					h4v10h18l2-4v-4h-8v-5.8L2,100v-3.3L42,96l-8-12l10-26l-4-4l8-32L42-8l2-4L34-38z"/>
			</g>
		</g>
	</g>
	<g transform="matrix( 1, 0, 0, 1, -242.95,-152) ">
		<g>
			<g id="Layer4_1_MEMBER_0_FILL">
				<path class="st1" d="M-274,116v-10h-16v10H-274z"/>
			</g>
		</g>
	</g>
	<g transform="matrix( 1, 0, 0, 1, -242.95,-152) ">
		<g>
			<g id="Layer4_1_MEMBER_1_FILL">
				<path class="st1" d="M-336,106h-2v2h2V106z"/>
			</g>
		</g>
	</g>
	<g transform="matrix( 1, 0, 0, 1, -242.95,-152) ">
		<g>
			<g id="Layer4_1_MEMBER_2_FILL">
				<path class="st1" d="M-296,106h-12v2h12V106z"/>
			</g>
		</g>
	</g>
	<g transform="matrix( 1, 0, 0, 1, -242.95,-152) ">
		<g>
			<g id="Layer4_1_MEMBER_3_FILL">
				<path class="st1" d="M-140,108v-2h-20v6h18L-140,108z"/>
			</g>
		</g>
	</g>
	<g transform="matrix( 1, 0, 0, 1, -242.95,-152) ">
		<g>
			<g id="Layer4_1_MEMBER_4_FILL">
				<path class="st1" d="M-270,106v10h106v-10H-270z"/>
			</g>
		</g>
	</g>
	<g transform="matrix( 1, 0, 0, 1, 0,0) ">
		<g>
			<g id="Layer4_2_FILL">
				<path class="st2" d="M-525-192l-5.95,18l67.95,4l72,6l4-4l-11.95,38l11.05,37.05L-391-94l-140,8l6,18l28,10l108.1,1.95
					l-0.05,0.05l76,2L-201-56l-8-12l10-26l-4-4l8-32l-6-30l2-4l-10-26l8-12h-109.95l-76.05-2l-107.95,2L-525-192 M-377-130l0.2-2.5
					l-0.15,2.45l22-43.95l46-18l44,18l22,44L-269-84l-40,18l-77.4-26.45L-377-130 M-600.95-204l-4.05,8l0.05,127.95L-605-68v4
					l4.05,8l81.95-2h22l-38-8l-7.65-17.2L-531-86l-9.95-2l-8.25,2.55l-7.75-44.55l7.75-44.6l8.25,2.6l9.95-2l-11.65-2.85L-535-194
					l38-8h-22L-600.95-204z"/>
			</g>
		</g>
	</g>
	<g transform="matrix( 1, 0, 0, 1, -242.95,-152) ">
		<g>
			<g id="Layer3_0_FILL">
				<path class="st3" d="M-306,68l-8-46h-48v62L-306,68z"/>
			</g>
		</g>
	</g>
	<g transform="matrix( 1, 0, 0, 1, -242.95,-152) ">
		<g>
			<g id="Layer3_1_FILL">
				<path class="st4" d="M-362.05-40l0.05,62h48l8-46L-362.05-40z"/>
			</g>
		</g>
	</g>
	<g transform="matrix( 1, 0, 0, 1, -242.95,-152) ">
		<g>
			<g id="Layer3_2_FILL">
				<path class="st5" d="M-314-22l-20-6l18,8L-314-22z"/>
			</g>
		</g>
	</g>
	<g transform="matrix( 1, 0, 0, 1, -242.95,-152) ">
		<g>
			<g id="Layer3_3_FILL">
				<path class="st6" d="M-316,64l2,2l-6-44l6-44l-2,2l-6,42L-316,64z"/>
			</g>
		</g>
	</g>
	<g transform="matrix( 1, 0, 0, 1, -242.95,-152) ">
		<g>
			<g id="Layer3_4_FILL">
				<path class="st7" d="M-326,22l-8,50l10-50l-10-50L-326,22z"/>
			</g>
		</g>
	</g>
	<g transform="matrix( 1, 0, 0, 1, -242.95,-152) ">
		<g>
			<g id="Layer3_5_FILL">
				<path class="st5" d="M-70,98l55.95-8l-52-4L-122,88l-24,8L-70,98z"/>
			</g>
		</g>
	</g>
	<g transform="matrix( 1, 0, 0, 1, -242.95,-152) ">
		<g>
			<g id="Layer3_6_FILL">
				<path class="st8" d="M-120.05-44l-24-8l-108,2L-120.05-44z"/>
			</g>
		</g>
	</g>
	<g transform="matrix( 1, 0, 0, 1, -242.95,-152) ">
		<g>
			<g id="Layer3_7_FILL">
				<path class="st8" d="M33.95-38l8-12l-54,8L33.95-38z"/>
			</g>
		</g>
	</g>
	<g transform="matrix( 1, 0, 0, 1, -242.95,-152) ">
		<g>
			<g id="Layer3_8_FILL">
				<path class="st8" d="M-254.05-50h-22l-86,6v4l70-2L-254.05-50z"/>
			</g>
		</g>
	</g>
	<g transform="matrix( 1, 0, 0, 1, -242.95,-152) ">
		<g>
			<g id="Layer3_9_FILL">
				<path class="st8" d="M-144.05,62l-4-4l-20,18L-144.05,62z"/>
			</g>
		</g>
	</g>
	<g transform="matrix( 1, 0, 0, 1, -242.95,-152) ">
		<g>
			<g id="Layer3_10_FILL">
				<path class="st9" d="M11.95-16l32,4l-10-26L11.95-16z"/>
			</g>
		</g>
	</g>
	<g transform="matrix( 1, 0, 0, 1, -242.95,-152) ">
		<g>
			<g id="Layer3_11_FILL">
				<path class="st9" d="M-14.05,90l48-6l-22-22L-14.05,90z"/>
			</g>
		</g>
	</g>
	<g transform="matrix( 1, 0, 0, 1, -242.95,-152) ">
		<g>
			<g id="Layer3_12_FILL">
				<path class="st9" d="M-144.05,62l-24,14l48,12L-144.05,62z"/>
			</g>
		</g>
	</g>
	<g transform="matrix( 1, 0, 0, 1, -242.95,-152) ">
		<g>
			<g id="Layer3_13_FILL">
				<path class="st9" d="M-252-50l-30.05,10l162-4L-252-50z"/>
			</g>
		</g>
	</g>
	<g transform="matrix( 1, 0, 0, 1, -242.95,-152) ">
		<g>
			<g id="Layer3_14_FILL">
				<path class="st9" d="M41.95-8l-20,30h26L41.95-8z"/>
			</g>
		</g>
	</g>
	<g transform="matrix( 1, 0, 0, 1, -242.95,-152) ">
		<g>
			<g id="Layer3_15_FILL">
				<path class="st5" d="M43.95-12l-32-4l30,8L43.95-12z"/>
			</g>
		</g>
	</g>
	<g transform="matrix( 1, 0, 0, 1, -242.95,-152) ">
		<g>
			<g id="Layer3_16_FILL">
				<path class="st10" d="M-148.05-12l4-4L-168-32L-148.05-12z"/>
			</g>
		</g>
	</g>
	<g transform="matrix( 1, 0, 0, 1, -242.95,-152) ">
		<g>
			<g id="Layer3_17_FILL">
				<path class="st11" d="M11.95,62l-38,6l-40,18l52,4L11.95,62z"/>
			</g>
		</g>
	</g>
	<g transform="matrix( 1, 0, 0, 1, -242.95,-152) ">
		<g>
			<g id="Layer3_18_FILL">
				<path class="st11" d="M-108.05,70l-36-8l24,26l54-2L-108.05,70z"/>
			</g>
		</g>
	</g>
	<g transform="matrix( 1, 0, 0, 1, -242.95,-152) ">
		<g>
			<g id="Layer3_19_FILL">
				<path class="st10" d="M43.95,58l-32,4l22,22L43.95,58z"/>
			</g>
		</g>
	</g>
	<g transform="matrix( 1, 0, 0, 1, -242.95,-152) ">
		<g>
			<g id="Layer3_20_FILL">
				<path class="st10" d="M41.95,96l-8-12l-48,6L41.95,96z"/>
			</g>
		</g>
	</g>
	<g transform="matrix( 1, 0, 0, 1, -242.95,-152) ">
		<g>
			<g id="Layer3_21_FILL">
				<path class="st12" d="M43.95,58l-4-4l-28,8L43.95,58z"/>
			</g>
		</g>
	</g>
	<g transform="matrix( 1, 0, 0, 1, -242.95,-152) ">
		<g>
			<g id="Layer3_22_FILL">
				<path class="st7" d="M21.95,22l18,32l8-32H21.95z"/>
			</g>
		</g>
	</g>
	<g transform="matrix( 1, 0, 0, 1, -242.95,-152) ">
		<g>
			<g id="Layer3_23_FILL">
				<path class="st5" d="M-362.05,84l70,2l-8-18L-362.05,84z"/>
			</g>
		</g>
	</g>
	<g transform="matrix( 1, 0, 0, 1, -242.95,-152) ">
		<g>
			<g id="Layer3_24_FILL">
				<path class="st10" d="M-220.05,62l-68,4l6,18L-220.05,62z"/>
			</g>
		</g>
	</g>
	<g transform="matrix( 1, 0, 0, 1, -242.95,-152) ">
		<g>
			<g id="Layer3_25_FILL">
				<path class="st9" d="M-220.05,62l52,14l20-18L-220.05,62z"/>
			</g>
		</g>
	</g>
	<g transform="matrix( 1, 0, 0, 1, -242.95,-152) ">
		<g>
			<g id="Layer3_26_FILL">
				<path class="st9" d="M-288.05,66l-9.95-2l-64.05,20L-288.05,66z"/>
			</g>
		</g>
	</g>
	<g transform="matrix( 1, 0, 0, 1, -242.95,-152) ">
		<g>
			<g id="Layer3_27_FILL">
				<path class="st9" d="M-68-50l55.95,8l54-8H-68z"/>
			</g>
		</g>
	</g>
	<g transform="matrix( 1, 0, 0, 1, -242.95,-152) ">
		<g>
			<g id="Layer3_28_FILL">
				<path class="st11" d="M-12.05-42L-66-40l44,18l33.95,6L-12.05-42z"/>
			</g>
		</g>
	</g>
	<g transform="matrix( 1, 0, 0, 1, -242.95,-152) ">
		<g>
			<g id="Layer3_29_FILL">
				<path class="st7" d="M11.95-16l22-22l-46-4L11.95-16z"/>
			</g>
		</g>
	</g>
	<g transform="matrix( 1, 0, 0, 1, -242.95,-152) ">
		<g>
			<g id="Layer3_30_FILL">
				<path class="st13" d="M11.95,62l28-8l-18-32L11.95,62z"/>
			</g>
		</g>
	</g>
	<g transform="matrix( 1, 0, 0, 1, -242.95,-152) ">
		<g>
			<g id="Layer3_31_FILL">
				<path class="st12" d="M11.95-16l10,38l20-30L11.95-16z"/>
			</g>
		</g>
	</g>
	<g transform="matrix( 1, 0, 0, 1, -242.95,-152) ">
		<g>
			<g id="Layer3_32_FILL">
				<path class="st14" d="M21.95,22l-10-38L0,22H21.95z"/>
			</g>
		</g>
	</g>
	<g transform="matrix( 1, 0, 0, 1, -242.95,-152) ">
		<g>
			<g id="Layer3_33_FILL">
				<path class="st6" d="M11.95,62l10-40H0L11.95,62z"/>
			</g>
		</g>
	</g>
	<g transform="matrix( 1, 0, 0, 1, -242.95,-152) ">
		<g>
			<g id="Layer3_34_FILL">
				<path class="st11" d="M-144.05-16l32.05-6l46-18l-54.05-4L-144.05-16z"/>
			</g>
		</g>
	</g>
	<g transform="matrix( 1, 0, 0, 1, -242.95,-152) ">
		<g>
			<g id="Layer3_35_FILL">
				<path class="st7" d="M-120.05-44L-168-32l23.95,16L-120.05-44z"/>
			</g>
		</g>
	</g>
	<g transform="matrix( 1, 0, 0, 1, -242.95,-152) ">
		<g>
			<g id="Layer3_36_FILL">
				<path class="st7" d="M-220.05-18l72,6L-168-32L-220.05-18z"/>
			</g>
		</g>
	</g>
	<g transform="matrix( 1, 0, 0, 1, -242.95,-152) ">
		<g>
			<g id="Layer3_37_FILL">
				<path class="st5" d="M-12.05-42L-68-50l-76.05-2l24,8L-66-40L-12.05-42z"/>
			</g>
		</g>
	</g>
	<g transform="matrix( 1, 0, 0, 1, -242.95,-152) ">
		<g>
			<g id="Layer3_38_FILL">
				<path class="st14" d="M-156,22h21.95l-10-38L-156,22z"/>
			</g>
		</g>
	</g>
	<g transform="matrix( 1, 0, 0, 1, -242.95,-152) ">
		<g>
			<g id="Layer3_39_FILL">
				<path class="st6" d="M-134.05,22H-156l11.95,40L-134.05,22z"/>
			</g>
		</g>
	</g>
	<g transform="matrix( 1, 0, 0, 1, -242.95,-152) ">
		<g>
			<g id="Layer3_40_FILL">
				<path class="st4" d="M-220.05,62l-62,22l162,4L-220.05,62z"/>
			</g>
		</g>
	</g>
	<g transform="matrix( 1, 0, 0, 1, -242.95,-152) ">
		<g>
			<g id="Layer3_41_FILL">
				<path class="st4" d="M-220.05-18l100-26l-162,4L-220.05-18z"/>
			</g>
		</g>
	</g>
	<g transform="matrix( 1, 0, 0, 1, -242.95,-152) ">
		<g>
			<g id="Layer3_42_FILL">
				<path class="st9" d="M-282.05-40L-288-22l67.95,4L-282.05-40z"/>
			</g>
		</g>
	</g>
	<g transform="matrix( 1, 0, 0, 1, -242.95,-152) ">
		<g>
			<g id="Layer3_43_FILL">
				<path class="st13" d="M-358-52l-4.05,8l86-6L-358-52z"/>
			</g>
		</g>
	</g>
	<g transform="matrix( 1, 0, 0, 1, -242.95,-152) ">
		<g>
			<g id="Layer3_44_FILL">
				<path class="st14" d="M-2,50l-24.05,18l38-6L-2,50z"/>
			</g>
		</g>
	</g>
	<g transform="matrix( 1, 0, 0, 1, -242.95,-152) ">
		<g>
			<g id="Layer3_45_FILL">
				<path class="st14" d="M-132,50l-12.05,12l36,8L-132,50z"/>
			</g>
		</g>
	</g>
	<g transform="matrix( 1, 0, 0, 1, 0,0) ">
		<g>
			<g id="Layer3_46_FILL">
				<path class="st5" d="M-244.95-156l2,26l11.95-38L-244.95-156z"/>
			</g>
		</g>
	</g>
	<g transform="matrix( 1, 0, 0, 1, -242.95,-152) ">
		<g>
			<g id="Layer3_47_FILL">
				<path class="st5" d="M-132-4l-12.05-12l10,38L-132-4z"/>
			</g>
		</g>
	</g>
	<g transform="matrix( 1, 0, 0, 1, -242.95,-152) ">
		<g>
			<g id="Layer3_48_FILL">
				<path class="st11" d="M-26.05,68L-2,50l13.95,12L0,22L-26.05,68z"/>
			</g>
		</g>
	</g>
	<g transform="matrix( 1, 0, 0, 1, -242.95,-152) ">
		<g>
			<g id="Layer3_49_FILL">
				<path class="st11" d="M-144.05,62l12-12.05l24,20.05L-134,21.95L-144.05,62z"/>
			</g>
		</g>
	</g>
	<g transform="matrix( 1, 0, 0, 1, -242.95,-152) ">
		<g>
			<g id="Layer3_50_FILL">
				<path class="st14" d="M0,22L-2-4l13.95-12L-22-22L0,22z"/>
			</g>
		</g>
	</g>
	<g transform="matrix( 1, 0, 0, 1, -242.95,-152) ">
		<g>
			<g id="Layer3_51_FILL">
				<path class="st14" d="M-144.05-16L-132-4l-2,25.95L-112-22L-144.05-16z"/>
			</g>
		</g>
	</g>
	<g transform="matrix( 1, 0, 0, 1, -242.95,-152) ">
		<g>
			<g id="Layer3_52_FILL">
				<path class="st13" d="M-145.05,96l24-8l-133,6L-145.05,96z"/>
			</g>
		</g>
	</g>
	<g transform="matrix( 1, 0, 0, 1, -242.95,-152) ">
		<g>
			<g id="Layer3_53_FILL">
				<path class="st7" d="M-276.05,94h22l-38-8l-70-2v4L-276.05,94z"/>
			</g>
		</g>
	</g>
	<g transform="matrix( 1, 0, 0, 1, -242.95,-152) ">
		<g>
			<g id="Layer3_54_FILL">
				<path class="st7" d="M-282.05,84l28,10l134-6L-282.05,84z"/>
			</g>
		</g>
	</g>
	<g transform="matrix( 1, 0, 0, 1, -242.95,-152) ">
		<g>
			<g id="Layer3_55_FILL">
				<path class="st13" d="M-362.05,88l4.05,8l81.95-2L-362.05,88z"/>
			</g>
		</g>
	</g>
	<g transform="matrix( 1, 0, 0, 1, -242.95,-152) ">
		<g>
			<g id="Layer3_56_FILL">
				<path class="st9" d="M-300.05-24l8-18l-70,2L-300.05-24z"/>
			</g>
		</g>
	</g>
	<g transform="matrix( 1, 0, 0, 1, -242.95,-152) ">
		<g>
			<g id="Layer3_57_FILL">
				<path class="st7" d="M-288.05-22l-74-18L-298-20L-288.05-22z"/>
			</g>
		</g>
	</g>
	<g transform="matrix( 1, 0, 0, 1, -242.95,-152) ">
		<g>
			<g id="Layer3_58_FILL">
				<path class="st14" d="M-14.05,90L-70,98l111.95-2L-14.05,90z"/>
			</g>
		</g>
	</g>
	<g transform="matrix( 1, 0, 0, 1, -242.95,-152) ">
		<g>
			
				<linearGradient id="Layer3_59_1_STROKES_1_" gradientUnits="userSpaceOnUse" x1="-517.05" y1="250" x2="-409.05" y2="250" gradientTransform="matrix(1 0 0 -1 397.05 272)">
				<stop  offset="0" style="stop-color:#565658"/>
				<stop  offset="0.2078" style="stop-color:#8B8D8F"/>
				<stop  offset="0.2941" style="stop-color:#FFFFFF"/>
				<stop  offset="0.749" style="stop-color:#A3A5A8"/>
				<stop  offset="1" style="stop-color:#565658"/>
				<stop  offset="1" style="stop-color:#373535"/>
				<stop  offset="1" style="stop-color:#FFFFFF"/>
			</linearGradient>
			<path id="Layer3_59_1_STROKES" class="st15" d="M-14,22c0-14.367-5.083-26.633-15.25-36.8C-39.383-24.933-51.633-30-66-30
				s-26.633,5.067-36.8,15.2C-112.933-4.633-118,7.633-118,22s5.067,26.617,15.2,36.75C-92.633,68.917-80.367,74-66,74
				s26.617-5.083,36.75-15.25C-19.083,48.617-14,36.367-14,22z"/>
		</g>
	</g>
	<g transform="matrix( 1, 0, 0, 1, -242.95,-152) ">
		<g>
			<g id="Layer3_60_MEMBER_0_FILL">
				<path class="st1" d="M-274,116v-10h-16v10H-274z"/>
			</g>
		</g>
	</g>
	<g transform="matrix( 1, 0, 0, 1, -242.95,-152) ">
		<g>
			<g id="Layer3_60_MEMBER_1_FILL">
				<path class="st1" d="M-336,106h-2v2h2V106z"/>
			</g>
		</g>
	</g>
	<g transform="matrix( 1, 0, 0, 1, -242.95,-152) ">
		<g>
			<g id="Layer3_60_MEMBER_2_FILL">
				<path class="st1" d="M-296,106h-12v2h12V106z"/>
			</g>
		</g>
	</g>
	<g transform="matrix( 1, 0, 0, 1, -242.95,-152) ">
		<g>
			<g id="Layer3_60_MEMBER_3_FILL">
				<path class="st1" d="M-140,108v-2h-20v6h18L-140,108z"/>
			</g>
		</g>
	</g>
	<g transform="matrix( 1, 0, 0, 1, -242.95,-152) ">
		<g>
			<g id="Layer3_60_MEMBER_4_FILL">
				<path class="st1" d="M-270,106v10h106v-10H-270z"/>
			</g>
		</g>
	</g>
	<g transform="matrix( 1, 0, 0, 1, 0,0) ">
		<g>
			<path id="Layer2_0_1_STROKES" class="st16" d="M-393.65-46v5.45 M-386.5-46v5.45 M-465.75-46v9.45 M-458.6-46v9.45 M-451.5-46
				v9.45 M-472.85-46v9.45 M-479.95-46v9.45 M-444.4-46v9.45 M-437.3-46v9.45 M-430.15-46v9.45 M-423.05-46v9.45 M-408.85-46v9.45
				 M-415.95-46v9.45 M-400.75-46v5.45 M-528.75-46v9.45 M-521.6-46v9.45 M-487.05-46v9.45 M-494.2-46v9.45 M-501.3-46v9.45
				 M-508.4-46v9.45"/>
		</g>
	</g>
	<g transform="matrix( 1, 0, 0, 1, 91,-9.75) ">
		<g transform="matrix( 1, 0, 0, 1, 0,0) ">
			<g>
				<g id="NvidiaGpuFan_0_Layer1_0_FILL">
					<path class="st17" d="M-405.9-144.6c-4.5,1.033-8.483,3.283-11.95,6.75c-2.8,2.8-4.8,5.917-6,9.35
						c-0.933,2.633-1.4,5.467-1.4,8.5s0.467,5.883,1.4,8.55c1.2,3.4,3.2,6.5,6,9.3c3.267,3.267,6.983,5.45,11.15,6.55
						c2.1,0.567,4.333,0.85,6.7,0.85s4.617-0.283,6.75-0.85c4.133-1.1,7.833-3.283,11.1-6.55c3.033-3.033,5.133-6.45,6.3-10.25
						c0.733-2.367,1.1-4.9,1.1-7.6s-0.367-5.233-1.1-7.6c-1.167-3.8-3.267-7.217-6.3-10.25c-3.467-3.467-7.433-5.717-11.9-6.75
						c-1.9-0.433-3.883-0.65-5.95-0.65S-404.033-145.033-405.9-144.6z"/>
				</g>
			</g>
			<g>
				<path id="NvidiaGpuFan_0_Layer1_0_1_STROKES" class="st18" d="M-374.75-120c0,2.7-0.367,5.233-1.1,7.6
					c-1.167,3.8-3.267,7.217-6.3,10.25c-3.267,3.267-6.967,5.45-11.1,6.55c-2.133,0.567-4.383,0.85-6.75,0.85s-4.6-0.283-6.7-0.85
					c-4.167-1.1-7.883-3.283-11.15-6.55c-2.8-2.8-4.8-5.9-6-9.3c-0.933-2.667-1.4-5.517-1.4-8.55s0.467-5.867,1.4-8.5
					c1.2-3.433,3.2-6.55,6-9.35c3.467-3.467,7.45-5.717,11.95-6.75c1.867-0.433,3.833-0.65,5.9-0.65s4.05,0.217,5.95,0.65
					c4.467,1.033,8.433,3.283,11.9,6.75c3.033,3.033,5.133,6.45,6.3,10.25C-375.117-125.233-374.75-122.7-374.75-120z"/>
			</g>
		</g>
		<g transform="matrix( 1, 0, 0, 1, -48.45,-48) ">
			<g>
				<g id="NvidiaGpuFan_0_Layer0_0_MEMBER_0_FILL">
					<path class="st11" d="M-351.55-51c2.8,0,5.533-0.567,8.2-1.7l-0.8-1.85c-2.3,0.967-4.7,1.467-7.2,1.5
						c-2.533,0.033-4.933-0.417-7.2-1.35h-0.1l-0.7,1.85C-356.75-51.517-354.15-51-351.55-51 M-370.55-72.05
						c0-2.367,0.467-4.717,1.4-7.05v-0.05l-1.85-0.7c-1.033,2.6-1.55,5.2-1.55,7.8c0,2.8,0.567,5.533,1.7,8.2l1.85-0.75
						C-370.033-67.067-370.55-69.55-370.55-72.05 M-330.5-72c0-2.833-0.567-5.583-1.7-8.25l-1.85,0.8
						c1.033,2.433,1.55,4.917,1.55,7.45c0,2.333-0.467,4.7-1.4,7.1l1.85,0.7C-331.017-66.767-330.5-69.367-330.5-72 M-358.95-89.5
						c2.3-0.967,4.717-1.467,7.25-1.5c2.533-0.033,4.95,0.417,7.25,1.35h0.05l0.7-1.85c-2.567-1.033-5.25-1.533-8.05-1.5
						c-2.767,0.033-5.433,0.583-8,1.65L-358.95-89.5z"/>
				</g>
			</g>
		</g>
		<g transform="matrix( 1, 0, 0, 1, -48.45,-48) ">
			<g>
				<g id="NvidiaGpuFan_0_Layer0_1_MEMBER_0_FILL">
					<path class="st13" d="M-351.55-49c3.033,0,6.033-0.617,9-1.85l-0.8-1.85c-2.533,1.067-5.2,1.617-8,1.65
						c-2.767,0.033-5.433-0.467-8-1.5h-0.1l-0.65,1.85C-357.267-49.567-354.417-49-351.55-49 M-372.55-72.05
						c0-2.6,0.5-5.183,1.5-7.75l0.05-0.15l-1.85-0.65c-1.133,2.833-1.7,5.683-1.7,8.55c0,3.067,0.617,6.067,1.85,9l1.85-0.8
						C-371.983-66.517-372.55-69.25-372.55-72.05 M-328.5-72c0-3.067-0.617-6.083-1.85-9.05l-1.85,0.8
						c1.133,2.667,1.7,5.417,1.7,8.25c0,2.6-0.517,5.217-1.55,7.85l1.85,0.7C-329.067-66.283-328.5-69.133-328.5-72 M-351.75-93
						c2.8-0.033,5.483,0.467,8.05,1.5h0.05l0.7-1.85c-2.8-1.133-5.733-1.683-8.8-1.65c-3.033,0.033-5.95,0.633-8.75,1.8l0.75,1.85
						C-357.183-92.417-354.517-92.967-351.75-93z"/>
				</g>
			</g>
		</g>
		<g transform="matrix( 1, 0, 0, 1, -48,-48) ">
			<g>
				<g id="NvidiaGpuFan_0_Layer0_2_FILL">
					<path class="st14" d="M-349.9-24.05l-0.55-12l-1.7,0.05v12L-349.9-24.05z"/>
				</g>
			</g>
		</g>
		<g transform="matrix( 1, 0, 0, 1, -48,-48) ">
			<g>
				<g id="NvidiaGpuFan_0_Layer0_3_FILL">
					<path class="st14" d="M-356.75-24.25l1.2-11.95l-1.7-0.2L-359-24.55L-356.75-24.25z"/>
				</g>
			</g>
		</g>
		<g transform="matrix( 1, 0, 0, 1, -48,-48) ">
			<g>
				<g id="NvidiaGpuFan_0_Layer0_4_FILL">
					<path class="st14" d="M-345.35-24.5l2.25-0.35l-2.25-11.8l-1.65,0.3L-345.35-24.5z"/>
				</g>
			</g>
		</g>
		<g transform="matrix( 1, 0, 0, 1, -48,-48) ">
			<g>
				<g id="NvidiaGpuFan_0_Layer0_5_FILL">
					<path class="st14" d="M-363.5-25.4l2.9-11.65l-1.7-0.45l-3.4,11.5L-363.5-25.4z"/>
				</g>
			</g>
		</g>
		<g transform="matrix( 1, 0, 0, 1, -48,-48) ">
			<g>
				<g id="NvidiaGpuFan_0_Layer0_6_FILL">
					<path class="st14" d="M-338.65-25.9l2.15-0.7l-3.85-11.35l-1.65,0.5L-338.65-25.9z"/>
				</g>
			</g>
		</g>
		<g transform="matrix( 1, 0, 0, 1, -48,-48) ">
			<g>
				<g id="NvidiaGpuFan_0_Layer0_7_FILL">
					<path class="st14" d="M-370-27.5l4.5-11.15l-1.6-0.65l-5,10.9L-370-27.5z"/>
				</g>
			</g>
		</g>
		<g transform="matrix( 1, 0, 0, 1, -48,-48) ">
			<g>
				<g id="NvidiaGpuFan_0_Layer0_8_FILL">
					<path class="st14" d="M-332.25-28.3l2.05-0.95l-5.45-10.7l-1.55,0.75L-332.25-28.3z"/>
				</g>
			</g>
		</g>
		<g transform="matrix( 1, 0, 0, 1, -48,-48) ">
			<g>
				<g id="NvidiaGpuFan_0_Layer0_9_FILL">
					<path class="st14" d="M-376.15-30.5l6.05-10.4l-1.45-0.9l-6.55,10.1L-376.15-30.5z"/>
				</g>
			</g>
		</g>
		<g transform="matrix( 1, 0, 0, 1, -48,-48) ">
			<g>
				<g id="NvidiaGpuFan_0_Layer0_10_FILL">
					<path class="st14" d="M-326.2-31.55l1.9-1.3l-6.95-9.75l-1.45,0.95L-326.2-31.55z"/>
				</g>
			</g>
		</g>
		<g transform="matrix( 1, 0, 0, 1, -48,-48) ">
			<g>
				<g id="NvidiaGpuFan_0_Layer0_11_FILL">
					<path class="st14" d="M-381.8-34.4l7.45-9.4c-0.6-0.467-1.033-0.833-1.3-1.1l-7.9,9.05L-381.8-34.4z"/>
				</g>
			</g>
		</g>
		<g transform="matrix( 1, 0, 0, 1, -48,-48) ">
			<g>
				<g id="NvidiaGpuFan_0_Layer0_12_FILL">
					<path class="st14" d="M-320.7-35.65l1.65-1.5l-8.25-8.75l-1.25,1.15L-320.7-35.65z"/>
				</g>
			</g>
		</g>
		<g transform="matrix( 1, 0, 0, 1, -48,-48) ">
			<g>
				<g id="NvidiaGpuFan_0_Layer0_13_FILL">
					<path class="st14" d="M-386.85-39l8.7-8.25l-1.15-1.25l-9.1,7.8L-386.85-39z"/>
				</g>
			</g>
		</g>
		<g transform="matrix( 1, 0, 0, 1, -48,-48) ">
			<g>
				<g id="NvidiaGpuFan_0_Layer0_14_FILL">
					<path class="st14" d="M-315.85-40.45l1.45-1.75l-9.4-7.45l-1.1,1.3L-315.85-40.45z"/>
				</g>
			</g>
		</g>
		<g transform="matrix( 1, 0, 0, 1, -48,-48) ">
			<g>
				<g id="NvidiaGpuFan_0_Layer0_15_FILL">
					<path class="st14" d="M-391.2-44.3l9.8-6.9l-0.95-1.45l-10.1,6.5L-391.2-44.3z"/>
				</g>
			</g>
		</g>
		<g transform="matrix( 1, 0, 0, 1, -48,-48) ">
			<g>
				<g id="NvidiaGpuFan_0_Layer0_16_FILL">
					<path class="st14" d="M-311.75-45.9l1.2-1.95l-10.35-6.05l-0.9,1.45L-311.75-45.9z"/>
				</g>
			</g>
		</g>
		<g transform="matrix( 1, 0, 0, 1, -48,-48) ">
			<g>
				<g id="NvidiaGpuFan_0_Layer0_17_FILL">
					<path class="st14" d="M-395.75-52.2l1,2.05l10.7-5.45c-0.267-0.433-0.517-0.95-0.75-1.55L-395.75-52.2z"/>
				</g>
			</g>
		</g>
		<g transform="matrix( 1, 0, 0, 1, -48,-48) ">
			<g>
				<g id="NvidiaGpuFan_0_Layer0_18_FILL">
					<path class="st14" d="M-308.45-51.9l0.9-2.1l-11.1-4.5l-0.7,1.55L-308.45-51.9z"/>
				</g>
			</g>
		</g>
		<g transform="matrix( 1, 0, 0, 1, -48,-48) ">
			<g>
				<g id="NvidiaGpuFan_0_Layer0_19_FILL">
					<path class="st14" d="M-398.1-58.6l0.65,2.15l11.35-3.9l-0.5-1.6L-398.1-58.6z"/>
				</g>
			</g>
		</g>
		<g transform="matrix( 1, 0, 0, 1, -48,-48) ">
			<g>
				<g id="NvidiaGpuFan_0_Layer0_20_FILL">
					<path class="st14" d="M-306-58.3l0.6-2.2l-11.65-2.9l-0.45,1.65L-306-58.3z"/>
				</g>
			</g>
		</g>
		<g transform="matrix( 1, 0, 0, 1, -48,-48) ">
			<g>
				<g id="NvidiaGpuFan_0_Layer0_21_FILL">
					<path class="st14" d="M-399.2-63.05l11.8-2.25l-0.25-1.7l-11.9,1.7L-399.2-63.05z"/>
				</g>
			</g>
		</g>
		<g transform="matrix( 1, 0, 0, 1, -48,-48) ">
			<g>
				<g id="NvidiaGpuFan_0_Layer0_22_FILL">
					<path class="st14" d="M-304.55-65l0.3-2.25l-11.95-1.2l-0.2,1.7L-304.55-65z"/>
				</g>
			</g>
		</g>
		<g transform="matrix( 1, 0, 0, 1, -48,-48) ">
			<g>
				<g id="NvidiaGpuFan_0_Layer0_23_FILL">
					<path class="st14" d="M-388-72.1l-12,0.1v2.15l12-0.55V-72.1z"/>
				</g>
			</g>
		</g>
		<g transform="matrix( 1, 0, 0, 1, -48,-48) ">
			<g>
				<g id="NvidiaGpuFan_0_Layer0_24_FILL">
					<path class="st14" d="M-316.05-71.85L-304-72l-0.1-2.3l-11.95,0.55l0.05,1.65L-316.05-71.85z"/>
				</g>
			</g>
		</g>
		<g transform="matrix( 1, 0, 0, 1, -48,-48) ">
			<g>
				<g id="NvidiaGpuFan_0_Layer0_25_FILL">
					<path class="st14" d="M-387.85-75.55l0.2-1.7l-11.9-1.7l-0.25,2.25L-387.85-75.55z"/>
				</g>
			</g>
		</g>
		<g transform="matrix( 1, 0, 0, 1, -48,-48) ">
			<g>
				<g id="NvidiaGpuFan_0_Layer0_26_FILL">
					<path class="st14" d="M-316.4-77.15l11.9-1.7l-0.4-2.25l-11.75,2.25L-316.4-77.15z"/>
				</g>
			</g>
		</g>
		<g transform="matrix( 1, 0, 0, 1, -48,-48) ">
			<g>
				<g id="NvidiaGpuFan_0_Layer0_27_FILL">
					<path class="st14" d="M-387-80.6l0.45-1.65l-11.5-3.4c-0.267,0.8-0.467,1.533-0.6,2.2L-387-80.6z"/>
				</g>
			</g>
		</g>
		<g transform="matrix( 1, 0, 0, 1, -48,-48) ">
			<g>
				<g id="NvidiaGpuFan_0_Layer0_28_FILL">
					<path class="st14" d="M-306.65-87.75L-318-83.8l0.55,1.65l11.5-3.4L-306.65-87.75z"/>
				</g>
			</g>
		</g>
		<g transform="matrix( 1, 0, 0, 1, -48,-48) ">
			<g>
				<g id="NvidiaGpuFan_0_Layer0_29_FILL">
					<path class="st14" d="M-385.45-85.45l0.7-1.6l-10.9-5l-0.9,2.1L-385.45-85.45z"/>
				</g>
			</g>
		</g>
		<g transform="matrix( 1, 0, 0, 1, -48,-48) ">
			<g>
				<g id="NvidiaGpuFan_0_Layer0_30_FILL">
					<path class="st14" d="M-308.35-91.95l-1-2.05L-320-88.5l0.75,1.55L-308.35-91.95z"/>
				</g>
			</g>
		</g>
		<g transform="matrix( 1, 0, 0, 1, -48,-48) ">
			<g>
				<g id="NvidiaGpuFan_0_Layer0_31_FILL">
					<path class="st14" d="M-383.2-90.05l0.9-1.5l-10.05-6.5l-1.2,1.95L-383.2-90.05z"/>
				</g>
			</g>
		</g>
		<g transform="matrix( 1, 0, 0, 1, -48,-48) ">
			<g>
				<g id="NvidiaGpuFan_0_Layer0_32_FILL">
					<path class="st14" d="M-311.65-97.95l-1.25-1.9l-9.8,6.95l1,1.45L-311.65-97.95z"/>
				</g>
			</g>
		</g>
		<g transform="matrix( 1, 0, 0, 1, -48,-48) ">
			<g>
				<g id="NvidiaGpuFan_0_Layer0_33_FILL">
					<path class="st14" d="M-380.3-94.3l1.1-1.35l-9.05-7.85l-1.45,1.75L-380.3-94.3z"/>
				</g>
			</g>
		</g>
		<g transform="matrix( 1, 0, 0, 1, -48,-48) ">
			<g>
				<g id="NvidiaGpuFan_0_Layer0_34_FILL">
					<path class="st14" d="M-315.75-103.45l-1.5-1.7l-8.7,8.3l1.15,1.25L-315.75-103.45z"/>
				</g>
			</g>
		</g>
		<g transform="matrix( 1, 0, 0, 1, -48,-48) ">
			<g>
				<g id="NvidiaGpuFan_0_Layer0_35_FILL">
					<path class="st14" d="M-376.85-98.1l1.3-1.15l-7.85-9.1l-1.7,1.55L-376.85-98.1z"/>
				</g>
			</g>
		</g>
		<g transform="matrix( 1, 0, 0, 1, -48,-48) ">
			<g>
				<g id="NvidiaGpuFan_0_Layer0_36_FILL">
					<path class="st14" d="M-328.45-99.2l7.85-9.1l-1.75-1.45l-7.4,9.45L-328.45-99.2z"/>
				</g>
			</g>
		</g>
		<g transform="matrix( 1, 0, 0, 1, -48,-48) ">
			<g>
				<g id="NvidiaGpuFan_0_Layer0_37_FILL">
					<path class="st14" d="M-372.85-101.4l1.4-0.95l-6.45-10.1l-1.9,1.3L-372.85-101.4z"/>
				</g>
			</g>
		</g>
		<g transform="matrix( 1, 0, 0, 1, -48,-48) ">
			<g>
				<g id="NvidiaGpuFan_0_Layer0_38_FILL">
					<path class="st14" d="M-332.55-102.3l6.5-10.1l-1.95-1.2l-6,10.4L-332.55-102.3z"/>
				</g>
			</g>
		</g>
		<g transform="matrix( 1, 0, 0, 1, -48,-48) ">
			<g>
				<g id="NvidiaGpuFan_0_Layer0_39_FILL">
					<path class="st14" d="M-368.45-104.05l1.5-0.75l-4.95-10.9l-2.05,1L-368.45-104.05z"/>
				</g>
			</g>
		</g>
		<g transform="matrix( 1, 0, 0, 1, -48,-48) ">
			<g>
				<g id="NvidiaGpuFan_0_Layer0_40_FILL">
					<path class="st14" d="M-337.05-104.75l5-10.95l-2.1-0.9l-4.45,11.15L-337.05-104.75z"/>
				</g>
			</g>
		</g>
		<g transform="matrix( 1, 0, 0, 1, -48,-48) ">
			<g>
				<g id="NvidiaGpuFan_0_Layer0_41_FILL">
					<path class="st14" d="M-365.5-118.1l-2.15,0.7l3.9,11.35l1.6-0.55L-365.5-118.1z"/>
				</g>
			</g>
		</g>
		<g transform="matrix( 1, 0, 0, 1, -48,-48) ">
			<g>
				<g id="NvidiaGpuFan_0_Layer0_42_FILL">
					<path class="st14" d="M-341.85-106.55l3.4-11.55l-2.2-0.55L-343.5-107C-342.933-106.9-342.383-106.75-341.85-106.55z"/>
				</g>
			</g>
		</g>
		<g transform="matrix( 1, 0, 0, 1, -48,-48) ">
			<g>
				<g id="NvidiaGpuFan_0_Layer0_43_FILL">
					<path class="st14" d="M-358.8-107.4l1.7-0.25l-1.7-11.9l-2.25,0.35L-358.8-107.4z"/>
				</g>
			</g>
		</g>
		<g transform="matrix( 1, 0, 0, 1, -48,-48) ">
			<g>
				<g id="NvidiaGpuFan_0_Layer0_44_FILL">
					<path class="st14" d="M-346.85-107.65l1.7-11.9l-2.25-0.25l-1.15,11.95L-346.85-107.65z"/>
				</g>
			</g>
		</g>
		<g transform="matrix( 1, 0, 0, 1, -48,-48) ">
			<g>
				<g id="NvidiaGpuFan_0_Layer0_45_FILL">
					<path class="st14" d="M-353.7-108h1.7v-12l-2.25,0.05L-353.7-108z"/>
				</g>
			</g>
		</g>
	</g>
</g>
<g>
	<g>
		<line class="st19" x1="239" y1="230" x2="215" y2="230"/>
		<line class="st19" x1="213" y1="230" x2="110" y2="230"/>
		<line class="st19" x1="109" y1="230" x2="85" y2="230"/>
	</g>
</g>
<g>
	<g>
		<line class="st19" x1="241" y1="236" x2="217" y2="236"/>
		<line class="st19" x1="215" y1="236" x2="112" y2="236"/>
		<line class="st19" x1="111" y1="236" x2="87" y2="236"/>
	</g>
</g>
<g>
	<g>
		<line class="st19" x1="241" y1="242" x2="217" y2="242"/>
		<line class="st19" x1="215" y1="242" x2="112" y2="242"/>
		<line class="st19" x1="111" y1="242" x2="87" y2="242"/>
	</g>
</g>
<g>
	<g>
		<line class="st19" x1="243" y1="248" x2="219" y2="248"/>
		<line class="st19" x1="217" y1="248" x2="114" y2="248"/>
		<line class="st19" x1="113" y1="248" x2="89" y2="248"/>
	</g>
</g>
<g>
	<g>
		<line class="st19" x1="245" y1="254" x2="221" y2="254"/>
		<line class="st19" x1="219" y1="254" x2="116" y2="254"/>
		<line class="st19" x1="115" y1="254" x2="91" y2="254"/>
	</g>
</g>
<g>
	<g>
		<line class="st19" x1="247" y1="260" x2="223" y2="260"/>
		<line class="st19" x1="221" y1="260" x2="118" y2="260"/>
		<line class="st19" x1="117" y1="260" x2="93" y2="260"/>
	</g>
</g>
<g>
	<g>
		<line class="st19" x1="241" y1="224" x2="217" y2="224"/>
		<line class="st19" x1="215" y1="224" x2="112" y2="224"/>
		<line class="st19" x1="111" y1="224" x2="87" y2="224"/>
	</g>
</g>
<g>
	<g>
		<line class="st19" x1="241" y1="218" x2="217" y2="218"/>
		<line class="st19" x1="215" y1="218" x2="112" y2="218"/>
		<line class="st19" x1="111" y1="218" x2="87" y2="218"/>
	</g>
</g>
<g>
	<g>
		<line class="st19" x1="243" y1="212" x2="219" y2="212"/>
		<line class="st19" x1="217" y1="212" x2="114" y2="212"/>
		<line class="st19" x1="113" y1="212" x2="89" y2="212"/>
	</g>
</g>
<g>
	<g>
		<line class="st19" x1="245" y1="206" x2="221" y2="206"/>
		<line class="st19" x1="219" y1="206" x2="116" y2="206"/>
		<line class="st19" x1="115" y1="206" x2="91" y2="206"/>
	</g>
</g>
<g>
	<g>
		<line class="st19" x1="247" y1="200" x2="223" y2="200"/>
		<line class="st19" x1="221" y1="200" x2="118" y2="200"/>
		<line class="st19" x1="117" y1="200" x2="93" y2="200"/>
	</g>
</g>
<line class="st19" x1="219" y1="266.175" x2="119" y2="266.175"/>
<line class="st19" x1="117" y1="266.175" x2="93" y2="266.175"/>
<line class="st19" x1="207" y1="193.9" x2="120" y2="193.9"/>
<line class="st19" x1="118" y1="193.9" x2="93" y2="193.9"/>
</svg>
