<?xml version="1.0" encoding="utf-8"?>
<!-- Generator: Adobe Illustrator 21.0.2, SVG Export Plug-In . SVG Version: 6.00 Build 0)  -->
<svg version="1.1" xmlns="http://www.w3.org/2000/svg" xmlns:xlink="http://www.w3.org/1999/xlink" x="0px" y="0px"
	 viewBox="0 0 640 360" style="enable-background:new 0 0 640 360;" xml:space="preserve">
<style type="text/css">
	.st0{display:none;}
	.st1{fill:#4F4F4F;}
	.st2{fill:#2D2D2D;}
	.st3{fill:#2C2C2C;}
	.st4{fill:#2B2B2B;}
	.st5{fill:#464646;}
	.st6{fill:#757376;}
	.st7{fill:#353535;}
	.st8{fill:#333333;}
	.st9{fill:none;stroke:#2B2B2B;stroke-width:2;stroke-miterlimit:10;}
</style>
<g id="Layer_2">
	<polygon class="st1" points="319,10 99,24 99,324 319,324 539,324 539,24 	"/>
</g>
<g id="Layer_4">
	<polygon class="st2" points="570,342 561,350 449,350 440,342 	"/>
	<path class="st3" d="M339.5,33h-39c-2.475,0-4.5-2.025-4.5-4.5v0c0-2.475,2.025-4.5,4.5-4.5h39c2.475,0,4.5,2.025,4.5,4.5v0
		C344,30.975,341.975,33,339.5,33z"/>
	<polygon class="st2" points="200,342 191,350 79,350 70,342 	"/>
	<circle class="st4" cx="282" cy="28" r="2"/>
</g>
<g id="Layer_3">
	<polygon class="st5" points="57,324 60,346 580,346 583,324 	"/>
	<circle class="st6" cx="325" cy="28.5" r="3"/>
	<circle class="st7" cx="316" cy="28.5" r="3"/>
	<circle class="st7" cx="302" cy="28.5" r="3"/>
	<rect x="121" y="42" class="st8" width="400" height="224"/>
	<circle class="st4" cx="357" cy="28" r="2"/>
</g>
<g id="Layer_5">
	<g>
		<line class="st9" x1="576" y1="329" x2="544" y2="329"/>
		<line class="st9" x1="538" y1="329" x2="506" y2="329"/>
		<line class="st9" x1="500" y1="329" x2="468" y2="329"/>
		<line class="st9" x1="462" y1="329" x2="430" y2="329"/>
		<line class="st9" x1="572" y1="335" x2="540" y2="335"/>
		<line class="st9" x1="534" y1="335" x2="502" y2="335"/>
		<line class="st9" x1="496" y1="335" x2="464" y2="335"/>
		<line class="st9" x1="458" y1="335" x2="426" y2="335"/>
		<line class="st9" x1="569" y1="341" x2="537" y2="341"/>
		<line class="st9" x1="531" y1="341" x2="499" y2="341"/>
		<line class="st9" x1="493" y1="341" x2="461" y2="341"/>
		<line class="st9" x1="455" y1="341" x2="423" y2="341"/>
	</g>
	<g>
		<line class="st9" x1="64" y1="329" x2="96" y2="329"/>
		<line class="st9" x1="102" y1="329" x2="134" y2="329"/>
		<line class="st9" x1="140" y1="329" x2="172" y2="329"/>
		<line class="st9" x1="178" y1="329" x2="210" y2="329"/>
		<line class="st9" x1="68" y1="335" x2="100" y2="335"/>
		<line class="st9" x1="106" y1="335" x2="138" y2="335"/>
		<line class="st9" x1="144" y1="335" x2="176" y2="335"/>
		<line class="st9" x1="182" y1="335" x2="214" y2="335"/>
		<line class="st9" x1="71" y1="341" x2="103" y2="341"/>
		<line class="st9" x1="109" y1="341" x2="141" y2="341"/>
		<line class="st9" x1="147" y1="341" x2="179" y2="341"/>
		<line class="st9" x1="185" y1="341" x2="217" y2="341"/>
	</g>
</g>
</svg>
