<?xml version="1.0" encoding="utf-8"?>
<!-- Generator: Adobe Illustrator 21.0.2, SVG Export Plug-In . SVG Version: 6.00 Build 0)  -->
<svg version="1.1" id="Layer_1" xmlns="http://www.w3.org/2000/svg" xmlns:xlink="http://www.w3.org/1999/xlink" x="0px" y="0px"
	 viewBox="0 0 1280 360" style="enable-background:new 0 0 1280 360;" xml:space="preserve">
<style type="text/css">
	.st0{fill:#074D56;}
	.st1{fill:#F2D683;}
	.st2{fill:#E5E8EE;}
	.st3{fill:#BFC0C1;}
	.st4{fill:#F9F9FA;}
	.st5{fill:#F79420;}
	.st6{fill:#B2442B;}
	.st7{fill:#333333;}
	.st8{fill:#666766;}
	.st9{fill:none;stroke:#FFCC33;stroke-width:4;}
	.st10{fill:#0F0F0F;}
	.st11{fill:#F89735;}
	.st12{fill:#999999;}
	.st13{fill:#ABABAB;}
	.st14{fill:#B5B6B6;}
	.st15{fill:#575757;}
	.st16{fill:#292929;}
	.st17{fill:#9C9C9C;}
	.st18{fill:#F3F3F3;}
	.st19{fill:#CDCDCD;}
	.st20{fill:#6D6D6D;}
	.st21{fill:#323232;}
	.st22{fill:#E7E7E6;}
	.st23{fill:#858585;}
	.st24{fill:#424242;}
	.st25{fill:none;stroke:url(#Layer3_59_1_STROKES_1_);stroke-width:4;stroke-miterlimit:10;}
	.st26{fill:#D8D9DA;}
	.st27{fill:none;stroke:#FFFFFF;stroke-linecap:round;stroke-linejoin:round;}
	.st28{fill:none;stroke:#333333;stroke-width:2;stroke-miterlimit:10;}
</style>
<path class="st0" d="M1148,130c0-2.209,1.791-4,4-4v-10h-104v10c2.209,0,4,1.791,4,4c0,2.209-1.791,4-4,4v86h104v-86
	C1149.791,134,1148,132.209,1148,130z"/>
<polygon class="st1" points="1050,218 1050,214 1054,218 "/>
<circle class="st1" cx="1051" cy="119" r="2"/>
<circle class="st1" cx="1063" cy="118" r="1"/>
<circle class="st1" cx="1066" cy="118" r="1"/>
<circle class="st1" cx="1064.5" cy="120" r="1"/>
<circle class="st1" cx="1067.5" cy="120" r="1"/>
<circle class="st1" cx="1069" cy="118" r="1"/>
<circle class="st1" cx="1072" cy="118" r="1"/>
<circle class="st1" cx="1070.5" cy="120" r="1"/>
<circle class="st1" cx="1073.5" cy="120" r="1"/>
<circle class="st1" cx="1075" cy="118" r="1"/>
<circle class="st1" cx="1078" cy="118" r="1"/>
<circle class="st1" cx="1076.5" cy="120" r="1"/>
<circle class="st1" cx="1079.5" cy="120" r="1"/>
<circle class="st1" cx="1081" cy="118" r="1"/>
<circle class="st1" cx="1084" cy="118" r="1"/>
<circle class="st1" cx="1082.5" cy="120" r="1"/>
<circle class="st1" cx="1085.5" cy="120" r="1"/>
<circle class="st1" cx="1087" cy="118" r="1"/>
<circle class="st1" cx="1090" cy="118" r="1"/>
<circle class="st1" cx="1088.5" cy="120" r="1"/>
<circle class="st1" cx="1091.5" cy="120" r="1"/>
<circle class="st1" cx="1093" cy="118" r="1"/>
<circle class="st1" cx="1096" cy="118" r="1"/>
<circle class="st1" cx="1094.5" cy="120" r="1"/>
<circle class="st1" cx="1097.5" cy="120" r="1"/>
<circle class="st1" cx="1099" cy="118" r="1"/>
<circle class="st1" cx="1102" cy="118" r="1"/>
<circle class="st1" cx="1100.5" cy="120" r="1"/>
<circle class="st1" cx="1103.5" cy="120" r="1"/>
<circle class="st1" cx="1105" cy="118" r="1"/>
<circle class="st1" cx="1108" cy="118" r="1"/>
<circle class="st1" cx="1106.5" cy="120" r="1"/>
<circle class="st1" cx="1109.5" cy="120" r="1"/>
<path class="st2" d="M1058,127v20c0,1.657-1.343,3-3,3l0,0c-1.657,0-3,1.343-3,3v30c0,1.657,1.343,3,3,3l0,0c1.657,0,3,1.343,3,3v20
	c0,1.657,1.343,3,3,3h78c1.657,0,3-1.343,3-3v-18c0-1.657,1.343-3,3-3l0,0c1.657,0,3-1.343,3-3v-32c0-1.657-1.343-3-3-3l0,0
	c-1.657,0-3-1.343-3-3v-20c0-1.657-1.343-3-3-3h-78C1059.343,124,1058,125.343,1058,127z"/>
<circle class="st3" cx="1060" cy="128" r="0"/>
<path class="st4" d="M1134,208h-68c-3.314,0-6-2.686-6-6v-70c0-3.314,2.686-6,6-6h68c3.314,0,6,2.686,6,6v70
	C1140,205.314,1137.314,208,1134,208z"/>
<path d="M123.5,248.5v10h12v-10h6v18h16v-12h4v12h106v-14h4v10h18l2-4v-4h-8v-5.765l78.022-0.213c4.41-0.012,7.978-3.59,7.978-8
	V94.5c0-4.418-3.582-8-8-8h-290c-4.418,0-8,3.582-8,8v146c0,4.418,3.582,8,8,8H123.5z"/>
<rect x="141.5" y="256.5" class="st5" width="16" height="10"/>
<rect x="123.5" y="256.5" class="st5" width="12" height="2"/>
<polygon class="st5" points="271.5,256.5 271.5,262.5 289.5,262.5 291.5,258.5 291.5,256.5 "/>
<rect x="161.5" y="256.5" class="st5" width="106" height="10"/>
<rect x="69.5" y="188.5" class="st6" width="20" height="28"/>
<rect x="69.5" y="110.5" class="st6" width="20" height="72"/>
<path class="st7" d="M107.5,242.5h244c6.6,0,12-5.4,12-12v-126c0-6.6-5.4-12-12-12h-244c-6.6,0-12,5.4-12,12v126
	C95.5,237.1,100.9,242.5,107.5,242.5z"/>
<circle class="st8" cx="351.5" cy="102.5" r="4"/>
<circle class="st8" cx="353.5" cy="232.5" r="4"/>
<circle class="st8" cx="107.5" cy="102.5" r="4"/>
<circle class="st8" cx="107.5" cy="232.5" r="4"/>
<g id="g8429" transform="translate(0,600)">
	<path id="ellipse8455" class="st8" d="M246.508-369.999c0,0.557-0.451,1.008-1.008,1.008l0,0c-0.557,0-1.008-0.451-1.008-1.008l0,0
		c0-0.557,0.451-1.008,1.008-1.008l0,0C246.057-371.007,246.508-370.555,246.508-369.999L246.508-369.999z M236.01-369.999
		c0,0.557-0.451,1.008-1.008,1.008l0,0c-0.557,0-1.008-0.451-1.008-1.008l0,0c0-0.557,0.451-1.008,1.008-1.008l0,0
		C235.558-371.007,236.01-370.555,236.01-369.999L236.01-369.999z M225.511-369.999c0,0.557-0.451,1.008-1.008,1.008h0
		c-0.557,0-1.008-0.451-1.008-1.008s0.451-1.008,1.008-1.008C225.06-371.007,225.511-370.555,225.511-369.999L225.511-369.999z
		 M215.012-369.999c0,0.557-0.451,1.008-1.008,1.008l0,0c-0.557,0-1.008-0.451-1.008-1.008s0.451-1.008,1.008-1.008
		C214.561-371.007,215.012-370.555,215.012-369.999L215.012-369.999z M204.514-369.999c0,0.557-0.451,1.008-1.008,1.008l0,0
		c-0.557,0-1.008-0.451-1.008-1.008s0.451-1.008,1.008-1.008S204.514-370.555,204.514-369.999L204.514-369.999z M194.015-369.999
		c0,0.557-0.451,1.008-1.008,1.008h0c-0.557,0-1.008-0.451-1.008-1.008s0.451-1.008,1.008-1.008S194.015-370.555,194.015-369.999
		L194.015-369.999z M183.517-369.999c0,0.557-0.451,1.008-1.008,1.008h0c-0.557,0-1.008-0.451-1.008-1.008s0.451-1.008,1.008-1.008
		C183.065-371.007,183.517-370.555,183.517-369.999L183.517-369.999z M173.018-369.999c0,0.557-0.451,1.008-1.008,1.008l0,0
		c-0.557,0-1.008-0.451-1.008-1.008l0,0c0-0.557,0.451-1.008,1.008-1.008c0,0,0,0,0,0
		C172.566-371.007,173.018-370.555,173.018-369.999L173.018-369.999L173.018-369.999z M162.519-369.999
		c0,0.557-0.451,1.008-1.008,1.008l0,0c-0.557,0-1.008-0.451-1.008-1.008l0,0c0-0.557,0.451-1.008,1.008-1.008l0,0
		C162.068-371.007,162.519-370.555,162.519-369.999L162.519-369.999L162.519-369.999z M152.021-369.999
		c0,0.557-0.451,1.008-1.008,1.008l0,0c-0.557,0-1.008-0.451-1.008-1.008l0,0c0-0.557,0.451-1.008,1.008-1.008l0,0
		C151.569-371.007,152.021-370.555,152.021-369.999L152.021-369.999L152.021-369.999z M141.522-369.999
		c0,0.557-0.451,1.008-1.008,1.008c0,0,0,0,0,0c-0.557,0-1.008-0.451-1.008-1.008l0,0c0-0.557,0.451-1.008,1.008-1.008l0,0
		C141.071-371.007,141.522-370.555,141.522-369.999L141.522-369.999L141.522-369.999z M131.023-369.999
		c0,0.557-0.451,1.008-1.008,1.008c0,0,0,0,0,0c-0.557,0-1.008-0.451-1.008-1.008l0,0c0-0.557,0.451-1.008,1.008-1.008l0,0
		C130.572-371.007,131.023-370.555,131.023-369.999L131.023-369.999L131.023-369.999z M120.525-369.999
		c0,0.557-0.451,1.008-1.008,1.008h0c-0.557,0-1.008-0.451-1.008-1.008s0.451-1.008,1.008-1.008S120.525-370.555,120.525-369.999
		L120.525-369.999z M246.508-380.497c0,0.557-0.451,1.008-1.008,1.008l0,0c-0.557,0-1.008-0.451-1.008-1.008l0,0
		c0-0.557,0.451-1.008,1.008-1.008l0,0C246.057-381.505,246.508-381.054,246.508-380.497L246.508-380.497z M236.01-380.497
		c0,0.557-0.451,1.008-1.008,1.008l0,0c-0.557,0-1.008-0.451-1.008-1.008l0,0c0-0.557,0.451-1.008,1.008-1.008l0,0
		C235.558-381.505,236.01-381.054,236.01-380.497L236.01-380.497z M225.511-380.497c0,0.557-0.451,1.008-1.008,1.008h0
		c-0.557,0-1.008-0.451-1.008-1.008c0-0.557,0.451-1.008,1.008-1.008C225.06-381.505,225.511-381.054,225.511-380.497
		L225.511-380.497z M215.012-380.497c0,0.557-0.451,1.008-1.008,1.008l0,0c-0.557,0-1.008-0.451-1.008-1.008
		c0-0.557,0.451-1.008,1.008-1.008C214.561-381.505,215.012-381.054,215.012-380.497L215.012-380.497z M204.514-380.497
		c0,0.557-0.451,1.008-1.008,1.008l0,0c-0.557,0-1.008-0.451-1.008-1.008c0-0.557,0.451-1.008,1.008-1.008
		S204.514-381.054,204.514-380.497L204.514-380.497z M194.015-380.497c0,0.557-0.451,1.008-1.008,1.008h0
		c-0.557,0-1.008-0.451-1.008-1.008c0-0.557,0.451-1.008,1.008-1.008S194.015-381.054,194.015-380.497L194.015-380.497z
		 M183.517-380.497c0,0.557-0.451,1.008-1.008,1.008h0c-0.557,0-1.008-0.451-1.008-1.008c0-0.557,0.451-1.008,1.008-1.008
		C183.065-381.505,183.517-381.054,183.517-380.497L183.517-380.497z M173.018-380.497c0,0.557-0.451,1.008-1.008,1.008l0,0
		c-0.557,0-1.008-0.451-1.008-1.008l0,0c0-0.557,0.451-1.008,1.008-1.008l0,0C172.566-381.505,173.018-381.054,173.018-380.497
		L173.018-380.497L173.018-380.497z M162.519-380.497c0,0.557-0.451,1.008-1.008,1.008l0,0c-0.557,0-1.008-0.451-1.008-1.008l0,0
		c0-0.557,0.451-1.008,1.008-1.008l0,0C162.068-381.505,162.519-381.054,162.519-380.497L162.519-380.497L162.519-380.497z
		 M152.021-380.497c0,0.557-0.451,1.008-1.008,1.008l0,0c-0.557,0-1.008-0.451-1.008-1.008l0,0c0-0.557,0.451-1.008,1.008-1.008l0,0
		C151.569-381.505,152.021-381.054,152.021-380.497L152.021-380.497L152.021-380.497z M141.522-380.497
		c0,0.557-0.451,1.008-1.008,1.008c0,0,0,0,0,0c-0.557,0-1.008-0.451-1.008-1.008l0,0c0-0.557,0.451-1.008,1.008-1.008
		C141.071-381.505,141.522-381.054,141.522-380.497L141.522-380.497z M131.023-380.497c0,0.557-0.451,1.008-1.008,1.008c0,0,0,0,0,0
		c-0.557,0-1.008-0.451-1.008-1.008l0,0c0-0.557,0.451-1.008,1.008-1.008C130.572-381.505,131.023-381.054,131.023-380.497
		L131.023-380.497z M120.525-380.497c0,0.557-0.451,1.008-1.008,1.008l0,0c-0.557,0-1.008-0.451-1.008-1.008l0,0
		c0-0.557,0.451-1.008,1.008-1.008S120.525-381.054,120.525-380.497z M246.508-390.996c0,0.557-0.451,1.008-1.008,1.008l0,0
		c-0.557,0-1.008-0.451-1.008-1.008l0,0c0-0.557,0.451-1.008,1.008-1.008l0,0C246.057-392.004,246.508-391.553,246.508-390.996
		L246.508-390.996z M236.01-390.996c0,0.557-0.451,1.008-1.008,1.008l0,0c-0.557,0-1.008-0.451-1.008-1.008l0,0
		c0-0.557,0.451-1.008,1.008-1.008l0,0C235.558-392.004,236.01-391.553,236.01-390.996L236.01-390.996z M225.511-390.996
		c0,0.557-0.451,1.008-1.008,1.008h0c-0.557,0-1.008-0.451-1.008-1.008c0-0.557,0.451-1.008,1.008-1.008
		C225.06-392.004,225.511-391.553,225.511-390.996L225.511-390.996z M215.012-390.996c0,0.557-0.451,1.008-1.008,1.008l0,0
		c-0.557,0-1.008-0.451-1.008-1.008c0-0.557,0.451-1.008,1.008-1.008C214.561-392.004,215.012-391.553,215.012-390.996
		L215.012-390.996z M204.514-390.996c0,0.557-0.451,1.008-1.008,1.008l0,0c-0.557,0-1.008-0.451-1.008-1.008
		c0-0.557,0.451-1.008,1.008-1.008S204.514-391.553,204.514-390.996L204.514-390.996z M194.015-390.996
		c0,0.557-0.451,1.008-1.008,1.008h0c-0.557,0-1.008-0.451-1.008-1.008c0-0.557,0.451-1.008,1.008-1.008
		S194.015-391.553,194.015-390.996L194.015-390.996z M183.517-390.996c0,0.557-0.451,1.008-1.008,1.008h0
		c-0.557,0-1.008-0.451-1.008-1.008c0-0.557,0.451-1.008,1.008-1.008C183.065-392.004,183.517-391.553,183.517-390.996
		L183.517-390.996z M173.018-390.996c0,0.557-0.451,1.008-1.008,1.008l0,0c-0.557,0-1.008-0.451-1.008-1.008l0,0
		c0-0.557,0.451-1.008,1.008-1.008c0,0,0,0,0,0C172.566-392.004,173.018-391.553,173.018-390.996L173.018-390.996L173.018-390.996z
		 M162.519-390.996c0,0.557-0.451,1.008-1.008,1.008l0,0c-0.557,0-1.008-0.451-1.008-1.008l0,0c0-0.557,0.451-1.008,1.008-1.008l0,0
		C162.068-392.004,162.519-391.553,162.519-390.996L162.519-390.996L162.519-390.996z M152.021-390.996
		c0,0.557-0.451,1.008-1.008,1.008l0,0c-0.557,0-1.008-0.451-1.008-1.008l0,0c0-0.557,0.451-1.008,1.008-1.008l0,0
		C151.569-392.004,152.021-391.553,152.021-390.996L152.021-390.996L152.021-390.996z M141.522-390.996
		c0,0.557-0.451,1.008-1.008,1.008c0,0,0,0,0,0c-0.557,0-1.008-0.451-1.008-1.008l0,0c0-0.557,0.451-1.008,1.008-1.008l0,0
		C141.071-392.004,141.522-391.553,141.522-390.996L141.522-390.996L141.522-390.996z M131.023-390.996
		c0,0.557-0.451,1.008-1.008,1.008c0,0,0,0,0,0c-0.557,0-1.008-0.451-1.008-1.008l0,0c0-0.557,0.451-1.008,1.008-1.008l0,0
		C130.572-392.004,131.023-391.553,131.023-390.996L131.023-390.996L131.023-390.996z M120.525-390.996
		c0,0.557-0.451,1.008-1.008,1.008c0,0,0,0,0,0c-0.557,0-1.008-0.451-1.008-1.008l0,0c0-0.557,0.451-1.008,1.008-1.008l0,0
		C120.073-392.004,120.525-391.553,120.525-390.996L120.525-390.996L120.525-390.996z M246.508-401.495
		c0,0.557-0.451,1.008-1.008,1.008c0,0,0,0,0,0c-0.557,0-1.008-0.451-1.008-1.008c0,0,0,0,0,0c0-0.557,0.451-1.008,1.008-1.008
		c0,0,0,0,0,0C246.057-402.503,246.508-402.051,246.508-401.495L246.508-401.495z M236.01-401.495c0,0.557-0.451,1.008-1.008,1.008
		c0,0,0,0,0,0c-0.557,0-1.008-0.451-1.008-1.008c0,0,0,0,0,0c0-0.557,0.451-1.008,1.008-1.008c0,0,0,0,0,0
		C235.558-402.503,236.01-402.051,236.01-401.495L236.01-401.495z M225.511-401.495c0,0.557-0.451,1.008-1.008,1.008h0
		c-0.557,0-1.008-0.451-1.008-1.008l0,0c0-0.557,0.451-1.008,1.008-1.008l0,0C225.06-402.503,225.511-402.051,225.511-401.495
		L225.511-401.495L225.511-401.495z M215.012-401.495c0,0.557-0.451,1.008-1.008,1.008l0,0c-0.557,0-1.008-0.451-1.008-1.008l0,0
		c0-0.557,0.451-1.008,1.008-1.008l0,0C214.561-402.503,215.012-402.051,215.012-401.495L215.012-401.495L215.012-401.495z
		 M204.514-401.495c0,0.557-0.451,1.008-1.008,1.008l0,0c-0.557,0-1.008-0.451-1.008-1.008l0,0c0-0.557,0.451-1.008,1.008-1.008l0,0
		C204.062-402.503,204.514-402.051,204.514-401.495L204.514-401.495L204.514-401.495z M194.015-401.495
		c0,0.557-0.451,1.008-1.008,1.008h0c-0.557,0-1.008-0.451-1.008-1.008l0,0c0-0.557,0.451-1.008,1.008-1.008l0,0
		C193.564-402.503,194.015-402.051,194.015-401.495L194.015-401.495L194.015-401.495z M183.517-401.495
		c0,0.557-0.451,1.008-1.008,1.008h0c-0.557,0-1.008-0.451-1.008-1.008l0,0c0-0.557,0.451-1.008,1.008-1.008l0,0
		C183.065-402.503,183.517-402.051,183.517-401.495L183.517-401.495L183.517-401.495z M173.018-401.495
		c0,0.557-0.451,1.008-1.008,1.008l0,0c-0.557,0-1.008-0.451-1.008-1.008v0c0-0.557,0.451-1.008,1.008-1.008h0
		C172.566-402.503,173.018-402.051,173.018-401.495L173.018-401.495L173.018-401.495z M162.519-401.495
		c0,0.557-0.451,1.008-1.008,1.008l0,0c-0.557,0-1.008-0.451-1.008-1.008v0c0-0.557,0.451-1.008,1.008-1.008l0,0
		C162.068-402.503,162.519-402.051,162.519-401.495L162.519-401.495L162.519-401.495z M152.021-401.495
		c0,0.557-0.451,1.008-1.008,1.008l0,0c-0.557,0-1.008-0.451-1.008-1.008v0c0-0.557,0.451-1.008,1.008-1.008l0,0
		C151.569-402.503,152.021-402.051,152.021-401.495L152.021-401.495L152.021-401.495z M141.522-401.495
		c0,0.557-0.451,1.008-1.008,1.008h0c-0.557,0-1.008-0.451-1.008-1.008c0,0,0,0,0,0c0-0.557,0.451-1.008,1.008-1.008l0,0
		C141.071-402.503,141.522-402.051,141.522-401.495L141.522-401.495L141.522-401.495z M131.023-401.495
		c0,0.557-0.451,1.008-1.008,1.008c0,0,0,0,0,0c-0.557,0-1.008-0.451-1.008-1.008c0,0,0,0,0,0c0-0.557,0.451-1.008,1.008-1.008l0,0
		C130.572-402.503,131.023-402.051,131.023-401.495L131.023-401.495L131.023-401.495z M120.525-401.495
		c0,0.557-0.451,1.008-1.008,1.008c0,0,0,0,0,0c-0.557,0-1.008-0.451-1.008-1.008c0,0,0,0,0,0c0-0.557,0.451-1.008,1.008-1.008l0,0
		C120.073-402.503,120.525-402.051,120.525-401.495L120.525-401.495L120.525-401.495z M246.508-411.993
		c0,0.557-0.451,1.008-1.008,1.008c0,0,0,0,0,0c-0.557,0-1.008-0.451-1.008-1.008l0,0c0-0.557,0.451-1.008,1.008-1.008c0,0,0,0,0,0
		C246.057-413.001,246.508-412.55,246.508-411.993C246.508-411.993,246.508-411.993,246.508-411.993z M236.01-411.993
		c0,0.557-0.451,1.008-1.008,1.008c0,0,0,0,0,0c-0.557,0-1.008-0.451-1.008-1.008l0,0c0-0.557,0.451-1.008,1.008-1.008c0,0,0,0,0,0
		C235.558-413.001,236.01-412.55,236.01-411.993C236.01-411.993,236.01-411.993,236.01-411.993z M225.511-411.993
		c0,0.557-0.451,1.008-1.008,1.008h0c-0.557,0-1.008-0.451-1.008-1.008l0,0c0-0.557,0.451-1.008,1.008-1.008l0,0
		C225.06-413.001,225.511-412.55,225.511-411.993L225.511-411.993L225.511-411.993z M215.012-411.993
		c0,0.557-0.451,1.008-1.008,1.008l0,0c-0.557,0-1.008-0.451-1.008-1.008l0,0c0-0.557,0.451-1.008,1.008-1.008l0,0
		C214.561-413.001,215.012-412.55,215.012-411.993L215.012-411.993L215.012-411.993z M204.514-411.993
		c0,0.557-0.451,1.008-1.008,1.008l0,0c-0.557,0-1.008-0.451-1.008-1.008l0,0c0-0.557,0.451-1.008,1.008-1.008l0,0
		C204.062-413.001,204.514-412.55,204.514-411.993L204.514-411.993L204.514-411.993z M194.015-411.993
		c0,0.557-0.451,1.008-1.008,1.008h0c-0.557,0-1.008-0.451-1.008-1.008l0,0c0-0.557,0.451-1.008,1.008-1.008l0,0
		C193.564-413.001,194.015-412.55,194.015-411.993L194.015-411.993L194.015-411.993z M183.517-411.993
		c0,0.557-0.451,1.008-1.008,1.008h0c-0.557,0-1.008-0.451-1.008-1.008l0,0c0-0.557,0.451-1.008,1.008-1.008l0,0
		C183.065-413.001,183.517-412.55,183.517-411.993L183.517-411.993L183.517-411.993z M173.018-411.993
		c0,0.557-0.451,1.008-1.008,1.008l0,0c-0.557,0-1.008-0.451-1.008-1.008l0,0c0-0.557,0.451-1.008,1.008-1.008h0
		C172.566-413.001,173.018-412.55,173.018-411.993L173.018-411.993L173.018-411.993z M162.519-411.993
		c0,0.557-0.451,1.008-1.008,1.008l0,0c-0.557,0-1.008-0.451-1.008-1.008l0,0c0-0.557,0.451-1.008,1.008-1.008l0,0
		C162.068-413.001,162.519-412.55,162.519-411.993L162.519-411.993L162.519-411.993z M152.021-411.993
		c0,0.557-0.451,1.008-1.008,1.008l0,0c-0.557,0-1.008-0.451-1.008-1.008l0,0c0-0.557,0.451-1.008,1.008-1.008l0,0
		C151.569-413.001,152.021-412.55,152.021-411.993L152.021-411.993L152.021-411.993z M141.522-411.993
		c0,0.557-0.451,1.008-1.008,1.008h0c-0.557,0-1.008-0.451-1.008-1.008l0,0c0-0.557,0.451-1.008,1.008-1.008l0,0
		C141.071-413.001,141.522-412.55,141.522-411.993C141.522-411.993,141.522-411.993,141.522-411.993L141.522-411.993z
		 M131.023-411.993c0,0.557-0.451,1.008-1.008,1.008c0,0,0,0,0,0c-0.557,0-1.008-0.451-1.008-1.008l0,0
		c0-0.557,0.451-1.008,1.008-1.008l0,0C130.572-413.001,131.023-412.55,131.023-411.993
		C131.023-411.993,131.023-411.993,131.023-411.993L131.023-411.993z M120.525-411.993c0,0.557-0.451,1.008-1.008,1.008c0,0,0,0,0,0
		c-0.557,0-1.008-0.451-1.008-1.008l0,0c0-0.557,0.451-1.008,1.008-1.008l0,0C120.073-413.001,120.525-412.55,120.525-411.993
		C120.525-411.993,120.525-411.993,120.525-411.993L120.525-411.993z M246.508-422.492c0,0.557-0.451,1.008-1.008,1.008c0,0,0,0,0,0
		c-0.557,0-1.008-0.451-1.008-1.008l0,0c0-0.557,0.451-1.008,1.008-1.008c0,0,0,0,0,0
		C246.057-423.5,246.508-423.049,246.508-422.492C246.508-422.492,246.508-422.492,246.508-422.492z M236.01-422.492
		c0,0.557-0.451,1.008-1.008,1.008c0,0,0,0,0,0c-0.557,0-1.008-0.451-1.008-1.008l0,0c0-0.557,0.451-1.008,1.008-1.008c0,0,0,0,0,0
		C235.558-423.5,236.01-423.049,236.01-422.492C236.01-422.492,236.01-422.492,236.01-422.492z M225.511-422.492
		c0,0.557-0.451,1.008-1.008,1.008h0c-0.557,0-1.008-0.451-1.008-1.008l0,0c0-0.557,0.451-1.008,1.008-1.008l0,0
		C225.06-423.5,225.511-423.049,225.511-422.492L225.511-422.492L225.511-422.492z M215.012-422.492
		c0,0.557-0.451,1.008-1.008,1.008l0,0c-0.557,0-1.008-0.451-1.008-1.008l0,0c0-0.557,0.451-1.008,1.008-1.008l0,0
		C214.561-423.5,215.012-423.049,215.012-422.492L215.012-422.492L215.012-422.492z M204.514-422.492
		c0,0.557-0.451,1.008-1.008,1.008l0,0c-0.557,0-1.008-0.451-1.008-1.008l0,0c0-0.557,0.451-1.008,1.008-1.008l0,0
		C204.062-423.5,204.514-423.049,204.514-422.492L204.514-422.492L204.514-422.492z M194.015-422.492
		c0,0.557-0.451,1.008-1.008,1.008h0c-0.557,0-1.008-0.451-1.008-1.008l0,0c0-0.557,0.451-1.008,1.008-1.008l0,0
		C193.564-423.5,194.015-423.049,194.015-422.492L194.015-422.492L194.015-422.492z M183.517-422.492
		c0,0.557-0.451,1.008-1.008,1.008h0c-0.557,0-1.008-0.451-1.008-1.008l0,0c0-0.557,0.451-1.008,1.008-1.008l0,0
		C183.065-423.5,183.517-423.049,183.517-422.492L183.517-422.492L183.517-422.492z M173.018-422.492
		c0,0.557-0.451,1.008-1.008,1.008l0,0c-0.557,0-1.008-0.451-1.008-1.008l0,0c0-0.557,0.451-1.008,1.008-1.008h0
		C172.566-423.5,173.018-423.049,173.018-422.492L173.018-422.492L173.018-422.492z M162.519-422.492
		c0,0.557-0.451,1.008-1.008,1.008l0,0c-0.557,0-1.008-0.451-1.008-1.008l0,0c0-0.557,0.451-1.008,1.008-1.008l0,0
		C162.068-423.5,162.519-423.049,162.519-422.492L162.519-422.492L162.519-422.492z M152.021-422.492
		c0,0.557-0.451,1.008-1.008,1.008l0,0c-0.557,0-1.008-0.451-1.008-1.008l0,0c0-0.557,0.451-1.008,1.008-1.008l0,0
		C151.569-423.5,152.021-423.049,152.021-422.492L152.021-422.492L152.021-422.492z M141.522-422.492
		c0,0.557-0.451,1.008-1.008,1.008h0c-0.557,0-1.008-0.451-1.008-1.008l0,0c0-0.557,0.451-1.008,1.008-1.008l0,0
		C141.071-423.5,141.522-423.049,141.522-422.492L141.522-422.492L141.522-422.492z M131.023-422.492
		c0,0.557-0.451,1.008-1.008,1.008c0,0,0,0,0,0c-0.557,0-1.008-0.451-1.008-1.008l0,0c0-0.557,0.451-1.008,1.008-1.008l0,0
		C130.572-423.5,131.023-423.049,131.023-422.492L131.023-422.492L131.023-422.492z M120.525-422.492
		c0,0.557-0.451,1.008-1.008,1.008c0,0,0,0,0,0c-0.557,0-1.008-0.451-1.008-1.008l0,0c0-0.557,0.451-1.008,1.008-1.008l0,0
		C120.073-423.5,120.525-423.049,120.525-422.492L120.525-422.492L120.525-422.492z M246.508-432.99
		c0,0.557-0.451,1.008-1.008,1.008l0,0c-0.557,0-1.008-0.451-1.008-1.008l0,0c0-0.557,0.451-1.008,1.008-1.008l0,0
		C246.057-433.999,246.508-433.547,246.508-432.99L246.508-432.99z M236.01-432.99c0,0.557-0.451,1.008-1.008,1.008l0,0
		c-0.557,0-1.008-0.451-1.008-1.008l0,0c0-0.557,0.451-1.008,1.008-1.008l0,0C235.558-433.999,236.01-433.547,236.01-432.99
		L236.01-432.99z M225.511-432.99c0,0.557-0.451,1.008-1.008,1.008c0,0,0,0,0,0c-0.557,0-1.008-0.451-1.008-1.008
		c0-0.557,0.451-1.008,1.008-1.008C225.06-433.999,225.511-433.547,225.511-432.99L225.511-432.99z M215.012-432.99
		c0,0.557-0.451,1.008-1.008,1.008l0,0c-0.557,0-1.008-0.451-1.008-1.008c0-0.557,0.451-1.008,1.008-1.008
		C214.561-433.999,215.012-433.547,215.012-432.99L215.012-432.99z M204.514-432.99c0,0.557-0.451,1.008-1.008,1.008l0,0
		c-0.557,0-1.008-0.451-1.008-1.008c0-0.557,0.451-1.008,1.008-1.008S204.514-433.547,204.514-432.99L204.514-432.99z
		 M194.015-432.99c0,0.557-0.451,1.008-1.008,1.008c0,0,0,0,0,0c-0.557,0-1.008-0.451-1.008-1.008c0-0.557,0.451-1.008,1.008-1.008
		S194.015-433.547,194.015-432.99L194.015-432.99z M183.517-432.99c0,0.557-0.451,1.008-1.008,1.008c0,0,0,0,0,0
		c-0.557,0-1.008-0.451-1.008-1.008c0-0.557,0.451-1.008,1.008-1.008C183.065-433.999,183.517-433.547,183.517-432.99
		L183.517-432.99z M173.018-432.99c0,0.557-0.451,1.008-1.008,1.008l0,0c-0.557,0-1.008-0.451-1.008-1.008l0,0
		c0-0.557,0.451-1.008,1.008-1.008l0,0C172.566-433.999,173.018-433.547,173.018-432.99L173.018-432.99L173.018-432.99z
		 M162.519-432.99c0,0.557-0.451,1.008-1.008,1.008l0,0c-0.557,0-1.008-0.451-1.008-1.008l0,0c0-0.557,0.451-1.008,1.008-1.008l0,0
		C162.068-433.999,162.519-433.547,162.519-432.99L162.519-432.99L162.519-432.99z M152.021-432.99c0,0.557-0.451,1.008-1.008,1.008
		l0,0c-0.557,0-1.008-0.451-1.008-1.008l0,0c0-0.557,0.451-1.008,1.008-1.008l0,0C151.569-433.999,152.021-433.547,152.021-432.99
		L152.021-432.99L152.021-432.99z M141.522-432.99c0,0.557-0.451,1.008-1.008,1.008l0,0c-0.557,0-1.008-0.451-1.008-1.008
		c0-0.557,0.451-1.008,1.008-1.008C141.071-433.999,141.522-433.547,141.522-432.99L141.522-432.99z M131.023-432.99
		c0,0.557-0.451,1.008-1.008,1.008h0c-0.557,0-1.008-0.451-1.008-1.008c0-0.557,0.451-1.008,1.008-1.008
		C130.572-433.999,131.023-433.547,131.023-432.99L131.023-432.99z M120.525-432.99c0,0.557-0.451,1.008-1.008,1.008h0
		c-0.557,0-1.008-0.451-1.008-1.008c0-0.557,0.451-1.008,1.008-1.008C120.073-433.999,120.525-433.547,120.525-432.99
		L120.525-432.99z M246.508-443.489c0,0.557-0.451,1.008-1.008,1.008l0,0c-0.557,0-1.008-0.451-1.008-1.008l0,0
		c0-0.557,0.451-1.008,1.008-1.008l0,0C246.057-444.497,246.508-444.046,246.508-443.489L246.508-443.489z M236.01-443.489
		c0,0.557-0.451,1.008-1.008,1.008l0,0c-0.557,0-1.008-0.451-1.008-1.008l0,0c0-0.557,0.451-1.008,1.008-1.008l0,0
		C235.558-444.497,236.01-444.046,236.01-443.489L236.01-443.489z M225.511-443.489c0,0.557-0.451,1.008-1.008,1.008c0,0,0,0,0,0
		c-0.557,0-1.008-0.451-1.008-1.008c0-0.557,0.451-1.008,1.008-1.008C225.06-444.497,225.511-444.046,225.511-443.489
		L225.511-443.489z M215.012-443.489c0,0.557-0.451,1.008-1.008,1.008l0,0c-0.557,0-1.008-0.451-1.008-1.008
		c0-0.557,0.451-1.008,1.008-1.008C214.561-444.497,215.012-444.046,215.012-443.489L215.012-443.489z M204.514-443.489
		c0,0.557-0.451,1.008-1.008,1.008l0,0c-0.557,0-1.008-0.451-1.008-1.008c0-0.557,0.451-1.008,1.008-1.008
		S204.514-444.046,204.514-443.489L204.514-443.489z M194.015-443.489c0,0.557-0.451,1.008-1.008,1.008c0,0,0,0,0,0
		c-0.557,0-1.008-0.451-1.008-1.008c0-0.557,0.451-1.008,1.008-1.008S194.015-444.046,194.015-443.489L194.015-443.489z
		 M183.517-443.489c0,0.557-0.451,1.008-1.008,1.008c0,0,0,0,0,0c-0.557,0-1.008-0.451-1.008-1.008c0-0.557,0.451-1.008,1.008-1.008
		C183.065-444.497,183.517-444.046,183.517-443.489L183.517-443.489z M173.018-443.489c0,0.557-0.451,1.008-1.008,1.008l0,0
		c-0.557,0-1.008-0.451-1.008-1.008l0,0c0-0.557,0.451-1.008,1.008-1.008l0,0C172.566-444.497,173.018-444.046,173.018-443.489
		L173.018-443.489L173.018-443.489z M162.519-443.489c0,0.557-0.451,1.008-1.008,1.008l0,0c-0.557,0-1.008-0.451-1.008-1.008l0,0
		c0-0.557,0.451-1.008,1.008-1.008l0,0C162.068-444.497,162.519-444.046,162.519-443.489L162.519-443.489L162.519-443.489z
		 M152.021-443.489c0,0.557-0.451,1.008-1.008,1.008l0,0c-0.557,0-1.008-0.451-1.008-1.008l0,0c0-0.557,0.451-1.008,1.008-1.008l0,0
		C151.569-444.497,152.021-444.046,152.021-443.489L152.021-443.489L152.021-443.489z M141.522-443.489
		c0,0.557-0.451,1.008-1.008,1.008l0,0c-0.557,0-1.008-0.451-1.008-1.008c0-0.557,0.451-1.008,1.008-1.008
		C141.071-444.497,141.522-444.046,141.522-443.489L141.522-443.489z M131.023-443.489c0,0.557-0.451,1.008-1.008,1.008h0
		c-0.557,0-1.008-0.451-1.008-1.008c0-0.557,0.451-1.008,1.008-1.008C130.572-444.497,131.023-444.046,131.023-443.489
		L131.023-443.489z M120.525-443.489c0,0.557-0.451,1.008-1.008,1.008h0c-0.557,0-1.008-0.451-1.008-1.008
		c0-0.557,0.451-1.008,1.008-1.008C120.073-444.497,120.525-444.046,120.525-443.489L120.525-443.489z M246.508-453.988
		c0,0.557-0.451,1.008-1.008,1.008l0,0c-0.557,0-1.008-0.451-1.008-1.008l0,0c0-0.557,0.451-1.008,1.008-1.008l0,0
		C246.057-454.996,246.508-454.544,246.508-453.988L246.508-453.988z M236.01-453.988c0,0.557-0.451,1.008-1.008,1.008l0,0
		c-0.557,0-1.008-0.451-1.008-1.008l0,0c0-0.557,0.451-1.008,1.008-1.008l0,0C235.558-454.996,236.01-454.544,236.01-453.988
		L236.01-453.988z M225.511-453.988c0,0.557-0.451,1.008-1.008,1.008c0,0,0,0,0,0c-0.557,0-1.008-0.451-1.008-1.008
		s0.451-1.008,1.008-1.008C225.06-454.996,225.511-454.544,225.511-453.988L225.511-453.988z M215.012-453.988
		c0,0.557-0.451,1.008-1.008,1.008l0,0c-0.557,0-1.008-0.451-1.008-1.008s0.451-1.008,1.008-1.008
		C214.561-454.996,215.012-454.544,215.012-453.988L215.012-453.988z M204.514-453.988c0,0.557-0.451,1.008-1.008,1.008l0,0
		c-0.557,0-1.008-0.451-1.008-1.008s0.451-1.008,1.008-1.008S204.514-454.544,204.514-453.988L204.514-453.988z M194.015-453.988
		c0,0.557-0.451,1.008-1.008,1.008c0,0,0,0,0,0c-0.557,0-1.008-0.451-1.008-1.008s0.451-1.008,1.008-1.008
		S194.015-454.544,194.015-453.988L194.015-453.988z M183.517-453.988c0,0.557-0.451,1.008-1.008,1.008c0,0,0,0,0,0
		c-0.557,0-1.008-0.451-1.008-1.008s0.451-1.008,1.008-1.008C183.065-454.996,183.517-454.544,183.517-453.988L183.517-453.988z
		 M173.018-453.988c0,0.557-0.451,1.008-1.008,1.008l0,0c-0.557,0-1.008-0.451-1.008-1.008l0,0c0-0.557,0.451-1.008,1.008-1.008l0,0
		C172.566-454.996,173.018-454.544,173.018-453.988L173.018-453.988L173.018-453.988z M162.519-453.988
		c0,0.557-0.451,1.008-1.008,1.008l0,0c-0.557,0-1.008-0.451-1.008-1.008l0,0c0-0.557,0.451-1.008,1.008-1.008l0,0
		C162.068-454.996,162.519-454.544,162.519-453.988L162.519-453.988L162.519-453.988z M152.021-453.988
		c0,0.557-0.451,1.008-1.008,1.008l0,0c-0.557,0-1.008-0.451-1.008-1.008l0,0c0-0.557,0.451-1.008,1.008-1.008l0,0
		C151.569-454.996,152.021-454.544,152.021-453.988L152.021-453.988L152.021-453.988z M141.522-453.988
		c0,0.557-0.451,1.008-1.008,1.008l0,0c-0.557,0-1.008-0.451-1.008-1.008s0.451-1.008,1.008-1.008
		C141.071-454.996,141.522-454.544,141.522-453.988L141.522-453.988z M131.023-453.988c0,0.557-0.451,1.008-1.008,1.008h0
		c-0.557,0-1.008-0.451-1.008-1.008s0.451-1.008,1.008-1.008C130.572-454.996,131.023-454.544,131.023-453.988L131.023-453.988z
		 M120.525-453.988c0,0.557-0.451,1.008-1.008,1.008h0c-0.557,0-1.008-0.451-1.008-1.008s0.451-1.008,1.008-1.008
		C120.073-454.996,120.525-454.544,120.525-453.988L120.525-453.988z M246.508-464.486c0,0.557-0.451,1.008-1.008,1.008l0,0
		c-0.557,0-1.008-0.451-1.008-1.008l0,0c0-0.557,0.451-1.008,1.008-1.008l0,0C246.057-465.494,246.508-465.043,246.508-464.486
		L246.508-464.486z M236.01-464.486c0,0.557-0.451,1.008-1.008,1.008l0,0c-0.557,0-1.008-0.451-1.008-1.008l0,0
		c0-0.557,0.451-1.008,1.008-1.008l0,0C235.558-465.494,236.01-465.043,236.01-464.486L236.01-464.486z M225.511-464.486
		c0,0.557-0.451,1.008-1.008,1.008c0,0,0,0,0,0c-0.557,0-1.008-0.451-1.008-1.008s0.451-1.008,1.008-1.008
		C225.06-465.494,225.511-465.043,225.511-464.486L225.511-464.486z M215.012-464.486c0,0.557-0.451,1.008-1.008,1.008l0,0
		c-0.557,0-1.008-0.451-1.008-1.008s0.451-1.008,1.008-1.008C214.561-465.494,215.012-465.043,215.012-464.486L215.012-464.486z
		 M204.514-464.486c0,0.557-0.451,1.008-1.008,1.008l0,0c-0.557,0-1.008-0.451-1.008-1.008s0.451-1.008,1.008-1.008
		S204.514-465.043,204.514-464.486L204.514-464.486z M194.015-464.486c0,0.557-0.451,1.008-1.008,1.008c0,0,0,0,0,0
		c-0.557,0-1.008-0.451-1.008-1.008s0.451-1.008,1.008-1.008S194.015-465.043,194.015-464.486L194.015-464.486z M183.517-464.486
		c0,0.557-0.451,1.008-1.008,1.008c0,0,0,0,0,0c-0.557,0-1.008-0.451-1.008-1.008s0.451-1.008,1.008-1.008
		C183.065-465.494,183.517-465.043,183.517-464.486L183.517-464.486z M173.018-464.486c0,0.557-0.451,1.008-1.008,1.008l0,0
		c-0.557,0-1.008-0.451-1.008-1.008l0,0c0-0.557,0.451-1.008,1.008-1.008l0,0C172.566-465.494,173.018-465.043,173.018-464.486
		L173.018-464.486L173.018-464.486z M162.519-464.486c0,0.557-0.451,1.008-1.008,1.008l0,0c-0.557,0-1.008-0.451-1.008-1.008l0,0
		c0-0.557,0.451-1.008,1.008-1.008l0,0C162.068-465.494,162.519-465.043,162.519-464.486L162.519-464.486L162.519-464.486z
		 M152.021-464.486c0,0.557-0.451,1.008-1.008,1.008l0,0c-0.557,0-1.008-0.451-1.008-1.008l0,0c0-0.557,0.451-1.008,1.008-1.008l0,0
		C151.569-465.494,152.021-465.043,152.021-464.486L152.021-464.486L152.021-464.486z M141.522-464.486
		c0,0.557-0.451,1.008-1.008,1.008l0,0c-0.557,0-1.008-0.451-1.008-1.008s0.451-1.008,1.008-1.008
		C141.071-465.494,141.522-465.043,141.522-464.486L141.522-464.486z M131.023-464.486c0,0.557-0.451,1.008-1.008,1.008h0
		c-0.557,0-1.008-0.451-1.008-1.008s0.451-1.008,1.008-1.008C130.572-465.494,131.023-465.043,131.023-464.486L131.023-464.486z
		 M120.525-464.486c0,0.557-0.451,1.008-1.008,1.008h0c-0.557,0-1.008-0.451-1.008-1.008s0.451-1.008,1.008-1.008
		C120.073-465.494,120.525-465.043,120.525-464.486L120.525-464.486z M246.508-474.985c0,0.557-0.451,1.008-1.008,1.008l0,0
		c-0.557,0-1.008-0.451-1.008-1.008l0,0c0-0.557,0.451-1.008,1.008-1.008l0,0C246.057-475.993,246.508-475.542,246.508-474.985
		L246.508-474.985z M236.01-474.985c0,0.557-0.451,1.008-1.008,1.008l0,0c-0.557,0-1.008-0.451-1.008-1.008l0,0
		c0-0.557,0.451-1.008,1.008-1.008l0,0C235.558-475.993,236.01-475.542,236.01-474.985L236.01-474.985z M225.511-474.985
		c0,0.557-0.451,1.008-1.008,1.008c0,0,0,0,0,0c-0.557,0-1.008-0.451-1.008-1.008c0-0.557,0.451-1.008,1.008-1.008
		C225.06-475.993,225.511-475.542,225.511-474.985L225.511-474.985z M215.012-474.985c0,0.557-0.451,1.008-1.008,1.008l0,0
		c-0.557,0-1.008-0.451-1.008-1.008c0-0.557,0.451-1.008,1.008-1.008C214.561-475.993,215.012-475.542,215.012-474.985
		L215.012-474.985z M204.514-474.985c0,0.557-0.451,1.008-1.008,1.008l0,0c-0.557,0-1.008-0.451-1.008-1.008
		c0-0.557,0.451-1.008,1.008-1.008S204.514-475.542,204.514-474.985L204.514-474.985z M194.015-474.985
		c0,0.557-0.451,1.008-1.008,1.008c0,0,0,0,0,0c-0.557,0-1.008-0.451-1.008-1.008c0-0.557,0.451-1.008,1.008-1.008
		S194.015-475.542,194.015-474.985L194.015-474.985z M183.517-474.985c0,0.557-0.451,1.008-1.008,1.008c0,0,0,0,0,0
		c-0.557,0-1.008-0.451-1.008-1.008c0-0.557,0.451-1.008,1.008-1.008C183.065-475.993,183.517-475.542,183.517-474.985
		L183.517-474.985z M173.018-474.985c0,0.557-0.451,1.008-1.008,1.008l0,0c-0.557,0-1.008-0.451-1.008-1.008l0,0
		c0-0.557,0.451-1.008,1.008-1.008l0,0C172.566-475.993,173.018-475.542,173.018-474.985L173.018-474.985L173.018-474.985z
		 M162.519-474.985c0,0.557-0.451,1.008-1.008,1.008l0,0c-0.557,0-1.008-0.451-1.008-1.008l0,0c0-0.557,0.451-1.008,1.008-1.008l0,0
		C162.068-475.993,162.519-475.542,162.519-474.985L162.519-474.985L162.519-474.985z M152.021-474.985
		c0,0.557-0.451,1.008-1.008,1.008l0,0c-0.557,0-1.008-0.451-1.008-1.008l0,0c0-0.557,0.451-1.008,1.008-1.008l0,0
		C151.569-475.993,152.021-475.542,152.021-474.985L152.021-474.985L152.021-474.985z M141.522-474.985
		c0,0.557-0.451,1.008-1.008,1.008l0,0c-0.557,0-1.008-0.451-1.008-1.008c0-0.557,0.451-1.008,1.008-1.008
		C141.071-475.993,141.522-475.542,141.522-474.985L141.522-474.985z M131.023-474.985c0,0.557-0.451,1.008-1.008,1.008h0
		c-0.557,0-1.008-0.451-1.008-1.008c0-0.557,0.451-1.008,1.008-1.008C130.572-475.993,131.023-475.542,131.023-474.985
		L131.023-474.985z M120.525-474.985c0,0.557-0.451,1.008-1.008,1.008h0c-0.557,0-1.008-0.451-1.008-1.008
		c0-0.557,0.451-1.008,1.008-1.008C120.073-475.993,120.525-475.542,120.525-474.985L120.525-474.985z M246.508-485.483
		c0,0.557-0.451,1.008-1.008,1.008h0c-0.557,0-1.008-0.451-1.008-1.008v0c0-0.557,0.451-1.008,1.008-1.008h0
		C246.057-486.492,246.508-486.04,246.508-485.483L246.508-485.483z M236.01-485.483c0,0.557-0.451,1.008-1.008,1.008h0
		c-0.557,0-1.008-0.451-1.008-1.008v0c0-0.557,0.451-1.008,1.008-1.008h0C235.558-486.492,236.01-486.04,236.01-485.483
		L236.01-485.483z M225.511-485.483c0,0.557-0.451,1.008-1.008,1.008c0,0,0,0,0,0c-0.557,0-1.008-0.451-1.008-1.008l0,0
		c0-0.557,0.451-1.008,1.008-1.008l0,0C225.06-486.492,225.511-486.04,225.511-485.483L225.511-485.483L225.511-485.483z
		 M215.012-485.483c0,0.557-0.451,1.008-1.008,1.008c0,0,0,0,0,0c-0.557,0-1.008-0.451-1.008-1.008l0,0
		c0-0.557,0.451-1.008,1.008-1.008c0,0,0,0,0,0C214.561-486.492,215.012-486.04,215.012-485.483L215.012-485.483L215.012-485.483z
		 M204.514-485.483c0,0.557-0.451,1.008-1.008,1.008c0,0,0,0,0,0c-0.557,0-1.008-0.451-1.008-1.008l0,0
		c0-0.557,0.451-1.008,1.008-1.008c0,0,0,0,0,0C204.062-486.492,204.514-486.04,204.514-485.483L204.514-485.483L204.514-485.483z
		 M194.015-485.483c0,0.557-0.451,1.008-1.008,1.008c0,0,0,0,0,0c-0.557,0-1.008-0.451-1.008-1.008l0,0
		c0-0.557,0.451-1.008,1.008-1.008l0,0C193.564-486.492,194.015-486.04,194.015-485.483L194.015-485.483L194.015-485.483z
		 M183.517-485.483c0,0.557-0.451,1.008-1.008,1.008c0,0,0,0,0,0c-0.557,0-1.008-0.451-1.008-1.008l0,0
		c0-0.557,0.451-1.008,1.008-1.008l0,0C183.065-486.492,183.517-486.04,183.517-485.483L183.517-485.483L183.517-485.483z
		 M173.018-485.483c0,0.557-0.451,1.008-1.008,1.008l0,0c-0.557,0-1.008-0.451-1.008-1.008c0,0,0,0,0,0
		c0-0.557,0.451-1.008,1.008-1.008c0,0,0,0,0,0C172.566-486.492,173.018-486.04,173.018-485.483L173.018-485.483L173.018-485.483z
		 M162.519-485.483c0,0.557-0.451,1.008-1.008,1.008l0,0c-0.557,0-1.008-0.451-1.008-1.008c0,0,0,0,0,0
		c0-0.557,0.451-1.008,1.008-1.008c0,0,0,0,0,0C162.068-486.492,162.519-486.04,162.519-485.483L162.519-485.483L162.519-485.483z
		 M152.021-485.483c0,0.557-0.451,1.008-1.008,1.008c0,0,0,0,0,0c-0.557,0-1.008-0.451-1.008-1.008c0,0,0,0,0,0
		c0-0.557,0.451-1.008,1.008-1.008l0,0C151.569-486.492,152.021-486.04,152.021-485.483L152.021-485.483L152.021-485.483z
		 M141.522-485.483c0,0.557-0.451,1.008-1.008,1.008h0c-0.557,0-1.008-0.451-1.008-1.008l0,0c0-0.557,0.451-1.008,1.008-1.008l0,0
		C141.071-486.492,141.522-486.04,141.522-485.483L141.522-485.483L141.522-485.483z M131.023-485.483
		c0,0.557-0.451,1.008-1.008,1.008c0,0,0,0,0,0c-0.557,0-1.008-0.451-1.008-1.008l0,0c0-0.557,0.451-1.008,1.008-1.008l0,0
		C130.572-486.492,131.023-486.04,131.023-485.483L131.023-485.483L131.023-485.483z M120.525-485.483
		c0,0.557-0.451,1.008-1.008,1.008c0,0,0,0,0,0c-0.557,0-1.008-0.451-1.008-1.008l0,0c0-0.557,0.451-1.008,1.008-1.008l0,0
		C120.073-486.492,120.525-486.04,120.525-485.483L120.525-485.483L120.525-485.483z M246.508-495.982
		c0,0.557-0.451,1.008-1.008,1.008h0c-0.557,0-1.008-0.451-1.008-1.008v0c0-0.557,0.451-1.008,1.008-1.008h0
		C246.057-496.99,246.508-496.539,246.508-495.982L246.508-495.982z M236.01-495.982c0,0.557-0.451,1.008-1.008,1.008h0
		c-0.557,0-1.008-0.451-1.008-1.008v0c0-0.557,0.451-1.008,1.008-1.008h0C235.558-496.99,236.01-496.539,236.01-495.982
		L236.01-495.982z M225.511-495.982c0,0.557-0.451,1.008-1.008,1.008c0,0,0,0,0,0c-0.557,0-1.008-0.451-1.008-1.008l0,0
		c0-0.557,0.451-1.008,1.008-1.008l0,0C225.06-496.99,225.511-496.539,225.511-495.982L225.511-495.982L225.511-495.982z
		 M215.012-495.982c0,0.557-0.451,1.008-1.008,1.008c0,0,0,0,0,0c-0.557,0-1.008-0.451-1.008-1.008l0,0
		c0-0.557,0.451-1.008,1.008-1.008c0,0,0,0,0,0C214.561-496.99,215.012-496.539,215.012-495.982L215.012-495.982L215.012-495.982z
		 M204.514-495.982c0,0.557-0.451,1.008-1.008,1.008c0,0,0,0,0,0c-0.557,0-1.008-0.451-1.008-1.008l0,0
		c0-0.557,0.451-1.008,1.008-1.008c0,0,0,0,0,0C204.062-496.99,204.514-496.539,204.514-495.982L204.514-495.982L204.514-495.982z
		 M194.015-495.982c0,0.557-0.451,1.008-1.008,1.008c0,0,0,0,0,0c-0.557,0-1.008-0.451-1.008-1.008l0,0
		c0-0.557,0.451-1.008,1.008-1.008l0,0C193.564-496.99,194.015-496.539,194.015-495.982L194.015-495.982L194.015-495.982z
		 M183.517-495.982c0,0.557-0.451,1.008-1.008,1.008c0,0,0,0,0,0c-0.557,0-1.008-0.451-1.008-1.008l0,0
		c0-0.557,0.451-1.008,1.008-1.008l0,0C183.065-496.99,183.517-496.539,183.517-495.982L183.517-495.982L183.517-495.982z
		 M173.018-495.982c0,0.557-0.451,1.008-1.008,1.008l0,0c-0.557,0-1.008-0.451-1.008-1.008c0,0,0,0,0,0
		c0-0.557,0.451-1.008,1.008-1.008c0,0,0,0,0,0C172.566-496.99,173.018-496.539,173.018-495.982L173.018-495.982L173.018-495.982z
		 M162.519-495.982c0,0.557-0.451,1.008-1.008,1.008l0,0c-0.557,0-1.008-0.451-1.008-1.008c0,0,0,0,0,0
		c0-0.557,0.451-1.008,1.008-1.008c0,0,0,0,0,0C162.068-496.99,162.519-496.539,162.519-495.982L162.519-495.982L162.519-495.982z
		 M152.021-495.982c0,0.557-0.451,1.008-1.008,1.008c0,0,0,0,0,0c-0.557,0-1.008-0.451-1.008-1.008c0,0,0,0,0,0
		c0-0.557,0.451-1.008,1.008-1.008l0,0C151.569-496.99,152.021-496.539,152.021-495.982L152.021-495.982L152.021-495.982z
		 M141.522-495.982c0,0.557-0.451,1.008-1.008,1.008h0c-0.557,0-1.008-0.451-1.008-1.008l0,0c0-0.557,0.451-1.008,1.008-1.008l0,0
		C141.071-496.99,141.522-496.539,141.522-495.982L141.522-495.982L141.522-495.982z M131.023-495.982
		c0,0.557-0.451,1.008-1.008,1.008c0,0,0,0,0,0c-0.557,0-1.008-0.451-1.008-1.008l0,0c0-0.557,0.451-1.008,1.008-1.008l0,0
		C130.572-496.99,131.023-496.539,131.023-495.982L131.023-495.982L131.023-495.982z M120.525-495.982
		c0,0.557-0.451,1.008-1.008,1.008c0,0,0,0,0,0c-0.557,0-1.008-0.451-1.008-1.008l0,0c0-0.557,0.451-1.008,1.008-1.008l0,0
		C120.073-496.99,120.525-496.539,120.525-495.982L120.525-495.982L120.525-495.982z"/>
</g>
<g id="g8429_1_" transform="translate(0,600)">
	<path id="ellipse8455_1_" class="st8" d="M341.004-370.008c0,0.557-0.451,1.008-1.008,1.008l0,0c-0.557,0-1.008-0.451-1.008-1.008
		c0-0.557,0.451-1.008,1.008-1.008C340.553-371.017,341.004-370.565,341.004-370.008L341.004-370.008z M330.505-370.008
		c0,0.557-0.451,1.008-1.008,1.008l0,0c-0.557,0-1.008-0.451-1.008-1.008c0-0.557,0.451-1.008,1.008-1.008
		C330.054-371.017,330.505-370.565,330.505-370.008L330.505-370.008z M320.007-370.008c0,0.557-0.451,1.008-1.008,1.008l0,0
		c-0.557,0-1.008-0.451-1.008-1.008c0-0.557,0.451-1.008,1.008-1.008C319.555-371.017,320.007-370.565,320.007-370.008
		L320.007-370.008z M309.508-370.008c0,0.557-0.451,1.008-1.008,1.008l0,0c-0.557,0-1.008-0.451-1.008-1.008
		c0-0.557,0.451-1.008,1.008-1.008S309.508-370.565,309.508-370.008L309.508-370.008z M299.01-370.008
		c0,0.557-0.451,1.008-1.008,1.008l0,0c-0.557,0-1.008-0.451-1.008-1.008l0,0c0-0.557,0.451-1.008,1.008-1.008l0,0
		C298.558-371.017,299.01-370.565,299.01-370.008L299.01-370.008L299.01-370.008z M288.511-370.008c0,0.557-0.451,1.008-1.008,1.008
		l0,0c-0.557,0-1.008-0.451-1.008-1.008l0,0c0-0.557,0.451-1.008,1.008-1.008l0,0C288.06-371.017,288.511-370.565,288.511-370.008
		L288.511-370.008L288.511-370.008z M278.012-370.008c0,0.557-0.451,1.008-1.008,1.008l0,0c-0.557,0-1.008-0.451-1.008-1.008l0,0
		c0-0.557,0.451-1.008,1.008-1.008l0,0C277.561-371.017,278.012-370.565,278.012-370.008L278.012-370.008L278.012-370.008z
		 M267.514-370.008c0,0.557-0.451,1.008-1.008,1.008c0,0,0,0,0,0c-0.557,0-1.008-0.451-1.008-1.008l0,0
		c0-0.557,0.451-1.008,1.008-1.008l0,0C267.062-371.017,267.514-370.565,267.514-370.008L267.514-370.008L267.514-370.008z
		 M257.015-370.008c0,0.557-0.451,1.008-1.008,1.008c0,0,0,0,0,0c-0.557,0-1.008-0.451-1.008-1.008l0,0
		c0-0.557,0.451-1.008,1.008-1.008l0,0C256.564-371.017,257.015-370.565,257.015-370.008L257.015-370.008L257.015-370.008z
		 M341.004-380.507c0,0.557-0.451,1.008-1.008,1.008l0,0c-0.557,0-1.008-0.451-1.008-1.008c0-0.557,0.451-1.008,1.008-1.008
		C340.553-381.515,341.004-381.064,341.004-380.507L341.004-380.507z M330.505-380.507c0,0.557-0.451,1.008-1.008,1.008l0,0
		c-0.557,0-1.008-0.451-1.008-1.008c0-0.557,0.451-1.008,1.008-1.008C330.054-381.515,330.505-381.064,330.505-380.507
		L330.505-380.507z M320.007-380.507c0,0.557-0.451,1.008-1.008,1.008l0,0c-0.557,0-1.008-0.451-1.008-1.008
		c0-0.557,0.451-1.008,1.008-1.008C319.555-381.515,320.007-381.064,320.007-380.507L320.007-380.507z M309.508-380.507
		c0,0.557-0.451,1.008-1.008,1.008l0,0c-0.557,0-1.008-0.451-1.008-1.008c0-0.557,0.451-1.008,1.008-1.008
		S309.508-381.064,309.508-380.507L309.508-380.507z M299.01-380.507c0,0.557-0.451,1.008-1.008,1.008l0,0
		c-0.557,0-1.008-0.451-1.008-1.008l0,0c0-0.557,0.451-1.008,1.008-1.008l0,0C298.558-381.515,299.01-381.064,299.01-380.507
		C299.01-380.507,299.01-380.507,299.01-380.507L299.01-380.507z M288.511-380.507c0,0.557-0.451,1.008-1.008,1.008l0,0
		c-0.557,0-1.008-0.451-1.008-1.008l0,0c0-0.557,0.451-1.008,1.008-1.008l0,0C288.06-381.515,288.511-381.064,288.511-380.507
		C288.511-380.507,288.511-380.507,288.511-380.507L288.511-380.507z M278.012-380.507c0,0.557-0.451,1.008-1.008,1.008l0,0
		c-0.557,0-1.008-0.451-1.008-1.008l0,0c0-0.557,0.451-1.008,1.008-1.008l0,0C277.561-381.515,278.012-381.064,278.012-380.507
		C278.012-380.507,278.012-380.507,278.012-380.507L278.012-380.507z M267.514-380.507c0,0.557-0.451,1.008-1.008,1.008c0,0,0,0,0,0
		c-0.557,0-1.008-0.451-1.008-1.008l0,0c0-0.557,0.451-1.008,1.008-1.008C267.062-381.515,267.514-381.064,267.514-380.507
		L267.514-380.507z M257.015-380.507c0,0.557-0.451,1.008-1.008,1.008c0,0,0,0,0,0c-0.557,0-1.008-0.451-1.008-1.008l0,0
		c0-0.557,0.451-1.008,1.008-1.008C256.564-381.515,257.015-381.064,257.015-380.507L257.015-380.507z M341.004-391.005
		c0,0.557-0.451,1.008-1.008,1.008l0,0c-0.557,0-1.008-0.451-1.008-1.008c0-0.557,0.451-1.008,1.008-1.008
		C340.553-392.014,341.004-391.562,341.004-391.005L341.004-391.005z M330.505-391.005c0,0.557-0.451,1.008-1.008,1.008l0,0
		c-0.557,0-1.008-0.451-1.008-1.008c0-0.557,0.451-1.008,1.008-1.008C330.054-392.014,330.505-391.562,330.505-391.005
		L330.505-391.005z M320.007-391.005c0,0.557-0.451,1.008-1.008,1.008l0,0c-0.557,0-1.008-0.451-1.008-1.008
		c0-0.557,0.451-1.008,1.008-1.008C319.555-392.014,320.007-391.562,320.007-391.005L320.007-391.005z M309.508-391.005
		c0,0.557-0.451,1.008-1.008,1.008l0,0c-0.557,0-1.008-0.451-1.008-1.008c0-0.557,0.451-1.008,1.008-1.008
		S309.508-391.562,309.508-391.005L309.508-391.005z M299.01-391.005c0,0.557-0.451,1.008-1.008,1.008l0,0
		c-0.557,0-1.008-0.451-1.008-1.008l0,0c0-0.557,0.451-1.008,1.008-1.008l0,0C298.558-392.014,299.01-391.562,299.01-391.005
		L299.01-391.005L299.01-391.005z M288.511-391.005c0,0.557-0.451,1.008-1.008,1.008l0,0c-0.557,0-1.008-0.451-1.008-1.008l0,0
		c0-0.557,0.451-1.008,1.008-1.008l0,0C288.06-392.014,288.511-391.562,288.511-391.005L288.511-391.005L288.511-391.005z
		 M278.012-391.005c0,0.557-0.451,1.008-1.008,1.008l0,0c-0.557,0-1.008-0.451-1.008-1.008l0,0c0-0.557,0.451-1.008,1.008-1.008l0,0
		C277.561-392.014,278.012-391.562,278.012-391.005L278.012-391.005L278.012-391.005z M267.514-391.005
		c0,0.557-0.451,1.008-1.008,1.008c0,0,0,0,0,0c-0.557,0-1.008-0.451-1.008-1.008l0,0c0-0.557,0.451-1.008,1.008-1.008l0,0
		C267.062-392.014,267.514-391.562,267.514-391.005L267.514-391.005L267.514-391.005z M257.015-391.005
		c0,0.557-0.451,1.008-1.008,1.008c0,0,0,0,0,0c-0.557,0-1.008-0.451-1.008-1.008l0,0c0-0.557,0.451-1.008,1.008-1.008l0,0
		C256.564-392.014,257.015-391.562,257.015-391.005L257.015-391.005L257.015-391.005z M341.004-401.504
		c0,0.557-0.451,1.008-1.008,1.008l0,0c-0.557,0-1.008-0.451-1.008-1.008l0,0c0-0.557,0.451-1.008,1.008-1.008l0,0
		C340.553-402.512,341.004-402.061,341.004-401.504L341.004-401.504L341.004-401.504z M330.505-401.504
		c0,0.557-0.451,1.008-1.008,1.008l0,0c-0.557,0-1.008-0.451-1.008-1.008l0,0c0-0.557,0.451-1.008,1.008-1.008l0,0
		C330.054-402.512,330.505-402.061,330.505-401.504L330.505-401.504L330.505-401.504z M320.007-401.504
		c0,0.557-0.451,1.008-1.008,1.008l0,0c-0.557,0-1.008-0.451-1.008-1.008l0,0c0-0.557,0.451-1.008,1.008-1.008l0,0
		C319.555-402.512,320.007-402.061,320.007-401.504L320.007-401.504L320.007-401.504z M309.508-401.504
		c0,0.557-0.451,1.008-1.008,1.008l0,0c-0.557,0-1.008-0.451-1.008-1.008l0,0c0-0.557,0.451-1.008,1.008-1.008l0,0
		C309.057-402.512,309.508-402.061,309.508-401.504L309.508-401.504L309.508-401.504z M299.01-401.504
		c0,0.557-0.451,1.008-1.008,1.008l0,0c-0.557,0-1.008-0.451-1.008-1.008l0,0c0-0.557,0.451-1.008,1.008-1.008l0,0
		C298.558-402.512,299.01-402.061,299.01-401.504L299.01-401.504L299.01-401.504z M288.511-401.504c0,0.557-0.451,1.008-1.008,1.008
		l0,0c-0.557,0-1.008-0.451-1.008-1.008l0,0c0-0.557,0.451-1.008,1.008-1.008l0,0C288.06-402.512,288.511-402.061,288.511-401.504
		L288.511-401.504L288.511-401.504z M278.012-401.504c0,0.557-0.451,1.008-1.008,1.008l0,0c-0.557,0-1.008-0.451-1.008-1.008l0,0
		c0-0.557,0.451-1.008,1.008-1.008l0,0C277.561-402.512,278.012-402.061,278.012-401.504L278.012-401.504L278.012-401.504z
		 M267.514-401.504c0,0.557-0.451,1.008-1.008,1.008h0c-0.557,0-1.008-0.451-1.008-1.008l0,0c0-0.557,0.451-1.008,1.008-1.008l0,0
		C267.062-402.512,267.514-402.061,267.514-401.504L267.514-401.504L267.514-401.504z M257.015-401.504
		c0,0.557-0.451,1.008-1.008,1.008c0,0,0,0,0,0c-0.557,0-1.008-0.451-1.008-1.008l0,0c0-0.557,0.451-1.008,1.008-1.008l0,0
		C256.564-402.512,257.015-402.061,257.015-401.504L257.015-401.504L257.015-401.504z M341.004-412.003
		c0,0.557-0.451,1.008-1.008,1.008l0,0c-0.557,0-1.008-0.451-1.008-1.008l0,0c0-0.557,0.451-1.008,1.008-1.008l0,0
		C340.553-413.011,341.004-412.56,341.004-412.003L341.004-412.003L341.004-412.003z M330.505-412.003
		c0,0.557-0.451,1.008-1.008,1.008l0,0c-0.557,0-1.008-0.451-1.008-1.008l0,0c0-0.557,0.451-1.008,1.008-1.008l0,0
		C330.054-413.011,330.505-412.56,330.505-412.003L330.505-412.003L330.505-412.003z M320.007-412.003
		c0,0.557-0.451,1.008-1.008,1.008l0,0c-0.557,0-1.008-0.451-1.008-1.008l0,0c0-0.557,0.451-1.008,1.008-1.008l0,0
		C319.555-413.011,320.007-412.56,320.007-412.003L320.007-412.003L320.007-412.003z M309.508-412.003
		c0,0.557-0.451,1.008-1.008,1.008l0,0c-0.557,0-1.008-0.451-1.008-1.008l0,0c0-0.557,0.451-1.008,1.008-1.008l0,0
		C309.057-413.011,309.508-412.56,309.508-412.003L309.508-412.003L309.508-412.003z M299.01-412.003
		c0,0.557-0.451,1.008-1.008,1.008l0,0c-0.557,0-1.008-0.451-1.008-1.008l0,0c0-0.557,0.451-1.008,1.008-1.008l0,0
		C298.558-413.011,299.01-412.56,299.01-412.003L299.01-412.003L299.01-412.003z M288.511-412.003c0,0.557-0.451,1.008-1.008,1.008
		l0,0c-0.557,0-1.008-0.451-1.008-1.008l0,0c0-0.557,0.451-1.008,1.008-1.008l0,0C288.06-413.011,288.511-412.56,288.511-412.003
		L288.511-412.003L288.511-412.003z M278.012-412.003c0,0.557-0.451,1.008-1.008,1.008l0,0c-0.557,0-1.008-0.451-1.008-1.008l0,0
		c0-0.557,0.451-1.008,1.008-1.008l0,0C277.561-413.011,278.012-412.56,278.012-412.003L278.012-412.003L278.012-412.003z
		 M267.514-412.003c0,0.557-0.451,1.008-1.008,1.008h0c-0.557,0-1.008-0.451-1.008-1.008l0,0c0-0.557,0.451-1.008,1.008-1.008l0,0
		C267.062-413.011,267.514-412.56,267.514-412.003L267.514-412.003L267.514-412.003z M257.015-412.003
		c0,0.557-0.451,1.008-1.008,1.008c0,0,0,0,0,0c-0.557,0-1.008-0.451-1.008-1.008l0,0c0-0.557,0.451-1.008,1.008-1.008l0,0
		C256.564-413.011,257.015-412.56,257.015-412.003L257.015-412.003L257.015-412.003z M341.004-422.501
		c0,0.557-0.451,1.008-1.008,1.008l0,0c-0.557,0-1.008-0.451-1.008-1.008l0,0c0-0.557,0.451-1.008,1.008-1.008l0,0
		C340.553-423.51,341.004-423.058,341.004-422.501L341.004-422.501L341.004-422.501z M330.505-422.501
		c0,0.557-0.451,1.008-1.008,1.008l0,0c-0.557,0-1.008-0.451-1.008-1.008l0,0c0-0.557,0.451-1.008,1.008-1.008l0,0
		C330.054-423.51,330.505-423.058,330.505-422.501L330.505-422.501L330.505-422.501z M320.007-422.501
		c0,0.557-0.451,1.008-1.008,1.008l0,0c-0.557,0-1.008-0.451-1.008-1.008l0,0c0-0.557,0.451-1.008,1.008-1.008l0,0
		C319.555-423.51,320.007-423.058,320.007-422.501L320.007-422.501L320.007-422.501z M309.508-422.501
		c0,0.557-0.451,1.008-1.008,1.008l0,0c-0.557,0-1.008-0.451-1.008-1.008l0,0c0-0.557,0.451-1.008,1.008-1.008l0,0
		C309.057-423.51,309.508-423.058,309.508-422.501L309.508-422.501L309.508-422.501z M299.01-422.501
		c0,0.557-0.451,1.008-1.008,1.008l0,0c-0.557,0-1.008-0.451-1.008-1.008l0,0c0-0.557,0.451-1.008,1.008-1.008l0,0
		C298.558-423.51,299.01-423.058,299.01-422.501L299.01-422.501L299.01-422.501z M288.511-422.501c0,0.557-0.451,1.008-1.008,1.008
		l0,0c-0.557,0-1.008-0.451-1.008-1.008l0,0c0-0.557,0.451-1.008,1.008-1.008l0,0C288.06-423.51,288.511-423.058,288.511-422.501
		L288.511-422.501L288.511-422.501z M278.012-422.501c0,0.557-0.451,1.008-1.008,1.008l0,0c-0.557,0-1.008-0.451-1.008-1.008l0,0
		c0-0.557,0.451-1.008,1.008-1.008l0,0C277.561-423.51,278.012-423.058,278.012-422.501L278.012-422.501L278.012-422.501z
		 M267.514-422.501c0,0.557-0.451,1.008-1.008,1.008h0c-0.557,0-1.008-0.451-1.008-1.008l0,0c0-0.557,0.451-1.008,1.008-1.008l0,0
		C267.062-423.51,267.514-423.058,267.514-422.501L267.514-422.501L267.514-422.501z M257.015-422.501
		c0,0.557-0.451,1.008-1.008,1.008c0,0,0,0,0,0c-0.557,0-1.008-0.451-1.008-1.008l0,0c0-0.557,0.451-1.008,1.008-1.008l0,0
		C256.564-423.51,257.015-423.058,257.015-422.501L257.015-422.501L257.015-422.501z M341.004-433c0,0.557-0.451,1.008-1.008,1.008
		l0,0c-0.557,0-1.008-0.451-1.008-1.008s0.451-1.008,1.008-1.008C340.553-434.008,341.004-433.557,341.004-433L341.004-433z
		 M330.505-433c0,0.557-0.451,1.008-1.008,1.008l0,0c-0.557,0-1.008-0.451-1.008-1.008s0.451-1.008,1.008-1.008
		C330.054-434.008,330.505-433.557,330.505-433L330.505-433z M320.007-433c0,0.557-0.451,1.008-1.008,1.008l0,0
		c-0.557,0-1.008-0.451-1.008-1.008s0.451-1.008,1.008-1.008C319.555-434.008,320.007-433.557,320.007-433L320.007-433z
		 M309.508-433c0,0.557-0.451,1.008-1.008,1.008l0,0c-0.557,0-1.008-0.451-1.008-1.008s0.451-1.008,1.008-1.008
		S309.508-433.557,309.508-433L309.508-433z M299.01-433c0,0.557-0.451,1.008-1.008,1.008l0,0c-0.557,0-1.008-0.451-1.008-1.008l0,0
		c0-0.557,0.451-1.008,1.008-1.008l0,0C298.558-434.008,299.01-433.557,299.01-433L299.01-433L299.01-433z M288.511-433
		c0,0.557-0.451,1.008-1.008,1.008l0,0c-0.557,0-1.008-0.451-1.008-1.008l0,0c0-0.557,0.451-1.008,1.008-1.008l0,0
		C288.06-434.008,288.511-433.557,288.511-433L288.511-433L288.511-433z M278.012-433c0,0.557-0.451,1.008-1.008,1.008l0,0
		c-0.557,0-1.008-0.451-1.008-1.008l0,0c0-0.557,0.451-1.008,1.008-1.008l0,0C277.561-434.008,278.012-433.557,278.012-433
		L278.012-433L278.012-433z M267.514-433c0,0.557-0.451,1.008-1.008,1.008l0,0c-0.557,0-1.008-0.451-1.008-1.008
		s0.451-1.008,1.008-1.008C267.062-434.008,267.514-433.557,267.514-433L267.514-433z M257.015-433c0,0.557-0.451,1.008-1.008,1.008
		h0c-0.557,0-1.008-0.451-1.008-1.008s0.451-1.008,1.008-1.008C256.564-434.008,257.015-433.557,257.015-433L257.015-433z
		 M341.004-443.499c0,0.557-0.451,1.008-1.008,1.008l0,0c-0.557,0-1.008-0.451-1.008-1.008c0-0.557,0.451-1.008,1.008-1.008
		C340.553-444.507,341.004-444.055,341.004-443.499L341.004-443.499z M330.505-443.499c0,0.557-0.451,1.008-1.008,1.008l0,0
		c-0.557,0-1.008-0.451-1.008-1.008c0-0.557,0.451-1.008,1.008-1.008C330.054-444.507,330.505-444.055,330.505-443.499
		L330.505-443.499z M320.007-443.499c0,0.557-0.451,1.008-1.008,1.008l0,0c-0.557,0-1.008-0.451-1.008-1.008
		c0-0.557,0.451-1.008,1.008-1.008C319.555-444.507,320.007-444.055,320.007-443.499L320.007-443.499z M309.508-443.499
		c0,0.557-0.451,1.008-1.008,1.008l0,0c-0.557,0-1.008-0.451-1.008-1.008c0-0.557,0.451-1.008,1.008-1.008
		S309.508-444.055,309.508-443.499L309.508-443.499z M299.01-443.499c0,0.557-0.451,1.008-1.008,1.008l0,0
		c-0.557,0-1.008-0.451-1.008-1.008l0,0c0-0.557,0.451-1.008,1.008-1.008l0,0C298.558-444.507,299.01-444.055,299.01-443.499
		L299.01-443.499L299.01-443.499z M288.511-443.499c0,0.557-0.451,1.008-1.008,1.008l0,0c-0.557,0-1.008-0.451-1.008-1.008l0,0
		c0-0.557,0.451-1.008,1.008-1.008l0,0C288.06-444.507,288.511-444.055,288.511-443.499L288.511-443.499L288.511-443.499z
		 M278.012-443.499c0,0.557-0.451,1.008-1.008,1.008l0,0c-0.557,0-1.008-0.451-1.008-1.008l0,0c0-0.557,0.451-1.008,1.008-1.008l0,0
		C277.561-444.507,278.012-444.055,278.012-443.499L278.012-443.499L278.012-443.499z M267.514-443.499
		c0,0.557-0.451,1.008-1.008,1.008l0,0c-0.557,0-1.008-0.451-1.008-1.008c0-0.557,0.451-1.008,1.008-1.008
		C267.062-444.507,267.514-444.055,267.514-443.499L267.514-443.499z M257.015-443.499c0,0.557-0.451,1.008-1.008,1.008h0
		c-0.557,0-1.008-0.451-1.008-1.008c0-0.557,0.451-1.008,1.008-1.008C256.564-444.507,257.015-444.055,257.015-443.499
		L257.015-443.499z M341.004-453.997c0,0.557-0.451,1.008-1.008,1.008l0,0c-0.557,0-1.008-0.451-1.008-1.008
		c0-0.557,0.451-1.008,1.008-1.008C340.553-455.005,341.004-454.554,341.004-453.997L341.004-453.997z M330.505-453.997
		c0,0.557-0.451,1.008-1.008,1.008l0,0c-0.557,0-1.008-0.451-1.008-1.008c0-0.557,0.451-1.008,1.008-1.008
		C330.054-455.005,330.505-454.554,330.505-453.997L330.505-453.997z M320.007-453.997c0,0.557-0.451,1.008-1.008,1.008l0,0
		c-0.557,0-1.008-0.451-1.008-1.008c0-0.557,0.451-1.008,1.008-1.008C319.555-455.005,320.007-454.554,320.007-453.997
		L320.007-453.997z M309.508-453.997c0,0.557-0.451,1.008-1.008,1.008l0,0c-0.557,0-1.008-0.451-1.008-1.008
		c0-0.557,0.451-1.008,1.008-1.008S309.508-454.554,309.508-453.997L309.508-453.997z M299.01-453.997
		c0,0.557-0.451,1.008-1.008,1.008l0,0c-0.557,0-1.008-0.451-1.008-1.008l0,0c0-0.557,0.451-1.008,1.008-1.008l0,0
		C298.558-455.005,299.01-454.554,299.01-453.997L299.01-453.997L299.01-453.997z M288.511-453.997c0,0.557-0.451,1.008-1.008,1.008
		l0,0c-0.557,0-1.008-0.451-1.008-1.008l0,0c0-0.557,0.451-1.008,1.008-1.008l0,0C288.06-455.005,288.511-454.554,288.511-453.997
		L288.511-453.997L288.511-453.997z M278.012-453.997c0,0.557-0.451,1.008-1.008,1.008l0,0c-0.557,0-1.008-0.451-1.008-1.008l0,0
		c0-0.557,0.451-1.008,1.008-1.008l0,0C277.561-455.005,278.012-454.554,278.012-453.997L278.012-453.997L278.012-453.997z
		 M267.514-453.997c0,0.557-0.451,1.008-1.008,1.008l0,0c-0.557,0-1.008-0.451-1.008-1.008c0-0.557,0.451-1.008,1.008-1.008
		C267.062-455.005,267.514-454.554,267.514-453.997L267.514-453.997z M257.015-453.997c0,0.557-0.451,1.008-1.008,1.008h0
		c-0.557,0-1.008-0.451-1.008-1.008c0-0.557,0.451-1.008,1.008-1.008C256.564-455.005,257.015-454.554,257.015-453.997
		L257.015-453.997z M341.004-464.496c0,0.557-0.451,1.008-1.008,1.008l0,0c-0.557,0-1.008-0.451-1.008-1.008
		c0-0.557,0.451-1.008,1.008-1.008C340.553-465.504,341.004-465.053,341.004-464.496L341.004-464.496z M330.505-464.496
		c0,0.557-0.451,1.008-1.008,1.008l0,0c-0.557,0-1.008-0.451-1.008-1.008c0-0.557,0.451-1.008,1.008-1.008
		C330.054-465.504,330.505-465.053,330.505-464.496L330.505-464.496z M320.007-464.496c0,0.557-0.451,1.008-1.008,1.008l0,0
		c-0.557,0-1.008-0.451-1.008-1.008c0-0.557,0.451-1.008,1.008-1.008C319.555-465.504,320.007-465.053,320.007-464.496
		L320.007-464.496z M309.508-464.496c0,0.557-0.451,1.008-1.008,1.008l0,0c-0.557,0-1.008-0.451-1.008-1.008
		c0-0.557,0.451-1.008,1.008-1.008S309.508-465.053,309.508-464.496L309.508-464.496z M299.01-464.496
		c0,0.557-0.451,1.008-1.008,1.008l0,0c-0.557,0-1.008-0.451-1.008-1.008l0,0c0-0.557,0.451-1.008,1.008-1.008l0,0
		C298.558-465.504,299.01-465.053,299.01-464.496L299.01-464.496L299.01-464.496z M288.511-464.496c0,0.557-0.451,1.008-1.008,1.008
		l0,0c-0.557,0-1.008-0.451-1.008-1.008l0,0c0-0.557,0.451-1.008,1.008-1.008l0,0C288.06-465.504,288.511-465.053,288.511-464.496
		L288.511-464.496L288.511-464.496z M278.012-464.496c0,0.557-0.451,1.008-1.008,1.008l0,0c-0.557,0-1.008-0.451-1.008-1.008l0,0
		c0-0.557,0.451-1.008,1.008-1.008l0,0C277.561-465.504,278.012-465.053,278.012-464.496L278.012-464.496L278.012-464.496z
		 M267.514-464.496c0,0.557-0.451,1.008-1.008,1.008l0,0c-0.557,0-1.008-0.451-1.008-1.008c0-0.557,0.451-1.008,1.008-1.008
		C267.062-465.504,267.514-465.053,267.514-464.496L267.514-464.496z M257.015-464.496c0,0.557-0.451,1.008-1.008,1.008h0
		c-0.557,0-1.008-0.451-1.008-1.008c0-0.557,0.451-1.008,1.008-1.008C256.564-465.504,257.015-465.053,257.015-464.496
		L257.015-464.496z M341.004-474.994c0,0.557-0.451,1.008-1.008,1.008l0,0c-0.557,0-1.008-0.451-1.008-1.008
		c0-0.557,0.451-1.008,1.008-1.008C340.553-476.003,341.004-475.551,341.004-474.994L341.004-474.994z M330.505-474.994
		c0,0.557-0.451,1.008-1.008,1.008l0,0c-0.557,0-1.008-0.451-1.008-1.008c0-0.557,0.451-1.008,1.008-1.008
		C330.054-476.003,330.505-475.551,330.505-474.994L330.505-474.994z M320.007-474.994c0,0.557-0.451,1.008-1.008,1.008l0,0
		c-0.557,0-1.008-0.451-1.008-1.008c0-0.557,0.451-1.008,1.008-1.008C319.555-476.003,320.007-475.551,320.007-474.994
		L320.007-474.994z M309.508-474.994c0,0.557-0.451,1.008-1.008,1.008l0,0c-0.557,0-1.008-0.451-1.008-1.008
		c0-0.557,0.451-1.008,1.008-1.008S309.508-475.551,309.508-474.994L309.508-474.994z M299.01-474.994
		c0,0.557-0.451,1.008-1.008,1.008l0,0c-0.557,0-1.008-0.451-1.008-1.008l0,0c0-0.557,0.451-1.008,1.008-1.008l0,0
		C298.558-476.003,299.01-475.551,299.01-474.994L299.01-474.994L299.01-474.994z M288.511-474.994c0,0.557-0.451,1.008-1.008,1.008
		l0,0c-0.557,0-1.008-0.451-1.008-1.008l0,0c0-0.557,0.451-1.008,1.008-1.008l0,0C288.06-476.003,288.511-475.551,288.511-474.994
		L288.511-474.994L288.511-474.994z M278.012-474.994c0,0.557-0.451,1.008-1.008,1.008l0,0c-0.557,0-1.008-0.451-1.008-1.008l0,0
		c0-0.557,0.451-1.008,1.008-1.008l0,0C277.561-476.003,278.012-475.551,278.012-474.994L278.012-474.994L278.012-474.994z
		 M267.514-474.994c0,0.557-0.451,1.008-1.008,1.008l0,0c-0.557,0-1.008-0.451-1.008-1.008c0-0.557,0.451-1.008,1.008-1.008
		C267.062-476.003,267.514-475.551,267.514-474.994L267.514-474.994z M257.015-474.994c0,0.557-0.451,1.008-1.008,1.008h0
		c-0.557,0-1.008-0.451-1.008-1.008c0-0.557,0.451-1.008,1.008-1.008C256.564-476.003,257.015-475.551,257.015-474.994
		L257.015-474.994z M341.004-485.493c0,0.557-0.451,1.008-1.008,1.008l0,0c-0.557,0-1.008-0.451-1.008-1.008l0,0
		c0-0.557,0.451-1.008,1.008-1.008c0,0,0,0,0,0C340.553-486.501,341.004-486.05,341.004-485.493L341.004-485.493L341.004-485.493z
		 M330.505-485.493c0,0.557-0.451,1.008-1.008,1.008l0,0c-0.557,0-1.008-0.451-1.008-1.008l0,0c0-0.557,0.451-1.008,1.008-1.008
		c0,0,0,0,0,0C330.054-486.501,330.505-486.05,330.505-485.493L330.505-485.493L330.505-485.493z M320.007-485.493
		c0,0.557-0.451,1.008-1.008,1.008l0,0c-0.557,0-1.008-0.451-1.008-1.008l0,0c0-0.557,0.451-1.008,1.008-1.008l0,0
		C319.555-486.501,320.007-486.05,320.007-485.493L320.007-485.493L320.007-485.493z M309.508-485.493
		c0,0.557-0.451,1.008-1.008,1.008l0,0c-0.557,0-1.008-0.451-1.008-1.008l0,0c0-0.557,0.451-1.008,1.008-1.008l0,0
		C309.057-486.501,309.508-486.05,309.508-485.493L309.508-485.493L309.508-485.493z M299.01-485.493
		c0,0.557-0.451,1.008-1.008,1.008l0,0c-0.557,0-1.008-0.451-1.008-1.008l0,0c0-0.557,0.451-1.008,1.008-1.008l0,0
		C298.558-486.501,299.01-486.05,299.01-485.493C299.01-485.493,299.01-485.493,299.01-485.493L299.01-485.493z M288.511-485.493
		c0,0.557-0.451,1.008-1.008,1.008l0,0c-0.557,0-1.008-0.451-1.008-1.008l0,0c0-0.557,0.451-1.008,1.008-1.008l0,0
		C288.06-486.501,288.511-486.05,288.511-485.493C288.511-485.493,288.511-485.493,288.511-485.493L288.511-485.493z
		 M278.012-485.493c0,0.557-0.451,1.008-1.008,1.008c0,0,0,0,0,0c-0.557,0-1.008-0.451-1.008-1.008l0,0
		c0-0.557,0.451-1.008,1.008-1.008l0,0C277.561-486.501,278.012-486.05,278.012-485.493
		C278.012-485.493,278.012-485.493,278.012-485.493L278.012-485.493z M267.514-485.493c0,0.557-0.451,1.008-1.008,1.008h0
		c-0.557,0-1.008-0.451-1.008-1.008l0,0c0-0.557,0.451-1.008,1.008-1.008l0,0C267.062-486.501,267.514-486.05,267.514-485.493
		L267.514-485.493L267.514-485.493z M257.015-485.493c0,0.557-0.451,1.008-1.008,1.008c0,0,0,0,0,0
		c-0.557,0-1.008-0.451-1.008-1.008l0,0c0-0.557,0.451-1.008,1.008-1.008l0,0C256.564-486.501,257.015-486.05,257.015-485.493
		L257.015-485.493L257.015-485.493z M341.004-495.992c0,0.557-0.451,1.008-1.008,1.008l0,0c-0.557,0-1.008-0.451-1.008-1.008l0,0
		c0-0.557,0.451-1.008,1.008-1.008c0,0,0,0,0,0C340.553-497,341.004-496.549,341.004-495.992L341.004-495.992L341.004-495.992z
		 M330.505-495.992c0,0.557-0.451,1.008-1.008,1.008l0,0c-0.557,0-1.008-0.451-1.008-1.008l0,0c0-0.557,0.451-1.008,1.008-1.008
		c0,0,0,0,0,0C330.054-497,330.505-496.549,330.505-495.992L330.505-495.992L330.505-495.992z M320.007-495.992
		c0,0.557-0.451,1.008-1.008,1.008l0,0c-0.557,0-1.008-0.451-1.008-1.008l0,0c0-0.557,0.451-1.008,1.008-1.008l0,0
		C319.555-497,320.007-496.549,320.007-495.992L320.007-495.992L320.007-495.992z M309.508-495.992c0,0.557-0.451,1.008-1.008,1.008
		l0,0c-0.557,0-1.008-0.451-1.008-1.008l0,0c0-0.557,0.451-1.008,1.008-1.008l0,0C309.057-497,309.508-496.549,309.508-495.992
		L309.508-495.992L309.508-495.992z M299.01-495.992c0,0.557-0.451,1.008-1.008,1.008l0,0c-0.557,0-1.008-0.451-1.008-1.008l0,0
		c0-0.557,0.451-1.008,1.008-1.008l0,0C298.558-497,299.01-496.549,299.01-495.992C299.01-495.992,299.01-495.992,299.01-495.992
		L299.01-495.992z M288.511-495.992c0,0.557-0.451,1.008-1.008,1.008l0,0c-0.557,0-1.008-0.451-1.008-1.008l0,0
		c0-0.557,0.451-1.008,1.008-1.008l0,0C288.06-497,288.511-496.549,288.511-495.992
		C288.511-495.992,288.511-495.992,288.511-495.992L288.511-495.992z M278.012-495.992c0,0.557-0.451,1.008-1.008,1.008c0,0,0,0,0,0
		c-0.557,0-1.008-0.451-1.008-1.008l0,0c0-0.557,0.451-1.008,1.008-1.008l0,0C277.561-497,278.012-496.549,278.012-495.992
		C278.012-495.992,278.012-495.992,278.012-495.992L278.012-495.992z M267.514-495.992c0,0.557-0.451,1.008-1.008,1.008h0
		c-0.557,0-1.008-0.451-1.008-1.008l0,0c0-0.557,0.451-1.008,1.008-1.008l0,0C267.062-497,267.514-496.549,267.514-495.992
		L267.514-495.992L267.514-495.992z M257.015-495.992c0,0.557-0.451,1.008-1.008,1.008c0,0,0,0,0,0
		c-0.557,0-1.008-0.451-1.008-1.008l0,0c0-0.557,0.451-1.008,1.008-1.008l0,0C256.564-497,257.015-496.549,257.015-495.992
		L257.015-495.992L257.015-495.992z"/>
</g>
<g transform="matrix( 1, 0, 0, 1, 0,0) ">
	<g>
		<path id="Layer2_0_1_STROKES" class="st9" d="M280.475,256.775v5.45 M287.625,256.775v5.45 M208.375,256.775v9.45
			 M215.525,256.775v9.45 M222.625,256.775v9.45 M201.275,256.775v9.45 M194.175,256.775v9.45 M229.725,256.775v9.45
			 M236.825,256.775v9.45 M243.975,256.775v9.45 M251.075,256.775v9.45 M265.275,256.775v9.45 M258.175,256.775v9.45
			 M273.375,256.775v5.45 M145.375,256.775v9.45 M152.525,256.775v9.45 M187.075,256.775v9.45 M179.925,256.775v9.45
			 M172.825,256.775v9.45 M165.725,256.775v9.45"/>
	</g>
</g>
<g transform="matrix( 1, 0, 0, 1, 640,360) ">
	<g transform="matrix( 1, 0, 0, 1, -242.95,-152) ">
		<g>
			<g id="Layer4_0_FILL">
				<path class="st10" d="M493.975-98l8-12h-110l-76-2l-108,2h-24l-82-2l-4,8V28l4,8l20-0.5V48h2V38h28v10h12V38h6v18h16V44h4v12
					h106V42h4v10h18l2-4v-4h-8v-5.8l150,1.8v-3.3l40-0.7l-8-12l10-26l-4-4l8-32l-6-30l2-4L493.975-98z"/>
			</g>
		</g>
	</g>
	<g transform="matrix( 1, 0, 0, 1, -242.95,-152) ">
		<g>
			<g id="Layer4_1_MEMBER_0_FILL">
				<path class="st11" d="M185.975,56V46h-16v10H185.975z"/>
			</g>
		</g>
	</g>
	<g transform="matrix( 1, 0, 0, 1, -242.95,-152) ">
		<g>
			<g id="Layer4_1_MEMBER_1_FILL">
				<path class="st11" d="M123.975,46h-2v2h2V46z"/>
			</g>
		</g>
	</g>
	<g transform="matrix( 1, 0, 0, 1, -242.95,-152) ">
		<g>
			<g id="Layer4_1_MEMBER_2_FILL">
				<path class="st11" d="M163.975,46h-12v2h12V46z"/>
			</g>
		</g>
	</g>
	<g transform="matrix( 1, 0, 0, 1, -242.95,-152) ">
		<g>
			<g id="Layer4_1_MEMBER_3_FILL">
				<path class="st11" d="M319.975,48v-2h-20v6h18L319.975,48z"/>
			</g>
		</g>
	</g>
	<g transform="matrix( 1, 0, 0, 1, -242.95,-152) ">
		<g>
			<g id="Layer4_1_MEMBER_4_FILL">
				<path class="st11" d="M189.975,46v10h106V46H189.975z"/>
			</g>
		</g>
	</g>
	<g transform="matrix( 1, 0, 0, 1, 0,0) ">
		<g>
			<g id="Layer4_2_FILL">
				<path class="st12" d="M-65.025-252l-5.95,18l67.95,4l72,6l4-4l-11.95,38l11.05,37.05l-3.1-1.05l-140,8l6,18l28,10l108.1,1.95
					l-0.05,0.05l76,2l111.95-2l-8-12l10-26l-4-4l8-32l-6-30l2-4l-10-26l8-12h-109.95l-76.05-2l-107.95,2L-65.025-252 M82.975-190
					l0.2-2.5l-0.15,2.45l22-43.95l46-18l44,18l22,44l-26.05,46l-40,18l-77.4-26.45L82.975-190 M-140.975-264l-4.05,8l0.05,127.95
					l-0.05,0.05v4l4.05,8l81.95-2h22l-38-8l-7.65-17.2l11.65-2.8l-9.95-2l-8.25,2.55l-7.75-44.55l7.75-44.6l8.25,2.6l9.95-2
					l-11.65-2.85l7.65-17.15l38-8h-22L-140.975-264z"/>
			</g>
		</g>
	</g>
	<g transform="matrix( 1, 0, 0, 1, -242.95,-152) ">
		<g>
			<g id="Layer3_0_FILL">
				<path class="st13" d="M153.975,8l-8-46h-48v62L153.975,8z"/>
			</g>
		</g>
	</g>
	<g transform="matrix( 1, 0, 0, 1, -242.95,-152) ">
		<g>
			<g id="Layer3_1_FILL">
				<path class="st14" d="M97.925-100l0.05,62h48l8-46L97.925-100z"/>
			</g>
		</g>
	</g>
	<g transform="matrix( 1, 0, 0, 1, -242.95,-152) ">
		<g>
			<g id="Layer3_2_FILL">
				<path class="st15" d="M145.975-82l-20-6l18,8L145.975-82z"/>
			</g>
		</g>
	</g>
	<g transform="matrix( 1, 0, 0, 1, -242.95,-152) ">
		<g>
			<g id="Layer3_3_FILL">
				<path class="st16" d="M143.975,4l2,2l-6-44l6-44l-2,2l-6,42L143.975,4z"/>
			</g>
		</g>
	</g>
	<g transform="matrix( 1, 0, 0, 1, -242.95,-152) ">
		<g>
			<g id="Layer3_4_FILL">
				<path class="st17" d="M133.975-38l-8,50l10-50l-10-50L133.975-38z"/>
			</g>
		</g>
	</g>
	<g transform="matrix( 1, 0, 0, 1, -242.95,-152) ">
		<g>
			<g id="Layer3_5_FILL">
				<path class="st15" d="M389.975,38l55.95-8l-52-4l-55.95,2l-24,8L389.975,38z"/>
			</g>
		</g>
	</g>
	<g transform="matrix( 1, 0, 0, 1, -242.95,-152) ">
		<g>
			<g id="Layer3_6_FILL">
				<path class="st18" d="M339.925-104l-24-8l-108,2L339.925-104z"/>
			</g>
		</g>
	</g>
	<g transform="matrix( 1, 0, 0, 1, -242.95,-152) ">
		<g>
			<g id="Layer3_7_FILL">
				<path class="st18" d="M493.925-98l8-12l-54,8L493.925-98z"/>
			</g>
		</g>
	</g>
	<g transform="matrix( 1, 0, 0, 1, -242.95,-152) ">
		<g>
			<g id="Layer3_8_FILL">
				<path class="st18" d="M205.925-110h-22l-86,6v4l70-2L205.925-110z"/>
			</g>
		</g>
	</g>
	<g transform="matrix( 1, 0, 0, 1, -242.95,-152) ">
		<g>
			<g id="Layer3_9_FILL">
				<path class="st18" d="M315.925,2l-4-4l-20,18L315.925,2z"/>
			</g>
		</g>
	</g>
	<g transform="matrix( 1, 0, 0, 1, -242.95,-152) ">
		<g>
			<g id="Layer3_10_FILL">
				<path class="st19" d="M471.925-76l32,4l-10-26L471.925-76z"/>
			</g>
		</g>
	</g>
	<g transform="matrix( 1, 0, 0, 1, -242.95,-152) ">
		<g>
			<g id="Layer3_11_FILL">
				<path class="st19" d="M445.925,30l48-6l-22-22L445.925,30z"/>
			</g>
		</g>
	</g>
	<g transform="matrix( 1, 0, 0, 1, -242.95,-152) ">
		<g>
			<g id="Layer3_12_FILL">
				<path class="st19" d="M315.925,2l-24,14l48,12L315.925,2z"/>
			</g>
		</g>
	</g>
	<g transform="matrix( 1, 0, 0, 1, -242.95,-152) ">
		<g>
			<g id="Layer3_13_FILL">
				<path class="st19" d="M207.975-110l-30.05,10l162-4L207.975-110z"/>
			</g>
		</g>
	</g>
	<g transform="matrix( 1, 0, 0, 1, -242.95,-152) ">
		<g>
			<g id="Layer3_14_FILL">
				<path class="st19" d="M501.925-68l-20,30h26L501.925-68z"/>
			</g>
		</g>
	</g>
	<g transform="matrix( 1, 0, 0, 1, -242.95,-152) ">
		<g>
			<g id="Layer3_15_FILL">
				<path class="st15" d="M503.925-72l-32-4l30,8L503.925-72z"/>
			</g>
		</g>
	</g>
	<g transform="matrix( 1, 0, 0, 1, -242.95,-152) ">
		<g>
			<g id="Layer3_16_FILL">
				<path class="st20" d="M311.925-72l4-4l-23.95-16L311.925-72z"/>
			</g>
		</g>
	</g>
	<g transform="matrix( 1, 0, 0, 1, -242.95,-152) ">
		<g>
			<g id="Layer3_17_FILL">
				<path class="st21" d="M471.925,2l-38,6l-40,18l52,4L471.925,2z"/>
			</g>
		</g>
	</g>
	<g transform="matrix( 1, 0, 0, 1, -242.95,-152) ">
		<g>
			<g id="Layer3_18_FILL">
				<path class="st21" d="M351.925,10l-36-8l24,26l54-2L351.925,10z"/>
			</g>
		</g>
	</g>
	<g transform="matrix( 1, 0, 0, 1, -242.95,-152) ">
		<g>
			<g id="Layer3_19_FILL">
				<path class="st20" d="M503.925-2l-32,4l22,22L503.925-2z"/>
			</g>
		</g>
	</g>
	<g transform="matrix( 1, 0, 0, 1, -242.95,-152) ">
		<g>
			<g id="Layer3_20_FILL">
				<path class="st20" d="M501.925,36l-8-12l-48,6L501.925,36z"/>
			</g>
		</g>
	</g>
	<g transform="matrix( 1, 0, 0, 1, -242.95,-152) ">
		<g>
			<g id="Layer3_21_FILL">
				<path class="st22" d="M503.925-2l-4-4l-28,8L503.925-2z"/>
			</g>
		</g>
	</g>
	<g transform="matrix( 1, 0, 0, 1, -242.95,-152) ">
		<g>
			<g id="Layer3_22_FILL">
				<path class="st17" d="M481.925-38l18,32l8-32H481.925z"/>
			</g>
		</g>
	</g>
	<g transform="matrix( 1, 0, 0, 1, -242.95,-152) ">
		<g>
			<g id="Layer3_23_FILL">
				<path class="st15" d="M97.925,24l70,2l-8-18L97.925,24z"/>
			</g>
		</g>
	</g>
	<g transform="matrix( 1, 0, 0, 1, -242.95,-152) ">
		<g>
			<g id="Layer3_24_FILL">
				<path class="st20" d="M239.925,2l-68,4l6,18L239.925,2z"/>
			</g>
		</g>
	</g>
	<g transform="matrix( 1, 0, 0, 1, -242.95,-152) ">
		<g>
			<g id="Layer3_25_FILL">
				<path class="st19" d="M239.925,2l52,14l20-18L239.925,2z"/>
			</g>
		</g>
	</g>
	<g transform="matrix( 1, 0, 0, 1, -242.95,-152) ">
		<g>
			<g id="Layer3_26_FILL">
				<path class="st19" d="M171.925,6l-9.95-2l-64.05,20L171.925,6z"/>
			</g>
		</g>
	</g>
	<g transform="matrix( 1, 0, 0, 1, -242.95,-152) ">
		<g>
			<g id="Layer3_27_FILL">
				<path class="st19" d="M391.975-110l55.95,8l54-8H391.975z"/>
			</g>
		</g>
	</g>
	<g transform="matrix( 1, 0, 0, 1, -242.95,-152) ">
		<g>
			<g id="Layer3_28_FILL">
				<path class="st21" d="M447.925-102l-53.95,2l44,18l33.95,6L447.925-102z"/>
			</g>
		</g>
	</g>
	<g transform="matrix( 1, 0, 0, 1, -242.95,-152) ">
		<g>
			<g id="Layer3_29_FILL">
				<path class="st17" d="M471.925-76l22-22l-46-4L471.925-76z"/>
			</g>
		</g>
	</g>
	<g transform="matrix( 1, 0, 0, 1, -242.95,-152) ">
		<g>
			<g id="Layer3_30_FILL">
				<path class="st23" d="M471.925,2l28-8l-18-32L471.925,2z"/>
			</g>
		</g>
	</g>
	<g transform="matrix( 1, 0, 0, 1, -242.95,-152) ">
		<g>
			<g id="Layer3_31_FILL">
				<path class="st22" d="M471.925-76l10,38l20-30L471.925-76z"/>
			</g>
		</g>
	</g>
	<g transform="matrix( 1, 0, 0, 1, -242.95,-152) ">
		<g>
			<g id="Layer3_32_FILL">
				<path class="st24" d="M481.925-38l-10-38l-11.95,38H481.925z"/>
			</g>
		</g>
	</g>
	<g transform="matrix( 1, 0, 0, 1, -242.95,-152) ">
		<g>
			<g id="Layer3_33_FILL">
				<path class="st16" d="M471.925,2l10-40h-21.95L471.925,2z"/>
			</g>
		</g>
	</g>
	<g transform="matrix( 1, 0, 0, 1, -242.95,-152) ">
		<g>
			<g id="Layer3_34_FILL">
				<path class="st21" d="M315.925-76l32.05-6l46-18l-54.05-4L315.925-76z"/>
			</g>
		</g>
	</g>
	<g transform="matrix( 1, 0, 0, 1, -242.95,-152) ">
		<g>
			<g id="Layer3_35_FILL">
				<path class="st17" d="M339.925-104l-47.95,12l23.95,16L339.925-104z"/>
			</g>
		</g>
	</g>
	<g transform="matrix( 1, 0, 0, 1, -242.95,-152) ">
		<g>
			<g id="Layer3_36_FILL">
				<path class="st17" d="M239.925-78l72,6l-19.95-20L239.925-78z"/>
			</g>
		</g>
	</g>
	<g transform="matrix( 1, 0, 0, 1, -242.95,-152) ">
		<g>
			<g id="Layer3_37_FILL">
				<path class="st15" d="M447.925-102l-55.95-8l-76.05-2l24,8l54.05,4L447.925-102z"/>
			</g>
		</g>
	</g>
	<g transform="matrix( 1, 0, 0, 1, -242.95,-152) ">
		<g>
			<g id="Layer3_38_FILL">
				<path class="st24" d="M303.975-38h21.95l-10-38L303.975-38z"/>
			</g>
		</g>
	</g>
	<g transform="matrix( 1, 0, 0, 1, -242.95,-152) ">
		<g>
			<g id="Layer3_39_FILL">
				<path class="st16" d="M325.925-38h-21.95l11.95,40L325.925-38z"/>
			</g>
		</g>
	</g>
	<g transform="matrix( 1, 0, 0, 1, -242.95,-152) ">
		<g>
			<g id="Layer3_40_FILL">
				<path class="st14" d="M239.925,2l-62,22l162,4L239.925,2z"/>
			</g>
		</g>
	</g>
	<g transform="matrix( 1, 0, 0, 1, -242.95,-152) ">
		<g>
			<g id="Layer3_41_FILL">
				<path class="st14" d="M239.925-78l100-26l-162,4L239.925-78z"/>
			</g>
		</g>
	</g>
	<g transform="matrix( 1, 0, 0, 1, -242.95,-152) ">
		<g>
			<g id="Layer3_42_FILL">
				<path class="st19" d="M177.925-100l-5.95,18l67.95,4L177.925-100z"/>
			</g>
		</g>
	</g>
	<g transform="matrix( 1, 0, 0, 1, -242.95,-152) ">
		<g>
			<g id="Layer3_43_FILL">
				<path class="st23" d="M101.975-112l-4.05,8l86-6L101.975-112z"/>
			</g>
		</g>
	</g>
	<g transform="matrix( 1, 0, 0, 1, -242.95,-152) ">
		<g>
			<g id="Layer3_44_FILL">
				<path class="st24" d="M457.975-10l-24.05,18l38-6L457.975-10z"/>
			</g>
		</g>
	</g>
	<g transform="matrix( 1, 0, 0, 1, -242.95,-152) ">
		<g>
			<g id="Layer3_45_FILL">
				<path class="st24" d="M327.975-10l-12.05,12l36,8L327.975-10z"/>
			</g>
		</g>
	</g>
	<g transform="matrix( 1, 0, 0, 1, 0,0) ">
		<g>
			<g id="Layer3_46_FILL">
				<path class="st15" d="M215.025-216l2,26l11.95-38L215.025-216z"/>
			</g>
		</g>
	</g>
	<g transform="matrix( 1, 0, 0, 1, -242.95,-152) ">
		<g>
			<g id="Layer3_47_FILL">
				<path class="st15" d="M327.975-64l-12.05-12l10,38L327.975-64z"/>
			</g>
		</g>
	</g>
	<g transform="matrix( 1, 0, 0, 1, -242.95,-152) ">
		<g>
			<g id="Layer3_48_FILL">
				<path class="st21" d="M433.925,8l24.05-18l13.95,12l-11.95-40L433.925,8z"/>
			</g>
		</g>
	</g>
	<g transform="matrix( 1, 0, 0, 1, -242.95,-152) ">
		<g>
			<g id="Layer3_49_FILL">
				<path class="st21" d="M315.925,2l12-12.05l24,20.05l-25.95-48.05L315.925,2z"/>
			</g>
		</g>
	</g>
	<g transform="matrix( 1, 0, 0, 1, -242.95,-152) ">
		<g>
			<g id="Layer3_50_FILL">
				<path class="st24" d="M459.975-38l-2-26l13.95-12l-33.95-6L459.975-38z"/>
			</g>
		</g>
	</g>
	<g transform="matrix( 1, 0, 0, 1, -242.95,-152) ">
		<g>
			<g id="Layer3_51_FILL">
				<path class="st24" d="M315.925-76l12.05,12l-2,25.95l22-43.95L315.925-76z"/>
			</g>
		</g>
	</g>
	<g transform="matrix( 1, 0, 0, 1, -242.95,-152) ">
		<g>
			<g id="Layer3_52_FILL">
				<path class="st23" d="M314.925,36l24-8l-133,6L314.925,36z"/>
			</g>
		</g>
	</g>
	<g transform="matrix( 1, 0, 0, 1, -242.95,-152) ">
		<g>
			<g id="Layer3_53_FILL">
				<path class="st17" d="M183.925,34h22l-38-8l-70-2v4L183.925,34z"/>
			</g>
		</g>
	</g>
	<g transform="matrix( 1, 0, 0, 1, -242.95,-152) ">
		<g>
			<g id="Layer3_54_FILL">
				<path class="st17" d="M177.925,24l28,10l134-6L177.925,24z"/>
			</g>
		</g>
	</g>
	<g transform="matrix( 1, 0, 0, 1, -242.95,-152) ">
		<g>
			<g id="Layer3_55_FILL">
				<path class="st23" d="M97.925,28l4.05,8l81.95-2L97.925,28z"/>
			</g>
		</g>
	</g>
	<g transform="matrix( 1, 0, 0, 1, -242.95,-152) ">
		<g>
			<g id="Layer3_56_FILL">
				<path class="st19" d="M159.925-84l8-18l-70,2L159.925-84z"/>
			</g>
		</g>
	</g>
	<g transform="matrix( 1, 0, 0, 1, -242.95,-152) ">
		<g>
			<g id="Layer3_57_FILL">
				<path class="st17" d="M171.925-82l-74-18l64.05,20L171.925-82z"/>
			</g>
		</g>
	</g>
	<g transform="matrix( 1, 0, 0, 1, -242.95,-152) ">
		<g>
			<g id="Layer3_58_FILL">
				<path class="st24" d="M445.925,30l-55.95,8l111.95-2L445.925,30z"/>
			</g>
		</g>
	</g>
	<g transform="matrix( 1, 0, 0, 1, -242.95,-152) ">
		<g>
			
				<linearGradient id="Layer3_59_1_STROKES_1_" gradientUnits="userSpaceOnUse" x1="-57.075" y1="192" x2="50.925" y2="192" gradientTransform="matrix(1 0 0 -1 397.05 154)">
				<stop  offset="0" style="stop-color:#565658"/>
				<stop  offset="0.2078" style="stop-color:#8B8D8F"/>
				<stop  offset="0.2941" style="stop-color:#FFFFFF"/>
				<stop  offset="0.749" style="stop-color:#A3A5A8"/>
				<stop  offset="1" style="stop-color:#565658"/>
				<stop  offset="1" style="stop-color:#373535"/>
				<stop  offset="1" style="stop-color:#FFFFFF"/>
			</linearGradient>
			<path id="Layer3_59_1_STROKES" class="st25" d="M445.975-38c0-14.367-5.083-26.633-15.25-36.8
				C420.592-84.933,408.342-90,393.975-90s-26.633,5.067-36.8,15.2c-10.133,10.167-15.2,22.433-15.2,36.8s5.067,26.617,15.2,36.75
				C367.342,8.917,379.608,14,393.975,14s26.617-5.083,36.75-15.25C440.892-11.383,445.975-23.633,445.975-38z"/>
		</g>
	</g>
	<g transform="matrix( 1, 0, 0, 1, -242.95,-152) ">
		<g>
			<g id="Layer3_60_MEMBER_0_FILL">
				<path class="st11" d="M185.975,56V46h-16v10H185.975z"/>
			</g>
		</g>
	</g>
	<g transform="matrix( 1, 0, 0, 1, -242.95,-152) ">
		<g>
			<g id="Layer3_60_MEMBER_1_FILL">
				<path class="st11" d="M123.975,46h-2v2h2V46z"/>
			</g>
		</g>
	</g>
	<g transform="matrix( 1, 0, 0, 1, -242.95,-152) ">
		<g>
			<g id="Layer3_60_MEMBER_2_FILL">
				<path class="st11" d="M163.975,46h-12v2h12V46z"/>
			</g>
		</g>
	</g>
	<g transform="matrix( 1, 0, 0, 1, -242.95,-152) ">
		<g>
			<g id="Layer3_60_MEMBER_3_FILL">
				<path class="st11" d="M319.975,48v-2h-20v6h18L319.975,48z"/>
			</g>
		</g>
	</g>
	<g transform="matrix( 1, 0, 0, 1, -242.95,-152) ">
		<g>
			<g id="Layer3_60_MEMBER_4_FILL">
				<path class="st11" d="M189.975,46v10h106V46H189.975z"/>
			</g>
		</g>
	</g>
	<g transform="matrix( 1, 0, 0, 1, 0,0) ">
		<g>
			<path id="Layer2_0_1_STROKES_1_" class="st9" d="M66.325-106v5.45 M73.475-106v5.45 M-5.775-106v9.45 M1.375-106v9.45 M8.475-106
				v9.45 M-12.875-106v9.45 M-19.975-106v9.45 M15.575-106v9.45 M22.675-106v9.45 M29.825-106v9.45 M36.925-106v9.45 M51.125-106
				v9.45 M44.025-106v9.45 M59.225-106v5.45 M-68.775-106v9.45 M-61.625-106v9.45 M-27.075-106v9.45 M-34.225-106v9.45 M-41.325-106
				v9.45 M-48.425-106v9.45"/>
		</g>
	</g>
	<g transform="matrix( 1, 0, 0, 1, 91,-9.75) ">
		<g transform="matrix( 1, 0, 0, 1, 0,0) ">
			<g>
				<g id="NvidiaGpuFan_0_Layer1_0_FILL">
					<path class="st26" d="M54.075-204.6c-4.5,1.033-8.483,3.283-11.95,6.75c-2.8,2.8-4.8,5.917-6,9.35
						c-0.933,2.633-1.4,5.467-1.4,8.5s0.467,5.883,1.4,8.55c1.2,3.4,3.2,6.5,6,9.3c3.267,3.267,6.983,5.45,11.15,6.55
						c2.1,0.567,4.333,0.85,6.7,0.85s4.617-0.283,6.75-0.85c4.133-1.1,7.833-3.283,11.1-6.55c3.033-3.033,5.133-6.45,6.3-10.25
						c0.733-2.367,1.1-4.9,1.1-7.6s-0.367-5.233-1.1-7.6c-1.167-3.8-3.267-7.217-6.3-10.25c-3.467-3.467-7.433-5.717-11.9-6.75
						c-1.9-0.433-3.883-0.65-5.95-0.65S55.942-205.033,54.075-204.6z"/>
				</g>
			</g>
			<g>
				<path id="NvidiaGpuFan_0_Layer1_0_1_STROKES" class="st27" d="M85.225-180c0,2.7-0.367,5.233-1.1,7.6
					c-1.167,3.8-3.267,7.217-6.3,10.25c-3.267,3.267-6.967,5.45-11.1,6.55c-2.133,0.567-4.383,0.85-6.75,0.85s-4.6-0.283-6.7-0.85
					c-4.167-1.1-7.883-3.283-11.15-6.55c-2.8-2.8-4.8-5.9-6-9.3c-0.933-2.667-1.4-5.517-1.4-8.55s0.467-5.867,1.4-8.5
					c1.2-3.433,3.2-6.55,6-9.35c3.467-3.467,7.45-5.717,11.95-6.75c1.867-0.433,3.833-0.65,5.9-0.65s4.05,0.217,5.95,0.65
					c4.467,1.033,8.433,3.283,11.9,6.75c3.033,3.033,5.133,6.45,6.3,10.25C84.858-185.233,85.225-182.7,85.225-180z"/>
			</g>
		</g>
		<g transform="matrix( 1, 0, 0, 1, -48.45,-48) ">
			<g>
				<g id="NvidiaGpuFan_0_Layer0_0_MEMBER_0_FILL">
					<path class="st21" d="M108.425-111c2.8,0,5.533-0.567,8.2-1.7l-0.8-1.85c-2.3,0.967-4.7,1.467-7.2,1.5
						c-2.533,0.033-4.933-0.417-7.2-1.35h-0.1l-0.7,1.85C103.225-111.517,105.825-111,108.425-111 M89.425-132.05
						c0-2.367,0.467-4.717,1.4-7.05v-0.05l-1.85-0.7c-1.033,2.6-1.55,5.2-1.55,7.8c0,2.8,0.567,5.533,1.7,8.2l1.85-0.75
						C89.942-127.067,89.425-129.55,89.425-132.05 M129.475-132c0-2.833-0.567-5.583-1.7-8.25l-1.85,0.8
						c1.033,2.433,1.55,4.917,1.55,7.45c0,2.333-0.467,4.7-1.4,7.1l1.85,0.7C128.958-126.767,129.475-129.367,129.475-132
						 M101.025-149.5c2.3-0.967,4.717-1.467,7.25-1.5s4.95,0.417,7.25,1.35h0.05l0.7-1.85c-2.567-1.033-5.25-1.533-8.05-1.5
						c-2.767,0.033-5.433,0.583-8,1.65L101.025-149.5z"/>
				</g>
			</g>
		</g>
		<g transform="matrix( 1, 0, 0, 1, -48.45,-48) ">
			<g>
				<g id="NvidiaGpuFan_0_Layer0_1_MEMBER_0_FILL">
					<path class="st23" d="M108.425-109c3.033,0,6.033-0.617,9-1.85l-0.8-1.85c-2.533,1.067-5.2,1.617-8,1.65
						c-2.767,0.033-5.433-0.467-8-1.5h-0.1l-0.65,1.85C102.708-109.567,105.558-109,108.425-109 M87.425-132.05
						c0-2.6,0.5-5.183,1.5-7.75l0.05-0.15l-1.85-0.65c-1.133,2.833-1.7,5.683-1.7,8.55c0,3.067,0.617,6.067,1.85,9l1.85-0.8
						C87.992-126.517,87.425-129.25,87.425-132.05 M131.475-132c0-3.067-0.617-6.083-1.85-9.05l-1.85,0.8
						c1.133,2.667,1.7,5.417,1.7,8.25c0,2.6-0.517,5.217-1.55,7.85l1.85,0.7C130.908-126.283,131.475-129.133,131.475-132
						 M108.225-153c2.8-0.033,5.483,0.467,8.05,1.5h0.05l0.7-1.85c-2.8-1.133-5.733-1.683-8.8-1.65
						c-3.033,0.033-5.95,0.633-8.75,1.8l0.75,1.85C102.792-152.417,105.458-152.967,108.225-153z"/>
				</g>
			</g>
		</g>
		<g transform="matrix( 1, 0, 0, 1, -48,-48) ">
			<g>
				<g id="NvidiaGpuFan_0_Layer0_2_FILL">
					<path class="st24" d="M110.075-84.05l-0.55-12l-1.7,0.05v12L110.075-84.05z"/>
				</g>
			</g>
		</g>
		<g transform="matrix( 1, 0, 0, 1, -48,-48) ">
			<g>
				<g id="NvidiaGpuFan_0_Layer0_3_FILL">
					<path class="st24" d="M103.225-84.25l1.2-11.95l-1.7-0.2l-1.75,11.85L103.225-84.25z"/>
				</g>
			</g>
		</g>
		<g transform="matrix( 1, 0, 0, 1, -48,-48) ">
			<g>
				<g id="NvidiaGpuFan_0_Layer0_4_FILL">
					<path class="st24" d="M114.625-84.5l2.25-0.35l-2.25-11.8l-1.65,0.3L114.625-84.5z"/>
				</g>
			</g>
		</g>
		<g transform="matrix( 1, 0, 0, 1, -48,-48) ">
			<g>
				<g id="NvidiaGpuFan_0_Layer0_5_FILL">
					<path class="st24" d="M96.475-85.4l2.9-11.65l-1.7-0.45l-3.4,11.5L96.475-85.4z"/>
				</g>
			</g>
		</g>
		<g transform="matrix( 1, 0, 0, 1, -48,-48) ">
			<g>
				<g id="NvidiaGpuFan_0_Layer0_6_FILL">
					<path class="st24" d="M121.325-85.9l2.15-0.7l-3.85-11.35l-1.65,0.5L121.325-85.9z"/>
				</g>
			</g>
		</g>
		<g transform="matrix( 1, 0, 0, 1, -48,-48) ">
			<g>
				<g id="NvidiaGpuFan_0_Layer0_7_FILL">
					<path class="st24" d="M89.975-87.5l4.5-11.15l-1.6-0.65l-5,10.9L89.975-87.5z"/>
				</g>
			</g>
		</g>
		<g transform="matrix( 1, 0, 0, 1, -48,-48) ">
			<g>
				<g id="NvidiaGpuFan_0_Layer0_8_FILL">
					<path class="st24" d="M127.725-88.3l2.05-0.95l-5.45-10.7l-1.55,0.75L127.725-88.3z"/>
				</g>
			</g>
		</g>
		<g transform="matrix( 1, 0, 0, 1, -48,-48) ">
			<g>
				<g id="NvidiaGpuFan_0_Layer0_9_FILL">
					<path class="st24" d="M83.825-90.5l6.05-10.4l-1.45-0.9l-6.55,10.1L83.825-90.5z"/>
				</g>
			</g>
		</g>
		<g transform="matrix( 1, 0, 0, 1, -48,-48) ">
			<g>
				<g id="NvidiaGpuFan_0_Layer0_10_FILL">
					<path class="st24" d="M133.775-91.55l1.9-1.3l-6.95-9.75l-1.45,0.95L133.775-91.55z"/>
				</g>
			</g>
		</g>
		<g transform="matrix( 1, 0, 0, 1, -48,-48) ">
			<g>
				<g id="NvidiaGpuFan_0_Layer0_11_FILL">
					<path class="st24" d="M78.175-94.4l7.45-9.4c-0.6-0.467-1.033-0.833-1.3-1.1l-7.9,9.05L78.175-94.4z"/>
				</g>
			</g>
		</g>
		<g transform="matrix( 1, 0, 0, 1, -48,-48) ">
			<g>
				<g id="NvidiaGpuFan_0_Layer0_12_FILL">
					<path class="st24" d="M139.275-95.65l1.65-1.5l-8.25-8.75l-1.25,1.15L139.275-95.65z"/>
				</g>
			</g>
		</g>
		<g transform="matrix( 1, 0, 0, 1, -48,-48) ">
			<g>
				<g id="NvidiaGpuFan_0_Layer0_13_FILL">
					<path class="st24" d="M73.125-99l8.7-8.25l-1.15-1.25l-9.1,7.8L73.125-99z"/>
				</g>
			</g>
		</g>
		<g transform="matrix( 1, 0, 0, 1, -48,-48) ">
			<g>
				<g id="NvidiaGpuFan_0_Layer0_14_FILL">
					<path class="st24" d="M144.125-100.45l1.45-1.75l-9.4-7.45l-1.1,1.3L144.125-100.45z"/>
				</g>
			</g>
		</g>
		<g transform="matrix( 1, 0, 0, 1, -48,-48) ">
			<g>
				<g id="NvidiaGpuFan_0_Layer0_15_FILL">
					<path class="st24" d="M68.775-104.3l9.8-6.9l-0.95-1.45l-10.1,6.5L68.775-104.3z"/>
				</g>
			</g>
		</g>
		<g transform="matrix( 1, 0, 0, 1, -48,-48) ">
			<g>
				<g id="NvidiaGpuFan_0_Layer0_16_FILL">
					<path class="st24" d="M148.225-105.9l1.2-1.95l-10.35-6.05l-0.9,1.45L148.225-105.9z"/>
				</g>
			</g>
		</g>
		<g transform="matrix( 1, 0, 0, 1, -48,-48) ">
			<g>
				<g id="NvidiaGpuFan_0_Layer0_17_FILL">
					<path class="st24" d="M64.225-112.2l1,2.05l10.7-5.45c-0.267-0.433-0.517-0.95-0.75-1.55L64.225-112.2z"/>
				</g>
			</g>
		</g>
		<g transform="matrix( 1, 0, 0, 1, -48,-48) ">
			<g>
				<g id="NvidiaGpuFan_0_Layer0_18_FILL">
					<path class="st24" d="M151.525-111.9l0.9-2.1l-11.1-4.5l-0.7,1.55L151.525-111.9z"/>
				</g>
			</g>
		</g>
		<g transform="matrix( 1, 0, 0, 1, -48,-48) ">
			<g>
				<g id="NvidiaGpuFan_0_Layer0_19_FILL">
					<path class="st24" d="M61.875-118.6l0.65,2.15l11.35-3.9l-0.5-1.6L61.875-118.6z"/>
				</g>
			</g>
		</g>
		<g transform="matrix( 1, 0, 0, 1, -48,-48) ">
			<g>
				<g id="NvidiaGpuFan_0_Layer0_20_FILL">
					<path class="st24" d="M153.975-118.3l0.6-2.2l-11.65-2.9l-0.45,1.65L153.975-118.3z"/>
				</g>
			</g>
		</g>
		<g transform="matrix( 1, 0, 0, 1, -48,-48) ">
			<g>
				<g id="NvidiaGpuFan_0_Layer0_21_FILL">
					<path class="st24" d="M60.775-123.05l11.8-2.25l-0.25-1.7l-11.9,1.7L60.775-123.05z"/>
				</g>
			</g>
		</g>
		<g transform="matrix( 1, 0, 0, 1, -48,-48) ">
			<g>
				<g id="NvidiaGpuFan_0_Layer0_22_FILL">
					<path class="st24" d="M155.425-125l0.3-2.25l-11.95-1.2l-0.2,1.7L155.425-125z"/>
				</g>
			</g>
		</g>
		<g transform="matrix( 1, 0, 0, 1, -48,-48) ">
			<g>
				<g id="NvidiaGpuFan_0_Layer0_23_FILL">
					<path class="st24" d="M71.975-132.1l-12,0.1v2.15l12-0.55V-132.1z"/>
				</g>
			</g>
		</g>
		<g transform="matrix( 1, 0, 0, 1, -48,-48) ">
			<g>
				<g id="NvidiaGpuFan_0_Layer0_24_FILL">
					<path class="st24" d="M143.925-131.85l12.05-0.15l-0.1-2.3l-11.95,0.55l0.05,1.65L143.925-131.85z"/>
				</g>
			</g>
		</g>
		<g transform="matrix( 1, 0, 0, 1, -48,-48) ">
			<g>
				<g id="NvidiaGpuFan_0_Layer0_25_FILL">
					<path class="st24" d="M72.125-135.55l0.2-1.7l-11.9-1.7l-0.25,2.25L72.125-135.55z"/>
				</g>
			</g>
		</g>
		<g transform="matrix( 1, 0, 0, 1, -48,-48) ">
			<g>
				<g id="NvidiaGpuFan_0_Layer0_26_FILL">
					<path class="st24" d="M143.575-137.15l11.9-1.7l-0.4-2.25l-11.75,2.25L143.575-137.15z"/>
				</g>
			</g>
		</g>
		<g transform="matrix( 1, 0, 0, 1, -48,-48) ">
			<g>
				<g id="NvidiaGpuFan_0_Layer0_27_FILL">
					<path class="st24" d="M72.975-140.6l0.45-1.65l-11.5-3.4c-0.267,0.8-0.467,1.533-0.6,2.2L72.975-140.6z"/>
				</g>
			</g>
		</g>
		<g transform="matrix( 1, 0, 0, 1, -48,-48) ">
			<g>
				<g id="NvidiaGpuFan_0_Layer0_28_FILL">
					<path class="st24" d="M153.325-147.75l-11.35,3.95l0.55,1.65l11.5-3.4L153.325-147.75z"/>
				</g>
			</g>
		</g>
		<g transform="matrix( 1, 0, 0, 1, -48,-48) ">
			<g>
				<g id="NvidiaGpuFan_0_Layer0_29_FILL">
					<path class="st24" d="M74.525-145.45l0.7-1.6l-10.9-5l-0.9,2.1L74.525-145.45z"/>
				</g>
			</g>
		</g>
		<g transform="matrix( 1, 0, 0, 1, -48,-48) ">
			<g>
				<g id="NvidiaGpuFan_0_Layer0_30_FILL">
					<path class="st24" d="M151.625-151.95l-1-2.05l-10.65,5.5l0.75,1.55L151.625-151.95z"/>
				</g>
			</g>
		</g>
		<g transform="matrix( 1, 0, 0, 1, -48,-48) ">
			<g>
				<g id="NvidiaGpuFan_0_Layer0_31_FILL">
					<path class="st24" d="M76.775-150.05l0.9-1.5l-10.05-6.5l-1.2,1.95L76.775-150.05z"/>
				</g>
			</g>
		</g>
		<g transform="matrix( 1, 0, 0, 1, -48,-48) ">
			<g>
				<g id="NvidiaGpuFan_0_Layer0_32_FILL">
					<path class="st24" d="M148.325-157.95l-1.25-1.9l-9.8,6.95l1,1.45L148.325-157.95z"/>
				</g>
			</g>
		</g>
		<g transform="matrix( 1, 0, 0, 1, -48,-48) ">
			<g>
				<g id="NvidiaGpuFan_0_Layer0_33_FILL">
					<path class="st24" d="M79.675-154.3l1.1-1.35l-9.05-7.85l-1.45,1.75L79.675-154.3z"/>
				</g>
			</g>
		</g>
		<g transform="matrix( 1, 0, 0, 1, -48,-48) ">
			<g>
				<g id="NvidiaGpuFan_0_Layer0_34_FILL">
					<path class="st24" d="M144.225-163.45l-1.5-1.7l-8.7,8.3l1.15,1.25L144.225-163.45z"/>
				</g>
			</g>
		</g>
		<g transform="matrix( 1, 0, 0, 1, -48,-48) ">
			<g>
				<g id="NvidiaGpuFan_0_Layer0_35_FILL">
					<path class="st24" d="M83.125-158.1l1.3-1.15l-7.85-9.1l-1.7,1.55L83.125-158.1z"/>
				</g>
			</g>
		</g>
		<g transform="matrix( 1, 0, 0, 1, -48,-48) ">
			<g>
				<g id="NvidiaGpuFan_0_Layer0_36_FILL">
					<path class="st24" d="M131.525-159.2l7.85-9.1l-1.75-1.45l-7.4,9.45L131.525-159.2z"/>
				</g>
			</g>
		</g>
		<g transform="matrix( 1, 0, 0, 1, -48,-48) ">
			<g>
				<g id="NvidiaGpuFan_0_Layer0_37_FILL">
					<path class="st24" d="M87.125-161.4l1.4-0.95l-6.45-10.1l-1.9,1.3L87.125-161.4z"/>
				</g>
			</g>
		</g>
		<g transform="matrix( 1, 0, 0, 1, -48,-48) ">
			<g>
				<g id="NvidiaGpuFan_0_Layer0_38_FILL">
					<path class="st24" d="M127.425-162.3l6.5-10.1l-1.95-1.2l-6,10.4L127.425-162.3z"/>
				</g>
			</g>
		</g>
		<g transform="matrix( 1, 0, 0, 1, -48,-48) ">
			<g>
				<g id="NvidiaGpuFan_0_Layer0_39_FILL">
					<path class="st24" d="M91.525-164.05l1.5-0.75l-4.95-10.9l-2.05,1L91.525-164.05z"/>
				</g>
			</g>
		</g>
		<g transform="matrix( 1, 0, 0, 1, -48,-48) ">
			<g>
				<g id="NvidiaGpuFan_0_Layer0_40_FILL">
					<path class="st24" d="M122.925-164.75l5-10.95l-2.1-0.9l-4.45,11.15L122.925-164.75z"/>
				</g>
			</g>
		</g>
		<g transform="matrix( 1, 0, 0, 1, -48,-48) ">
			<g>
				<g id="NvidiaGpuFan_0_Layer0_41_FILL">
					<path class="st24" d="M94.475-178.1l-2.15,0.7l3.9,11.35l1.6-0.55L94.475-178.1z"/>
				</g>
			</g>
		</g>
		<g transform="matrix( 1, 0, 0, 1, -48,-48) ">
			<g>
				<g id="NvidiaGpuFan_0_Layer0_42_FILL">
					<path class="st24" d="M118.125-166.55l3.4-11.55l-2.2-0.55l-2.85,11.65C117.042-166.9,117.592-166.75,118.125-166.55z"/>
				</g>
			</g>
		</g>
		<g transform="matrix( 1, 0, 0, 1, -48,-48) ">
			<g>
				<g id="NvidiaGpuFan_0_Layer0_43_FILL">
					<path class="st24" d="M101.175-167.4l1.7-0.25l-1.7-11.9l-2.25,0.35L101.175-167.4z"/>
				</g>
			</g>
		</g>
		<g transform="matrix( 1, 0, 0, 1, -48,-48) ">
			<g>
				<g id="NvidiaGpuFan_0_Layer0_44_FILL">
					<path class="st24" d="M113.125-167.65l1.7-11.9l-2.25-0.25l-1.15,11.95L113.125-167.65z"/>
				</g>
			</g>
		</g>
		<g transform="matrix( 1, 0, 0, 1, -48,-48) ">
			<g>
				<g id="NvidiaGpuFan_0_Layer0_45_FILL">
					<path class="st24" d="M106.275-168h1.7v-12l-2.25,0.05L106.275-168z"/>
				</g>
			</g>
		</g>
	</g>
</g>
<g>
	<g>
		<line class="st28" x1="698.975" y1="170" x2="674.975" y2="170"/>
		<line class="st28" x1="672.975" y1="170" x2="569.975" y2="170"/>
		<line class="st28" x1="568.975" y1="170" x2="544.975" y2="170"/>
	</g>
</g>
<g>
	<g>
		<line class="st28" x1="700.975" y1="176" x2="676.975" y2="176"/>
		<line class="st28" x1="674.975" y1="176" x2="571.975" y2="176"/>
		<line class="st28" x1="570.975" y1="176" x2="546.975" y2="176"/>
	</g>
</g>
<g>
	<g>
		<line class="st28" x1="700.975" y1="182" x2="676.975" y2="182"/>
		<line class="st28" x1="674.975" y1="182" x2="571.975" y2="182"/>
		<line class="st28" x1="570.975" y1="182" x2="546.975" y2="182"/>
	</g>
</g>
<g>
	<g>
		<line class="st28" x1="702.975" y1="188" x2="678.975" y2="188"/>
		<line class="st28" x1="676.975" y1="188" x2="573.975" y2="188"/>
		<line class="st28" x1="572.975" y1="188" x2="548.975" y2="188"/>
	</g>
</g>
<g>
	<g>
		<line class="st28" x1="704.975" y1="194" x2="680.975" y2="194"/>
		<line class="st28" x1="678.975" y1="194" x2="575.975" y2="194"/>
		<line class="st28" x1="574.975" y1="194" x2="550.975" y2="194"/>
	</g>
</g>
<g>
	<g>
		<line class="st28" x1="706.975" y1="200" x2="682.975" y2="200"/>
		<line class="st28" x1="680.975" y1="200" x2="577.975" y2="200"/>
		<line class="st28" x1="576.975" y1="200" x2="552.975" y2="200"/>
	</g>
</g>
<g>
	<g>
		<line class="st28" x1="700.975" y1="164" x2="676.975" y2="164"/>
		<line class="st28" x1="674.975" y1="164" x2="571.975" y2="164"/>
		<line class="st28" x1="570.975" y1="164" x2="546.975" y2="164"/>
	</g>
</g>
<g>
	<g>
		<line class="st28" x1="700.975" y1="158" x2="676.975" y2="158"/>
		<line class="st28" x1="674.975" y1="158" x2="571.975" y2="158"/>
		<line class="st28" x1="570.975" y1="158" x2="546.975" y2="158"/>
	</g>
</g>
<g>
	<g>
		<line class="st28" x1="702.975" y1="152" x2="678.975" y2="152"/>
		<line class="st28" x1="676.975" y1="152" x2="573.975" y2="152"/>
		<line class="st28" x1="572.975" y1="152" x2="548.975" y2="152"/>
	</g>
</g>
<g>
	<g>
		<line class="st28" x1="704.975" y1="146" x2="680.975" y2="146"/>
		<line class="st28" x1="678.975" y1="146" x2="575.975" y2="146"/>
		<line class="st28" x1="574.975" y1="146" x2="550.975" y2="146"/>
	</g>
</g>
<g>
	<g>
		<line class="st28" x1="706.975" y1="140" x2="682.975" y2="140"/>
		<line class="st28" x1="680.975" y1="140" x2="577.975" y2="140"/>
		<line class="st28" x1="576.975" y1="140" x2="552.975" y2="140"/>
	</g>
</g>
<line class="st28" x1="678.975" y1="206.175" x2="578.975" y2="206.175"/>
<line class="st28" x1="576.975" y1="206.175" x2="552.975" y2="206.175"/>
<line class="st28" x1="666.975" y1="133.9" x2="579.975" y2="133.9"/>
<line class="st28" x1="577.975" y1="133.9" x2="552.975" y2="133.9"/>
</svg>
