<?xml version="1.0" encoding="utf-8"?>
<!-- Generator: Adobe Illustrator 21.0.2, SVG Export Plug-In . SVG Version: 6.00 Build 0)  -->
<svg version="1.1" xmlns="http://www.w3.org/2000/svg" xmlns:xlink="http://www.w3.org/1999/xlink" x="0px" y="0px"
	 viewBox="0 0 640 640" style="enable-background:new 0 0 640 640;" xml:space="preserve">
<style type="text/css">
	.st0{fill:#BFC2C7;}
	.st1{fill:#070707;}
	.st2{fill:url(#SVGID_1_);}
	.st3{fill:#2E2F2F;}
	.st4{fill:#0071BC;stroke:#2E2F2F;stroke-width:2;stroke-miterlimit:10;}
	.st5{fill:none;stroke:url(#SVGID_2_);stroke-width:3;stroke-miterlimit:10;}
	.st6{fill:#1A1A1A;}
</style>
<g id="Layer_1">
	
		<image style="display:none;overflow:visible;" width="468" height="600" xlink:href="E3446B8C.jpg"  transform="matrix(1 0 0 1 90 20)">
	</image>
</g>
<g id="Layer_2">
	<polygon class="st0" points="462,151 472,148 472,191 462,187 	"/>
	<polygon class="st0" points="187,206 177,203 177,246 187,242 	"/>
	<polygon class="st0" points="187,152 177,149 177,192 187,188 	"/>
	<polygon class="st0" points="187,95.674 177,94 177,118 187,115.767 	"/>
	<g>
		<path class="st1" d="M426.5,614.649h-204c-20.9,0-38-17.1-38-38V63.351c0-20.9,17.1-38,38-38h204c20.9,0,38,17.1,38,38v513.298
			C464.5,597.549,447.4,614.649,426.5,614.649z"/>
		<linearGradient id="SVGID_1_" gradientUnits="userSpaceOnUse" x1="181.5" y1="320" x2="467.5" y2="320">
			<stop  offset="0" style="stop-color:#ADACAC"/>
			<stop  offset="1" style="stop-color:#605E5E"/>
		</linearGradient>
		<path class="st2" d="M426.5,25.351c20.9,0,38,17.1,38,38v513.299c0,20.9-17.1,38-38,38h-204c-20.9,0-38-17.1-38-38V63.351
			c0-20.9,17.1-38,38-38H426.5 M426.5,22.351h-204c-22.607,0-41,18.393-41,41v513.299c0,22.607,18.393,41,41,41h204
			c22.607,0,41-18.393,41-41V63.351C467.5,40.743,449.107,22.351,426.5,22.351L426.5,22.351z"/>
	</g>
</g>
<g id="Layer_3">
	<path class="st3" d="M346.5,60h-44c-1.1,0-2-0.9-2-2v0c0-1.1,0.9-2,2-2h44c1.1,0,2,0.9,2,2v0C348.5,59.1,347.6,60,346.5,60z"/>
	<circle class="st4" cx="277" cy="58" r="4"/>
	<linearGradient id="SVGID_2_" gradientUnits="userSpaceOnUse" x1="300.5" y1="581" x2="345.5" y2="581">
		<stop  offset="0.1333" style="stop-color:#727070"/>
		<stop  offset="0.6205" style="stop-color:#0D0D0D"/>
		<stop  offset="1" style="stop-color:#727070"/>
	</linearGradient>
	<circle class="st5" cx="323" cy="581" r="21"/>
	<rect x="197" y="92" class="st6" width="256" height="454"/>
</g>
</svg>
