<?xml version="1.0" encoding="utf-8"?>
<!-- Generator: Adobe Illustrator 20.1.0, SVG Export Plug-In . SVG Version: 6.00 Build 0)  -->
<svg version="1.1" id="Layer_1" xmlns="http://www.w3.org/2000/svg" xmlns:xlink="http://www.w3.org/1999/xlink" x="0px" y="0px"
	 viewBox="0 0 1280 320" style="enable-background:new 0 0 1280 320;" xml:space="preserve">
<style type="text/css">
	.st0{fill:url(#SVGID_1_);}
	.st1{fill:none;stroke:#3479B2;stroke-width:2;}
	.st2{fill:none;stroke:#FFFFFF;stroke-width:2;stroke-linecap:round;stroke-linejoin:round;}
	.st3{fill:none;stroke:#FFFFFF;stroke-width:2;}
	.st4{fill:#F89735;}
	.st5{fill:none;stroke:#FFFFFF;stroke-width:2;stroke-miterlimit:10;}
	.st6{fill:#FFFFFF;}
</style>
<g transform="matrix( 1, 0, 0, 1, 640.35,366.9) ">
	<g transform="matrix( 1, 0, 0, 1, 0,0) ">
		<g>
			<g id="BlueprintBack_16_Layer3_0_FILL">
				
					<radialGradient id="SVGID_1_" cx="-640.35" cy="155.1" r="734.3" gradientTransform="matrix(1 0 0 -0.4444 640 -137.9667)" gradientUnits="userSpaceOnUse">
					<stop  offset="0" style="stop-color:#236DA1"/>
					<stop  offset="0.8157" style="stop-color:#1B608E"/>
					<stop  offset="1" style="stop-color:#135177"/>
				</radialGradient>
				<path class="st0" d="M-640.3-366.9v320h1280v-320H-640.3z"/>
			</g>
		</g>
	</g>
	<g transform="matrix( 1, 0, 0, 1, -640.35,-366.9) ">
		<g>
			<path id="BlueprintBack_16_Layer2_0_1_STROKES" class="st1" d="M0.8,377.8v-30.4V317v-30.4v-30.4v-30.4v-30.4v-30.4v-30.4v-30.4
				V73.7V43.3V12.9v-30.4v-30.4 M1217.1-47.9h30.3 M1186.7-47.9h30.4v30.4h30.3v-30.4h30.4 M1125.8-47.9h30.4v30.4h30.4v-30.4h-30.4
				 M1280.8-47.9h-2.9v30.4h2.9 M1247.4-17.6h30.4v30.4h2.9 M1186.7-17.6h30.4v30.4h30.3v-30.4 M1095.4-47.9h30.4v30.4h30.4v30.4
				h30.4v-30.4 M1065-47.9h30.4v30.4h30.4v30.4h30.4v30.4h30.4V12.9h30.4v30.4h30.3V12.9h30.4v30.4h2.9 M1034.6-47.9h30.4v30.4h30.4
				v30.4h30.4v30.4h30.4v30.5h30.4V43.3h30.4v30.5h30.3V43.3h30.4v30.5h2.9 M1004.2-17.6v-30.4h-30.4v30.4H1004.2h30.4v-30.4h-30.4
				 M973.8-47.9h-30.4v30.4h30.4v30.4h30.4v-30.4 M1034.6-17.6h30.4v30.4h30.4v30.4h30.4v30.5h30.4v30.4h30.4V73.7h30.4v30.4h30.3
				V73.7h30.4v30.4h2.9 M1065,12.9v30.4h30.4v30.5h30.4v30.4h30.4v30.4h30.4v-30.4h30.4v30.4h30.3v-30.4h30.4v30.4h2.9 M1065,43.3
				v30.5h30.4v30.4h30.4v30.4h30.4v30.4h30.4v-30.4h30.4v30.4h30.3v-30.4h30.4v30.4h2.9 M1065,12.9h-30.4v30.4h30.4 M973.8,12.9
				v30.4h30.4V12.9h30.4v-30.4 M973.8,43.3v30.5h30.4V43.3h30.4v30.5h30.4v30.4h30.4v30.4h30.4v30.4h30.4v30.4h30.4v-30.4h30.4v30.4
				h30.3v-30.4h30.4v30.4h2.9 M1004.2,73.7h30.4v30.4h30.4v30.4h30.4v30.4h30.4v30.4h30.4v30.4h30.4v-30.4h30.4v30.4h30.3v-30.4
				h30.4v30.4h2.9 M1034.6,104.1v30.4h30.4v30.4h30.4v30.4h30.4v30.4h30.4v30.4h30.4v-30.4h30.4v30.4h30.3v-30.4h30.4v30.4h2.9
				 M1004.2,134.5v-30.4h-30.4v30.4H1004.2h30.4v30.4h30.4v30.4h30.4v30.4h30.4v30.4h30.4v30.4h30.4v-30.4h30.4v30.4h30.3v-30.4
				h30.4v30.4h2.9 M1004.2,195.3v-30.4h-30.4v30.4H1004.2h30.4v-30.4h-30.4v-30.4 M973.8,134.5v30.4h-30.4v30.4h30.4v30.4h30.4
				v-30.4 M1004.2,73.7v30.4h30.4 M973.8,73.7v30.4h-30.4v30.4h30.4 M1034.6,195.3h30.4v30.4h30.4v30.4h30.4v30.4h30.4V317h30.4
				v-30.4h30.4V317h30.3v-30.4h30.4V317h2.9 M943.4-47.9H913v30.4h30.5v30.4h30.4 M913-47.9h-30.4v30.4H913v30.4h30.5v30.4h30.4
				 M882.5-47.9h-30.4v30.4h30.4v30.4H913v30.4h30.5v30.5h30.4 M852.2-47.9h-30.4v30.4h30.4v30.4h30.4v30.4H913v30.5h30.5v30.4H913
				v30.4h30.5v30.4H913v30.4h30.5v30.4h30.4v30.4h30.4v-30.4h30.4v-30.4 M821.8-47.9h-30.4v30.4h30.4v30.4h30.4v30.4h30.4v30.5H913
				v30.4h-30.4v30.4H913v30.4h-30.4v30.4H913v30.4h30.5v30.4h30.4v30.4h30.4v-30.4h30.4v-30.4h30.4v30.4h30.4v30.4h30.4V317h30.4
				v30.4h30.4V317h30.4v30.4h30.3V317h30.4v30.4h2.9 M852.2-47.9 M791.3-47.9H761v30.4h30.4v30.4h30.4v30.4h30.4v30.5h30.4v30.4
				h-30.4v30.4h30.4v30.4h-30.4v30.4h30.4v30.4H913v30.4h30.5v30.4h30.4V317h30.4v-30.4h30.4v-30.4h30.4v30.4h30.4V317h30.4v30.4
				h30.4v30.4h30.4v-30.4h30.4v30.4h30.3v-30.4h30.4v30.4h2.9 M1247.4,377.8h30.4 M1186.7,377.8h30.4 M761-47.9h-30.5v30.4H761v30.4
				h30.4v30.4h30.4v30.5h30.4v30.4h-30.4v30.4h30.4v30.4h-30.4v30.4h30.4v30.4h30.4v30.4H913v30.4h30.5V317h30.4v30.4h30.4V317h30.4
				v-30.4h30.4V317h30.4v30.4h30.4v30.4h30.4 M730.5-47.9h-30.4v30.4h30.4v30.4H761v30.4h30.4v30.5h30.4v30.4h-30.4v30.4h30.4v30.4
				h-30.4v30.4h30.4v30.4h30.4v30.4h30.4v30.4H913V317h30.5v30.4h30.4v30.4h30.4v-30.4h30.4V317h30.4v30.4h30.4v30.4h30.4
				 M1004.2,377.8h30.4v-30.4h30.4v30.4h30.4 M700.1-47.9h-30.4v30.4h30.4v30.4h30.4v30.4H761v30.5h30.4v30.4H761v30.4h30.4v30.4
				H761v30.4h30.4v30.4h30.4v30.4h30.4v30.4h30.4V317H913v30.4h30.5v30.4h30.4 M1034.6,377.8h30.4 M669.7-47.9h-30.4v30.4h30.4v30.4
				h30.4v30.4h30.4v30.5H761v30.4h-30.5v30.4H761v30.4h-30.5v30.4H761v30.4h30.4v30.4h30.4v30.4h30.4V317h30.4v30.4H913v30.4h30.5
				 M669.7,12.9v30.4h30.4v30.5h30.4v30.4h-30.4v30.4h30.4v30.4h-30.4v30.4h30.4v30.4H761v30.4h30.4v30.4h30.4V317h30.4v30.4h30.4
				v30.4H913 M669.7,43.3v30.5h30.4v30.4h-30.4v30.4h30.4v30.4h-30.4v30.4h30.4v30.4h30.4v30.4H761v30.4h30.4V317h30.4v30.4h30.4
				v30.4h30.4 M669.7,134.5v30.4h-30.4v30.4h30.4v30.4h30.4v30.4h30.4v30.4H761V317h30.4v30.4h30.4v30.4h30.4 M669.7,73.7v30.4
				h-30.4v30.4h30.4 M669.7,256.1v30.4h30.4v-30.4H669.7v-30.4h-30.4v30.4H669.7z M669.7,347.3v30.4h30.4v-30.4H669.7V317h-30.4
				v30.4H669.7z M669.7,286.5V317h30.4v-30.4h30.4V317H761v30.4h30.4v30.4h30.4 M700.1,317v30.4h30.4V317H700.1z M761,377.8v-30.4
				h-30.5v30.4H761h30.4 M761,377.8 M700.1,377.8h30.4 M669.7,377.8 M700.1,377.8 M639.3-47.9h-30.4v30.4h30.4v30.4h30.4
				 M578.5-47.9h30.4 M548.1-47.9h30.4v30.4h30.4v30.4h30.4v30.4h30.4 M517.7-17.6v-30.4h-30.4v30.4H517.7h30.4v-30.4h-30.4
				 M487.3-47.9h-30.4v30.4h30.4v30.4h30.4v-30.4 M548.1-17.6h30.4v30.4h30.4v30.4h30.4v30.5h30.4 M456.9-47.9h-30.4v30.4h30.4v30.4
				h30.4v30.4h30.4V12.9h30.4v-30.4 M426.5-47.9H396v30.4h30.4v30.4h30.4v30.4h30.4v30.5h30.4V43.3h30.4V12.9h30.4v30.4h30.4v30.5
				h30.4v30.4h-30.4v30.4h30.4v30.4h-30.4v30.4h30.4v30.4h-30.4v30.4h30.4v30.4h30.4 M396-47.9h-30.4v30.4H396v30.4h30.4v30.4h30.4
				v30.5h30.4v30.4h30.4V73.7h30.4V43.3h30.4v30.5h30.4v30.4h-30.4v30.4h30.4v30.4h-30.4v30.4h30.4v30.4h-30.4v30.4h30.4v30.4h30.4
				V317h-30.4v30.4h30.4v30.4h30.4 M365.6-47.9h-30.4v30.4h30.4v30.4H396v30.4h30.4v30.5h30.4v30.4h30.4v30.4h30.4v-30.4h30.4V73.7
				h30.4v30.4h-30.4v30.4h30.4v30.4h-30.4v30.4h30.4v30.4h-30.4v30.4h30.4v30.4h30.4V317h-30.4v30.4h30.4v30.4h30.4 M335.2-47.9
				h-30.4v30.4h30.4v30.4h30.4v30.4H396v30.5h30.4v30.4h30.4v30.4h30.4v30.4h30.4v-30.4h30.4v30.4h-30.4v30.4h30.4v30.4h-30.4v30.4
				h30.4v30.4h30.4V317h-30.4v30.4h30.4v30.4h30.4 M365.6-47.9 M304.8-47.9h-30.4v30.4h30.4v30.4h30.4v30.4h30.4v30.5H396v30.4h30.4
				v30.4h30.4v30.4h30.4v30.4h30.4v30.4h-30.4v30.4h30.4v30.4h30.4V317h-30.4v30.4h30.4v30.4h30.4 M335.2,43.3v30.5h30.4v30.4H396
				v30.4h30.4v30.4h30.4v30.4h30.4v30.4h-30.4v30.4h30.4v30.4h30.4V317h-30.4v30.4h30.4v30.4h30.4 M365.6,104.1v30.4H396v30.4h30.4
				v30.4h30.4v30.4h-30.4v30.4h30.4v30.4h30.4V317h-30.4v30.4h30.4v30.4h30.4 M365.6,104.1h-30.4v30.4h30.4v30.4H396v30.4h30.4v30.4
				H396v30.4h30.4v30.4h30.4V317h-30.4v30.4h30.4v30.4h30.4 M335.2,164.9v30.4h30.4v-30.4H335.2v-30.4h-30.4v30.4H335.2z
				 M365.6,195.3H396v30.4h-30.4v30.4H396v30.4h30.4V317H396v30.4h30.4v30.4h30.4 M335.2,73.7v30.4h-30.4v30.4h-30.4v30.4h30.4v30.4
				h30.4v30.4h30.4v-30.4 M274.4-47.9H244v30.4h30.4v30.4h30.4v30.4h30.4 M244-47.9h-30.4v30.4H244v30.4h30.4v30.4h30.4v30.5h30.4
				 M213.6-47.9h-30.4v30.4h30.4v30.4H244v30.4h30.4v30.5h30.4v30.4h-30.4v30.4H244v30.4h30.4v30.4h30.4v30.4h30.4v30.4h30.4v30.4
				H396V317h-30.4v30.4H396v30.4h30.4 M183.2-47.9h-30.4v30.4h30.4v30.4h30.4v30.4H244v30.5h30.4v30.4H244v30.4h-30.4v30.4H244v30.4
				h30.4v30.4h30.4v30.4h30.4v30.4h30.4V317h-30.4v30.4h30.4v30.4H396 M152.8-47.9h-30.5v30.4h30.5v30.4h30.4v30.4h30.4v30.5H244
				v30.4h-30.4v30.4h-30.4v30.4h30.4v30.4H244v30.4h30.4v30.4h30.4v30.4h30.4V317h-30.4v30.4h30.4v30.4h30.4 M91.9-47.9h30.4
				 M61.5-47.9h30.4v30.4h30.4v30.4h30.5v30.4h30.4v30.5h30.4v30.4h-30.4v30.4h-30.4v30.4h30.4v30.4h30.4v30.4H244v30.4h30.4v30.4
				h30.4V317h-30.4v30.4h30.4v30.4h30.4 M31.1-47.9h30.4v30.4h30.4v30.4h30.4v30.4h30.5v30.5h30.4v30.4h-30.4v30.4h-30.5v30.4h30.5
				v30.4h30.4v30.4h30.4v30.4H244v30.4h30.4V317H244v30.4h30.4v30.4h30.4 M31.1-47.9v30.4h30.4v30.4h30.4v30.4h30.4v30.5h30.5v30.4
				h-30.5v30.4H91.9v30.4h30.4v30.4h30.5v30.4h30.4v30.4h30.4v30.4H244V317h-30.4v30.4H244v30.4h30.4 M0.8-47.9h30.4 M0.8-17.6h30.4
				v30.4h30.4v30.4h30.4v30.5h30.4v30.4H91.9v30.4H61.5v30.4h30.4v30.4h30.4v30.4h30.5v30.4h30.4v30.4h30.4V317h-30.4v30.4h30.4
				v30.4H244 M31.1,12.9v30.4h30.4v30.5h30.4v30.4H61.5v30.4H31.1v30.4h30.4v30.4h30.4v30.4h30.4v30.4h30.5v30.4h30.4V317h-30.4
				v30.4h30.4v30.4h30.4 M0.8,12.9h30.4 M0.8,43.3h30.4v30.5h30.4v30.4H31.1v30.4H0.8 M0.8,73.7h30.4v30.4H0.8 M31.1,164.9v30.4
				h30.4v30.4h30.4v30.4h30.4v30.4h30.5V317h-30.5v30.4h30.5v30.4h30.4 M0.8,164.9h30.4 M0.8,195.3h30.4v30.4h30.4v30.4h30.4v30.4
				h30.4V317H91.9v30.4h30.4v30.4h30.5 M0.8,225.7h30.4v30.4h30.4v30.4h30.4V317H61.5v30.4h30.4v30.4h30.4 M31.1,256.1v30.4h30.4
				V317H31.1v30.4h30.4v30.4h30.4 M0.8,256.1h30.4 M0.8,286.5h30.4V317H0.8 M31.1,347.3v30.4h30.4 M0.8,347.3h30.4 M0.8,377.8h30.4"
				/>
		</g>
	</g>
</g>
<g transform="matrix( 1, 0, 0, 1, 640,360) ">
	<g transform="matrix( 1, 0, 0, 1, 0,0) ">
		<g>
			<path id="GpuBlueprint_0_Layer0_0_1_STROKES" class="st2" d="M116.6-209.9c0,7-2.5,12.9-7.4,17.8s-10.9,7.4-17.8,7.4
				c-7,0-12.9-2.5-17.9-7.4c-4.9-4.9-7.4-10.9-7.4-17.8c0-7,2.5-12.9,7.4-17.9c4.9-4.9,10.9-7.4,17.9-7.4c7,0,12.9,2.5,17.8,7.4
				S116.6-216.9,116.6-209.9z"/>
		</g>
	</g>
	<g transform="matrix( 1, 0, 0, 1, -242.95,-152) ">
		<g>
			<path id="GpuBlueprint_0_Layer0_1_1_STROKES" class="st3" d="M440-26l8-32l-6-30l2-4l-10-26l8-12H332l-76-2l-108,2h-24l-82-2
				l-4,8V8l4,8l20-0.5V28h2V18h28v10h12V18h6v18h16V24h4v12h106V22h4v10h18l2-4v-4h-8v-5.8L402,20v-3.3l40-0.7l-8-12l10-26L440-26z"
				/>
		</g>
	</g>
	<g transform="matrix( 1, 0, 0, 1, -242.95,-152) ">
		<g>
			<path id="GpuBlueprint_0_Layer0_2_1_STROKES" class="st3" d="M110,26v10h16V26H110z"/>
		</g>
	</g>
	<g transform="matrix( 1, 0, 0, 1, -242.95,-152) ">
		<g>
			<g id="GpuBlueprint_0_Layer0_3_FILL">
				<path class="st4" d="M104,26H92v2h12V26z"/>
			</g>
		</g>
		<g>
			<path id="GpuBlueprint_0_Layer0_3_1_STROKES" class="st3" d="M92,26v2h12v-2H92z"/>
		</g>
	</g>
	<g transform="matrix( 1, 0, 0, 1, -242.95,-152) ">
		<g>
			<path id="GpuBlueprint_0_Layer0_4_1_STROKES" class="st3" d="M240,26v6h18l2-4v-2H240z"/>
		</g>
	</g>
	<g transform="matrix( 1, 0, 0, 1, -242.95,-152) ">
		<g>
			<path id="GpuBlueprint_0_Layer0_5_1_STROKES" class="st3" d="M130,26v10h106V26H130z"/>
		</g>
	</g>
	<g transform="matrix( 1, 0, 0, 1, 0,0) ">
		<g>
			<path id="GpuBlueprint_0_Layer0_6_1_STROKES" class="st3" d="M-131-166l136.1-2l-4-42L9-244l-139.9-10l5.9-18l30.1-10L13-284
				l76.1,2H199l-8,12l10,26l-2,4l6,30l-8,32l4,4l-10,26l8,12l-111.9,2l-76-2l0.1,0L-97-138h-22l-81.9,2l-4.1-8v-4l0.1,0l-0.1-128
				l4.1-8l81.9,2h22l-38,8l-7.6,17.2l11.6,2.8l-9.9,2l-8.3-2.6l-7.8,44.6l7.8,44.6l8.3-2.6L-131-166l6,18l28,10l-38-8l-7.6-17.2
				L-131-166z M91-146l40-18l26.1-46l-22-44l-44-18l-46,18l-22,43.9l0,0.1l21.3,46.6L91-146z"/>
		</g>
	</g>
	<g transform="matrix( 1, 0, 0, 1, -242.95,-152) ">
		<g>
			<path id="GpuBlueprint_0_Layer0_7_1_STROKES" class="st5" d="M386-58c0-14.4-5.1-26.6-15.3-36.8C360.6-104.9,348.4-110,334-110
				s-26.6,5.1-36.8,15.2C287.1-84.6,282-72.4,282-58s5.1,26.6,15.2,36.8C307.4-11.1,319.6-6,334-6s26.6-5.1,36.8-15.3
				C380.9-31.4,386-43.6,386-58z"/>
		</g>
	</g>
	<g transform="matrix( 1, 0, 0, 1, 42.5,-58) ">
		<g>
			<g id="GpuBlueprint_0_Layer0_8_FILL">
				<path class="st6" d="M50.1-104.1l-0.5-12l-1.7,0.1v12L50.1-104.1z"/>
			</g>
		</g>
	</g>
	<g transform="matrix( 1, 0, 0, 1, 42.5,-58) ">
		<g>
			<g id="GpuBlueprint_0_Layer0_9_FILL">
				<path class="st6" d="M43.3-104.3l1.2-11.9l-1.7-0.2L41-104.6L43.3-104.3z"/>
			</g>
		</g>
	</g>
	<g transform="matrix( 1, 0, 0, 1, 42.5,-58) ">
		<g>
			<g id="GpuBlueprint_0_Layer0_10_FILL">
				<path class="st6" d="M54.7-104.5l2.3-0.3l-2.3-11.8l-1.7,0.3L54.7-104.5z"/>
			</g>
		</g>
	</g>
	<g transform="matrix( 1, 0, 0, 1, 42.5,-58) ">
		<g>
			<g id="GpuBlueprint_0_Layer0_11_FILL">
				<path class="st6" d="M36.5-105.4l2.9-11.7l-1.7-0.4L34.3-106L36.5-105.4z"/>
			</g>
		</g>
	</g>
	<g transform="matrix( 1, 0, 0, 1, 42.5,-58) ">
		<g>
			<g id="GpuBlueprint_0_Layer0_12_FILL">
				<path class="st6" d="M61.3-105.9l2.2-0.7l-3.8-11.3l-1.7,0.5L61.3-105.9z"/>
			</g>
		</g>
	</g>
	<g transform="matrix( 1, 0, 0, 1, 42.5,-58) ">
		<g>
			<g id="GpuBlueprint_0_Layer0_13_FILL">
				<path class="st6" d="M30-107.5l4.5-11.2l-1.6-0.7l-5,10.9L30-107.5z"/>
			</g>
		</g>
	</g>
	<g transform="matrix( 1, 0, 0, 1, 42.5,-58) ">
		<g>
			<g id="GpuBlueprint_0_Layer0_14_FILL">
				<path class="st6" d="M67.8-108.3l2.1-0.9l-5.5-10.7l-1.5,0.8L67.8-108.3z"/>
			</g>
		</g>
	</g>
	<g transform="matrix( 1, 0, 0, 1, 42.5,-58) ">
		<g>
			<g id="GpuBlueprint_0_Layer0_15_FILL">
				<path class="st6" d="M23.9-110.5l6-10.4l-1.4-0.9l-6.6,10.1L23.9-110.5z"/>
			</g>
		</g>
	</g>
	<g transform="matrix( 1, 0, 0, 1, 42.5,-58) ">
		<g>
			<g id="GpuBlueprint_0_Layer0_16_FILL">
				<path class="st6" d="M73.8-111.6l1.9-1.3l-6.9-9.8l-1.4,0.9L73.8-111.6z"/>
			</g>
		</g>
	</g>
	<g transform="matrix( 1, 0, 0, 1, 42.5,-58) ">
		<g>
			<g id="GpuBlueprint_0_Layer0_17_FILL">
				<path class="st6" d="M18.2-114.4l7.4-9.4c-0.6-0.5-1-0.8-1.3-1.1l-7.9,9.1L18.2-114.4z"/>
			</g>
		</g>
	</g>
	<g transform="matrix( 1, 0, 0, 1, 42.5,-58) ">
		<g>
			<g id="GpuBlueprint_0_Layer0_18_FILL">
				<path class="st6" d="M79.3-115.7l1.6-1.5l-8.3-8.8l-1.3,1.2L79.3-115.7z"/>
			</g>
		</g>
	</g>
	<g transform="matrix( 1, 0, 0, 1, 42.5,-58) ">
		<g>
			<g id="GpuBlueprint_0_Layer0_19_FILL">
				<path class="st6" d="M13.1-119l8.7-8.3l-1.1-1.3l-9.1,7.8L13.1-119z"/>
			</g>
		</g>
	</g>
	<g transform="matrix( 1, 0, 0, 1, 42.5,-58) ">
		<g>
			<g id="GpuBlueprint_0_Layer0_20_FILL">
				<path class="st6" d="M84.2-120.4l1.4-1.8l-9.4-7.4l-1.1,1.3L84.2-120.4z"/>
			</g>
		</g>
	</g>
	<g transform="matrix( 1, 0, 0, 1, 42.5,-58) ">
		<g>
			<g id="GpuBlueprint_0_Layer0_21_FILL">
				<path class="st6" d="M8.8-124.3l9.8-6.9l-1-1.4l-10.1,6.5L8.8-124.3z"/>
			</g>
		</g>
	</g>
	<g transform="matrix( 1, 0, 0, 1, 42.5,-58) ">
		<g>
			<g id="GpuBlueprint_0_Layer0_22_FILL">
				<path class="st6" d="M88.3-125.9l1.2-1.9l-10.3-6l-0.9,1.4L88.3-125.9z"/>
			</g>
		</g>
	</g>
	<g transform="matrix( 1, 0, 0, 1, 42.5,-58) ">
		<g>
			<g id="GpuBlueprint_0_Layer0_23_FILL">
				<path class="st6" d="M4.3-132.2l1,2.1l10.7-5.5c-0.3-0.4-0.5-0.9-0.8-1.5L4.3-132.2z"/>
			</g>
		</g>
	</g>
	<g transform="matrix( 1, 0, 0, 1, 42.5,-58) ">
		<g>
			<g id="GpuBlueprint_0_Layer0_24_FILL">
				<path class="st6" d="M91.6-131.9l0.9-2.1l-11.1-4.5l-0.7,1.6L91.6-131.9z"/>
			</g>
		</g>
	</g>
	<g transform="matrix( 1, 0, 0, 1, 42.5,-58) ">
		<g>
			<g id="GpuBlueprint_0_Layer0_25_FILL">
				<path class="st6" d="M1.9-138.6l0.6,2.2l11.3-3.9l-0.5-1.6L1.9-138.6z"/>
			</g>
		</g>
	</g>
	<g transform="matrix( 1, 0, 0, 1, 42.5,-58) ">
		<g>
			<g id="GpuBlueprint_0_Layer0_26_FILL">
				<path class="st6" d="M94-138.3l0.6-2.2l-11.7-2.9l-0.4,1.6L94-138.3z"/>
			</g>
		</g>
	</g>
	<g transform="matrix( 1, 0, 0, 1, 42.5,-58) ">
		<g>
			<g id="GpuBlueprint_0_Layer0_27_FILL">
				<path class="st6" d="M0.8-143.1l11.8-2.3l-0.3-1.7l-11.9,1.7L0.8-143.1z"/>
			</g>
		</g>
	</g>
	<g transform="matrix( 1, 0, 0, 1, 42.5,-58) ">
		<g>
			<g id="GpuBlueprint_0_Layer0_28_FILL">
				<path class="st6" d="M95.4-145l0.3-2.3l-11.9-1.2l-0.2,1.7L95.4-145z"/>
			</g>
		</g>
	</g>
	<g transform="matrix( 1, 0, 0, 1, 42.5,-58) ">
		<g>
			<g id="GpuBlueprint_0_Layer0_29_FILL">
				<path class="st6" d="M12-152.1L0-152v2.1l12-0.5V-152.1z"/>
			</g>
		</g>
	</g>
	<g transform="matrix( 1, 0, 0, 1, 42.5,-58) ">
		<g>
			<g id="GpuBlueprint_0_Layer0_30_FILL">
				<path class="st6" d="M83.9-151.9L96-152l-0.1-2.3l-12,0.6l0.1,1.6L83.9-151.9z"/>
			</g>
		</g>
	</g>
	<g transform="matrix( 1, 0, 0, 1, 42.5,-58) ">
		<g>
			<g id="GpuBlueprint_0_Layer0_31_FILL">
				<path class="st6" d="M12.1-155.6l0.2-1.7l-11.9-1.7l-0.2,2.3L12.1-155.6z"/>
			</g>
		</g>
	</g>
	<g transform="matrix( 1, 0, 0, 1, 42.5,-58) ">
		<g>
			<g id="GpuBlueprint_0_Layer0_32_FILL">
				<path class="st6" d="M83.6-157.1l11.9-1.7l-0.4-2.3l-11.8,2.3L83.6-157.1z"/>
			</g>
		</g>
	</g>
	<g transform="matrix( 1, 0, 0, 1, 42.5,-58) ">
		<g>
			<g id="GpuBlueprint_0_Layer0_33_FILL">
				<path class="st6" d="M13-160.6l0.4-1.6L2-165.6c-0.3,0.8-0.5,1.5-0.6,2.2L13-160.6z"/>
			</g>
		</g>
	</g>
	<g transform="matrix( 1, 0, 0, 1, 42.5,-58) ">
		<g>
			<g id="GpuBlueprint_0_Layer0_34_FILL">
				<path class="st6" d="M93.3-167.8L82-163.8l0.6,1.7l11.5-3.4L93.3-167.8z"/>
			</g>
		</g>
	</g>
	<g transform="matrix( 1, 0, 0, 1, 42.5,-58) ">
		<g>
			<g id="GpuBlueprint_0_Layer0_35_FILL">
				<path class="st6" d="M14.6-165.4l0.7-1.6l-10.9-5l-0.9,2.1L14.6-165.4z"/>
			</g>
		</g>
	</g>
	<g transform="matrix( 1, 0, 0, 1, 42.5,-58) ">
		<g>
			<g id="GpuBlueprint_0_Layer0_36_FILL">
				<path class="st6" d="M91.7-171.9l-1-2.1L80-168.5l0.8,1.6L91.7-171.9z"/>
			</g>
		</g>
	</g>
	<g transform="matrix( 1, 0, 0, 1, 42.5,-58) ">
		<g>
			<g id="GpuBlueprint_0_Layer0_37_FILL">
				<path class="st6" d="M16.8-170.1l0.9-1.5l-10.1-6.5l-1.2,1.9L16.8-170.1z"/>
			</g>
		</g>
	</g>
	<g transform="matrix( 1, 0, 0, 1, 42.5,-58) ">
		<g>
			<g id="GpuBlueprint_0_Layer0_38_FILL">
				<path class="st6" d="M88.3-177.9l-1.3-1.9l-9.8,7l1,1.4L88.3-177.9z"/>
			</g>
		</g>
	</g>
	<g transform="matrix( 1, 0, 0, 1, 42.5,-58) ">
		<g>
			<g id="GpuBlueprint_0_Layer0_39_FILL">
				<path class="st6" d="M19.7-174.3l1.1-1.3l-9-7.9l-1.4,1.8L19.7-174.3z"/>
			</g>
		</g>
	</g>
	<g transform="matrix( 1, 0, 0, 1, 42.5,-58) ">
		<g>
			<g id="GpuBlueprint_0_Layer0_40_FILL">
				<path class="st6" d="M84.3-183.4l-1.5-1.7l-8.7,8.3l1.1,1.3L84.3-183.4z"/>
			</g>
		</g>
	</g>
	<g transform="matrix( 1, 0, 0, 1, 42.5,-58) ">
		<g>
			<g id="GpuBlueprint_0_Layer0_41_FILL">
				<path class="st6" d="M23.1-178.1l1.3-1.1l-7.9-9.1l-1.7,1.6L23.1-178.1z"/>
			</g>
		</g>
	</g>
	<g transform="matrix( 1, 0, 0, 1, 42.5,-58) ">
		<g>
			<g id="GpuBlueprint_0_Layer0_42_FILL">
				<path class="st6" d="M71.6-179.2l7.8-9.1l-1.8-1.4l-7.4,9.4L71.6-179.2z"/>
			</g>
		</g>
	</g>
	<g transform="matrix( 1, 0, 0, 1, 42.5,-58) ">
		<g>
			<g id="GpuBlueprint_0_Layer0_43_FILL">
				<path class="st6" d="M27.1-181.4l1.4-1l-6.4-10.1l-1.9,1.3L27.1-181.4z"/>
			</g>
		</g>
	</g>
	<g transform="matrix( 1, 0, 0, 1, 42.5,-58) ">
		<g>
			<g id="GpuBlueprint_0_Layer0_44_FILL">
				<path class="st6" d="M67.4-182.3l6.5-10.1l-1.9-1.2l-6,10.4L67.4-182.3z"/>
			</g>
		</g>
	</g>
	<g transform="matrix( 1, 0, 0, 1, 42.5,-58) ">
		<g>
			<g id="GpuBlueprint_0_Layer0_45_FILL">
				<path class="st6" d="M31.5-184.1l1.5-0.8l-4.9-10.9l-2.1,1L31.5-184.1z"/>
			</g>
		</g>
	</g>
	<g transform="matrix( 1, 0, 0, 1, 42.5,-58) ">
		<g>
			<g id="GpuBlueprint_0_Layer0_46_FILL">
				<path class="st6" d="M63-184.8l5-10.9l-2.1-0.9l-4.4,11.2L63-184.8z"/>
			</g>
		</g>
	</g>
	<g transform="matrix( 1, 0, 0, 1, 42.5,-58) ">
		<g>
			<g id="GpuBlueprint_0_Layer0_47_FILL">
				<path class="st6" d="M34.5-198.1l-2.2,0.7l3.9,11.3l1.6-0.6L34.5-198.1z"/>
			</g>
		</g>
	</g>
	<g transform="matrix( 1, 0, 0, 1, 42.5,-58) ">
		<g>
			<g id="GpuBlueprint_0_Layer0_48_FILL">
				<path class="st6" d="M58.2-186.6l3.4-11.6l-2.2-0.5L56.5-187C57.1-186.9,57.6-186.8,58.2-186.6z"/>
			</g>
		</g>
	</g>
	<g transform="matrix( 1, 0, 0, 1, 42.5,-58) ">
		<g>
			<g id="GpuBlueprint_0_Layer0_49_FILL">
				<path class="st6" d="M41.2-187.4l1.7-0.3l-1.7-11.9l-2.3,0.4L41.2-187.4z"/>
			</g>
		</g>
	</g>
	<g transform="matrix( 1, 0, 0, 1, 42.5,-58) ">
		<g>
			<g id="GpuBlueprint_0_Layer0_50_FILL">
				<path class="st6" d="M53.2-187.6l1.7-11.9l-2.3-0.3l-1.1,11.9L53.2-187.6z"/>
			</g>
		</g>
	</g>
	<g transform="matrix( 1, 0, 0, 1, 42.5,-58) ">
		<g>
			<g id="GpuBlueprint_0_Layer0_51_FILL">
				<path class="st6" d="M46.3-188H48v-12l-2.3,0.1L46.3-188z"/>
			</g>
		</g>
	</g>
</g>
</svg>
