<?xml version="1.0" encoding="utf-8"?>
<!-- Generator: Adobe Illustrator 21.0.2, SVG Export Plug-In . SVG Version: 6.00 Build 0)  -->
<svg version="1.1" xmlns="http://www.w3.org/2000/svg" xmlns:xlink="http://www.w3.org/1999/xlink" x="0px" y="0px"
	 viewBox="0 0 1280 720" style="enable-background:new 0 0 1280 720;" xml:space="preserve">
<style type="text/css">
	.st0{fill:#1E1E1E;stroke:url(#SVGID_1_);stroke-width:3;stroke-miterlimit:10;}
	.st1{fill:#1A1A1A;}
	.st2{fill:#636363;}
	.st3{fill:#292A2C;}
	.st4{fill:#B3B3B3;}
</style>
<g id="Layer_2">
	
		<linearGradient id="SVGID_1_" gradientUnits="userSpaceOnUse" x1="400.25" y1="359.5" x2="892.75" y2="359.5" gradientTransform="matrix(6.123234e-17 -1 1 6.123234e-17 280.5 1000.5)">
		<stop  offset="0" style="stop-color:#E0E0E0"/>
		<stop  offset="1" style="stop-color:#828282"/>
	</linearGradient>
	<path class="st0" d="M990,133.25v441.5c0,13.2-10.8,24-24,24H314c-13.2,0-24-10.8-24-24v-441.5c0-13.2,10.8-24,24-24h652
		C979.2,109.25,990,120.05,990,133.25z"/>
	<path d="M985,137v418c0,6.6-5.4,12-12,12H307c-6.6,0-12-5.4-12-12V137c0-13.2,10.8-24,24-24h642C974.2,113,985,123.8,985,137z"/>
</g>
<g id="Layer_3">
	<rect x="314.5" y="139.5" class="st1" width="654" height="410"/>
	<circle class="st2" cx="641" cy="127" r="4"/>
	<rect x="364" y="569" class="st3" width="550" height="9"/>
	<path class="st4" d="M1056.5,605h-833c-7.456,0-13.5-6.044-13.5-13.5l0,0V578h860v13.5l0,0C1070,598.956,1063.956,605,1056.5,605z"
		/>
</g>
</svg>
