<?xml version="1.0" encoding="utf-8"?>
<!-- Generator: Adobe Illustrator 21.0.2, SVG Export Plug-In . SVG Version: 6.00 Build 0)  -->
<svg version="1.1" xmlns="http://www.w3.org/2000/svg" xmlns:xlink="http://www.w3.org/1999/xlink" x="0px" y="0px"
	 viewBox="0 0 640 1024" style="enable-background:new 0 0 640 1024;" xml:space="preserve">
<style type="text/css">
	.st0{fill:#BFC2C7;}
	.st1{fill:#1C1C1C;}
	.st2{fill:url(#SVGID_1_);}
	.st3{fill:#333333;}
	.st4{fill:#171717;}
	.st5{fill:#2D2D2D;}
	.st6{fill:none;stroke:#171717;stroke-width:2;stroke-miterlimit:10;}
</style>
<g id="Layer_4">
	<polygon class="st0" points="539.25,357.465 549.25,353 549.25,417 539.25,411.047 	"/>
	<polygon class="st0" points="539.25,454.151 549.25,445.5 549.25,569.5 539.25,557.965 	"/>
</g>
<g id="Layer_2">
	<g>
		<path class="st1" d="M489.25,976.5h-341.5c-29.7,0-54-24.3-54-54v-821c0-29.7,24.3-54,54-54h341.5c29.7,0,54,24.3,54,54v821
			C543.25,952.2,518.95,976.5,489.25,976.5z"/>
		<linearGradient id="SVGID_1_" gradientUnits="userSpaceOnUse" x1="90.75" y1="512" x2="546.25" y2="512">
			<stop  offset="0" style="stop-color:#C9C9C9"/>
			<stop  offset="1" style="stop-color:#7D7D7D"/>
		</linearGradient>
		<path class="st2" d="M489.25,47.5c29.7,0,54,24.3,54,54v821c0,29.7-24.3,54-54,54h-341.5c-29.7,0-54-24.3-54-54v-821
			c0-29.7,24.3-54,54-54H489.25 M489.25,44.5h-341.5c-31.43,0-57,25.57-57,57v821c0,31.43,25.57,57,57,57h341.5
			c31.43,0,57-25.57,57-57v-821C546.25,70.07,520.68,44.5,489.25,44.5L489.25,44.5z"/>
	</g>
	<rect x="110.25" y="142.5" class="st3" width="418" height="746.794"/>
</g>
<g id="Layer_3">
	<path class="st4" d="M390.25,96.5h-148c-3.3,0-6-2.7-6-6v0c0-3.3,2.7-6,6-6h148c3.3,0,6,2.7,6,6v0
		C396.25,93.8,393.55,96.5,390.25,96.5z"/>
	<circle class="st5" cx="182.25" cy="90.5" r="6"/>
	<path class="st6" d="M390.25,943.5h-148c-3.3,0-6-2.7-6-6l0,0c0-3.3,2.7-6,6-6h148c3.3,0,6,2.7,6,6l0,0
		C396.25,940.8,393.55,943.5,390.25,943.5z"/>
</g>
</svg>
