<?xml version="1.0" encoding="utf-8"?>
<!-- Generator: Adobe Illustrator 21.0.2, SVG Export Plug-In . SVG Version: 6.00 Build 0)  -->
<svg version="1.1" xmlns="http://www.w3.org/2000/svg" xmlns:xlink="http://www.w3.org/1999/xlink" x="0px" y="0px"
	 viewBox="0 0 640 360" style="enable-background:new 0 0 640 360;" xml:space="preserve">
<style type="text/css">
	.st0{fill:#303030;}
	.st1{fill:#4F4F4F;}
	.st2{fill:#25262A;}
	.st3{fill:#242D2A;}
	.st4{fill:#FF6054;}
	.st5{fill:#1D2226;}
	.st6{fill:none;stroke:#444444;stroke-width:4;stroke-miterlimit:10;}
	.st7{fill:#01BEDE;}
</style>
<g id="tablet">
	<g>
		<path class="st0" d="M529,74c-4.418,0-8-3.582-8-8c0-0.339,0.028-0.672,0.069-1H320H118.931c0.041,0.328,0.069,0.661,0.069,1
			c0,4.418-3.582,8-8,8c-0.339,0-0.672-0.028-1-0.069V305h210h210V73.931C529.672,73.972,529.339,74,529,74z"/>
		<polygon class="st1" points="167,65 167,61 179,61 181,63 188,63 191,61 202,61 202,65 		"/>
		<path d="M508,296H133c-4.4,0-8-3.6-8-8V80c0-4.4,3.6-8,8-8h375c4.4,0,8,3.6,8,8v208C516,292.4,512.4,296,508,296z"/>
		<rect x="153" y="90" class="st2" width="335" height="188"/>
	</g>
</g>
<g id="controllers">
	<g id="red">
		<path class="st3" d="M544,61h16.5c21.688,0,40.235,14.136,46.882,33.65L544,95L544,61z"/>
		<path class="st3" d="M609,110.5"/>
		<path class="st4" d="M530,305h29c26.4,0,48-21.6,48-48V113c0-26.4-21.6-48-48-48h-29V305z"/>
		<circle class="st5" cx="584" cy="124" r="8"/>
		<circle class="st5" cx="565" cy="192" r="19"/>
		<circle class="st5" cx="552" cy="237" r="9"/>
		<line class="st6" x1="535" y1="87" x2="547" y2="87"/>
		<line class="st6" x1="541" y1="81" x2="541" y2="93"/>
		<circle class="st5" cx="565" cy="106" r="8"/>
		<circle class="st5" cx="546" cy="124" r="8"/>
		<circle class="st5" cx="565" cy="142" r="8"/>
	</g>
	<g id="blue">
		<path class="st3" d="M96,61H79.5c-21.688,0-40.235,14.136-46.882,33.65L96,95L96,61z"/>
		<path class="st3" d="M31,110.5"/>
		<path class="st7" d="M110,305H81c-26.4,0-48-21.6-48-48V113c0-26.4,21.6-48,48-48h29V305z"/>
		<circle class="st5" cx="94" cy="185" r="8"/>
		<circle class="st5" cx="75" cy="117" r="19"/>
		<line class="st6" x1="105" y1="87" x2="93" y2="87"/>
		<circle class="st5" cx="75" cy="203" r="8"/>
		<circle class="st5" cx="56" cy="185" r="8"/>
		<circle class="st5" cx="75" cy="167" r="8"/>
		<rect x="80" y="229" class="st5" width="16" height="16"/>
	</g>
</g>
</svg>
